<svg width="131" height="177" viewBox="0 0 131 177" fill="none" xmlns="http://www.w3.org/2000/svg">
<path fill-rule="evenodd" clip-rule="evenodd" d="M63.9151 68.8439C71.59 65.5352 77.2585 68.1039 79.1035 72.1111C80.5634 75.2821 80.5921 81.9908 83.4476 84.6488C97.347 94.9202 100.378 112.817 103.215 128.818C104.487 136.545 105.295 144.347 105.622 152.171C105.652 152.889 104.969 153.58 104.249 153.547C83.7192 152.553 63.1473 152.628 42.6185 153.517C41.4071 153.526 40.179 153.414 39.0354 152.983C37.4241 153.616 36.4039 151.67 36.4447 150.323C36.308 149.43 35.4144 148.811 34.7638 148.24C33.2238 146.961 31.9785 145.492 31.1302 143.662C29.9162 141.182 29.7496 138.453 28.6686 135.965C28.1783 134.528 27.9908 133.028 27.7588 131.537C27.1545 130.041 26.964 128.437 26.8989 126.848C24.6208 125.414 25.729 121.899 25.9383 119.684C26.2955 117.112 26.6758 114.541 27.1406 111.986C29.8589 94.4094 42.2367 84.3692 59.2363 80.8257C62.65 78.6483 62.65 69.3893 63.9151 68.8439Z" fill="#EEC1A2"/>
<path fill-rule="evenodd" clip-rule="evenodd" d="M74.0873 96.0497L74.2116 96.1963L74.3376 96.3421C75.2247 97.3585 76.2126 98.2857 77.2207 99.189L77.5092 99.4466L77.7868 99.6929L79.2014 100.944L79.8322 101.496C81.096 102.599 82.3724 103.688 83.6367 104.789C86.9591 107.68 90.2755 110.576 93.5736 113.494C95.3137 115.033 97.0493 116.58 98.7755 118.137C98.3857 118.117 97.9937 118.166 97.5981 118.17C96.9604 118.175 96.3216 118.137 95.6898 118.053C95.4676 118.023 95.2459 117.987 95.025 117.946L94.8596 117.915L94.6946 117.882L94.69 117.851L94.6877 117.843C94.6794 117.824 94.6534 117.829 94.6421 117.845L94.6386 117.851L94.6369 117.858L94.6358 117.869L94.4711 117.833C93.7583 117.675 93.0558 117.469 92.3651 117.238C90.3055 116.546 88.3037 115.655 86.3651 114.676C82.5942 112.773 79.0459 110.437 75.7894 107.748C74.0102 106.278 72.3103 104.695 70.6474 103.095C70.7709 102.747 70.8862 102.402 71.0095 102.08C71.2904 101.347 71.5619 100.608 71.8294 99.8693L71.9895 99.4257L72.1683 98.9279L72.2066 98.8181L72.3741 98.3248C72.6084 97.6428 72.8821 96.9553 73.4404 96.4929C73.5749 96.3821 73.7182 96.2836 73.865 96.1892L73.9387 96.1423L74.0873 96.0497ZM54.1849 84.656C54.7545 83.6679 55.8427 83.8878 56.7969 84.2197L56.8305 84.2314L56.9638 84.2792L57.0962 84.3281L57.4956 84.4793L57.6759 84.5488C58.6301 84.9244 59.5345 85.4039 60.4595 85.8424L60.6448 85.9295L60.4429 86.0184L60.3077 86.0787L60.1725 86.1399C59.1577 86.6027 58.1442 87.1554 57.4736 88.0367C57.3176 87.8666 57.0792 87.762 56.8471 87.6766L56.8037 87.6608L56.6045 87.5903L55.9058 87.3353L54.5861 86.8555L54.5615 86.847C54.3381 86.7727 53.849 86.6874 53.6948 86.5184C53.6182 86.4358 53.6151 86.3294 53.6284 86.221L53.6315 86.1977L53.6464 86.105L53.6576 86.0411L53.671 85.9736C53.7649 85.5225 53.96 85.0452 54.1849 84.656Z" fill="#F32020"/>
<path fill-rule="evenodd" clip-rule="evenodd" d="M61.4845 76.6992L61.5613 76.4872C62.0261 75.201 62.5956 75.1052 62.3212 76.3521L62.2797 76.54C62.042 77.6069 61.7576 78.7094 61.1751 79.6428C60.1706 81.2524 57.539 81.8492 55.784 82.4218C55.7896 82.4623 55.7896 82.5028 55.785 82.5409C56.8575 82.7049 57.9588 83.222 58.8571 83.8017C59.6793 84.3339 60.4219 84.9308 60.9754 85.724L63.6832 84.5463C64.5769 84.1584 65.4774 83.6966 66.4484 83.5407C67.8172 83.3213 69.9275 84.0556 69.7662 85.7842C69.7453 86.0173 69.5988 86.1905 69.4191 86.2759C69.5562 86.2645 69.6947 86.2608 69.8318 86.2655C70.7474 86.2967 72.0413 87.1084 71.5628 88.1787C71.4404 88.4545 71.0877 88.2734 71.0599 88.0425C70.8789 86.5243 69.3117 86.8811 68.2244 87.1292C67.2406 87.3532 66.2686 87.628 65.3172 87.9638C64.3 88.323 63.3164 88.7803 62.4088 89.3679C61.4726 89.9751 60.5973 90.7119 60.655 91.9242C60.6572 91.9496 60.6169 91.9623 60.6053 91.938C60.1221 90.9059 61.0631 89.8171 61.8278 89.2225C62.9347 88.3624 64.2309 87.7434 65.5408 87.2608C66.2144 87.0131 66.9088 86.8182 67.6057 86.6456L67.7666 86.6061C68.1759 86.5068 68.6002 86.3925 69.0269 86.3233C68.8692 86.2846 68.7316 86.17 68.6703 85.9629L68.6625 85.934C68.0467 83.4922 64.7463 85.4563 63.4099 86.0462C62.4538 86.4676 61.4863 86.8717 60.5408 87.3185L60.419 87.3767C59.6859 87.7289 58.922 88.145 58.4292 88.808C57.1654 90.5052 58.3001 92.7971 58.6991 94.589C58.8132 95.1028 58.9228 95.6478 58.9297 96.1756C58.9353 96.6075 58.803 97.0148 58.6959 97.4304L58.6335 97.6753C58.6887 97.6765 58.7452 97.7343 58.7268 97.793C58.2783 99.2594 57.5194 100.65 56.7802 101.987C56.026 103.351 55.25 104.709 54.4174 106.026C51.456 110.712 48.0657 115.135 44.3467 119.242C42.5639 121.211 40.6358 123.048 38.8957 125.055C38.0862 125.99 37.3287 126.969 36.6966 128.035C36.3553 128.612 36.0485 129.21 35.7902 129.83L35.7392 129.952C35.5275 130.459 35.3194 130.906 34.9254 131.311C34.7294 131.513 34.3372 131.428 34.275 131.139C33.9855 129.781 34.9451 128.315 35.6416 127.206C36.3933 126.01 37.2721 124.895 38.2061 123.836C38.4702 123.536 38.7389 123.241 39.011 122.948C37.7934 123.283 36.511 123.372 35.2702 123.591C33.9994 123.815 32.7366 124.082 31.5052 124.47C30.3738 124.826 29.2967 125.296 28.2671 125.884C27.7734 126.167 27.2903 126.478 26.8383 126.825C26.7955 126.858 26.754 126.892 26.7125 126.926C27.4505 128.783 28.0179 130.708 28.6106 132.612C29.0153 133.914 29.4108 135.219 29.8038 136.525L30.6863 139.464C31.323 141.582 31.8533 143.887 32.9755 145.814C33.4598 146.645 34.1147 147.397 34.8642 148C35.2276 148.293 35.6231 148.516 36.0335 148.732C36.2919 148.868 36.5202 149.045 36.76 149.206C36.9179 149.026 37.1574 148.914 37.4514 148.961L37.4842 148.967C38.4125 149.15 39.3698 148.821 40.1953 148.414C41.0556 147.989 41.9125 147.49 42.6401 146.862C44.0711 145.626 45.2577 144.084 46.4145 142.597C50.5381 137.291 54.0496 131.478 56.9117 125.398C58.3658 122.306 59.7232 119.162 60.9985 115.992C61.6363 114.408 62.2647 112.82 62.877 111.226L62.9578 111.012C63.5064 109.549 63.9867 107.961 64.8685 106.671C64.8755 106.659 64.8848 106.65 64.8951 106.643C64.8974 106.606 64.909 106.571 64.9275 106.541C65.2008 106.104 65.7242 105.976 66.1775 105.772C66.6882 105.543 67.1979 105.314 67.7076 105.086C68.1091 104.905 68.6971 104.753 68.998 104.411C69.3394 104.027 69.4537 103.342 69.6196 102.866C69.9956 101.791 70.4026 100.729 70.8097 99.6658C71.1671 98.7317 71.4763 97.7295 71.9778 96.8591C72.406 96.1165 73.0179 95.7249 73.7253 95.2972L73.8789 95.2044C74.1745 95.024 74.4898 94.8078 74.6071 94.4701C74.7985 93.9182 74.373 93.3904 73.9209 93.1273C72.9165 92.5441 71.7138 93.2173 70.8328 93.7313C69.9471 94.2484 69.0835 94.8696 68.1366 95.2704C68.1159 95.2783 68.1009 95.2472 68.1159 95.2333C68.877 94.5352 69.8071 93.9601 70.6812 93.3926L70.8985 93.2509C71.4785 92.8709 72.1394 92.5004 72.8381 92.3976C72.6929 92.3491 72.7378 92.1609 72.8761 92.1437C74.2507 91.9761 75.6462 92.1909 77.0069 91.87C78.2211 91.5836 79.2808 90.8966 80.1296 89.9926C80.9299 89.1405 81.5641 88.1545 82.1557 87.1501C82.4995 86.5657 82.835 85.9769 83.1832 85.3949C83.2351 85.3072 83.2871 85.2102 83.3401 85.1062C82.7173 84.9619 82.083 84.4978 81.6598 84.1376C81.0025 83.5788 80.5228 82.8237 80.1885 82.0362C79.4043 80.1877 79.4665 78.0737 80.0536 76.1824C80.0892 76.067 80.26 76.0612 80.2934 76.1824C80.7442 77.8023 80.7846 79.5586 81.4926 81.1033C81.7763 81.7222 82.172 82.2787 82.6585 82.7521C82.9053 82.9911 83.1543 83.1919 83.4565 83.3583C83.7805 83.5372 84.1265 83.596 84.3836 83.8801C84.3986 83.8963 84.4124 83.9125 84.4251 83.9298C84.5758 83.9094 84.7055 83.9311 84.8092 83.996L84.831 84.0106L84.8357 84.0038C84.3709 83.6863 83.9039 83.3721 83.4092 83.095C83.2778 83.0211 83.3736 82.8445 83.5049 82.8675L83.8304 82.9252C84.9178 83.1192 86.0258 83.3398 87.0186 83.8236C88.12 84.3616 89.1716 84.9828 90.1748 85.6859C92.1514 87.069 93.9503 88.7029 95.5244 90.5306C98.4281 93.9032 100.481 97.9582 101.75 102.209C103.337 107.522 103.951 113.102 104.621 118.59C104.941 121.217 105.228 123.848 105.484 126.483L105.552 127.202C105.68 128.557 105.819 129.911 105.949 131.263C106.18 131.625 106.196 132.056 106.06 132.43C106.16 133.526 106.25 134.622 106.322 135.723C106.504 138.562 106.621 141.41 106.672 144.256C106.723 147.143 106.618 150.025 106.584 152.911C106.571 154.126 104.732 154.121 104.704 152.911C104.63 149.722 104.401 146.532 104.239 143.345C104.08 140.235 103.932 137.126 103.742 134.018C103.723 133.722 103.706 133.425 103.69 133.13C103.422 133.232 103.09 133.274 102.808 133.33L102.739 133.344C102.172 133.465 101.604 133.552 101.029 133.604L100.842 133.62C100.32 133.656 97.6439 133.714 96.0618 133.425C96.1875 135.458 96.3143 137.492 96.4538 139.524C96.613 141.841 96.643 144.162 96.7595 146.481C96.8182 147.641 96.8886 148.792 97.0362 149.944C97.1035 150.468 97.1723 150.994 97.2546 151.516L97.2969 151.777C97.3707 152.227 97.4629 152.611 97.2726 153.012C97.4386 153.526 97.1803 154.173 96.5001 154.121C92.1387 153.795 87.767 153.656 83.3942 153.636C75.8447 153.601 68.2996 153.903 60.7533 154.111L58.7139 154.167C51.6454 154.36 44.542 154.567 37.5063 153.784C37.4912 154.686 35.8075 154.676 35.8975 153.67L35.9196 153.427C36.0208 152.333 36.1522 151.199 36.4914 150.146C36.21 150.154 35.9275 150.143 35.6622 150.055C35.2853 149.931 34.923 149.707 34.5955 149.486C33.8667 148.994 33.251 148.388 32.7195 147.688C31.6757 146.315 30.9827 144.688 30.4349 143.064C29.8525 141.332 29.3196 139.581 28.8217 137.823L28.2859 135.92C27.6057 133.499 26.9378 131.042 26.5326 128.557C26.4889 128.615 26.4288 128.665 26.3494 128.701C24.1813 129.67 22.327 127.681 21.9603 125.67C21.7444 124.484 21.795 123.27 21.8132 122.069L21.815 121.94C21.8334 120.557 21.8392 119.174 21.9097 117.792C22.1425 113.171 23.2184 108.694 24.8916 104.389C26.468 100.338 28.373 96.254 30.8271 92.6551C31.9928 90.9463 33.3374 89.3044 34.9576 88.0055C36.6666 86.6373 38.5879 85.5969 40.6002 84.7495C42.6563 83.8836 44.7884 83.1989 46.923 82.5523C49.2778 81.8389 51.6603 81.2257 54.0831 80.795C54.2594 80.7639 54.4324 80.8158 54.5305 80.9775C54.6157 81.1195 54.6953 81.265 54.7725 81.4128C55.1035 81.2049 55.612 81.1541 55.9431 81.0525C56.982 80.7304 58.8513 80.5376 59.6748 79.8032C60.6136 78.9666 61.065 77.8511 61.4845 76.6992ZM26.3469 127.248C26.2006 127.382 26.054 127.516 25.9031 127.642C26.1002 127.559 26.2789 127.614 26.4104 127.736C26.3874 127.574 26.3665 127.411 26.3469 127.248ZM74.0097 96.022C73.786 96.1604 73.5646 96.299 73.3628 96.4653C72.6379 97.0656 72.3928 98.0456 72.0907 98.9002L72.0713 98.9546C71.6999 99.9891 71.3251 101.026 70.9319 102.052C70.8086 102.374 70.6933 102.72 70.5698 103.067C72.2327 104.667 73.9326 106.25 75.7118 107.72C78.9683 110.409 82.5166 112.745 86.2875 114.648C88.2261 115.627 90.2279 116.518 92.2874 117.21C93.0313 117.459 93.7889 117.679 94.5581 117.842L94.5593 117.83C94.5626 117.802 94.6077 117.79 94.6123 117.823L94.617 117.854C94.9466 117.922 95.2789 117.98 95.6121 118.025C96.244 118.109 96.8828 118.147 97.5205 118.142C97.9161 118.138 98.3081 118.09 98.6979 118.109C96.9717 116.552 95.2361 115.006 93.496 113.467C90.1979 110.548 86.8815 107.652 83.5591 104.761C82.0841 103.477 80.5926 102.209 79.1238 100.916L77.7092 99.6652C76.4591 98.5583 75.2168 97.4338 74.1339 96.1686L74.0097 96.022ZM59.2687 104.603C59.1684 104.479 59.3207 104.322 59.4441 104.427C60.181 105.052 61.0135 105.326 61.898 105.662C62.1044 105.74 62.0884 106.069 61.8439 106.066C60.8163 106.047 59.8903 105.382 59.2687 104.603ZM69.592 89.2235L69.6657 89.1941C70.7047 88.7862 72.0527 88.5833 72.8704 89.5296C73.4632 90.2166 73.6141 91.5167 72.8416 92.1159C72.656 92.2603 72.2626 92.1367 72.3803 91.8469C72.7193 91.0191 72.7909 89.9348 71.7242 89.6162C70.799 89.3396 69.7167 89.8792 68.8741 90.2544L68.6331 90.361C66.9897 91.0914 65.3577 91.9765 64.3508 93.5233C64.3243 93.5625 64.2539 93.5372 64.2713 93.4898C65.0749 91.2615 67.5359 90.0618 69.592 89.2235ZM57.418 84.4517L57.0186 84.3004C56.0026 83.9207 54.7375 83.535 54.1073 84.6283C53.8711 85.0369 53.6679 85.5428 53.58 86.0134L53.5688 86.0773C53.5445 86.2227 53.5133 86.3787 53.6172 86.4907C53.7774 86.6662 54.2986 86.7515 54.5085 86.8278L55.8282 87.3076L56.4873 87.5483C56.7871 87.658 57.1746 87.7677 57.396 88.009C58.1709 86.9906 59.4037 86.411 60.5672 85.9018C59.519 85.4134 58.5032 84.8605 57.418 84.4517Z" fill="black"/>
<path fill-rule="evenodd" clip-rule="evenodd" d="M65.3743 74.2878C64.7264 74.9499 63.7865 74.4249 62.9854 74.2787C56.1072 72.4004 48.7244 66.6673 47.3518 59.7334L46.6662 57.7284C46.4219 57.3223 46.234 56.0885 46.2951 55.9846C46.3482 55.9954 46.7327 55.7277 46.7848 55.7406C46.2951 52.1112 46.3889 48.8925 47.7901 44.2805C45.4624 42.6811 47.0325 40.0002 49.3793 40.1524C49.4095 38.6009 49.8458 37.4362 51.0964 35.7916C55.9648 29.6988 64.3952 27.2913 72.2529 27.7694C78.3244 27.9636 82.3541 29.4141 85.0503 32.372C86.4278 33.5582 87.4853 34.8522 87.3899 36.5542L88.0029 36.568L88.0206 36.816C88.6782 36.5424 96.0939 38.5572 96.2637 39.379L96.0551 39.6522C96.3339 40.14 96.3501 40.534 96.2104 41.202C95.9445 42.4573 96.2261 43.8167 96.1559 45.0594C96.0921 45.2713 95.1337 45.4972 94.7674 45.5359C93.0017 45.9609 91.129 46.4459 89.1876 46.7247C89.2832 51.072 88.785 55.5224 90.3553 59.7334L91.0592 59.1306C92.2403 67.6386 89.1564 80.4457 79.2474 80.3225C74.3797 80.228 69.419 76.7511 65.3743 74.2878Z" fill="#747474"/>
<path fill-rule="evenodd" clip-rule="evenodd" d="M59.9149 63.1326C59.1907 62.3712 59.477 60.4518 60.69 61.4863C61.0649 61.1733 61.5739 61.2303 62.0219 61.388C63.2463 61.8411 64.5088 62.2038 65.8174 62.2901C66.2811 62.0551 66.9111 62.3002 67.4508 62.1754L67.5011 62.1625C67.8475 62.0659 68.1569 62.3937 68.0713 62.7345C67.9317 63.0832 67.9935 63.6326 67.6414 63.8376C67.1975 65.7262 66.727 67.591 66.2724 69.4753C66.6259 70.1366 66.2085 70.9554 66.0372 71.6391L65.9835 71.9167C65.7257 73.216 65.1815 75.344 63.6082 74.2229C62.8454 74.1785 62.1065 73.8772 61.5752 73.3069C61.0194 72.7545 61.2968 72.0713 61.0609 71.4357L60.9891 71.114C60.4056 68.4864 59.8948 65.8437 59.9149 63.1326ZM59.919 53.8618C60.0528 53.0562 60.4651 45.2862 61.9797 47.1017L61.9821 47.1013C61.9786 47.0433 61.9874 47.0586 62.0004 47.1034C62.0176 47.107 62.0326 47.1164 62.045 47.129C65.5265 46.9323 68.963 47.8566 72.443 47.9524C76.0745 48.2903 79.7902 47.972 83.3859 48.069C85.2571 47.8218 87.112 47.5177 88.9219 46.9697C89.3889 46.8356 89.6238 47.3868 89.3924 47.6947C89.76 49.6489 89.1939 51.6783 89.3955 53.6621C89.4569 55.2418 89.6103 56.8268 89.8007 58.3837C90.0473 59.313 88.8738 60.2643 88.3904 59.181C82.8511 56.8643 79.7199 58.1366 74.2642 59.4414C74.3451 60.245 68.0609 60.5448 67.6399 59.9313C65.3919 59.8345 63.1394 59.6219 60.925 59.2139C59.9734 59.1795 59.6873 58.5255 60.0167 57.6919C60.0055 56.3867 59.6844 55.1832 59.919 53.8618Z" fill="#EEC1A2"/>
<path fill-rule="evenodd" clip-rule="evenodd" d="M89.9302 59.9914C85.2861 58.5567 80.2979 57.8669 75.7051 59.8175C74.1626 60.1862 72.5946 60.4762 71.0082 60.5614C70.2232 60.6297 69.2735 60.3735 68.6007 60.8754C64.0507 60.3058 59.7721 59.3211 55.3164 58.2372C54.6492 58.075 52.3232 57.2578 51.7323 57.1555C50.0941 56.872 45.5446 54.2175 45.9054 56.7393C45.8569 57.5536 46.1475 58.3243 47.047 58.4237C54.1102 59.8283 61.1291 61.444 68.3142 62.2293C68.3946 62.4967 68.5192 62.7566 68.634 63.0111C68.0573 66.5737 67.0084 70.0624 65.8158 73.4636C63.5632 74.7682 68.362 76.3791 69.3924 76.6719C70.2952 77.2479 71.2374 77.7598 72.1811 78.2642C75.1248 80.0137 78.8312 81.5802 82.0347 79.5424C83.5064 79.0646 84.7179 78.1304 85.7635 77.0343C89.1223 73.1344 91.557 65.9532 90.581 60.8507C90.5386 60.538 90.37 59.7503 89.9302 59.9914Z" fill="#723E3E"/>
<path fill-rule="evenodd" clip-rule="evenodd" d="M96.1245 40.7986C95.6815 42.1726 95.4978 43.6978 95.6354 45.1445C81.1752 49.0044 65.963 48.1163 51.6485 44.058C52.3272 43.0361 52.4981 41.6522 52.0144 40.5158C63.8366 44.824 76.9213 45.2109 89.2569 43.2085C91.4628 42.8319 94.4674 42.5281 96.1279 40.7882C96.1268 40.7917 96.1256 40.7952 96.1245 40.7986ZM60.8958 47.1247C59.8102 50.9107 59.2513 54.9022 59.1973 58.8335C58.8233 58.7619 58.4482 58.6868 58.0742 58.6095C58.0156 54.5145 58.007 50.4035 57.5322 46.3326C58.6641 46.6094 59.7812 46.8549 60.9165 47.0831C60.9085 47.0958 60.9016 47.1097 60.8958 47.1247ZM66.1742 73.0177C67.0605 70.0155 68.1099 66.9367 68.4092 63.7984C68.4552 63.4504 68.4772 63.0984 68.4802 62.7402C68.4961 62.32 68.4962 61.8988 68.4797 61.4767C68.507 61.3487 68.5361 61.2352 68.6086 61.1409C68.6469 61.1168 68.6804 61.0841 68.7071 61.0464C68.7281 61.0313 68.7504 61.0167 68.7759 61.0033C69.2744 60.7396 70.1996 61.0125 70.7634 61.0391C71.989 61.0967 73.2943 61.1267 74.4636 60.7047C74.5101 60.6881 74.5427 60.6591 74.564 60.6253C77.8878 59.9856 81.2126 58.6819 84.5791 59.4282C86.5022 59.7439 88.6518 60.8717 90.6055 60.4004C90.5369 62.888 90.509 65.3893 90.1291 67.8531C88.9979 76.4614 82.6447 82.6016 73.922 78.653C71.0812 77.4995 68.4251 75.9325 65.5989 74.7414C65.9211 74.2566 66.0477 73.423 66.1742 73.0177ZM60.0788 65.0706C59.9888 64.0041 59.9628 62.9324 59.9396 61.8631C62.5156 62.1331 65.199 62.6516 67.7623 62.4931C67.754 62.6969 67.7449 62.8869 67.7474 63.045C67.7482 63.0969 67.7494 63.1487 67.7504 63.2005C67.0338 66.9022 65.8807 70.5114 64.5586 74.0372C63.636 73.8515 62.7212 73.619 61.8314 73.3098C60.8849 70.6528 60.2862 67.8879 60.0788 65.0706ZM58.0788 60.667C58.08 60.2629 58.08 59.8588 58.0788 59.4546C61.2164 60.142 64.3984 60.608 67.5944 60.912C67.6901 61.1133 67.7389 61.3564 67.7598 61.6135C67.7058 61.5955 67.6495 61.5853 67.5954 61.5838C64.4056 61.466 61.2307 61.1564 58.0788 60.667ZM59.4148 61.7892C59.0424 65.8642 59.4607 69.0654 60.5794 72.8353C59.6231 72.43 58.6991 71.9439 57.8165 71.3955C57.9614 68.1257 58.0512 64.8524 58.0731 61.579C58.5196 61.653 58.9672 61.7233 59.4148 61.7892ZM89.4249 58.875C87.7747 58.7177 86.2096 58.1152 84.5757 57.8636C79.0604 56.9094 74.0512 60.4611 68.5758 60.1855C68.3204 59.9766 67.8911 60.0181 67.5862 59.9926C65.0907 59.7799 62.6014 59.4498 60.1363 59.0078C60.4368 55.0709 60.7056 51.077 61.2353 47.1455C70.4884 48.9701 80.0673 49.0777 89.3639 47.4999C88.6304 51.2458 88.4876 55.1534 89.4249 58.875ZM94.3051 61.7511C94.3063 67.9176 93.9452 74.0854 93.5434 80.2269C82.2716 86.2299 68.1762 85.124 57.4206 78.4846C57.5437 76.6385 57.6519 74.7899 57.744 72.9404C59.067 73.7385 64.0006 76.0443 65.3227 75.2299C67.732 76.823 70.2797 78.2335 72.8922 79.4605C84.694 85.3088 91.888 74.9332 91.8067 63.8937C91.7728 63.1319 92.3108 58.4991 91.1567 58.4372C91.0714 58.4043 90.9811 58.379 90.9003 58.3455C90.7794 58.2952 90.6602 58.2564 90.5336 58.2587C89.5334 54.7517 89.9028 51.0287 89.8357 47.418C91.2845 47.1684 92.7276 46.8762 94.1567 46.5324C94.0108 51.6044 94.4086 56.6761 94.3051 61.7511ZM56.981 58.3693C53.5583 57.5802 50.2776 56.2841 46.8453 55.5277C46.9284 52.0831 46.9678 48.5973 48.0064 45.2773C49.255 45.7707 50.6405 45.3349 51.4586 44.3144C53.3021 45.1572 55.2756 45.7669 57.2606 46.2645C56.9546 50.2825 57.0593 54.3421 56.981 58.3693ZM56.9338 60.4811C53.5403 59.9421 50.2392 59.0588 46.8868 58.3172C46.866 58.2827 46.8235 58.2631 46.7751 58.2908C46.6542 58.3149 46.5181 58.2744 46.3942 58.2862C46.0268 57.7446 46.097 57.0806 46.0236 56.4885C46.0214 56.1202 45.9155 55.9122 46.3056 55.9724C49.9134 56.8563 53.3404 58.3656 56.9638 59.2018C56.9534 59.6278 56.9442 60.054 56.9338 60.4811ZM56.5783 70.5677C52.7951 68.0048 50.2967 64.1742 48.0116 60.3101C47.8687 59.8499 47.6787 59.3996 47.4482 58.9978C47.4178 58.9447 47.3856 58.8922 47.3519 58.8411C50.4194 60.0639 53.6782 60.7476 56.9108 61.3759C56.8314 64.4415 56.7244 67.5057 56.5783 70.5677ZM47.6267 40.9002C47.8015 40.7081 48.0027 40.5516 48.22 40.4262C48.3825 40.3981 48.5473 40.3752 48.7169 40.3599C49.2787 40.3093 50.1988 40.286 50.575 40.7961C50.783 41.078 50.8707 41.5041 50.9174 41.9013C50.9194 41.9529 50.9199 42.0043 50.9166 42.056C50.7258 45.9545 45.2497 43.8788 47.6267 40.9002ZM51.9132 40.0401C63.5074 41.1873 75.2844 39.4163 86.6643 37.1963C89.6396 37.6672 92.7401 38.1071 95.4432 39.6383C94.1233 41.3425 91.2683 41.5479 89.3328 41.8746C76.8646 44.1267 64.1438 42.8756 51.8798 40.0724C51.8902 40.0608 51.9017 40.0506 51.9132 40.0401ZM73.4861 29.8739C77.354 29.6902 81.583 30.2823 84.6378 32.8306C85.6241 33.8161 86.2844 35.0801 87.189 36.1006C75.6823 38.7746 63.8404 39.5644 52.0582 39.9014C57.6608 34.0604 65.3198 30.0935 73.4861 29.8739ZM96.8936 40.1218C96.898 40.1044 96.9018 40.0868 96.903 40.0682C96.9091 39.9833 96.9067 39.8931 96.9036 39.8079C96.9025 39.7754 96.8999 39.7423 96.8959 39.7093C97.5181 38.3848 92.0601 36.886 89.6264 36.4145C89.3979 36.3238 89.1596 36.2527 88.9355 36.1804C88.6278 36.0811 88.3097 35.9733 87.987 35.9348C87.8746 34.3136 86.6831 33.0568 85.4548 31.9648C82.0979 28.2948 76.9746 27.3387 72.2214 27.1883C64.2494 26.7324 55.6908 29.0484 50.5012 35.4736C49.5784 36.6774 48.7797 38.0689 48.6773 39.6117C46.1918 39.8053 44.8425 42.92 46.9454 44.6446C45.9679 48.0425 45.4874 51.7376 46.402 55.2019C46.236 55.2443 46.0771 55.3123 45.9407 55.4175C45.9358 55.4213 45.9317 55.4257 45.9269 55.4297C45.2909 55.6666 45.6039 56.969 45.7671 57.538C45.8552 57.9066 46.1003 58.562 46.5136 58.5717C46.9101 59.0281 47.1773 59.5875 47.4375 60.1495C48.5551 64.7032 52.7862 69.645 56.4989 72.1518C56.3815 74.3836 56.2422 76.6131 56.0915 78.8414C56.0754 79.0701 56.2273 79.2928 56.4149 79.4073C67.678 86.3828 82.5038 87.793 94.2522 81.1795C95.2246 81.4894 95.6311 80.1557 95.014 79.7203C95.6806 68.6509 96.173 57.4319 94.6607 46.4135C95.2127 46.2218 96.3914 46.1249 96.6505 45.5799C97.0664 44.6058 96.6041 43.4079 96.7414 42.3549C96.7202 41.6603 97.0533 40.8044 96.8936 40.1218Z" fill="black"/>
<path fill-rule="evenodd" clip-rule="evenodd" d="M83.7948 66.0132C82.8277 65.499 81.6929 65.586 80.7218 66.0453C79.5347 66.6068 78.617 67.5288 77.804 68.5426C77.4918 68.9318 77.1998 69.3377 76.9081 69.7432C76.788 69.9101 76.668 70.0769 76.5466 70.2424C76.5229 70.2734 76.497 70.3068 76.4695 70.3422C76.2752 70.5923 76.0099 70.9381 75.9083 71.2519C75.8676 71.3779 75.8524 71.4995 75.8707 71.6102C75.8796 71.6638 75.896 71.7152 75.9211 71.7638C75.7662 71.8039 75.6627 71.7657 75.5912 71.6886C75.4779 71.5666 75.4382 71.3834 75.4366 71.173C75.4308 70.4195 75.927 69.3211 76.1297 68.8684C76.1505 68.8218 76.1684 68.7819 76.1825 68.7496C76.9153 67.0708 78.0876 65.4355 79.7171 64.5307C81.2961 63.654 83.1648 63.4883 84.7984 64.3171C86.603 65.2328 87.0953 67.0459 87.2998 68.9093C87.3311 69.1948 87.2021 69.4581 87.0038 69.6567C86.7798 69.8809 86.4652 70.026 86.1712 70.026C85.8659 70.026 85.5864 69.8966 85.3819 69.6919C85.1758 69.4856 85.0456 69.2024 85.0433 68.8955L85.0413 68.7167C85.0319 68.0945 84.9883 67.5103 84.7627 67.0149C84.5814 66.6166 84.2845 66.2737 83.7948 66.0132ZM81.3923 57.6567C82.2631 58.1867 83.5899 59.4225 82.6531 60.7363C81.5504 61.8948 79.9628 60.5665 79.1805 59.9658C78.455 59.5002 77.64 60.6976 78.313 61.2413C83.9663 65.4319 86.2605 57.7953 81.8327 57.0336C81.3452 56.9497 81.1641 57.4928 81.3923 57.6567ZM74.0622 57.8307C73.8276 57.9457 73.5676 57.9923 73.3125 57.9391C73.084 57.8913 72.8607 57.7632 72.663 57.5373C72.3916 57.2268 72.1945 56.786 72.3262 56.3654L72.3639 56.2572C72.4085 56.1314 72.4686 56.0134 72.5417 55.9065C72.5886 55.6773 72.598 55.5272 72.6069 55.3847C72.6092 55.3483 72.6114 55.3124 72.6139 55.2766C72.628 55.077 72.6573 54.8681 72.7242 54.6759C72.7367 54.6398 72.7508 54.604 72.7659 54.5686C72.7285 54.5554 72.691 54.5423 72.6536 54.529C72.3949 54.4378 72.1371 54.345 71.8807 54.248C71.1513 53.9719 70.4301 53.6607 69.732 53.3125C69.3871 53.1404 69.0509 52.9467 68.7189 52.7508C68.5604 52.6453 68.2126 52.3995 68.0567 52.2672L67.9383 52.1668L67.8764 52.3092C67.8098 52.3763 67.7561 52.3815 67.7109 52.3665C67.6624 52.3502 67.6264 52.3119 67.6038 52.2659C67.5766 52.2105 67.5681 52.1431 67.5825 52.078C67.5954 52.0193 67.6274 51.9627 67.6813 51.9181C67.887 51.7483 68.1771 51.822 68.4182 51.8693C68.4526 51.8761 68.4863 51.8827 68.519 51.8887C68.8939 51.9573 69.2678 52.0389 69.6403 52.1233L70.0886 52.2255C70.2597 52.2646 70.4307 52.3038 70.6017 52.3431C72.5445 52.7889 74.4838 53.2335 76.4691 53.429L76.6783 53.4486C77.0323 53.4802 77.3472 53.6307 77.5546 53.8703C77.7457 54.091 77.8433 54.387 77.7969 54.7303C77.7515 55.0663 77.5628 55.346 77.303 55.5192C77.0446 55.6916 76.7157 55.7585 76.3875 55.6703C75.7713 55.5048 75.1564 55.3307 74.5444 55.1461L74.6876 55.4865C74.8107 55.7832 74.9242 56.0905 74.9376 56.4043C74.9501 56.6991 74.8637 56.9845 74.7142 57.2286C74.5551 57.4885 74.3244 57.7022 74.0622 57.8307ZM87.912 50.7363C87.76 50.944 87.5854 51.1214 87.4113 51.2992C87.0354 51.6832 86.6596 52.0671 86.257 52.4243C86.1111 52.5539 85.9635 52.6815 85.816 52.8092C85.7612 52.8566 85.7064 52.904 85.6517 52.9515L85.5656 53.0262L85.6393 53.1133C85.6591 53.1367 85.6777 53.1608 85.6934 53.1864C85.9145 53.5489 86.0373 53.9423 86.1617 54.3369C86.2468 54.6073 86.3325 54.8783 86.4473 55.1415L86.4844 55.224C86.634 55.5461 86.6742 55.8824 86.5947 56.1859C86.5199 56.4718 86.3383 56.7269 86.047 56.9127C85.9738 56.9595 85.8488 57.0137 85.7641 57.0325C85.4303 57.1067 85.0923 57.055 84.816 56.8979C84.5519 56.7478 84.3448 56.5011 84.253 56.1775C84.1174 55.6994 84.0303 55.2136 84.0349 54.7402C84.0357 54.66 84.0391 54.5795 84.0449 54.4988C83.9922 54.5525 83.9316 54.5997 83.8629 54.6385C83.6489 54.7596 83.4072 54.7715 83.1798 54.7097C82.9226 54.6398 82.683 54.4762 82.5171 54.2623C82.371 54.074 82.2817 53.8459 82.2932 53.6074C82.3033 53.3993 82.391 53.1849 82.5786 52.983L82.7556 52.8025C82.8873 52.6687 83.0686 52.5658 83.2618 52.5138C83.4391 52.466 83.627 52.4609 83.7956 52.5185C84.023 52.4562 84.1705 52.3828 84.3074 52.3145C84.4048 52.2658 84.4968 52.2199 84.5787 52.1842C84.9781 52.0103 85.3759 51.833 85.7724 51.6526C86.1162 51.4961 86.4654 51.3515 86.8146 51.207C87.1825 51.0547 87.5504 50.9024 87.912 50.7363Z" fill="black"/>
<path fill-rule="evenodd" clip-rule="evenodd" d="M90.8993 61.3503C90.682 58.5928 87.2092 57.4247 85.4794 57.0783C79.7196 55.7226 74.8193 59.2009 67.9513 59.272C67.2581 59.2829 65.2758 59.1658 64.354 58.9221C59.6768 57.858 55.0045 56.7261 50.4154 55.3306C49.7407 55.4887 49.541 56.3705 50.0043 56.8729C54.3997 58.4336 61.1242 59.8311 64.6752 59.9902C64.6071 64.5832 62.1854 69.2016 58.8412 71.7417C64.16 77.6307 76.5645 79.5674 83.8648 76.4762C87.4559 75.3971 91.2453 65.7378 90.8993 61.3503Z" fill="#444444"/>
<path fill-rule="evenodd" clip-rule="evenodd" d="M50.0443 55.4697C49.8465 55.462 49.9619 54.8847 50.4073 54.967C56.1552 56.3129 63.3164 58.8766 69.2244 58.8578C73.5706 58.7153 77.4649 56.2918 81.8351 56.2771C84.7728 56.3335 88.5188 56.7518 90.5746 59.112C93.2863 67.7228 87.1799 79.4346 77.5721 79.5024L75.7536 79.3706C69.5549 78.9134 62.764 78.1818 58.7686 72.9163L58.7375 72.9431C58.14 72.5417 58.1734 71.675 58.6811 71.2292L58.6962 71.253C58.7059 71.2373 58.7166 71.2223 58.727 71.2069L58.7205 71.1867C58.9159 70.9814 59.138 70.7894 59.3399 70.6175L59.3409 70.6208C62.341 68.1182 64.2999 64.334 64.4127 60.4155C63.4195 60.6886 46.7324 57.2248 49.7112 56.3796C51.8418 57.1007 53.9849 57.752 56.1713 58.2704C56.208 58.2498 56.2606 58.2552 56.2808 58.296C58.9554 58.955 61.6841 59.3316 64.4163 59.6366C64.4134 59.5059 64.4084 59.3752 64.4017 59.2442C59.5437 58.2973 54.7811 56.8915 50.0443 55.4697ZM89.3816 58.9644C79.4171 53.9244 74.471 61.3703 64.8341 59.3202C65.8423 63.8238 63.3527 68.679 59.9713 71.6216C64.8844 75.8793 67.0109 76.5241 73.456 77.2151L74.2979 77.3155C75.5639 77.4656 76.8417 77.6056 78.1115 77.6275C84.6984 77.1476 89.6756 70.286 90.4205 64.0691L90.4245 63.8973C90.4579 62.3196 90.3855 60.6495 89.6874 59.204C89.5588 59.1593 89.4471 59.0785 89.3816 58.9644ZM75.5094 62.9207C75.8537 62.8431 76.2051 63.2192 75.9916 63.5487C75.3019 64.6138 73.6152 65.0264 72.4355 65.1938C71.0693 65.3877 69.745 65.2348 68.4473 64.7683C68.3777 64.7432 68.3827 64.6201 68.4659 64.6301C69.6982 64.7769 70.9685 64.6694 72.1659 64.3429C73.3799 64.1061 74.3602 63.2976 75.5094 62.9207ZM84.8719 62.1534C84.8661 61.951 85.8599 62.5367 86.0171 62.6155C87.2309 63.3452 88.6359 63.3987 89.9747 63.6851C90.2867 63.805 90.2863 64.2022 89.9745 64.322C88.3037 64.7669 85.768 63.5994 84.8719 62.1534Z" fill="black"/>
</svg>
