<svg width="135" height="177" viewBox="0 0 135 177" fill="none" xmlns="http://www.w3.org/2000/svg">
<path fill-rule="evenodd" clip-rule="evenodd" d="M131.817 97.9645C130.17 98.1264 128.523 98.288 126.877 98.4499C118.99 99.0532 111.107 100.313 103.281 101.069C103.086 100.752 102.705 100.804 102.474 101.025C101.693 100.956 100.817 100.359 100.11 100.98C100.087 100.977 100.064 100.973 100.041 100.971C98.7814 98.5506 97.9108 95.969 97.0658 93.384C96.5265 91.7947 95.8009 90.2561 94.46 89.1891C92.1717 87.5986 86.9285 84.3735 84.2414 84.509C84.1968 84.0273 83.9725 83.5308 83.6043 83.2101C84.4159 81.8247 81.1707 80.9208 80.9418 81.0814C81.0886 76.4528 78.914 72.4332 74.1192 71.5115C69.8235 70.6153 63.7138 70.4647 61.4035 74.9594C61.1495 74.9308 58.5536 74.9173 58.3024 74.9454C57.9119 74.4502 53.6233 79.1428 55.381 80.7764C39.6665 87.7366 30.7312 86.9061 26.3817 106.473C25.7937 108.311 25.7508 110.322 25.1299 112.12C22.9209 117.284 21.1291 122.784 20.6832 128.403C19.6062 128.68 19.4823 130.581 20.7298 130.856C21.2063 130.961 21.6048 131.105 21.9523 131.377C21.6807 135.982 22.7931 146.502 23.494 146.47C24.9232 151.024 31.2981 152.309 35.8113 150.709C35.0333 152.174 35.8113 153.096 35.8113 153.879C52.051 154.494 69.8075 154.14 86.0427 154.984C88.1195 154.954 90.3038 155.494 92.3522 155.183C93.6014 154.883 93.6035 152.917 92.3364 152.674L97.8731 151.47C97.7493 151.423 100.155 149.821 101.974 146.826C103.666 143.477 102.514 139.434 103.281 135.79C109.271 135.3 115.36 135.09 121.285 134.074C122.093 136.494 125.59 133.6 126.701 132.436C126.7 132.434 126.698 132.432 126.697 132.431C127.235 132.283 127.666 131.778 127.681 131.181C128.058 130.641 128.137 129.88 127.775 129.359C129.433 119.779 131.961 109.999 132.875 100.329C133.198 100.258 133.502 100.116 133.76 99.8973L133.739 99.8764C134.176 99.3887 134.261 98.5469 133.532 98.1325C132.945 97.7979 132.454 97.9017 131.817 97.9645Z" fill="#EEC1A2"/>
<path fill-rule="evenodd" clip-rule="evenodd" d="M69.1902 133.819L70.4586 134.627L80.8372 137.975L87.1796 138.783L92.3689 137.975V146.866L93.4067 155.179C92.9454 156.025 88.5634 156.025 80.2606 155.179C74.9678 154.639 55.6238 154.377 51.2196 154.262L50.9701 154.255C45.7947 154.106 40.6823 154.106 35.6329 154.255V151.138L50.0476 143.979L62.9631 136.705L69.1902 133.819ZM61.8363 74.2334L62.7895 74.946L60.7084 78.3694L70.8462 86.5799V93.1379L74.0558 96.1773L75.8903 93.1379L78.4754 89.6959L80.3125 84.1164L79.687 80.4405L80.9449 80.3219C80.951 80.5731 80.9499 80.8266 80.9419 81.0819C81.1708 80.9213 84.4159 81.8253 83.6043 83.2107C83.9725 83.5314 84.1968 84.0279 84.2414 84.5096C86.9285 84.374 92.1717 87.5992 94.46 89.1896C95.8009 90.2567 96.5265 91.7952 97.0658 93.3845L97.1928 93.7722L97.3239 94.1702L97.456 94.5679C98.1857 96.7542 98.9737 98.9207 100.041 100.972C100.064 100.974 100.087 100.978 100.11 100.981C100.817 100.359 101.693 100.957 102.474 101.025C102.7 100.81 103.069 100.755 103.267 101.048L103.281 101.07L93.5519 102.989L87.1333 125.532L81.5436 120.989L78.5432 121.436L70.6199 124.297L61.4046 126.693L40.3673 132.5H37.6883L22.0992 128.731L20.6943 128.267C21.1583 122.695 22.9388 117.243 25.1299 112.12C25.7508 110.323 25.7937 108.312 26.3817 106.474C30.7312 86.9067 39.6665 87.7371 55.381 80.777C53.6233 79.1433 57.9119 74.4508 58.3024 74.946L58.3271 74.9439L58.3803 74.941L58.4488 74.9386C59.0619 74.9208 61.1756 74.9343 61.4035 74.96C61.5357 74.7028 61.6803 74.4609 61.8363 74.2334Z" fill="#DB6B38"/>
<path fill-rule="evenodd" clip-rule="evenodd" d="M133.372 98.6494L133.082 100.266C133.013 100.289 132.943 100.308 132.872 100.324C132.781 101.288 132.674 102.253 132.553 103.219L130.756 113.245C130.446 115.019 130.152 116.797 129.86 118.575L129.473 120.485L129.234 121.672C128.716 124.243 128.214 126.805 127.773 129.354C127.839 129.45 127.891 129.554 127.928 129.663L127.894 129.807L127.871 129.902L127.847 129.997C127.499 131.336 126.893 132.635 125.466 133.029C124.39 133.327 123.209 133.354 122.097 133.471L121.974 133.484L102.525 135.674C100.175 135.939 97.8257 136.211 95.477 136.487L93.4409 136.726C90.6029 137.055 87.7486 137.314 84.9524 137.909C84.8497 137.931 84.7646 137.972 84.6951 138.026C85.2582 135.892 85.7972 133.761 86.2857 131.605C86.8355 129.179 87.3573 126.748 87.9455 124.331C89.1302 119.461 90.4583 114.623 91.9122 109.826C92.2174 108.82 92.5295 107.815 92.8485 106.812L93.0723 106.112L93.2446 105.553C93.5112 104.702 93.8411 103.827 94.6229 103.358C95.5377 102.808 96.7853 102.717 97.823 102.527L98.5256 102.395C99.5769 102.198 100.629 102.009 101.683 101.828C106.729 100.959 111.804 100.262 116.897 99.7382C122.196 99.1933 127.515 98.8392 132.839 98.6661L133.372 98.6494ZM85.0981 132.08L85.1478 132.084L84.4213 137.899C84.3051 137.817 84.1576 137.768 83.9776 137.768C81.5946 137.775 79.3103 137.012 77.1009 136.174L76.7644 136.046L75.8263 135.685C74.8728 135.319 73.9142 134.961 72.9377 134.665L72.5429 134.545L72.3423 134.486C71.6029 134.27 70.8252 134.073 70.0561 134.025L69.9513 134.019L70.1752 133.901C70.208 133.884 70.2367 133.865 70.2622 133.844C70.6855 133.875 71.1097 133.867 71.5562 133.786C72.3959 133.635 73.2125 133.342 73.9622 132.935L74.2971 132.753L74.4342 132.681L74.5248 132.634L74.6148 132.588C75.2588 132.267 75.8746 132.065 76.6876 132.236C77.6107 132.431 78.4195 132.929 79.2516 133.35L79.3992 133.424L79.4985 133.472L79.5997 133.519L79.7022 133.566C80.8273 134.073 82.618 134.62 83.0494 133.088C83.2228 132.473 83.087 131.897 82.7863 131.392C83.3467 131.343 84.3479 132.005 85.0981 132.08ZM113.106 112.922L113.12 112.992C113.279 113.849 112.88 114.67 112.276 115.268C111.781 115.758 110.904 116.031 110.656 116.736C110.514 117.138 110.665 117.519 110.955 117.784L110.888 117.817L110.823 117.851L110.759 117.884L110.697 117.918L110.636 117.953C109.65 118.52 108.847 119.443 109.736 120.557C110.745 121.822 112.854 121.863 114.34 121.764L114.44 121.757C115.881 121.649 117.587 121.164 118.369 119.832C118.727 119.221 118.687 118.482 118.188 117.959C117.887 117.644 117.349 117.32 116.856 117.282C116.878 117.003 116.845 116.735 116.747 116.508C116.536 116.018 115.974 115.689 115.431 115.677C115.475 114.636 114.643 113.61 114.03 112.778L113.968 112.693L113.907 112.609C113.626 112.217 113.025 112.437 113.106 112.922ZM113.928 114.029L114.486 116.123L114.477 116.14C114.28 116.514 114.796 116.938 115.101 116.624L115.132 116.591C115.495 116.216 116.052 116.72 116.059 117.12C116.069 117.682 115.703 118.117 115.268 118.404L115.237 118.423L115.157 118.473C114.8 118.71 115.07 119.204 115.463 119.144C115.949 119.07 116.348 118.684 116.593 118.202C116.856 118.277 117.155 118.268 117.431 118.423C118.127 118.813 117.727 119.495 117.273 119.907L117.255 119.924L117.218 119.956C116.386 120.667 115.253 120.913 114.185 120.966L114.123 120.969C113.044 121.015 111.639 121.031 110.714 120.396C110.139 120 109.972 119.44 110.459 118.909C110.735 118.609 111.013 118.306 111.299 118.013C111.727 118.218 112.11 118.135 112.548 117.941C112.604 117.916 112.573 117.83 112.518 117.83C112.276 117.83 111.389 117.381 111.346 117.094C111.306 116.828 111.797 116.604 112.036 116.476L112.07 116.457L112.1 116.439C112.35 116.288 112.585 116.112 112.799 115.914C113.344 115.412 113.74 114.782 113.913 114.092L113.928 114.029Z" fill="#DDDDF5"/>
<path fill-rule="evenodd" clip-rule="evenodd" d="M61.7029 73.9162C62.1921 72.685 63.8461 73.1636 63.6617 74.457C63.5514 75.2317 63.1276 76.05 62.7469 76.729C62.437 77.2817 62.0834 77.8211 61.604 78.2354C62.4574 79.0325 63.3431 79.8006 64.2514 80.5298C65.2424 81.3254 66.2845 82.0588 67.3617 82.7329C68.3062 83.3241 69.2935 83.8478 70.1838 84.5223C71.0117 85.1494 71.7659 85.9035 72.1496 86.8881C72.5585 87.9365 72.3808 89.0192 72.0798 90.0669L72.0452 90.1854C71.7376 91.2234 71.2052 92.4746 71.9435 93.4525C72.3193 93.9504 72.8656 94.303 73.3374 94.701C73.7567 95.0548 74.1503 95.4395 74.5112 95.8527C75.2983 96.7535 75.9384 97.7672 76.3423 98.8966L76.3785 98.9992C76.7247 99.999 76.9777 101.224 76.5099 102.205C76.3757 102.487 75.9428 102.395 75.8676 102.121C75.6976 101.501 75.7065 100.851 75.5639 100.221C75.4156 99.5665 75.1689 98.9451 74.8466 98.3572C74.2229 97.2198 73.3784 96.2483 72.3806 95.4269L72.0819 95.1837C71.3035 94.5441 70.5883 93.8656 70.4303 92.807C70.2612 91.6745 70.7144 90.5956 71.0058 89.5237C71.2089 88.7767 71.2752 88.0606 71.0557 87.3855C70.7876 87.8236 70.4219 88.2395 70.1325 88.6105C69.5563 89.3496 68.9746 90.0841 68.3945 90.8201C67.7997 91.5747 67.2195 92.3412 66.667 93.1276C66.4199 93.4795 66.1754 93.8333 65.9318 94.1876C65.7485 94.4538 65.493 94.7198 65.2932 94.9914C65.3418 95.1366 65.3381 95.3041 65.2501 95.423C64.1909 96.8558 62.6841 93.8661 62.2911 93.1108C61.4908 91.5725 60.8952 89.9383 60.0922 88.4004C59.2602 86.8061 58.3128 85.2543 57.2568 83.7988C56.6181 82.9184 55.9022 82.0915 55.3179 81.1832C53.9413 82.4329 52.1299 83.2707 50.4661 84.0304C48.6381 84.8651 46.7389 85.5469 44.8647 86.2709L44.311 86.4862C41.0816 87.7481 37.7732 89.1344 35.089 91.3759C31.9347 94.0099 30.0687 97.681 28.6794 101.483C27.0802 105.859 25.7572 110.354 24.5239 114.846C23.8928 117.144 23.2939 119.452 22.7309 121.768C22.2348 123.809 21.8236 125.87 21.2493 127.889C22.414 127.848 23.7424 128.299 24.7368 128.43C29.2686 129.023 33.7394 129.97 38.018 131.609C38.5465 131.812 38.6994 132.34 38.5844 132.769C38.8891 132.683 39.1937 132.595 39.4985 132.51C39.1646 131.997 39.3239 131.081 39.3502 130.514L39.3518 130.475C39.3788 129.718 39.4608 128.961 39.5139 128.205C39.6152 126.766 39.7469 125.337 39.9222 123.905L39.9669 123.547C40.1655 121.99 40.3123 120.424 40.5289 118.869L40.5545 118.691C40.4506 118.293 40.3297 117.9 40.2027 117.509C39.8644 116.467 39.3868 115.486 38.9684 114.477C38.919 114.358 39.0881 114.29 39.167 114.361C39.8758 115 40.4388 115.809 40.891 116.656C40.8989 116.616 40.9058 116.576 40.914 116.536L40.9656 116.282C41.0929 115.662 41.2477 115.009 41.6277 114.506C41.6682 114.453 41.7482 114.442 41.7865 114.506C42.1502 115.122 42.1909 115.903 42.2468 116.604C42.3101 117.397 42.3181 118.2 42.3069 118.996C42.2851 120.55 42.1757 122.109 42.0885 123.661C42.003 125.186 41.835 126.692 41.6185 128.202L41.5774 128.485C41.4716 129.204 41.385 129.931 41.2454 130.645L41.206 130.84C41.1314 131.194 41.0855 131.693 40.9369 132.107C44.7583 131.04 48.5856 129.997 52.4201 128.973C55.1915 128.232 57.9658 127.503 60.7389 126.769C60.8853 126.505 61.0675 126.258 61.2949 126.038C62.0441 125.311 63.037 124.987 63.9476 125.546C64.0216 125.592 64.0279 125.708 63.9476 125.752C63.7731 125.847 63.5983 125.945 63.4266 126.047L65.0918 125.596C66.3364 125.258 67.5959 124.836 68.8698 124.601C71.2162 123.441 73.7397 122.602 76.2115 121.773L76.5027 121.674C77.7683 121.242 79.0773 120.759 80.3849 120.519C81.3421 120.344 82.4658 120.555 82.8507 121.537C83.338 121.859 83.7965 122.237 84.239 122.608C84.5589 122.877 84.8655 123.162 85.1773 123.44L85.2348 123.491C85.4897 123.712 85.6917 123.861 85.7543 124.213C85.7866 124.395 85.671 124.641 85.4467 124.617C84.7605 124.544 84.2024 123.747 83.737 123.272C83.3775 122.904 83.015 122.524 82.6868 122.12C82.4955 122.224 82.2333 122.206 82.1115 121.975C81.48 120.777 79.7502 121.607 78.793 121.891L77.4219 122.297C76.7364 122.501 76.0512 122.705 75.3671 122.913C73.487 123.485 71.6161 124.125 69.7189 124.65C69.8886 124.836 69.8652 125.169 69.5428 125.295C68.0577 125.879 66.4285 126.18 64.8857 126.581C63.9116 126.834 62.9381 127.088 61.965 127.344C61.7981 127.615 61.6781 127.921 61.6276 128.277C61.4418 129.588 61.8 131.1 62.1489 132.367L62.2015 132.556C62.4883 133.576 62.9102 134.825 63.7884 135.468C64.0027 135.625 64.2757 135.734 64.5508 135.759C66.2699 134.873 67.9888 133.987 69.7087 133.103C70.0274 132.939 70.3218 133.161 70.3932 133.425C70.9997 133.325 71.6048 133.168 72.1559 132.981C73.0819 132.666 73.8049 132.066 74.673 131.65C76.3527 130.847 78.068 131.834 79.572 132.584L79.9186 132.755C80.593 133.082 81.9961 133.712 82.3197 132.815C82.6326 131.949 81.6431 131.022 81.004 130.632C80.2422 130.167 79.3552 129.918 78.4943 129.711C78.0027 129.592 77.5051 129.495 77.0045 129.425C76.4367 129.345 75.8502 129.357 75.3034 129.172C75.0318 129.081 74.99 128.649 75.3034 128.578C76.145 128.386 77.1495 128.595 78.0277 128.809L78.4868 128.922C79.3716 129.139 80.265 129.412 81.0709 129.846C81.6569 130.161 82.2755 130.641 82.6796 131.227C83.0305 130.901 83.4672 130.912 83.9221 131.033L84.1691 131.102C84.5768 131.215 84.9073 131.293 85.3041 131.214C85.3571 130.925 85.4109 130.636 85.4684 130.347C86.0338 127.505 86.6539 124.674 87.338 121.858C88.5182 117.001 89.8837 112.197 91.4232 107.442L91.5778 106.967C91.9328 105.88 92.2186 104.695 92.791 103.696C93.3324 102.751 94.1999 102.207 95.2304 101.919C96.4 101.592 97.6289 101.421 98.822 101.2C99.0881 101.15 99.355 101.104 99.6214 101.055C99.3962 100.648 99.2282 100.186 99.0769 99.8319L99.0503 99.7705C98.7252 99.0283 98.4331 98.2726 98.151 97.513L97.94 96.9419C97.4307 95.5666 96.905 94.214 96.1889 92.9278C95.4352 91.5741 94.4353 90.4674 93.1889 89.5515C90.6475 87.6838 87.5844 86.7312 85.1195 84.7352C85.0184 84.6535 85.1479 84.5136 85.2505 84.5654C86.9148 85.4027 88.7116 85.972 90.4427 86.6537L90.7842 86.7886C92.1525 87.3317 93.5421 87.9229 94.7264 88.8022C96.0468 89.7827 97.0867 91.0003 97.8683 92.4483C98.6386 93.8756 99.1314 95.4732 99.6749 96.9977L99.8202 97.404C100.039 98.0131 100.266 98.6204 100.525 99.2132C100.731 99.6838 101.116 100.221 101.29 100.759C101.768 100.676 102.246 100.592 102.725 100.512C113.088 98.78 123.567 97.7621 134.069 97.4643C134.48 97.4527 134.692 97.8452 134.632 98.2041C133.624 104.171 132.728 110.159 131.746 116.13C131.317 118.737 130.879 121.341 130.431 123.944C130.205 125.263 129.942 126.576 129.727 127.897C129.554 128.964 129.428 130.039 129.13 131.081C128.863 132.015 128.453 132.916 127.78 133.628C127.055 134.397 126.042 134.768 125.023 134.944C122.435 135.39 119.78 135.572 117.172 135.869L103.282 137.451C103.485 139.299 103.5 141.117 103.407 142.986L103.354 144.006C103.311 144.826 103.259 145.648 103.141 146.46C102.993 147.479 102.528 148.342 101.842 149.102C101.213 149.801 100.448 150.397 99.7043 150.969C98.9321 151.562 98.1342 152.135 97.2263 152.501L97.1085 152.548C96.312 152.86 94.8179 153.342 93.7292 153.166C93.8715 153.879 94.1469 154.647 93.9028 155.353C93.7896 155.681 93.3611 155.845 93.0987 155.566C92.5787 155.013 92.5381 154.282 92.415 153.561C92.2868 152.81 92.1764 152.056 92.0782 151.3C91.8884 149.84 91.7407 148.366 91.6956 146.893C91.6493 145.38 91.6671 143.865 91.7486 142.354C91.7904 141.578 91.8423 140.802 91.9407 140.031C91.9827 139.703 92.0256 139.373 92.0746 139.045C92.0924 138.926 92.1123 138.807 92.1336 138.688L90.8869 138.829C88.9754 139.043 87.0629 139.235 85.1378 139.265C84.9098 139.269 84.7344 139.165 84.6198 139.014C84.4977 139.213 84.285 139.355 83.9805 139.354C81.2921 139.344 78.7886 138.464 76.3434 137.427C75.1109 136.904 73.8975 136.337 72.6631 135.819C71.511 135.335 70.2793 134.989 69.155 134.444L66.2006 135.996C66.1789 136.072 66.1511 136.144 66.1216 136.205C65.9292 136.598 65.5499 136.811 65.1626 136.972C64.7908 137.126 64.4058 137.174 64.0306 137.135C61.79 138.311 59.5489 139.485 57.3062 140.657L55.063 141.828C50.5938 144.158 46.1422 146.526 41.6449 148.801L41.3138 148.968C39.7604 149.748 38.0923 150.538 36.3684 151.128C36.3377 151.565 36.3571 151.99 36.3937 152.452L36.4025 152.553C36.4539 153.1 36.5641 153.784 36.1263 154.173C35.8985 154.376 35.4917 154.376 35.3368 154.071C35.0558 153.518 35.3081 152.646 35.3971 152.045C35.4287 151.831 35.4672 151.612 35.5242 151.399C33.5479 151.988 31.5117 152.273 29.5006 151.942C27.5425 151.621 26.026 150.386 24.8034 148.875C23.5131 147.281 22.5962 145.423 22.1043 143.431C21.5444 141.165 21.5079 138.825 21.521 136.503C21.535 134.032 21.6263 131.547 21.9266 129.092C21.5976 129.015 21.2327 128.948 20.9003 128.971C20.7356 129.235 20.4162 129.346 20.1275 129.311C19.4999 130.004 21.0919 130.713 21.6007 130.89C21.7774 130.952 21.7585 131.239 21.5547 131.23L21.4263 131.224C20.6402 131.182 19.828 131.048 19.3658 130.317C18.9954 129.73 19.1066 129.036 19.5482 128.558C19.8398 125.797 20.537 123.108 21.1859 120.415C21.8227 117.772 22.5309 115.145 23.2815 112.532L23.618 111.362C24.7998 107.265 26.035 103.134 27.6652 99.1994C28.4792 97.2348 29.417 95.3063 30.6881 93.5932C31.873 91.9963 33.2719 90.6298 34.8799 89.4627C37.8776 87.2868 41.395 85.972 44.8511 84.7194L45.0058 84.6634C46.7968 84.0147 48.5834 83.3584 50.3539 82.6555C51.9198 82.034 53.42 81.246 54.9785 80.6151C54.9279 80.5231 54.879 80.4301 54.8319 80.336L54.8031 80.3602C54.7982 80.3641 54.7931 80.3679 54.7879 80.3715C54.6312 80.4803 54.4004 80.4268 54.2713 80.3048C53.9066 79.9602 54.03 79.5778 54.2735 79.2205L54.3052 79.175C54.6029 78.7574 54.8685 78.3159 55.1433 77.8831L55.3154 77.6125C55.7766 76.8895 56.2614 76.1617 56.8764 75.5642C57.1612 75.2874 57.473 75.0802 57.8034 74.9259C57.7752 74.866 58.0229 74.7438 58.0931 74.8053C59.1398 74.4218 60.3441 74.5021 61.4853 74.6079M102.61 137.528L101.155 137.694C99.5537 137.876 97.952 138.052 96.3501 138.227L92.8707 138.606C92.8618 138.804 92.8377 138.998 92.8333 139.148C92.8106 139.922 92.7937 140.695 92.7776 141.469C92.7455 143.019 92.7808 144.571 92.8827 146.118C92.9815 147.618 93.1116 149.117 93.3139 150.607L93.3553 150.904L93.3792 151.061C93.5443 151.077 93.7064 151.155 93.8412 151.317C94.1355 151.668 95.2011 151.326 95.6173 151.178C96.3017 150.934 96.9462 150.522 97.5409 150.109C98.1217 149.706 98.6446 149.235 99.1472 148.74L99.5583 148.333C99.9673 147.926 100.377 147.492 100.627 146.98C100.967 146.286 101.011 145.434 101.111 144.678C101.233 143.748 101.38 142.818 101.534 141.893M60.3631 127.767L60.2122 127.806C54.7287 129.265 49.2535 130.767 43.7532 132.162C41.0313 132.852 38.2964 133.492 35.5711 134.169L35.1299 134.279C32.9799 134.823 30.8042 135.478 29.1578 137.039C29.097 137.097 29.0088 137.009 29.066 136.947C30.8404 135.056 33.364 134.256 35.787 133.562C36.2349 133.433 36.6834 133.308 37.1314 133.18C33.8361 132.004 30.4888 130.981 27.0642 130.251C26.1824 130.063 25.2903 129.925 24.4091 129.737C23.7946 129.605 23.1945 129.415 22.5865 129.257L22.1082 129.136L22.1019 130.65C22.0939 132.793 22.0977 134.935 22.2069 137.078L22.2276 137.475C22.355 139.86 22.554 142.295 23.3993 144.544C24.0863 146.371 25.1812 148.093 26.6131 149.424C27.3376 150.098 28.1166 150.622 29.0795 150.881C29.9735 151.121 30.9102 151.149 31.8293 151.085C36.2378 150.777 40.162 148.379 43.9914 146.394C50.2551 143.147 56.5195 139.902 62.7895 136.667C62.62 136.551 62.4604 136.417 62.3152 136.267C61.4744 135.398 61.0309 134.207 60.7396 133.055C60.4295 131.828 60.2441 130.513 60.2225 129.246M68.3411 137.92C68.3964 137.891 68.4606 137.928 68.4631 137.991C68.4825 138.47 68.2178 138.943 68.0201 139.375L67.9992 139.421C67.759 139.956 67.4959 140.484 67.2239 141.003C66.6802 142.042 66.1151 143.069 65.5254 144.081C64.3395 146.118 63.0216 148.069 61.4639 149.842C61.1121 150.243 60.5334 149.729 60.7592 149.298C61.8478 147.219 63.1169 145.255 64.4232 143.309C65.0772 142.334 65.7307 141.359 66.3911 140.389C66.6666 139.984 66.9456 139.581 67.2322 139.184L67.4051 138.946M133.375 98.6553C127.872 98.8217 122.376 99.181 116.9 99.7441C111.806 100.268 106.732 100.965 101.686 101.834C100.632 102.015 99.5797 102.204 98.5284 102.4L97.8978 102.519C96.8464 102.719 95.5619 102.801 94.6257 103.363C93.6387 103.956 93.372 105.195 93.0436 106.217C92.6575 107.419 92.2812 108.624 91.9151 109.832C90.4612 114.629 89.133 119.467 87.9483 124.337C87.3602 126.754 86.8384 129.185 86.2885 131.611C85.8 133.767 85.2611 135.898 84.698 138.032C84.7674 137.978 84.8525 137.937 84.9552 137.915C87.7514 137.32 90.6057 137.061 93.4437 136.732L93.7183 136.7C96.6541 136.354 99.59 136.011 102.528 135.68L121.977 133.49C123.124 133.361 124.353 133.343 125.469 133.035C127.367 132.511 127.812 130.387 128.13 128.695L128.14 128.644C129.1 123.532 129.864 118.376 130.759 113.251M85.1506 132.09C84.3955 132.04 83.362 131.348 82.7891 131.397C83.0899 131.903 83.2256 132.479 83.0523 133.094C82.5699 134.807 80.3885 133.921 79.3377 133.398C78.4762 132.968 77.6443 132.443 76.6905 132.242C75.61 132.015 74.8779 132.445 73.9651 132.941C73.2153 133.348 72.3987 133.641 71.559 133.792C71.1125 133.873 70.6884 133.881 70.265 133.85C70.2395 133.871 70.2108 133.89 70.1781 133.907L69.9541 134.025C70.9667 134.071 71.9981 134.384 72.9405 134.67C73.917 134.967 74.8756 135.325 75.8292 135.691L76.7672 136.052C79.0811 136.939 81.4763 137.781 83.9805 137.774C84.1605 137.773 84.308 137.823 84.4241 137.905M80.9259 126.724C81.6719 126.633 82.3604 126.731 82.9565 127.217C83.6754 127.803 84.1583 128.776 85.1918 128.84C85.4931 128.858 85.5631 129.282 85.2636 129.371C84.4943 129.599 83.8715 129.182 83.3474 128.641L82.995 128.273C82.4771 127.736 81.9994 127.321 81.1205 127.353C80.1793 127.387 79.2365 127.605 78.3014 127.715C77.2421 127.841 76.183 127.948 75.1204 128.04C75.071 128.044 75.0626 127.967 75.1088 127.955L76.299 127.659M80.2058 123.671L80.3288 123.658C81.4121 123.553 82.4028 123.549 83.3702 124.132L83.5558 124.245C84.428 124.776 85.3774 125.401 85.9229 126.26C86.0121 126.401 85.8646 126.567 85.7153 126.531C84.6669 126.279 83.9005 125.509 83.0189 124.932C82.0295 124.286 81.0075 124.392 79.8793 124.493C78.787 124.59 77.6953 124.724 76.6138 124.906C75.5975 125.077 74.578 125.347 73.5514 125.433L73.5517 125.431C73.4344 125.431 73.3675 125.255 73.4871 125.195C74.5289 124.674 75.7354 124.428 76.8686 124.19M113.113 112.951C113.008 112.449 113.624 112.217 113.91 112.615L113.971 112.699C114.588 113.545 115.48 114.606 115.434 115.682C115.976 115.694 116.539 116.024 116.75 116.514C116.848 116.741 116.881 117.009 116.859 117.287C117.352 117.326 117.889 117.65 118.191 117.965C118.69 118.488 118.73 119.227 118.371 119.838C117.59 121.17 115.884 121.654 114.443 121.763L114.392 121.766C112.904 121.869 110.759 121.841 109.739 120.563C108.755 119.33 109.843 118.332 110.958 117.79C110.668 117.524 110.517 117.144 110.659 116.742C110.907 116.037 111.783 115.764 112.279 115.274C112.883 114.676 113.282 113.855 113.122 112.998M113.931 114.035C113.767 114.749 113.364 115.402 112.802 115.92C112.588 116.118 112.353 116.294 112.103 116.445L112.073 116.463C111.852 116.587 111.307 116.82 111.349 117.1C111.392 117.387 112.279 117.836 112.521 117.836C112.576 117.836 112.607 117.922 112.551 117.947C112.113 118.141 111.73 118.224 111.302 118.019C111.016 118.312 110.738 118.614 110.462 118.914C109.975 119.445 110.142 120.006 110.717 120.401C111.642 121.037 113.047 121.021 114.126 120.975C115.212 120.929 116.373 120.686 117.221 119.962L117.258 119.93C117.719 119.519 118.14 118.824 117.434 118.428C117.157 118.274 116.859 118.283 116.596 118.207C116.351 118.69 115.952 119.076 115.466 119.15C115.073 119.21 114.802 118.716 115.16 118.479L115.24 118.429C115.689 118.143 116.072 117.701 116.062 117.126C116.055 116.726 115.498 116.222 115.135 116.597L115.118 116.615C114.815 116.958 114.28 116.526 114.48 116.146L114.489 116.129M43.1127 94.1784C43.1113 94.0926 43.2318 94.0605 43.2739 94.1348C43.9787 95.3763 44.3472 96.8982 44.7226 98.266C45.1159 99.6989 45.4333 101.146 45.7185 102.604C46.2961 105.557 46.6039 108.492 46.6248 111.501C46.6277 111.931 45.9286 112.045 45.8602 111.605C45.4062 108.678 44.9713 105.748 44.5138 102.822C44.2836 101.35 44.0157 99.8839 43.7594 98.4165M50.0903 96.3409C50.0384 96.1697 50.2873 96.1124 50.3509 96.269C51.7654 99.7454 52.2444 103.685 51.3363 107.353C51.1973 107.914 50.3766 107.671 50.4814 107.117M68.3354 93.2519C68.3283 93.1238 68.4945 93.1035 68.5571 93.1918C69.2273 94.1373 69.5053 95.4035 70.6812 95.8921C71.2683 96.1361 71.9289 96.0936 72.4476 96.5057C72.7944 96.7813 73.0603 97.2163 72.8 97.6337C72.7161 97.7686 72.4811 97.8361 72.3671 97.6896C72.2009 97.4761 72.1129 97.2205 71.887 97.0605C71.5683 96.8347 71.1387 96.8208 70.7733 96.7147C70.3008 96.5775 69.8843 96.3375 69.5431 95.9808M79.5325 77.4819C79.6016 77.4467 79.6679 77.4692 79.712 77.5291C79.7751 77.6143 79.7674 77.6972 79.6901 77.7556C79.7933 77.9668 79.9152 78.4958 79.9326 78.5728C80.0032 78.885 80.0783 79.1954 80.1568 79.5055C80.3153 80.1309 80.4541 80.7612 80.6127 81.3869C80.7808 82.0501 80.9811 82.7063 81.204 83.353C81.2184 83.3948 81.2342 83.4376 81.2508 83.481L81.2762 83.5465L81.2824 83.5366C81.3278 83.4649 81.4221 83.515 81.4109 83.5907C81.4005 83.6597 81.3866 83.7284 81.3748 83.7975L81.3982 83.8593C81.544 84.2523 81.6438 84.6661 81.3763 85.0128C81.2762 85.1425 81.1661 85.2193 81.0288 85.2421C80.8088 85.9684 80.5328 86.6811 80.2372 87.3655L80.1506 87.5654C79.7158 88.5642 79.2521 89.5498 78.5599 90.4001C77.8041 91.3284 76.7645 91.9622 76.1062 92.9794C75.7999 93.4526 75.5868 93.9501 75.4138 94.4845L75.3488 94.6873C75.226 95.0652 75.0843 95.4316 74.7302 95.6533C74.6172 95.7239 74.4479 95.7014 74.3568 95.605C73.6307 94.8359 74.3909 93.3998 74.8287 92.6552C75.4374 91.6198 76.3183 90.9574 77.2003 90.1762C78.1511 89.3341 78.7576 88.2077 79.3442 87.098C79.7035 86.4182 80.0504 85.7237 80.4156 85.0409C80.034 84.7032 79.9119 84.0325 79.7826 83.5663L79.7709 83.5245C79.5572 82.778 79.3874 82.012 79.2802 81.2427C79.177 80.503 79.1339 79.7739 79.1612 79.0301L79.1691 78.8406M80.9512 81.0025C80.8669 80.8868 81.0064 80.7558 81.1221 80.7799C81.8253 80.9255 82.5128 81.3517 83.144 81.6963L83.2114 81.7329C83.7152 82.005 84.2221 82.3382 84.4867 82.8666C84.7744 83.441 84.7507 84.1025 84.7114 84.7267L84.7077 84.7851C84.6596 85.5336 84.6519 86.3114 84.4937 87.0464C84.4127 87.4226 84.0724 87.5286 83.7815 87.4396C83.4353 88.5341 82.4628 89.3405 81.7525 90.2041C80.8468 91.3051 81.0172 92.7917 81.1119 94.1177C81.1502 94.6546 80.4832 94.8073 80.1397 94.5208L79.348 93.8624C79.2162 93.7525 79.0845 93.6424 78.9532 93.5319C78.8407 93.4371 78.7293 93.3417 78.6187 93.245L78.4536 93.099C78.3804 93.0334 78.0574 92.6722 77.963 92.6572C77.7342 92.6208 77.1907 93.2244 77.0047 93.4137L76.9811 93.4373C76.631 93.7811 76.3147 94.1509 76.0201 94.5431C75.9659 94.6151 75.8599 94.5553 75.8987 94.4721C76.1627 93.9059 76.4696 93.3645 76.8341 92.8578L76.9078 92.7569C77.1503 92.4297 77.4759 91.8519 77.9039 91.7553C78.4266 91.6374 78.9485 92.1622 79.3288 92.4535L79.3529 92.4717C79.5338 92.6076 79.7127 92.746 79.8912 92.8852C79.8725 91.8979 79.997 90.9003 80.5062 90.0495C80.8651 89.4495 81.403 89.0051 81.8632 88.4894C82.3756 87.9152 82.6431 87.2095 83.1069 86.6116C83.1666 86.5347 83.249 86.4932 83.3381 86.4801C83.3559 85.9993 83.4266 85.5138 83.4813 85.0383L83.4971 84.896C83.5524 84.3793 83.6829 83.7482 83.4302 83.2643C83.1916 82.8072 82.644 82.4846 82.2385 82.1745L81.9074 81.9174M58.1283 75.5392C57.9165 75.6618 57.7187 75.8143 57.5391 76.0049C56.9739 76.6052 56.5699 77.3522 56.1766 78.0709C55.9649 78.4579 55.7608 78.8492 55.5474 79.2353C55.4545 79.4033 55.359 79.5694 55.2625 79.7353C55.2179 79.8118 55.0853 79.9637 55.0196 80.0574C55.0926 80.1598 55.1681 80.2607 55.2451 80.3605C55.2745 80.3986 57.3019 82.6098 58.0086 83.4752C59.0907 84.8008 60.058 86.201 60.8849 87.6996C61.6947 89.1673 62.3112 90.7211 63.0613 92.2171C63.4368 92.9661 63.8561 93.7098 64.3905 94.358C64.4112 94.3833 64.433 94.4072 64.4541 94.4321C64.6581 93.8803 65.1808 93.2896 65.4375 92.9503L65.4615 92.9183C66.0437 92.1325 66.6586 91.3703 67.2868 90.6211C67.8607 89.937 68.4491 89.2676 69.0517 88.6093L69.2784 88.363C69.6982 87.9089 70.2316 87.2294 70.8462 86.9049C70.7804 86.7874 70.7041 86.6711 70.6165 86.5564C70.0406 85.8029 69.2265 85.2561 68.4233 84.7627L67.9023 84.4454C65.9387 83.2473 64.0057 81.9937 62.301 80.437C61.3991 79.6133 60.5097 78.7505 59.7516 77.7897L59.4835 77.45M61.4046 74.9461C60.4851 75.0233 59.4921 75.0049 58.6423 75.3049C59.3978 76.02 60.1159 76.792 60.8535 77.5191C60.9192 77.0273 61.0534 76.5416 61.1671 76.0621" fill="black"/>
<path fill-rule="evenodd" clip-rule="evenodd" d="M92.4261 37.392C92.3875 36.0113 90.386 35.4381 89.8078 36.8055C89.7719 36.8421 89.7328 36.8773 89.6963 36.9088C89.8773 36.753 89.4988 37.0108 89.4372 37.0426C89.3845 37.0699 89.3307 37.0945 89.2769 37.1199C88.905 33.6221 87.6424 29.8514 84.3799 28.0957C79.8294 25.8817 74.5713 25.4495 69.5791 25.6695C67.0501 25.82 64.1298 26.2258 61.883 24.9421C61.1829 24.5421 60.6216 23.9125 59.8305 23.6653C57.3331 22.9875 56.2003 25.5606 56.5404 27.6766C55.4752 27.6851 54.4185 28.2768 53.9588 29.251C53.6888 29.8276 53.6935 30.4499 53.4607 31.0285C52.7465 32.496 51.7245 33.5509 52.3023 35.3301C51.2861 36.4904 51.8655 38.2469 52.6855 39.3577C53.0904 39.9355 53.5727 40.4901 53.8694 41.1368C54.1573 41.756 53.7226 42.4904 53.4807 43.0774C51.6925 47.3319 51.7947 52.0174 52.7569 56.4552C50.826 57.2959 50.2465 59.9238 51.5056 61.5784C51.9389 62.1633 52.4674 62.3804 53.0668 62.7403C53.8254 63.1592 53.2058 64.837 53.4488 65.6473C53.7788 67.6255 55.5739 68.8437 57.3489 67.5591C58.4753 67.3881 59.3838 70.6763 60.2017 71.5016C60.7056 72.1667 61.2651 72.7638 61.8734 73.3149C63.6858 77.9939 72.973 80.3666 77.5646 80.0958C82.373 79.5906 85.6168 75.4934 88.3178 71.8571C89.7048 69.9196 90.6068 67.751 90.9349 65.3858C91.2645 63.0087 91.1203 60.6274 90.8975 58.2474C90.4295 53.1907 89.6912 45.9057 89.2144 40.7944C90.9373 40.652 92.4784 39.1802 92.4261 37.392Z" fill="#EEC1A2"/>
<path fill-rule="evenodd" clip-rule="evenodd" d="M58.077 24.3382C58.4117 24.007 58.96 24.3469 59.3226 24.613L59.4028 24.6728L59.6327 24.8481C60.1538 25.2512 60.6415 25.6893 61.2044 26.0379C61.8188 26.4187 62.486 26.7214 63.1636 26.9697C64.4778 27.451 65.8915 27.6671 67.2847 27.7353C72.9849 28.0145 79.6195 25.0094 84.7931 28.5979C86.0194 29.4485 86.8658 30.6922 87.3025 32.1147C87.795 33.7188 87.6263 35.38 88.0293 36.9896C88.2042 37.6883 89.4091 37.7852 89.5437 37.0174L89.5525 36.9579L89.6581 36.8916L89.6997 36.8667C89.7425 36.842 89.762 36.8349 89.725 36.8696L89.7168 36.8771L89.7332 36.8628C89.7457 36.8516 89.7583 36.84 89.7707 36.8282L89.8075 36.7921C90.0643 36.1848 90.6019 35.9603 91.1236 36.0194L91.1089 36.0555L90.9536 36.4571L90.9041 36.5831C90.7214 37.0431 90.5203 37.4786 90.1729 37.8728C89.6812 38.4306 89.0697 38.8852 88.3807 39.165C88.2391 39.2225 88.2604 39.4152 88.4166 39.4308C89.9557 39.5845 91.6892 38.6464 92.413 37.2246C92.4201 37.2747 92.4244 37.3261 92.4258 37.3787C92.4309 37.5519 92.421 37.7221 92.3975 37.8885C92.3118 37.9205 92.2288 37.9679 92.1518 38.0321C91.652 38.4488 91.4066 39.1299 90.9366 39.5948C90.4441 40.082 89.8396 40.5338 89.1833 40.7601C89.1729 40.7637 89.1644 40.7689 89.1568 40.7747C89.1073 40.5863 89.0549 40.3989 88.9951 40.2144C88.9716 40.1419 88.8753 40.16 88.8681 40.2317C88.8549 40.3597 87.0494 39.071 85.6589 39.2792C83.0449 39.6706 82.4413 41.2019 78.6855 40.9758C76.8524 40.8654 72.9812 39.1425 69.5947 39.013C66.5224 38.8955 61.0318 40.6548 59.5832 41.6686C58.8302 42.1956 60.9567 43.9359 60.5715 44.7271C59.4789 46.9715 59.9215 49.9405 58.7791 51.7152L58.735 51.782C58.0034 52.8606 58.4601 55.7308 58.1751 56.6156C57.6607 58.2132 56.8087 57.5135 56.9374 57.7276C56.9781 57.7953 57.0869 57.7514 57.0655 57.6733C56.7143 56.3919 55.7531 55.4243 54.531 55.0712C54.584 54.7674 54.4878 54.3861 54.2995 54.1369L54.2224 53.7764L54.1514 53.4388C53.9877 52.6515 53.8411 51.8649 53.7622 51.056C53.6441 49.843 53.6399 48.6209 53.7176 47.4049C53.8195 45.8071 54.1475 44.2677 54.5081 42.7294L54.5469 42.5646L54.8305 41.3684C55.5393 41.5707 56.2666 41.6985 56.9735 41.7619C57.7965 41.8356 58.6113 41.8288 59.4198 41.7635C60.1364 43.7166 60.1091 45.9404 59.2236 47.8478C58.1876 50.0791 55.6484 52.2104 56.3454 54.9162C56.6494 56.0957 58.4275 55.8549 58.4696 54.6639L58.4704 54.6275C58.477 53.4507 58.8757 52.4816 59.4024 51.4701L59.475 51.3319L59.5954 51.1064C60.2259 49.9233 60.7598 48.7558 60.9373 47.4098C61.1951 45.4545 60.7912 43.4354 59.826 41.7259C63.2639 41.3661 66.5912 40.0006 69.9479 39.267L70.1019 39.2339L70.2565 39.202C72.7363 38.7002 75.4695 38.641 77.7176 39.9509C77.7605 39.9759 77.7944 39.9134 77.7557 39.8855C74.4926 37.5242 70.2667 37.8594 66.5251 38.6915L66.3095 38.74L66.0978 38.7886C62.637 39.5906 59.0113 40.7686 55.4736 39.7309C54.5541 39.4612 53.6617 39.0181 52.9418 38.3765L52.8816 38.3225C52.5772 38.0468 52.2297 37.6901 52.1711 37.2716C52.1505 37.1243 52.157 37.0233 52.2436 36.9067C52.3338 36.7853 52.4915 36.7858 52.4008 36.742C53.4604 37.2544 54.3688 35.782 53.3735 35.144L53.3032 35.1005C52.0298 34.2911 52.666 32.449 54.1268 32.4576L54.2015 32.4589C55.0288 32.4614 55.2824 31.4809 54.8374 30.907L54.7947 30.8535C53.9713 29.7895 55.3573 28.506 56.4356 29.1075L56.4947 29.1416C57.0065 29.4256 57.5447 29.1094 57.7384 28.6078C58.1539 27.5316 57.9412 26.4204 57.9167 25.3065L57.9154 25.2339L57.9136 25.1127L57.9133 25.017L57.9142 24.9536C57.9196 24.7188 57.9499 24.4641 58.077 24.3382ZM89.1958 40.9279L89.2062 40.9302L89.2283 40.9312L89.2485 41.148L89.2226 41.0379L89.1958 40.9279ZM53.8449 41.0719L53.82 41.021L53.9006 41.0536L53.8617 41.1081L53.8449 41.0719ZM76.4172 34.8786C76.3314 34.8541 76.2697 34.988 76.3548 35.027C78.4716 35.9985 80.0771 37.5489 81.3302 39.4916C81.449 39.6755 81.6282 39.7294 81.8344 39.6973C81.9356 39.6816 81.9925 39.6323 82.0465 39.5647L82.06 39.5474L82.1011 39.4916C82.1905 39.3685 82.1787 39.1638 82.1011 39.0394C80.8291 37.0012 78.7004 35.5328 76.4172 34.8786ZM81.4558 34.2423C81.3627 34.2426 81.3132 34.3856 81.3843 34.4463C81.9921 34.9654 82.5857 35.5407 83.0173 36.2199C83.227 36.5495 83.4021 36.901 83.5289 37.2711C83.6671 37.675 83.7119 38.0937 83.9093 38.4756C84.24 39.1157 85.1263 38.7582 85.1708 38.1327C85.2381 37.1893 84.4527 36.1284 83.8304 35.4856C83.199 34.8331 82.4244 34.3832 81.5307 34.2517L81.4682 34.2431L81.4558 34.2423ZM58.1236 33.5038C57.8641 33.438 57.6519 33.7703 57.8559 33.9651C58.9765 35.0362 60.491 35.533 61.9989 35.75L62.0756 35.7608C63.4874 35.955 65.5408 36.0651 66.6053 34.913C66.8308 34.669 66.7601 34.2014 66.3983 34.126C65.9028 34.0227 65.3942 34.0608 64.8916 34.1229L64.7482 34.1412L64.3918 34.1887C63.6878 34.2809 62.9811 34.3372 62.2704 34.3163C60.8475 34.2742 59.4922 33.8514 58.1236 33.5038ZM82.7829 30.0956C82.6337 30.0377 82.4761 30.2435 82.5697 30.3738C82.9991 30.9712 83.5136 31.4937 83.9533 32.082C84.3945 32.6721 84.7629 33.2922 85.2849 33.8172C85.565 34.0989 86.042 33.8124 85.943 33.4328C85.5683 31.9962 84.1429 30.623 82.7829 30.0956ZM60.4428 30.744C60.2861 30.6884 60.1763 30.9061 60.2854 31.0155C61.7303 32.4629 64.3298 33.221 66.2437 32.3849C66.6744 32.1967 66.4105 31.5919 66.0231 31.568C65.0653 31.5088 64.1036 31.6199 63.1507 31.4737C62.2205 31.3309 61.3283 31.0586 60.4428 30.744ZM62.8718 28.8039C62.6648 28.7174 62.5782 29.0273 62.7303 29.1402C63.5478 29.7466 64.5513 30.0095 65.5516 29.7912C65.8774 29.72 65.8071 29.193 65.4728 29.2065C64.5678 29.2427 63.715 29.1561 62.8718 28.8039ZM69.5788 25.6561C70.8175 25.6016 72.0725 25.5871 73.3291 25.6301L72.7715 25.7044L72.3997 25.7531C70.9744 25.9375 69.5469 26.0935 68.1079 26.0872C67.1354 26.0829 66.164 26.0043 65.2143 25.8119C66.669 25.9 68.1835 25.7392 69.5788 25.6561Z" fill="#863D3D"/>
<path fill-rule="evenodd" clip-rule="evenodd" d="M54.8675 34.3513C54.8659 34.3585 54.8684 34.3639 54.87 34.3715C54.8703 34.3693 54.8707 34.3682 54.8712 34.3655C54.8698 34.3598 54.8688 34.356 54.8675 34.3513Z" fill="#4F66AF"/>
<path fill-rule="evenodd" clip-rule="evenodd" d="M54.8671 34.4253C54.8608 34.4186 54.8518 34.4136 54.8428 34.4069C54.8426 34.4072 54.8425 34.4074 54.8423 34.4076C54.8507 34.4132 54.8588 34.4195 54.8671 34.4253Z" fill="#4F66AF"/>
<path fill-rule="evenodd" clip-rule="evenodd" d="M92.1521 38.0454C92.7181 37.5736 93.6095 38.008 93.4178 38.7847C93.2092 39.6305 92.3056 40.2085 91.5597 40.5561C90.792 40.9137 90.0441 40.9826 89.2065 40.9436L89.1961 40.9412C89.4287 41.8768 89.5605 42.8493 89.7385 43.7906C89.9642 44.9847 90.1863 46.1793 90.4051 47.3746C90.6167 48.5299 90.8842 49.6866 91.0468 50.8477C91.2108 52.0197 91.3682 53.1926 91.5293 54.365C91.7982 56.3231 92.0152 58.2901 92.244 60.2538L92.3531 61.1833C92.5823 63.1507 92.7668 65.1205 92.3324 67.0784C91.9254 68.9133 91.0085 70.6248 89.945 72.1565C88.9035 73.6563 87.74 75.0984 86.4628 76.403C83.9992 78.919 80.9612 80.9341 77.399 81.3079C75.8652 81.4688 74.227 81.2897 72.785 80.7303L72.6893 80.6928C71.2296 80.1146 69.442 79.1245 69.0621 77.4998C68.8289 76.5031 69.8525 75.725 70.7499 76.198C71.1657 76.4171 71.4784 76.6675 71.8197 76.9815L71.8803 77.0376C72.1592 77.2975 72.2666 77.3774 72.5885 77.5807C73.2486 77.9974 73.7434 78.1946 74.4933 78.384C75.8758 78.7329 77.3678 78.6777 78.7712 78.265C81.751 77.3889 84.0626 75.1028 86.0429 72.8106C87.1181 71.5658 88.1387 70.2601 88.9258 68.8093C89.7517 67.2872 90.1329 65.6892 90.11 63.9573C90.0841 62.0031 89.815 60.0413 89.6383 58.0964C89.4584 56.1136 89.292 54.1315 89.1454 52.1459C89.008 50.2839 88.9948 48.4135 88.9468 46.5457L88.9373 46.1955C88.9091 45.2039 88.8896 44.212 88.8671 43.2202C88.8449 42.2313 88.7669 41.2298 88.8684 40.245C88.8756 40.1733 88.9719 40.1552 88.9954 40.2277C89.0553 40.4122 89.1076 40.5996 89.1571 40.788C89.1647 40.7823 89.1732 40.7771 89.1836 40.7735C89.8399 40.5472 90.4444 40.0954 90.9369 39.6082C91.4069 39.1432 91.6524 38.4621 92.1521 38.0454ZM56.2403 24.1905C56.6526 22.4914 58.5081 22.1119 59.8801 22.9301C60.54 23.3236 61.0685 23.8911 61.6849 24.3421C62.2978 24.7905 62.9751 25.1507 63.6898 25.405C65.1097 25.9103 66.6075 26.094 68.1082 26.1006C71.7606 26.1166 75.3384 25.0867 78.9962 25.2016C81.8266 25.2905 84.8307 26.1298 86.8837 28.1826C87.9897 29.2885 88.7024 30.7103 89.0846 32.2197C89.2633 32.9251 89.3965 33.6477 89.5015 34.3686L89.5272 34.5488C89.586 34.9701 89.6804 35.4161 89.6891 35.8419C89.697 36.2243 89.6006 36.6245 89.5484 37.003C89.4382 37.8008 88.2066 37.7099 88.0296 37.003C87.6266 35.3933 87.7953 33.7321 87.3028 32.128C86.8661 30.7056 86.0198 29.4618 84.7934 28.6112C79.6198 25.0227 72.9853 28.0278 67.285 27.7486C65.8918 27.6804 64.4781 27.4644 63.164 26.983C62.4863 26.7348 61.8191 26.432 61.2047 26.0513C60.6418 25.7026 60.1541 25.2645 59.633 24.8614L59.4031 24.6861C59.0459 24.4165 58.4378 23.9949 58.0774 24.3516C57.9205 24.5068 57.911 24.8579 57.9139 25.126L57.9157 25.2472C57.932 26.3854 58.1632 27.5215 57.7387 28.6212C57.545 29.1227 57.0068 29.439 56.495 29.1549L56.4685 29.1397C55.3858 28.4934 53.9632 29.792 54.795 30.8668L54.8209 30.8993C55.2888 31.4699 55.0394 32.4748 54.2018 32.4723L54.1716 32.4717C52.6794 32.425 52.0173 34.2962 53.3035 35.1138L53.3431 35.1383C54.3874 35.7654 53.4714 37.2729 52.4011 36.7553C52.4918 36.7992 52.3341 36.7986 52.2439 36.9201C52.1573 37.0367 52.1508 37.1376 52.1714 37.2849C52.2339 37.7313 52.6252 38.1075 52.9421 38.3899C53.662 39.0315 54.5544 39.4745 55.4739 39.7442C59.1574 40.8247 62.9365 39.503 66.5254 38.7048C70.267 37.8727 74.4929 37.5375 77.756 39.8988C77.7948 39.9268 77.7608 39.9892 77.7179 39.9643C75.3761 38.5998 72.508 38.7209 69.9482 39.2803C66.5915 40.0139 63.2642 41.3795 59.8264 41.7393C60.7915 43.4487 61.1954 45.4678 60.9376 47.4231C60.7601 48.7691 60.2263 49.9366 59.5957 51.1198L59.4753 51.3453C58.9131 52.4073 58.4776 53.4105 58.4707 54.6409C58.4639 55.8632 56.6527 56.1209 56.3457 54.9295C55.6487 52.2237 58.1879 50.0924 59.2239 47.8612C60.1094 45.9538 60.1367 43.7299 59.4201 41.7769C58.6116 41.8421 57.7968 41.8489 56.9738 41.7753C56.2669 41.7119 55.5396 41.5841 54.8308 41.3818L54.5472 42.5779C54.1715 44.1712 53.8234 45.7634 53.7179 47.4183C53.6402 48.6343 53.6444 49.8563 53.7626 51.0693C53.8647 52.117 54.0804 53.1274 54.2998 54.1503C54.4881 54.3994 54.5843 54.7808 54.5314 55.0846C55.7534 55.4376 56.7146 56.4052 57.0659 57.6867C57.0873 57.7647 56.9784 57.8086 56.9377 57.741C56.1044 56.3538 53.9588 55.8434 52.6015 56.7598C51.3053 57.6347 50.794 59.4013 51.5277 60.7997C51.9136 61.535 52.4858 62.0517 53.2236 62.4076L53.372 62.4775C53.7586 62.661 54.1136 62.8611 54.3622 63.2298C54.6848 63.708 54.6956 64.2136 54.6651 64.7601L54.652 64.9815C54.6316 65.3478 54.627 65.7249 54.7357 66.0773L54.7604 66.1556C54.7891 66.2435 54.8193 66.321 54.8716 66.4049C54.8873 66.4299 55.0341 66.5744 55.082 66.6267L55.1423 66.645L55.2097 66.6478C55.2845 66.6489 55.3828 66.6164 55.3506 66.6389L55.3594 66.6339C55.3877 66.6162 55.4138 66.5974 55.4358 66.5807L55.4776 66.548C55.5753 66.4063 55.6977 66.2893 55.8479 66.2L55.9914 66.1359C56.3641 65.7411 57.0028 65.9485 57.27 66.3419C57.4623 66.6248 57.5657 66.9124 57.5742 67.1961C57.6043 67.1477 57.671 67.1213 57.7135 67.1754L57.9668 67.4993C58.9361 68.742 59.8888 69.9924 60.9902 71.1252C61.597 71.7494 62.2497 72.3359 62.932 72.8761C63.5145 73.3374 64.6194 73.7812 64.6363 74.6214C64.6416 74.8941 64.4486 75.0873 64.2125 75.1799C63.444 75.4811 62.4943 74.4565 61.9392 73.958L61.8939 73.9177C61.2145 73.3206 60.5945 72.6653 60.0223 71.9645C58.9111 70.6031 57.9818 69.0362 57.5723 67.3125C57.5531 67.6132 57.4244 67.908 57.174 68.1861C56.8407 68.5563 56.3844 68.8159 55.8971 68.9228C54.7929 69.1649 53.7149 68.7662 53.058 67.8431C52.5027 67.0627 52.3392 66.0322 52.4108 65.0894L52.4197 64.9763C52.4297 64.8251 52.4426 64.5476 52.4816 64.4295L52.1339 64.238C51.7077 64.0104 51.3126 63.7121 50.9581 63.3842C49.5331 62.0661 48.8182 59.924 49.4696 58.0495C49.8771 56.8769 50.7334 55.8565 51.8298 55.3262C51.6465 54.9013 51.5852 54.3966 51.5161 53.9501L51.5045 53.8763C51.3872 53.1438 51.289 52.4021 51.2516 51.6608C51.1817 50.2765 51.2667 48.8792 51.4835 47.5109C51.8356 45.2884 52.5646 42.9314 53.9009 41.0669C52.8814 40.6607 51.9431 40.0727 51.2188 39.2562C50.462 38.4029 49.9795 37.1814 50.5648 36.0978C50.7139 35.8216 50.9083 35.5894 51.1316 35.405C50.7443 34.6711 50.619 33.8038 50.858 32.9748C51.1436 31.9837 51.9191 31.2107 52.8559 30.8498C52.6284 29.9107 52.8143 28.9007 53.5095 28.1181C54.199 27.3417 55.2698 27.059 56.2608 27.2364C56.3145 26.2377 56.0012 25.1755 56.2403 24.1905ZM53.4607 59.2556C54.3693 58.8095 55.4462 58.8804 56.3538 59.3032L56.4153 59.3325C57.4062 59.8146 58.7185 60.941 58.4036 62.139C58.2192 62.8396 57.4434 63.0789 56.8418 62.7765C56.3393 62.5237 56.2247 62.0719 55.9725 61.6181C55.7943 61.2971 55.5739 61.0462 55.3151 60.7881C54.7696 60.2444 54.1568 59.8406 53.4607 59.5174C53.3604 59.4707 53.3638 59.3033 53.4607 59.2556ZM76.3551 35.0403C76.27 35.0013 76.3318 34.8675 76.4175 34.892C78.7007 35.5462 80.8294 37.0146 82.1014 39.0528C82.179 39.1771 82.1908 39.3818 82.1014 39.5049L82.0603 39.5608C82.0019 39.6372 81.9444 39.6936 81.8347 39.7107C81.6285 39.7428 81.4493 39.6889 81.3306 39.5049C80.0774 37.5622 78.4719 36.0118 76.3551 35.0403ZM91.6398 35.425C91.8333 35.0963 92.3461 35.1625 92.4482 35.531L92.463 35.5631C92.5181 35.6887 92.493 35.7144 92.3902 35.6433C92.6448 35.8537 92.7599 36.1671 92.6822 36.504C92.2619 38.3236 90.2077 39.623 88.4169 39.4442C88.2607 39.4286 88.2394 39.2359 88.381 39.1784C89.07 38.8985 89.6815 38.4439 90.1732 37.8862C90.6511 37.344 90.8521 36.7236 91.1092 36.0688C91.2056 35.823 91.3557 35.646 91.5671 35.5494C91.5951 35.5106 91.6194 35.4692 91.6398 35.425ZM81.4561 34.2556L81.4685 34.2564C82.3886 34.3757 83.1846 34.8313 83.8307 35.4989C84.453 36.1418 85.2384 37.2026 85.1711 38.146C85.1266 38.7715 84.2403 39.1291 83.9096 38.489C83.7122 38.107 83.6674 37.6884 83.5292 37.2845C83.4024 36.9143 83.2273 36.5629 83.0176 36.2332C82.586 35.5541 81.9924 34.9788 81.3846 34.4596C81.3135 34.3989 81.363 34.256 81.4561 34.2556ZM57.8562 33.9785C57.6522 33.7836 57.8644 33.4513 58.1239 33.5171C59.4925 33.8648 60.8478 34.2876 62.2707 34.3296C62.9814 34.3505 63.6881 34.2943 64.3921 34.202L64.7485 34.1545C65.2975 34.0826 65.856 34.0262 66.3986 34.1393C66.7604 34.2147 66.8311 34.6823 66.6056 34.9263C65.5411 36.0785 63.4877 35.9683 62.0759 35.7741C60.5428 35.5631 58.9958 35.0677 57.8562 33.9785ZM82.57 30.3872C82.4764 30.2568 82.634 30.0511 82.7832 30.1089C84.1432 30.6363 85.5686 32.0095 85.9433 33.4462C86.0423 33.8257 85.5653 34.1123 85.2852 33.8305C84.7632 33.3056 84.3948 32.6854 83.9536 32.0953C83.5139 31.507 82.9994 30.9846 82.57 30.3872ZM60.2857 31.0288C60.1766 30.9195 60.2864 30.7017 60.4431 30.7574C61.3286 31.072 62.2208 31.3442 63.1511 31.4871C64.1039 31.6332 65.0656 31.5222 66.0234 31.5814C66.4109 31.6053 66.6747 32.2101 66.244 32.3983C64.3301 33.2343 61.7306 32.4762 60.2857 31.0288ZM62.7307 29.1535C62.5785 29.0406 62.6651 28.7307 62.8721 28.8172C63.7153 29.1695 64.5681 29.2561 65.4731 29.2198C65.8074 29.2063 65.8777 29.7334 65.5519 29.8045C64.5516 30.0228 63.5481 29.7599 62.7307 29.1535Z" fill="black"/>
<path fill-rule="evenodd" clip-rule="evenodd" d="M78.1372 70.0761C77.362 69.7595 76.6703 69.2313 76.1647 68.5566C75.9889 68.3221 75.9433 68.0744 75.9802 67.8478C76.0216 67.5931 76.1721 67.3623 76.3774 67.2074C76.5833 67.0521 76.8409 66.9755 77.0899 67.0145C77.3062 67.0484 77.5216 67.1671 77.6921 67.4131L77.7277 67.4623C78.0283 67.8695 78.4201 68.2036 78.8665 68.419C79.2967 68.6265 79.7779 68.7234 80.2758 68.6671C81.2241 68.5598 81.8778 68.0463 82.5725 67.349C82.6587 67.2609 82.7448 67.1701 82.8314 67.0779C82.8861 66.9942 82.962 66.9405 83.0462 66.9123C83.1398 66.881 83.2456 66.8827 83.3426 66.9166C83.436 66.9493 83.5196 67.0112 83.5757 67.0935C83.6289 67.1718 83.6591 67.2686 83.6493 67.3798C83.5857 68.1025 83.2084 68.7475 82.6723 69.2539C82.077 69.8164 81.2879 70.2055 80.5449 70.3419C79.7264 70.4923 78.8924 70.3846 78.1372 70.0761ZM80.9311 58.9274C81.8019 59.4573 83.1287 60.6931 82.1919 62.007C81.0892 63.1654 79.5016 61.8372 78.7193 61.2364C77.9938 60.7709 77.1788 61.9683 77.8518 62.5119C83.5051 66.7025 85.7993 59.0659 81.3715 58.3043C80.884 58.2203 80.7029 58.7634 80.9311 58.9274ZM70.8004 54.0526C70.8966 52.8568 72.7154 52.5853 72.8964 53.7685C73.0584 54.8285 72.8676 55.8021 72.3908 56.7564C71.9352 57.6681 70.79 57.2427 70.7034 56.4126C70.5873 55.2998 70.7405 54.7964 70.8004 54.0526ZM84.6457 53.5232C84.8993 53.1907 85.2654 52.9637 85.7041 53.0919C87.0747 53.4929 86.6707 55.4411 86.1894 56.3894C85.9278 56.9043 85.0824 57.0349 84.7004 56.5815C84.0777 55.8421 83.7795 54.3655 84.5711 53.6371C84.5926 53.5995 84.6164 53.5615 84.6457 53.5232ZM72.3715 48.8204L72.588 48.7825C73.2577 48.6665 74.0905 48.555 74.5643 49.0941C74.8155 49.38 74.902 49.9114 74.5643 50.185C73.9701 50.6665 73.3133 50.4799 72.6013 50.5207C72.0146 50.5544 71.4507 50.6516 70.8855 50.8133C69.6456 51.1682 68.6354 51.8159 67.5764 52.5271C67.4374 52.6204 67.2956 52.4425 67.3619 52.3124C67.9732 51.1135 69.1579 50.1288 70.3445 49.5285C70.9778 49.2081 71.6708 48.9423 72.3715 48.8204ZM83.3964 48.2834L83.5621 48.3173C85.3653 48.6947 87.7081 49.4486 88.5621 51.222C88.5946 51.4728 88.5602 51.5265 88.5323 51.5616L88.523 51.5733C88.4999 51.6033 88.4815 51.6446 88.373 51.6788C88.3429 51.6716 88.3124 51.664 88.2817 51.6559C87.8903 51.5532 87.5806 51.4117 87.2808 51.2649L86.9557 51.1045C86.5785 50.9194 86.1981 50.741 85.7948 50.6092C84.9343 50.3282 84.0492 50.1303 83.1504 50.0246C82.9556 50.0017 82.768 49.9358 82.62 49.823C82.4795 49.7159 82.3722 49.5676 82.3233 49.3706C82.2599 49.1155 82.2781 48.9224 82.4148 48.6923C82.5175 48.5195 82.6646 48.3997 82.8334 48.3309C83.0056 48.2608 83.2016 48.2443 83.3964 48.2834Z" fill="black"/>
</svg>
