<svg width="131" height="177" viewBox="0 0 131 177" fill="none" xmlns="http://www.w3.org/2000/svg">
<path fill-rule="evenodd" clip-rule="evenodd" d="M105.071 118.937C105.071 118.003 103.78 116.345 103.778 115.499C104.863 115.304 105.771 113.831 105.531 112.909C105.107 112.585 103.996 111.946 103.537 111.648C100.738 111.733 101.801 107.834 101.485 105.852C101.166 103.913 100.929 101.886 100.462 99.9356C99.6329 98.3753 99.2438 96.6261 98.4513 95.0736C98.0974 94.5591 97.5254 94.0875 97.3542 93.4897C95.6205 91.5939 93.2339 90.4575 91.2698 88.8518C92.0321 88.6075 91.9812 87.5782 91.932 86.9172C92.1094 86.0548 91.9199 84.9732 91.1344 84.4873C90.8689 83.6214 89.7086 83.3191 89.03 83.8708C88.5843 81.8707 86.8406 80.6572 85.014 79.915C85.0156 79.9091 85.0171 79.9033 85.0189 79.8975C83.1767 79.1654 80.9686 78.8005 79.1306 79.212C80.1008 68.3878 71.8207 67.9904 67.6185 68.9001C65.4691 69.3654 62.2439 70.8139 61.5113 72.8276C61.0977 73.9645 59.9107 77.6311 59.7417 78.8005C56.5328 76.9671 52.8127 74.5496 50.0294 78.2406C49.4721 78.8838 48.8554 79.3616 48.0214 79.5826C45.4175 80.2591 41.9615 80.2817 40.4815 82.9394C39.5969 84.5858 40.3925 85.6707 40.1548 87.3177C28.4337 95.5591 18.6385 125.92 20.8379 140.044C21.3669 145.099 23.95 154.046 30.3258 152.93C33.5777 156.492 88.16 156.492 93.7883 152.93C98.4211 154.144 103.129 152.266 105.071 147.823C107.539 141.731 104.924 135.152 104.461 128.903C104.179 127.325 103.761 126.073 103.537 124.457C103.443 123.784 103.765 122.664 103.537 122.044C103.644 121.64 105.071 119.872 105.071 118.937Z" fill="#EEC1A2"/>
<path fill-rule="evenodd" clip-rule="evenodd" d="M58.9566 78.0551L59.1491 78.1376L59.8101 78.4244L59.6715 78.7426C59.2815 79.6381 58.8432 80.4996 58.3628 81.3107L58.2722 81.4621L58.1332 81.6923L58.1403 81.7001C58.2002 81.7665 58.2613 81.8354 58.3238 81.9067L65.5979 89.7323C68.6663 93.0305 70.2862 94.7658 70.4577 94.9383C71.1729 95.6577 71.8762 95.7475 72.5197 95.1407L72.5922 95.0719L72.7114 94.9569L72.7928 94.877C73.213 94.4616 73.6305 94.0021 74.2307 93.3091L80.9495 83.7666L80.5251 82.8173C79.7461 81.0642 79.3208 80.0392 79.249 79.7423L79.2168 79.5967L79.1496 79.2835L79.4563 79.192C80.5625 78.8621 81.787 78.9486 83.1761 79.3599L83.2564 79.384L83.4878 79.4556C84.4289 79.7485 84.9618 79.9454 85.5075 80.2373C86.2503 80.6344 86.7986 81.1275 87.1408 81.7703C87.5343 82.5099 87.8355 82.8816 88.3428 83.1822L88.3826 83.2054L88.4318 83.2331L88.4837 83.2611C88.5287 83.2849 88.5785 83.3101 88.6384 83.3397L88.8514 83.4427C89.5237 83.7653 89.8325 83.9719 90.097 84.3793C90.3892 84.829 90.4387 85.2501 90.3485 85.8593L90.3404 85.912L90.3263 85.9981L90.2714 86.3146L90.2583 86.3949C90.2226 86.6213 90.2166 86.8206 90.2423 86.9881L90.2487 87.0261L90.3959 87.81L90.1037 87.6242L90.912 88.2838C92.0432 89.211 92.7174 89.7862 93.4223 90.435L93.6172 90.6154L93.6554 90.6512C94.9258 91.8374 95.9575 92.9812 96.821 94.2021C97.7576 95.5259 98.5511 96.9737 99.1919 98.5157L99.2645 98.6923L99.2704 98.7154C100.23 102.482 101.001 106.297 101.582 110.149L101.637 110.522L101.919 112.434L100.992 110.739C100.847 110.476 100.448 110.214 99.9491 110.019L99.9021 110.001L99.868 109.989L99.7967 109.963C99.2498 109.773 98.6982 109.755 98.1815 109.915L98.1282 109.932L97.9714 109.985L97.832 109.896C97.575 109.731 97.2871 109.592 96.9708 109.478L96.8911 109.45L96.5574 109.335L96.6784 109.004C96.7699 108.753 96.6021 108.26 96.3604 108.049C95.9838 107.722 95.4425 107.63 94.6019 107.692L94.488 107.701L94.3978 107.71L94.2625 107.723L93.8358 107.769L93.8358 107.771C93.8305 107.845 93.8271 107.912 93.8257 107.976L93.8251 108.024L93.8251 108.07C93.827 108.229 93.8407 108.376 93.8671 108.513L93.8792 108.571L93.9754 109.001L93.5354 108.993L93.3436 108.99C92.7013 108.982 92.0268 108.992 91.2326 109.019L90.4487 109.048L88.449 109.133L86.695 109.194L86.1722 109.212L86.1473 108.881C86.1144 108.444 85.7412 108.153 85.0802 108.024L85.0376 108.016L84.3471 107.891L84.9143 107.376L84.9602 107.333L85.0076 107.287C85.4638 106.832 85.617 106.415 85.4292 106.013C85.2094 105.541 84.5318 105.403 83.9093 105.659L83.8665 105.677L83.8225 105.697C83.7054 105.751 83.5892 105.82 83.4039 105.939L83.1672 106.093L83.0812 106.148C82.8761 106.278 82.7404 106.351 82.5689 106.422C82.115 106.61 81.6911 106.623 80.9958 106.536L80.9338 106.528L80.7862 106.509L80.4096 106.456L80.3163 106.444L80.2217 106.432C79.511 106.347 79.0611 106.393 78.6812 106.636C78.4382 106.792 78.3006 106.991 78.0881 107.455L77.9873 107.679L77.9428 107.775C77.6873 108.32 77.4934 108.581 77.1117 108.808C76.8681 108.953 76.6373 109.04 76.2298 109.158L75.9396 109.242L75.8365 109.274C75.7742 109.293 75.7226 109.31 75.6679 109.33C75.2241 109.488 74.8226 109.715 74.4452 110.019L74.3867 110.067L74.3231 110.12C73.9558 110.43 73.6418 110.767 73.1057 111.397L72.7152 111.859L72.5765 112.02L72.4617 112.152C72.4494 112.166 72.4372 112.18 72.4251 112.193L72.316 112.315C71.4656 113.249 70.6148 114.111 69.7483 114.91L69.5665 115.076L69.3792 115.245L69.2251 115.382C68.721 115.827 68.1768 116.276 67.3313 116.956L66.2833 117.796L65.9537 118.063C64.9634 118.866 64.3602 119.384 63.7456 119.969L63.5932 120.115L63.5824 120.178C63.5765 120.213 63.57 120.253 63.563 120.298C63.563 120.298 62.9631 124.004 63.5078 127.043C64.0524 130.082 64.2455 128.847 64.7967 129.593L64.9244 129.764C65.2267 130.167 65.4598 130.452 65.7126 130.717L66.0112 131.025L66.3546 131.304L66.5715 131.435C66.7282 131.53 66.8844 131.604 67.041 131.658C67.2571 131.732 67.5457 131.586 67.6876 131.327L67.7008 131.302L67.7933 131.117L68.0004 131.111C68.049 131.109 68.0985 131.102 68.1469 131.088C68.6371 130.953 68.881 130.368 68.6413 129.915L68.628 129.89L68.5039 129.67L68.4402 129.559C68.3488 129.402 68.2642 129.269 68.1787 129.152L68.1466 129.109L67.6698 128.481L68.87 128.593L68.9681 128.603L69.103 128.617L69.5352 128.667C69.985 128.717 70.4193 128.763 70.8431 128.805L71.2038 128.839L71.8348 128.897L71.9644 128.91L72.2448 128.939L72.9162 129.012L73.1554 129.037L73.2886 129.05C73.4168 129.062 73.5317 129.072 73.6472 129.08L73.7741 129.089C74.7411 129.155 75.4958 129.112 76.181 128.918C77.2954 128.603 78.416 127.95 79.629 126.986C80.8689 126.001 81.7657 125.073 82.3052 124.109C82.3154 124.091 82.3169 124.077 82.3098 124.059L82.3046 124.049L82.0996 123.672L82.5105 123.551C82.8387 123.453 83.1173 123.33 83.3515 123.172C84.0722 122.686 84.3134 121.714 83.7909 121.207L83.7677 121.185L83.7359 121.156L83.2946 120.494L83.9331 120.399C84.1465 120.366 84.3341 120.329 84.5093 120.283C85.6761 119.98 86.2757 119.048 85.759 118.152L85.7418 118.123L85.5332 117.777L85.9056 117.623C85.9855 117.59 86.068 117.559 86.1594 117.527L86.2153 117.508L86.2713 117.489L86.4807 117.419C86.9233 117.273 87.3566 117.162 87.7886 117.086C88.1301 117.027 88.4719 116.989 88.8139 116.972L88.9422 116.967L89.0852 116.962L89.0861 116.958L89.1697 116.959L89.4623 116.949L89.4566 116.964C89.8907 116.974 90.3269 117.017 90.7633 117.09L90.8664 117.108C91.018 117.135 91.162 117.162 91.3158 117.194L91.9818 117.335C92.103 117.36 92.2086 117.381 92.3135 117.4L92.4148 117.417L93.4875 117.599L92.5071 118.071L92.4819 118.083L92.4567 118.097L92.3485 118.156C91.6822 118.533 91.288 118.963 91.1955 119.494C91.0512 120.321 91.5212 120.702 92.6293 120.831L92.7218 120.841L92.8195 120.85L92.8837 120.855L95.6587 121.043L93.0312 121.548C92.3949 121.67 91.752 121.835 91.1028 122.041C91.0523 122.057 90.9978 122.077 90.9388 122.1L90.8936 122.119L90.6264 122.229L90.3702 122.415C89.9205 122.749 89.795 123.08 90.0195 123.409L90.035 123.431L90.1741 123.622L90.0477 123.821C89.6847 124.394 89.7321 125.123 90.1661 125.716C90.5282 126.21 91.1141 126.525 91.9134 126.706L91.9753 126.719L92.1508 126.757L92.407 126.797L92.5928 126.823L92.7353 126.839L92.8314 126.849L92.9792 126.863L93.3826 126.897C93.9556 126.946 94.2499 126.985 94.603 127.074C95.0771 127.192 95.4946 127.385 96.0502 127.714L96.115 127.752L96.2518 127.835L96.5172 127.998L96.774 128.158L96.8607 128.211L96.9677 128.276C97.7585 128.749 98.2796 128.926 98.8282 128.843C99.1767 128.791 99.4691 128.663 99.7285 128.46L99.7691 128.427L100.167 128.1L100.155 128.033L100.242 127.914C100.408 127.686 101.114 126.354 101.115 126.353C101.57 125.552 102.01 124.998 102.565 124.632L102.613 124.601L102.722 124.534L102.847 124.508L102.909 124.518C103.092 124.546 103.146 124.627 103.198 124.765C103.211 124.8 103.222 124.839 103.232 124.886L103.242 124.933L103.251 124.986L103.267 125.078L103.283 125.186L103.301 125.319L103.32 125.472C103.335 125.596 103.352 125.74 103.371 125.909L103.58 127.839L103.638 128.351L103.691 128.808C103.695 128.845 103.7 128.882 103.704 128.919L103.749 129.289L103.798 129.676C103.925 130.651 104.051 131.436 104.181 132.031L104.205 132.138L104.221 132.208L104.263 132.386C105.009 135.586 105.388 138.228 105.406 140.875C105.423 143.72 104.803 146.26 103.459 148.353C102.178 150.351 100.307 151.801 98.1992 152.301C97.088 152.563 95.986 152.506 95.0977 152.064C94.9355 151.983 94.8204 151.9 94.6102 151.724L94.5403 151.665C94.2627 151.43 94.1403 151.348 93.9925 151.314C93.9743 151.309 93.9566 151.306 93.9395 151.304L93.9141 151.301L93.6001 151.277L93.5946 150.962C93.5827 150.29 93.2625 150.027 93.2925 151.076C93.2925 151.076 93.3504 152.586 93.3661 152.777L93.3771 152.902L93.3814 152.946L93.1959 153.594C85.1001 156.69 38.1673 156.744 30.9261 153.716L30.7189 153.623L29.4385 153.008C29.4385 153.008 32.0044 152.409 30.25 152.631C28.368 152.869 26.177 151.715 24.9894 149.771L24.5565 149.055L24.424 148.833L24.3506 148.708C24.1741 148.406 24.0484 148.175 23.9153 147.909C23.3783 146.835 22.9324 145.68 22.5657 144.437C21.8835 142.124 21.5261 139.619 21.4194 136.786C21.2263 131.66 21.7546 126.251 22.9211 120.615C24.0525 115.148 25.7671 109.835 28.0294 104.81C29.1602 102.298 30.4068 99.8959 31.7733 97.6059L31.9202 97.361L32.0801 97.0964L32.2443 96.8267L32.4093 96.5579L32.5598 96.3151L32.7114 96.0728L32.8643 95.8309C34.2604 93.6343 35.5016 92.0134 36.9364 90.615C38.2113 89.3723 39.5545 88.1116 40.9658 86.8328L40.9355 86.2974L40.9342 86.2875C40.9044 86.1114 40.373 84.6061 40.9099 83.4333L40.9711 83.3015C41.4569 82.2719 41.5275 82.5367 41.9924 82.212L42.0114 82.1985C43.0308 81.4675 44.3298 80.9663 45.8699 80.632C46.2649 80.5462 46.6368 80.5079 47.1605 80.4871L47.2329 80.4843L47.3278 80.4811L47.7352 80.4687C48.5026 80.4441 49.078 80.1732 49.5217 79.6124L49.5546 79.5702L49.5878 79.5261L49.619 79.4833C49.7273 79.3318 49.8308 79.1587 49.9979 78.8614L50.1123 78.6582L50.1673 78.5621L50.2237 78.4654C50.4152 78.1402 50.5512 77.9488 50.7434 77.7394C51.3241 77.1073 52.2249 76.7362 53.1746 76.6743C54.8588 76.5643 56.5169 77.0164 58.9566 78.0551ZM81.0595 110.576L80.9223 111.252C80.9094 111.316 80.9022 111.379 80.9011 111.44L80.9014 111.485L80.9111 111.793L80.6064 111.839C80.3598 111.875 80.1154 111.913 79.8734 111.953L79.6321 111.994L77.3571 112.38L79.437 111.334L79.4793 111.313L79.4907 111.307L79.5706 111.269L79.8207 111.153L80.4361 110.87L81.0595 110.576Z" fill="#C3AD68"/>
<path fill-rule="evenodd" clip-rule="evenodd" d="M79.2708 75.7134C79.3998 76.2661 79.282 76.8893 79.3036 77.4565C79.3241 77.9986 79.388 78.5376 79.4821 79.0717C80.4717 78.5505 81.6413 78.4835 82.7691 78.6513C84.228 78.8684 85.9161 79.3487 87.0595 80.3246C87.3418 80.5656 87.5756 80.8511 87.7714 81.1657C88.0064 81.5432 88.1565 81.9697 88.5291 82.2403C89.1054 82.6588 89.8199 82.8208 90.374 83.2846C90.9389 83.7574 91.2896 84.4643 91.3638 85.1937C91.4033 85.582 91.3393 85.945 91.2658 86.3237C91.1998 86.6645 91.2322 86.8043 91.3218 87.1323C91.3921 87.3898 91.2579 87.682 91.039 87.824C91.5083 88.1465 91.9712 88.4789 92.426 88.8248C95.0758 90.8384 97.3166 93.3485 98.8699 96.302L98.9074 96.3754L98.9509 96.4635C99.3294 97.2422 100.32 99.5186 100.443 100.03C100.531 100.298 100.616 100.566 100.695 100.836C100.905 101.551 101.082 102.276 101.229 103.006L101.268 103.205C101.388 103.819 101.593 104.545 101.56 105.199C101.904 106.984 102.209 108.776 102.469 110.576C102.503 110.812 102.409 111.003 102.264 111.13C102.612 111.186 102.957 111.255 103.299 111.324L103.498 111.366L103.597 111.388C104.309 111.549 105.012 111.783 105.479 112.382C105.981 113.03 105.992 113.862 105.487 114.515C105.058 115.069 104.431 115.332 103.778 115.498C103.649 115.531 103.518 115.561 103.388 115.587C103.3 115.606 103.243 115.486 103.326 115.439L103.464 115.363L103.654 115.259C104.147 114.987 104.658 114.68 104.931 114.189C105.301 113.523 105.008 112.906 104.373 112.568C103.841 112.284 103.183 112.212 102.592 112.115L102.348 112.075C101.731 111.976 101.101 111.912 100.477 111.983C99.9319 112.045 99.3796 112.231 98.9389 112.564L98.8981 112.597L98.856 112.632C98.4696 112.967 97.914 113.72 98.6427 113.937C99.1997 114.102 99.8783 114.061 100.464 114.093L100.54 114.098C101.03 114.131 101.542 114.131 102.038 114.19C102.215 114.211 102.39 114.24 102.562 114.28C103.055 114.397 102.885 115.053 102.451 115.099C102.345 115.11 102.237 115.116 102.129 115.119C101.845 115.332 101.453 115.429 101.117 115.562C100.797 115.689 100.475 115.815 100.151 115.938C100.43 115.951 100.709 115.974 100.987 116.009C101.077 116.019 101.078 116.14 100.987 116.15C100.318 116.218 99.6493 116.292 98.9828 116.385C97.9508 116.528 96.9255 116.72 95.9235 117.012C95.1911 117.226 94.4676 117.482 93.7659 117.78L93.5536 117.871L93.4661 117.909C92.8292 118.186 92.0053 118.509 91.6394 119.118C91.448 119.435 91.3639 119.926 91.6337 120.23C91.9223 120.557 92.5268 120.52 92.931 120.536L92.9633 120.537C93.819 120.579 94.6757 120.584 95.5325 120.554C97.328 120.491 99.1247 120.295 100.888 119.949C101.213 119.886 101.354 120.374 101.026 120.45C98.9465 120.934 96.8439 121.2 94.7099 121.212L94.4762 121.212C93.6449 121.372 92.8297 121.609 92.0213 121.877L91.8598 121.931C91.3823 122.092 90.5671 122.253 90.2856 122.727C90.0989 123.042 90.1645 123.258 90.3491 123.405C90.6742 123.663 91.3661 123.711 91.7028 123.724C93.052 123.774 94.4024 123.784 95.7527 123.755C96.4275 123.74 97.1021 123.716 97.7767 123.681C98.4363 123.646 99.1408 123.548 99.7981 123.612C100.081 123.639 100.175 124.055 99.8685 124.132C99.0579 124.338 98.1488 124.32 97.3113 124.346L97.215 124.35C96.3155 124.382 95.415 124.396 94.5155 124.393C93.7434 124.39 92.9715 124.375 92.2003 124.346L91.5185 124.319L91.3977 124.313C91.0343 124.294 90.6632 124.252 90.341 124.102C90.0435 124.601 90.266 125.27 90.65 125.664C91.0155 126.041 91.5426 126.226 92.0476 126.341C92.095 126.352 92.1423 126.362 92.1896 126.371C93.2989 126.597 94.429 126.578 95.4669 127.088C96.3397 127.518 97.139 128.233 98.1167 128.403C98.9908 128.556 99.6262 128.17 100.092 127.457C100.118 127.417 100.143 127.378 100.167 127.339C100.534 126.748 100.798 126.096 101.184 125.517C101.381 125.221 101.604 124.937 101.876 124.706C101.998 124.601 102.854 124.146 102.988 124.01C103.563 123.419 103.054 122.175 103.203 121.434C103.379 120.572 104.136 120.268 104.591 119.599C105.454 118.327 103.086 117.135 103.794 115.744C103.803 115.727 103.815 115.714 103.83 115.706C103.892 115.673 103.991 115.714 103.985 115.796C103.907 116.833 104.894 117.547 105.25 118.445C105.656 119.467 105.008 120.086 104.346 120.768C103.497 121.644 104.095 122.626 103.906 123.681C103.881 123.819 103.841 123.941 103.79 124.05C103.935 124.14 104.047 124.29 104.071 124.498C104.362 126.969 104.675 129.432 105.186 131.869L105.295 132.386L105.442 133.077C105.806 134.804 106.146 136.539 106.21 138.304C106.413 139.795 106.494 141.297 106.374 142.798C106.009 147.364 103.459 152.142 98.8271 153.543C97.7548 153.868 96.6176 153.952 95.5175 153.725C95.1405 153.647 94.6124 153.476 94.1383 153.218C94.1666 153.522 94.1889 153.827 94.1983 154.13C94.3545 154.304 94.4251 154.567 94.3362 154.792C93.9584 154.668 93.615 154.471 93.3058 154.201L93.2546 154.156C93.0713 153.474 93.0177 152.728 92.9911 152.009L92.9841 151.805C92.9771 151.606 92.9726 151.411 92.9655 151.221C92.9264 150.035 92.9541 148.847 93.0151 147.662L93.0601 146.79C93.1631 144.756 93.2469 142.727 93.1905 140.687C93.1259 138.34 92.9253 136.003 92.6739 133.668C92.5435 132.464 92.396 131.262 92.2448 130.06C92.1238 129.093 91.9209 128.051 91.9174 127.054C91.1412 126.887 90.3791 126.569 89.9016 125.916C89.3953 125.225 89.3205 124.34 89.7701 123.631C89.3355 123.036 89.6918 122.474 90.2292 122.096C89.4035 121.633 88.9434 120.37 88.8212 119.491C88.738 118.888 88.7116 117.986 88.9686 117.309C88.5997 117.321 88.2307 117.36 87.8617 117.423C87.4349 117.498 87.0164 117.608 86.6035 117.744L86.3945 117.813C86.289 117.849 86.1702 117.89 86.0523 117.939C86.7985 119.174 85.8401 120.295 84.6108 120.614C84.3768 120.675 84.1381 120.718 83.8971 120.753C83.354 120.828 82.7992 120.851 82.2607 120.901C81.2298 120.995 80.1931 121.131 79.1588 121.174C78.9315 121.185 78.7851 121.079 78.7158 120.931C78.7136 120.928 78.7125 120.927 78.7125 120.925C78.6883 120.886 78.672 120.844 78.6662 120.8C78.6698 120.804 78.6744 120.806 78.6778 120.808C78.6282 120.531 78.7943 120.194 79.1588 120.154C80.6521 119.985 82.1661 119.977 83.6641 119.854L83.7601 119.846C84.2303 119.805 84.7841 119.73 85.1564 119.432C85.5023 119.155 85.5334 118.795 85.395 118.469C85.3927 118.477 85.3905 118.486 85.3892 118.495C85.3788 118.559 85.2902 118.557 85.2613 118.512C85.1748 118.38 85.1528 118.251 85.1748 118.126C85.0709 118.006 84.9454 117.9 84.8093 117.818C84.2061 117.451 83.4128 117.35 82.7265 117.242C81.9759 117.123 81.2195 117.069 80.4618 117.033C78.9708 116.962 77.475 117.084 76.0083 117.351C75.9471 117.362 75.9218 117.276 75.9818 117.257C76.5536 117.067 77.1383 116.908 77.7299 116.782C77.716 116.78 77.7023 116.778 77.6885 116.774C77.6366 116.761 77.5996 116.698 77.617 116.647C77.6192 116.639 77.6227 116.631 77.6262 116.624C77.3747 116.509 77.2699 116.121 77.5743 115.964C78.5232 115.473 79.6372 115.251 80.6786 115.049C81.6784 114.856 82.6885 114.721 83.6999 114.601C85.4101 114.4 87.2748 114.405 88.9202 113.864L88.9879 113.842C89.658 113.61 90.4579 113.142 90.5048 112.35C90.5739 111.152 88.7968 111.464 88.0565 111.493C86.0305 111.57 84.0067 111.711 81.9898 111.928C81.578 111.972 81.1663 112.017 80.7547 112.063C80.124 112.134 79.492 112.208 78.8624 112.286C78.5107 112.33 78.1509 112.388 77.7888 112.443C77.6758 112.471 77.5651 112.491 77.4544 112.501C77.4462 112.502 77.4394 112.5 77.4336 112.496C76.9066 112.57 76.3773 112.627 75.863 112.611C75.8041 112.61 75.7673 112.517 75.8296 112.489C76.4938 112.208 77.233 112.042 77.9743 111.911C78.4334 111.568 78.988 111.293 79.4436 111.028C80.0686 110.663 80.7847 110.126 81.4939 109.908C81.8132 109.656 82.1753 109.454 82.5087 109.317C82.413 109.168 82.3784 108.961 82.3956 108.787C82.4591 108.162 82.9584 107.813 83.535 107.691C83.7138 107.654 83.9202 107.626 84.1404 107.616C84.1449 107.499 84.1968 107.385 84.3121 107.3L84.3462 107.274L84.3704 107.254C84.7574 106.94 85.5258 106.054 84.6004 105.989C84.1093 105.954 83.694 106.315 83.3031 106.558C82.4913 107.065 81.7061 107.09 80.779 106.965L80.3622 106.905L80.2929 106.895C79.6226 106.807 78.9426 106.795 78.5683 107.48C78.1669 108.212 78.0263 108.879 77.2167 109.282C76.443 109.666 75.5839 109.743 74.8736 110.272C74.1124 110.837 73.5404 111.632 72.9178 112.336C71.5444 113.888 69.9726 115.258 68.3536 116.547L68.0655 116.775C66.5745 117.955 65.0354 119.117 63.3661 120.026C63.3546 120.031 63.3429 120.034 63.3327 120.034C63.2877 120.029 63.2541 119.971 63.2946 119.932C65.2446 118.035 67.5256 116.497 69.5285 114.651C70.4165 113.832 71.2617 112.971 72.0747 112.077C72.7851 111.293 73.4147 110.412 74.2428 109.745C74.6451 109.42 75.08 109.172 75.5665 108.999C76.021 108.836 76.5307 108.755 76.9493 108.506C77.7692 108.019 77.6896 106.864 78.5095 106.34C79.2125 105.89 80.0689 106.055 80.8484 106.161L80.9416 106.174C81.4466 106.241 81.969 106.297 82.451 106.098C82.9283 105.9 83.3124 105.531 83.7932 105.334C84.4633 105.058 85.4134 105.124 85.7572 105.862C86.0857 106.566 85.6373 107.204 85.1137 107.671C85.8274 107.801 86.4537 108.146 86.5067 108.85C87.0303 108.833 87.5527 108.814 88.0761 108.796C89.8994 108.732 91.7316 108.61 93.5561 108.642C93.5144 108.456 93.496 108.265 93.4937 108.07C93.4926 107.961 93.4973 107.853 93.5052 107.742C93.5191 107.552 93.6436 107.438 93.8282 107.418L94.2403 107.374L94.3782 107.361C95.1501 107.288 96.0134 107.272 96.6016 107.783C96.9176 108.059 97.1724 108.694 97.0179 109.118C97.3776 109.242 97.7202 109.4 98.0327 109.6C98.6519 109.392 99.3023 109.415 99.9249 109.632L99.9989 109.658C100.441 109.821 101.069 110.129 101.309 110.569C100.726 106.606 99.9387 102.678 98.9497 98.7968C98.3183 97.2468 97.5205 95.7654 96.5532 94.3981C94.1165 90.9528 90.6061 88.5835 87.4535 85.8598C87.1753 86.1663 86.8757 86.458 86.5954 86.7387L86.4766 86.8583C85.9058 87.4371 85.3104 87.991 84.7019 88.5296C83.4301 89.6553 82.0914 90.6944 80.7622 91.75C78.0828 93.8783 75.6604 96.1382 73.6449 98.9167C73.6087 98.9668 73.5082 98.9376 73.5362 98.871C74.9187 95.5807 77.7845 93.0793 80.3879 90.7582C81.757 89.5377 83.1581 88.3466 84.4744 87.0684C85.0881 86.4726 85.6826 85.8561 86.2434 85.21L86.3829 85.0478C86.7496 84.618 87.6083 83.306 88.1757 84.2526C88.2946 84.4506 88.2894 84.7039 88.1757 84.9022C88.0145 85.1839 87.8098 85.4526 87.586 85.7106C88.3817 86.144 89.161 86.6015 89.9232 87.0859C89.8794 86.8525 89.8904 86.5946 89.9311 86.3365L89.9444 86.2546L89.9999 85.9345C90.0796 85.4627 90.1205 85.0241 89.8215 84.5639C89.4477 83.9882 88.7427 83.8087 88.1811 83.476C87.5342 83.0927 87.1963 82.5798 86.8499 81.9289C86.1865 80.6827 84.6878 80.183 83.3996 79.7821L83.2375 79.7318C82.0472 79.3624 80.7596 79.1648 79.5695 79.5197C79.6811 80.0399 79.8272 80.5528 80.0098 81.0524C80.2041 81.5842 80.648 82.1755 80.6025 82.7499C80.5712 83.1474 80.0949 83.5723 79.6997 83.2685C79.14 82.8386 79.0281 82.1383 78.8781 81.4712C78.733 80.826 78.6404 80.1651 78.601 79.505C78.563 78.8689 78.5927 78.2331 78.671 77.6013L78.7311 77.1373L78.7457 77.0295C78.8111 76.5605 78.9084 76.0682 79.1719 75.7005C79.1973 75.6652 79.2593 75.6644 79.2708 75.7134ZM63.0309 73.076C63.0393 73.1135 63.0452 73.1506 63.0505 73.1876C63.089 73.3458 63.1034 73.4979 63.0987 73.6506C63.101 73.7057 63.097 73.7609 63.0867 73.8155C63.0661 73.9953 63.0228 74.1798 62.9643 74.3815C62.8399 74.8107 62.6974 75.2346 62.5381 75.6522C62.2233 76.4781 61.8516 77.2661 61.3922 78.0215C60.5623 79.3859 59.5073 80.5184 58.2634 81.4974C58.4995 81.6924 58.7302 81.8953 58.9615 82.0944C60.079 83.0574 61.1663 84.064 62.2195 85.0971C64.0898 86.9321 65.9226 88.8012 67.7123 90.715C68.595 91.6589 69.4614 92.6151 70.3231 93.5779L70.3513 93.6102L70.3818 93.6467C70.6878 94.0171 71.2994 94.9007 71.7558 94.7588C71.9862 94.687 72.2288 94.3428 72.3858 94.1786L72.6751 93.8765C72.7713 93.7756 72.8669 93.674 72.9608 93.571C74.644 91.7246 76.2366 89.8073 77.7321 87.8032C78.4618 86.8254 79.1672 85.8292 79.847 84.8157C80.1964 84.2946 80.5393 83.769 80.8754 83.2389C81.2003 82.7262 81.4631 82.1753 81.942 81.7926C82.2935 81.5118 82.7805 81.7693 82.692 82.2296C82.5524 82.9546 82.0513 83.5677 81.6566 84.1805C81.2603 84.7962 80.8546 85.4059 80.4398 86.0092C79.6415 87.1707 78.8085 88.3078 77.9459 89.422C77.2029 90.3815 76.4279 91.3164 75.6318 92.2323L75.4142 92.4817C74.558 93.459 73.7175 94.4966 72.7714 95.3886C71.9241 96.1875 70.9988 95.9547 70.227 95.1784C69.2508 94.1968 68.3446 93.1353 67.4053 92.118C65.5284 90.085 63.6319 88.0674 61.7158 86.0713L61.0859 85.4144C60.3515 84.6468 59.62 83.8745 58.9077 83.088L58.8158 82.9854C58.0035 82.0705 57.1774 80.9242 56.0225 80.4591C55.939 80.4255 55.9697 80.3068 56.0599 80.3234C56.7992 80.4602 57.4163 80.8332 57.9906 81.2787C58.5068 80.4235 58.9673 79.522 59.3689 78.5999L59.1113 78.4879C57.2681 77.6905 55.1906 76.8864 53.2116 77.0157C52.4141 77.0677 51.5632 77.3702 51.0125 77.9696C50.5139 78.5126 50.265 79.2449 49.8074 79.8232C49.2833 80.4856 48.5997 80.7837 47.7607 80.8106L47.3528 80.823C46.8836 80.8383 46.4336 80.8629 45.9577 80.9663C44.6683 81.2462 43.3088 81.7003 42.2274 82.4758C41.8351 82.7571 41.4301 83.1439 41.2404 83.57C41.0523 83.9923 40.9982 84.4863 40.9799 84.942C40.971 85.1642 41.0375 85.4576 40.9819 85.6701C40.9883 85.6458 40.9912 85.6587 40.992 85.6841C41.1648 85.8206 41.2826 86.0474 41.2954 86.2735C42.3734 85.711 43.4893 85.218 44.6269 84.7736C45.8935 84.2788 47.1995 83.8823 48.5057 83.5069C49.7841 83.1396 51.1222 82.9876 52.4254 82.7258C52.5914 82.6924 52.649 82.9167 52.4944 82.9763C51.1246 83.503 49.7993 84.1275 48.4181 84.623C47.0377 85.1184 45.6675 85.6546 44.3271 86.2506C41.7361 87.4031 39.2334 88.8694 37.1922 90.8589C35.1986 92.8021 33.6608 95.1627 32.2307 97.536C30.7903 99.9262 29.5049 102.403 28.3592 104.948C26.0928 109.982 24.3933 115.275 23.2743 120.681C22.1854 125.942 21.577 131.391 21.7796 136.768C21.8758 139.322 22.1874 141.878 22.912 144.334C23.2582 145.508 23.6916 146.655 24.2391 147.749C24.8165 148.903 25.5944 149.932 26.1216 151.105C26.165 151.202 26.1816 151.295 26.1792 151.381C28.4278 153.331 31.9476 152.017 34.3812 150.852C39.981 148.171 45.477 145.237 50.7008 141.871C55.8567 138.548 60.7426 134.839 65.5133 130.99C65.1443 130.609 64.819 130.181 64.5331 129.795C63.9427 128.996 63.4987 128.09 63.1931 127.146C62.8356 126.04 62.7248 124.856 62.8264 123.701L62.8552 123.374C62.9524 122.282 63.0647 121.175 63.3038 120.109C63.306 120.095 63.3165 120.089 63.328 120.089C63.3395 120.089 63.3511 120.096 63.3557 120.109C64.0003 122.174 64.0522 124.394 64.7763 126.434C65.0681 127.253 65.5201 128.045 66.0622 128.725C66.2963 129.02 66.5708 129.275 66.8509 129.524C66.8694 129.397 66.8947 129.272 66.9327 129.148L66.9629 129.05C67.0005 128.932 67.0469 128.799 67.1115 128.683C67.0204 128.656 66.9317 128.627 66.8441 128.595C66.7748 128.57 66.7598 128.458 66.8441 128.439C67.0735 128.386 67.3099 128.359 67.551 128.348C67.589 128.342 67.6258 128.341 67.6627 128.343C68.1137 128.329 68.5727 128.362 69.0074 128.369C69.7604 128.38 70.5111 128.394 71.2629 128.428C72.7022 128.49 74.3269 128.766 75.7431 128.431C77.03 128.126 78.2985 127.267 79.3305 126.459C80.2322 125.752 80.9277 124.913 81.676 124.076C81.6223 124.084 81.5689 124.092 81.5158 124.1L81.0333 124.166C80.4241 124.247 79.701 124.311 79.2176 124.018C79.0329 123.906 79.0861 123.652 79.2741 123.583C79.7675 123.402 80.38 123.552 80.9057 123.526C81.3185 123.507 81.7361 123.463 82.1432 123.377C82.2769 123.35 82.4094 123.317 82.5409 123.279C83.5049 123.001 84.6375 122.022 83.8718 120.953C83.8429 120.912 83.8751 120.875 83.9143 120.868C83.9317 120.865 83.9502 120.868 83.9652 120.881C84.8368 121.604 84.3837 122.899 83.5591 123.455C83.2756 123.646 82.955 123.78 82.6229 123.878C82.6863 123.995 82.6977 124.138 82.6216 124.274C81.9759 125.427 80.8827 126.439 79.8586 127.253C78.807 128.089 77.5939 128.878 76.2897 129.247C74.7835 129.672 73.1288 129.352 71.6009 129.217C70.7728 129.144 69.9472 129.058 69.1204 128.962C68.8989 128.937 68.6695 128.917 68.4365 128.895C68.6557 129.184 68.8298 129.516 68.944 129.716C69.3153 130.365 68.9728 131.219 68.2532 131.418C68.1782 131.439 68.1009 131.45 68.0249 131.453C67.8311 131.842 67.3698 132.128 66.9431 131.981C66.7576 131.918 66.5787 131.831 66.407 131.727C63.7235 134.087 60.8982 136.302 57.9923 138.378C52.6036 142.227 46.9552 145.743 41.0984 148.834C39.7792 149.53 38.4499 150.208 37.1093 150.859L35.9555 151.416C34.6783 152.031 33.3712 152.643 32.0149 153.025C31.7505 153.1 31.4736 153.16 31.1899 153.206C31.1862 153.231 31.1853 153.255 31.187 153.279C30.932 153.313 30.7094 153.318 30.5194 153.294L30.4761 153.288C28.8136 153.405 27.0353 152.998 25.9657 151.783C25.7874 151.908 25.5275 151.922 25.2981 151.741C24.1446 150.835 23.457 149.455 22.8535 148.138C22.2417 146.802 21.7621 145.409 21.4097 143.983C20.7058 141.133 20.4266 138.194 20.4119 135.263C20.3587 123.969 23.1837 112.576 28.0907 102.436C29.3352 99.8646 30.707 97.341 32.2298 94.9236C33.7486 92.5128 35.5121 90.2723 37.7706 88.5141C38.4201 88.0086 39.0957 87.5465 39.7926 87.1206C39.3248 86.8886 39.1391 86.2982 39.1063 85.7738C39.0337 84.6092 39.1723 83.2674 39.8533 82.2847C40.8087 80.9061 42.519 80.0561 44.1048 79.6428C44.9327 79.4271 45.789 79.3013 46.643 79.2589C47.0832 79.2368 47.5407 79.3093 47.9757 79.2617C48.3595 79.2199 48.5968 78.9906 48.8175 78.6892C49.3829 77.9164 49.751 77.1059 50.562 76.5394C51.3941 75.9583 52.4725 75.7359 53.4749 75.7962C54.6427 75.8665 55.7081 76.3272 56.7366 76.8566C57.665 77.3344 58.566 77.8636 59.4442 78.4282C59.6052 78.0506 59.7568 77.67 59.8978 77.2882C60.1714 76.5479 60.4093 75.784 60.6023 75.0187C60.798 74.2427 60.7694 73.2179 61.3605 72.6343C61.8745 72.1271 62.8642 72.3263 63.0309 73.076ZM102.87 124.856L102.866 124.857C101.671 125.566 101.099 127.339 100.536 128.113C100.582 128.373 100.614 128.638 100.678 128.884C100.823 129.448 101.013 130.008 101.234 130.546C101.621 131.496 102.107 132.402 102.555 133.323C102.916 134.064 103.27 134.818 103.545 135.598C103.515 135.628 103.488 135.664 103.464 135.708C103.166 136.267 102.932 136.157 102.382 136.035L102.381 136.034C102.066 135.069 101.612 134.162 101.204 133.236L101.105 133.01L101.006 132.784C100.665 131.991 100.354 131.191 100.173 130.342C100.058 129.8 100.01 129.244 100.003 128.691C99.7048 128.937 99.346 129.113 98.8941 129.181C97.9269 129.328 97.0509 128.721 96.2628 128.235L96.0852 128.126C95.5918 127.825 95.1026 127.548 94.5338 127.406C93.8881 127.244 93.2204 127.244 92.5643 127.162C92.4858 127.152 92.4064 127.141 92.3267 127.129C92.5827 127.977 92.7015 128.899 92.8538 129.748C93.066 130.94 93.2389 132.142 93.405 133.34C93.7279 135.663 93.9528 138.005 94.0668 140.348C94.1773 142.616 94.1217 144.876 94.0397 147.143L93.9988 148.249C93.966 149.15 93.9391 150.051 93.9549 150.951C93.9988 150.955 94.0426 150.962 94.0865 150.972C94.5409 151.078 94.851 151.543 95.2662 151.749C96.1425 152.186 97.2012 152.18 98.1341 151.959C100.256 151.456 102.02 149.973 103.183 148.162C104.578 145.989 105.09 143.431 105.074 140.873C105.055 137.993 104.589 135.24 103.94 132.46L103.899 132.283C103.353 129.967 103.011 124.878 102.87 124.856ZM43.4545 119.046C43.4666 119.82 43.152 120.649 42.9792 121.401C42.793 122.212 42.6074 123.023 42.4192 123.833L42.2499 124.56C42.109 125.165 41.97 125.77 41.8455 126.379C41.7431 126.88 41.7002 127.539 41.5324 128.091C43.5282 127.283 45.5271 126.483 47.5226 125.677C49.9812 124.684 52.4513 123.719 54.9156 122.742C57.3707 121.77 59.812 120.664 62.3168 119.833C62.9129 119.634 63.3166 120.587 62.7456 120.851C60.2017 122.032 57.5102 122.957 54.9041 123.992L51.1342 125.49C47.6783 126.863 44.22 128.229 40.7443 129.549C38.3769 130.447 36.0186 131.372 33.6362 132.225C32.5003 132.632 31.3542 133.016 30.224 133.437C29.2772 133.791 28.2532 134.315 27.9026 135.333C27.8842 135.386 27.8115 135.364 27.8196 135.31C27.9614 134.324 28.6927 133.708 29.5171 133.241C30.6113 132.62 31.8131 132.169 32.9681 131.671L33.1253 131.603C35.4839 130.573 37.8615 129.585 40.2461 128.613C40.2225 128.555 40.2086 128.493 40.2075 128.429L40.2007 128.431C40.1574 127.989 40.3595 127.596 40.5049 127.185L40.922 126.007C41.1999 125.222 41.4492 124.428 41.7061 123.636C41.9746 122.809 42.2457 121.982 42.5164 121.156C42.7456 120.455 42.8997 119.621 43.2919 118.995C43.3392 118.92 43.4695 118.962 43.4545 119.046ZM89.3839 117.304L89.3542 117.455C89.3195 117.63 89.287 117.808 89.279 117.985C89.2558 118.451 89.3088 118.916 89.4323 119.365C89.5534 119.81 89.7228 120.239 89.964 120.633C90.1923 121.003 90.5232 121.294 90.7343 121.674C90.7561 121.715 90.7699 121.755 90.7757 121.794C90.8564 121.761 90.9361 121.731 91.0133 121.707C91.6568 121.502 92.314 121.331 92.9805 121.203L92.8748 121.196L92.8066 121.191C91.6929 121.096 90.6422 120.731 90.8692 119.43C90.9976 118.694 91.5745 118.2 92.1928 117.851L92.2703 117.808C92.3036 117.789 92.3383 117.771 92.3717 117.754C91.8124 117.66 91.4066 117.543 90.7204 117.428C90.2752 117.353 89.8289 117.311 89.3839 117.304ZM38.5072 101.269C39.6022 103.484 40.426 105.839 41.0476 108.229C41.3477 109.383 41.6023 110.548 41.8071 111.723L41.8743 112.115L41.9126 112.328C42.1038 113.375 42.3468 114.51 42.0658 115.531C41.9742 115.865 41.4206 115.997 41.2657 115.636C40.7982 114.546 40.8639 113.293 40.7284 112.127C40.586 110.903 40.3917 109.685 40.1495 108.477C39.6844 106.156 39.0315 103.889 38.3037 101.639L38.2226 101.389C38.1608 101.222 38.4299 101.113 38.5072 101.269ZM80.5978 111.179C80.2714 111.333 79.9451 111.473 79.6568 111.614C79.635 111.626 79.6119 111.636 79.5888 111.648C79.9151 111.592 80.2426 111.54 80.5701 111.492C80.5668 111.386 80.5771 111.281 80.5978 111.179ZM93.3673 110.069C93.3183 110.085 93.2749 110.111 93.2372 110.146L93.2189 110.165C93.1739 110.207 93.1421 110.256 93.1235 110.314C93.0947 110.369 93.0813 110.428 93.0837 110.492L93.1002 110.614C93.1221 110.693 93.1617 110.76 93.2189 110.818L93.3122 110.89C93.3751 110.927 93.4424 110.947 93.514 110.952L93.545 110.953L93.6384 110.953C93.6918 110.952 93.742 110.938 93.7891 110.914C93.8382 110.898 93.8815 110.872 93.9192 110.837L93.9375 110.818C93.9826 110.776 94.0143 110.727 94.0329 110.669C94.0577 110.622 94.0709 110.572 94.0727 110.519L94.0727 110.492L94.0562 110.369C94.037 110.3 94.0043 110.24 93.9582 110.187L93.9375 110.165L93.8442 110.093C93.7813 110.056 93.714 110.036 93.6424 110.031L93.6114 110.03H93.545C93.4815 110.027 93.4222 110.041 93.3673 110.069ZM90.3669 109.913C90.1218 109.958 89.9828 110.256 90.0448 110.481C90.1133 110.731 90.3503 110.842 90.5883 110.808L90.6121 110.804C90.891 110.753 91.1642 110.772 91.4297 110.87C91.6634 110.957 91.9352 110.774 91.9971 110.548C92.0679 110.29 91.9096 110.066 91.6749 109.98C91.254 109.824 90.8025 109.833 90.3669 109.913ZM41.7826 93.5116C42.3406 94.3303 42.6889 95.4186 43.0326 96.3542L43.067 96.4473C43.4323 97.4305 43.7847 98.4215 44.1134 99.4178C44.7694 101.407 45.6244 103.488 45.7823 105.589C45.8115 105.976 45.2189 106.132 45.0471 105.788C44.5534 104.8 44.2879 103.77 43.9958 102.711C43.7172 101.701 43.427 100.694 43.1366 99.6874C42.8464 98.6812 42.5656 97.672 42.2797 96.6645C42.0017 95.6843 41.6146 94.5945 41.5509 93.5744C41.5426 93.4419 41.7185 93.4174 41.7826 93.5116ZM54.3762 86.9205C55.1211 87.4381 55.7311 88.1952 56.3614 88.8427C57.0009 89.4997 57.6318 90.1628 58.2568 90.8336C59.3012 91.9547 60.3267 93.0942 61.3859 94.2017C63.4967 96.4087 65.8845 98.4396 68.7977 99.4769C69.5026 99.7279 69.1938 100.861 68.4872 100.604C65.5076 99.5226 63.0392 97.5228 60.8619 95.2603C59.7342 94.0886 58.6995 92.8366 57.6906 91.5623C57.2184 90.9659 56.7498 90.3677 56.2879 89.7637L56.0116 89.4006C55.4307 88.6333 54.72 87.8685 54.295 87.002C54.2711 86.9533 54.3234 86.8839 54.3762 86.9205Z" fill="black"/>
<path fill-rule="evenodd" clip-rule="evenodd" d="M70.7504 29.4727C77.2844 29.4727 84.0426 34.5543 86.4377 37.797C88.4514 40.5233 89.5356 52.8516 89.5356 61.1832C89.5356 62.9257 90.494 66.2104 90.2143 67.8772C89.1894 73.9849 84.7243 79.1073 75.8868 79.1073C67.0493 79.1073 60.713 75.5925 54.1443 66.1558C50.9571 66.1558 49.4125 63.7034 49.3901 59.8333C49.3677 55.9633 52.4665 54.5552 52.4665 54.5552C52.4665 54.5552 51.3616 39.2823 54.1443 35.3059C56.927 31.3296 64.2165 29.4727 70.7504 29.4727Z" fill="#EEC1A2"/>
<path fill-rule="evenodd" clip-rule="evenodd" d="M68.0008 27.3135C72.1262 26.8944 76.1687 27.2465 80.2343 27.9752C80.545 28.0316 80.721 28.2361 80.7865 28.4819C82.7015 28.5697 84.6186 28.7107 86.531 28.8157C87.225 28.8538 87.6184 29.5419 87.302 30.1632C87.2388 30.2866 87.1731 30.4067 87.1064 30.5267L87.1902 30.499C87.7655 30.3138 88.387 30.2225 88.9475 30.5165C89.661 30.8906 89.9407 31.716 89.7831 32.4757C89.7427 32.6697 89.6749 32.8556 89.5978 33.0369C89.7543 33.0266 89.912 33.03 90.0685 33.0508C90.9016 33.1616 91.5207 33.8024 91.5644 34.6557C91.6289 35.9441 90.8015 37.2512 89.8268 38.1736C89.9682 38.4659 90.0224 38.8099 89.9636 39.1586C89.8463 39.8479 89.3402 40.2607 88.7535 40.53C88.9982 41.3094 89.1138 42.1243 89.0456 42.9571C89.0228 43.2352 88.7805 43.4648 88.5246 43.5212C89.4781 46.1553 89.9608 48.9833 90.3078 51.739C90.5552 53.6997 90.6772 55.6717 90.6921 57.6471C90.6993 58.539 90.6847 59.4318 90.6474 60.3238L90.6323 60.6583C90.5863 61.6225 90.584 62.635 90.4114 63.5888C91.0006 64.5943 91.2376 65.8426 91.3377 66.9693C91.462 68.3641 91.2652 69.8027 90.8267 71.1295C89.1719 76.1426 84.1779 79.3062 79.1617 80.1284C74.5186 80.8893 69.1458 79.8652 66.4324 75.6335C66.3898 75.5665 66.4807 75.5112 66.5336 75.5551C68.4749 77.1391 70.7268 77.8457 73.1734 78.1897C77.4035 78.7833 82.1582 77.7764 85.5529 75.1071C87.1823 73.8255 88.3572 71.9596 88.874 69.9517C89.1375 68.9254 89.2284 67.8549 89.1248 66.7986C89.0189 65.7271 88.546 64.8127 88.248 63.8001C88.1479 63.4582 88.2538 63.1407 88.462 62.9145C88.5206 62.0923 88.6588 61.2633 88.7116 60.4437C88.7703 59.5118 88.8061 58.58 88.8188 57.6471C88.8429 55.712 88.7624 53.7734 88.6001 51.8465C88.3032 48.318 87.515 44.8751 87.0524 41.3765C86.8811 41.5306 86.6356 41.5939 86.3783 41.4593L86.3516 41.4446L86.2112 41.3639C86.2032 41.3639 86.1939 41.3651 86.1858 41.3661C85.225 41.4597 84.2285 41.3258 83.3079 41.0382C82.3446 40.7381 81.4506 40.2763 80.6519 39.6609C80.5001 40.4332 80.4367 41.2137 80.4357 42.0011C80.4345 42.493 79.9155 42.7483 79.5036 42.5381C77.6773 41.6074 75.9328 40.5349 74.2769 39.3295C74.0835 40.3236 73.8903 41.3176 73.6957 42.3129C73.621 42.6963 73.1341 42.851 72.8223 42.6686C71.5819 41.9446 70.5106 40.9968 69.6383 39.8698C69.4642 40.2039 69.2895 40.538 69.1137 40.8713L68.8489 41.3707C68.5877 41.8614 68.2379 42.4042 67.6659 42.5611C67.0607 42.7274 66.5554 42.3338 66.3518 41.7841C66.2897 41.6133 66.2321 41.4377 66.1792 41.261C65.6635 42.4423 65.0814 43.5969 64.4232 44.6984C63.4358 46.3505 62.2505 47.8226 61.0688 49.3328C60.7097 49.7913 60.0953 49.3536 60.0458 48.9081C60.017 48.646 59.9928 48.3827 59.972 48.1205C59.2834 49.5148 58.5649 50.8961 57.782 52.2372L57.8941 52.6779C58.2171 53.9801 58.4854 55.2915 58.777 56.6006C58.8711 57.0229 58.6474 57.6268 58.1556 57.6987C57.568 57.7846 57.0121 58.0859 56.4102 57.8786C55.754 57.6525 55.6243 57.0834 55.3145 56.544C55.2527 56.4365 55.1808 56.3378 55.1035 56.244L55.0838 56.2697C55.0355 56.3333 54.9204 56.264 54.9492 56.1913L54.9829 56.1072C54.7167 55.8238 54.3982 55.5873 54.1053 55.3329C53.4094 55.2153 52.6265 55.3441 52.147 55.6278C51.055 56.2743 50.5533 57.6067 50.543 58.8318C50.5303 60.2659 50.9733 61.8777 51.7212 63.1039C52.0505 63.6431 52.5015 64.1302 53.0975 64.3693C53.6891 64.607 54.3301 64.5333 54.9319 64.7571C55.3301 64.9062 55.5752 65.3496 55.3347 65.7512C55.3185 65.7791 55.3001 65.8044 55.2828 65.831L55.4618 66.0694C55.5849 66.2345 55.7132 66.4113 55.8329 66.5953C56.139 66.9487 56.4612 67.2893 56.7731 67.6368C57.3495 68.2775 57.9089 68.9357 58.4761 69.5857C59.0113 70.1989 59.5774 70.7749 60.1608 71.3418C60.712 71.8788 61.4002 72.3301 61.9065 72.9029C62.3989 73.4618 62.5325 74.4373 61.7223 74.7607C60.8259 75.1193 60.0324 74.2788 59.429 73.7184L59.4037 73.6949C58.2976 72.6736 57.2987 71.5066 56.5055 70.2216C55.7198 70.7583 54.5833 70.8095 53.801 70.273C53.3892 69.9907 53.0733 69.5163 52.9198 69.0002C52.7751 69.0327 52.6304 69.0518 52.4893 69.0496C52.4167 69.0918 52.3439 69.1329 52.2702 69.1713C51.6867 69.476 50.9699 69.3399 50.7029 68.692C50.4598 68.1039 50.7103 67.436 50.9293 66.8693L50.9745 66.7523C51.0988 66.4291 51.2357 66.077 51.406 65.7456C50.9319 65.3877 50.5268 64.943 50.184 64.4374C49.0321 62.7344 48.4567 60.2438 48.711 58.2118C48.8641 56.9856 49.4382 55.7156 50.3783 54.8888L50.3439 54.7987C50.0804 54.128 49.8409 53.4548 49.6857 52.746C49.5039 51.917 49.4152 51.0579 49.3347 50.2139C49.1644 48.4312 49.2104 46.6081 49.4371 44.8323C49.8629 41.4898 50.9423 38.2084 52.8583 35.427C52.315 34.7745 51.8847 34.0067 52.109 33.1235C52.2116 32.7182 52.445 32.3338 52.7973 32.1016C52.9916 31.9736 53.2231 31.9539 53.4175 31.8477L53.476 31.8154C53.5614 31.7654 53.4961 31.7707 53.4451 31.5383C53.2438 30.6099 53.4106 29.7129 54.429 29.4046C55.3876 29.1148 56.2944 29.7302 56.8617 30.4633C58.3461 29.4068 60.3024 28.8538 62.0227 28.3839C63.979 27.8515 65.9858 27.5191 68.0008 27.3135ZM51.9665 58.4531C51.9595 57.6968 52.6741 57.2303 53.3773 57.354C53.8495 57.4364 54.2434 57.7192 54.6133 58.0114L54.7936 58.1546C55.244 58.5094 55.7611 58.8919 56.0296 59.3942C56.4232 60.1354 55.5913 61.1329 54.8146 60.6133C54.2817 60.255 53.9402 59.681 53.5907 59.1477L53.5545 59.0927C53.3957 58.8537 53.2565 58.5997 53.0389 58.408L52.9919 58.3667C52.9203 58.3056 52.8435 58.2497 52.7512 58.2233C52.573 58.1719 52.243 58.2439 52.1644 58.4567L52.1574 58.4785C52.1286 58.5859 51.9676 58.5627 51.9665 58.4531Z" fill="black"/>
<path fill-rule="evenodd" clip-rule="evenodd" d="M78.1372 70.0761C77.362 69.7595 76.6703 69.2313 76.1647 68.5566C75.9889 68.3221 75.9433 68.0744 75.9802 67.8478C76.0216 67.5931 76.1721 67.3623 76.3774 67.2074C76.5833 67.0521 76.8409 66.9755 77.0899 67.0145C77.3062 67.0484 77.5216 67.1671 77.6921 67.4131L77.7277 67.4623C78.0283 67.8695 78.4201 68.2036 78.8665 68.419C79.2967 68.6265 79.7779 68.7234 80.2758 68.6671C81.2241 68.5598 81.8778 68.0463 82.5725 67.349C82.6587 67.2609 82.7448 67.1701 82.8314 67.0779C82.8861 66.9942 82.962 66.9405 83.0462 66.9123C83.1398 66.881 83.2456 66.8827 83.3426 66.9166C83.436 66.9493 83.5196 67.0112 83.5757 67.0935C83.6289 67.1718 83.6591 67.2686 83.6493 67.3798C83.5857 68.1025 83.2084 68.7475 82.6723 69.2539C82.077 69.8164 81.2879 70.2055 80.5449 70.3419C79.7264 70.4923 78.8924 70.3846 78.1372 70.0761ZM80.9311 58.9274C81.8019 59.4573 83.1287 60.6931 82.1919 62.007C81.0892 63.1654 79.5016 61.8372 78.7193 61.2364C77.9938 60.7709 77.1788 61.9683 77.8518 62.5119C83.5051 66.7025 85.7993 59.0659 81.3715 58.3043C80.884 58.2203 80.7029 58.7634 80.9311 58.9274ZM70.8004 54.0526C70.8966 52.8568 72.7154 52.5853 72.8964 53.7685C73.0584 54.8285 72.8676 55.8021 72.3908 56.7564C71.9352 57.6681 70.79 57.2427 70.7034 56.4126C70.5873 55.2998 70.7405 54.7964 70.8004 54.0526ZM84.6457 53.5232C84.8993 53.1907 85.2654 52.9637 85.7041 53.0919C87.0747 53.4929 86.6707 55.4411 86.1894 56.3894C85.9278 56.9043 85.0824 57.0349 84.7004 56.5815C84.0777 55.8421 83.7795 54.3655 84.5711 53.6371C84.5926 53.5995 84.6164 53.5615 84.6457 53.5232ZM72.3715 48.8204L72.588 48.7825C73.2577 48.6665 74.0905 48.555 74.5643 49.0941C74.8155 49.38 74.902 49.9114 74.5643 50.185C73.9701 50.6665 73.3133 50.4799 72.6013 50.5207C72.0146 50.5544 71.4507 50.6516 70.8855 50.8133C69.6456 51.1682 68.6354 51.8159 67.5764 52.5271C67.4374 52.6204 67.2956 52.4425 67.3619 52.3124C67.9732 51.1135 69.1579 50.1288 70.3445 49.5285C70.9778 49.2081 71.6708 48.9423 72.3715 48.8204ZM83.3964 48.2834L83.5621 48.3173C85.3653 48.6947 87.7081 49.4486 88.5621 51.222C88.5946 51.4728 88.5602 51.5265 88.5323 51.5616L88.523 51.5733C88.4999 51.6033 88.4815 51.6446 88.373 51.6788C88.3429 51.6716 88.3124 51.664 88.2817 51.6559C87.8903 51.5532 87.5806 51.4117 87.2808 51.2649L86.9557 51.1045C86.5785 50.9194 86.1981 50.741 85.7948 50.6092C84.9343 50.3282 84.0492 50.1303 83.1504 50.0246C82.9556 50.0017 82.768 49.9358 82.62 49.823C82.4795 49.7159 82.3722 49.5676 82.3233 49.3706C82.2599 49.1155 82.2781 48.9224 82.4148 48.6923C82.5175 48.5195 82.6646 48.3997 82.8334 48.3309C83.0056 48.2608 83.2016 48.2443 83.3964 48.2834Z" fill="black"/>
</svg>
