<svg width="131" height="177" viewBox="0 0 131 177" fill="none" xmlns="http://www.w3.org/2000/svg">
<path fill-rule="evenodd" clip-rule="evenodd" d="M93.053 98.9466C92.0516 98.5892 91.0863 98.1763 90.2069 97.569C87.6719 95.6797 86.019 92.8365 84.4571 90.1427C82.2571 86.2248 80.6898 82.05 79.6064 77.6949C79.1409 75.8237 78.9828 73.6542 77.9251 71.9953C75.5275 68.5217 68.4967 68.9718 64.7633 69.5815C62.2632 70.0244 61.7465 72.8257 61.1787 74.8985C60.7059 76.6209 60.3964 78.3627 60.1366 80.1278C59.5185 80.5347 58.8207 80.8652 58.1555 81.153C50.9068 83.3785 49.6328 87.5043 46.8642 93.8775C42.188 103.141 29.4991 106.768 27.5824 117.73C26.3474 124.968 29.8592 131.777 33.4798 137.794C36.8517 144.366 41.559 147.52 49.0556 145.968C56.0871 144.388 62.8447 141.747 69.7524 139.705C73.0981 138.882 76.4385 136.739 79.9578 137.486C87.2095 139.117 94.6603 139.884 102.092 139.672C112.526 140.094 112.525 130.067 111.454 122.302C110.704 110.218 104.616 102.459 93.053 98.9466Z" fill="#EEC1A2"/>
<path fill-rule="evenodd" clip-rule="evenodd" d="M93.7506 116.432C94.6225 117.009 95.3558 117.885 95.9445 118.806C93.4868 118.55 91.0335 118.255 88.5855 117.919C88.906 117.714 89.2294 117.513 89.5603 117.324C90.7673 116.643 92.4027 115.54 93.7506 116.432ZM52.9186 123.706C52.4683 123.529 52.294 122.842 52.1185 122.448C51.5682 121.212 51.066 119.955 50.5435 118.708C52.5274 118.141 54.4567 117.513 56.5118 117.211C58.7217 116.887 60.9641 116.809 63.1943 116.881C67.7118 117.029 72.1872 117.768 76.6285 118.561C81.0647 119.353 85.5005 120.113 89.9677 120.71C94.3443 121.295 98.7348 121.723 103.133 122.099C103.988 122.172 105.413 122.479 106.1 121.806C106.644 121.273 106.662 120.289 105.981 119.856C105.557 119.585 104.943 119.581 104.458 119.519C103.848 119.44 103.235 119.388 102.621 119.347C102.371 119.331 102.121 119.316 101.871 119.3C103.879 118.542 105.977 118.129 108.154 118.244C108.277 118.993 108.832 119.763 109.136 120.381C109.666 121.46 110.079 122.551 110.351 123.724C110.918 126.175 110.942 128.718 110.782 131.218C110.635 133.302 110.319 135.608 108.686 137.084C107.45 138.202 105.706 138.616 104.087 138.746C102.207 138.897 100.297 138.735 98.4316 138.483C95.8158 138.129 93.1877 137.661 90.6233 137.033C85.6565 135.817 80.8957 133.883 76.5034 131.261C74.3614 129.982 72.3175 128.544 70.1461 127.313C67.9335 126.06 65.5792 125.087 63.107 124.483C60.3405 123.808 57.4483 123.519 54.6048 123.686C54.1114 123.715 53.3985 123.894 52.9186 123.706ZM49.7125 122.451C50.0032 123.396 50.2257 124.474 50.8462 125.268C51.4608 126.054 52.3881 126.332 53.3487 126.402C54.5069 126.486 55.6788 126.432 56.8396 126.475C59.2203 126.564 61.5684 126.951 63.8443 127.661C65.9652 128.323 67.934 129.356 69.8305 130.501C71.5842 131.56 73.2865 132.697 75.0408 133.753C74.5739 133.968 74.1123 134.199 73.6482 134.401C72.6747 134.825 71.6952 135.233 70.7113 135.631C68.7711 136.416 66.8227 137.182 64.8543 137.894C60.8853 139.329 56.8511 140.583 52.7683 141.651C50.8211 142.16 48.8461 142.755 46.8231 142.84C45.0293 142.915 43.3677 142.407 41.9209 141.34C38.9201 139.125 36.5327 135.927 34.6028 132.774C33.4562 130.9 32.4556 128.932 31.6279 126.896C31.2093 125.867 30.8297 124.822 30.488 123.764C30.3278 123.268 30.1758 122.769 30.0318 122.267C29.9685 122.047 29.9079 121.825 29.8478 121.604C32.9163 120.666 36.0212 119.82 39.199 119.35C40.8956 119.099 42.6149 118.972 44.3301 118.991C45.1815 119 46.0324 119.046 46.8793 119.134C47.3351 119.181 47.7892 119.242 48.2412 119.318C48.428 119.349 48.62 119.395 48.8126 119.429C49.1068 120.438 49.4034 121.446 49.7125 122.451ZM113.142 118.438C113.307 118.103 113.377 117.774 113.436 117.409C113.481 117.131 113.601 116.74 113.496 116.378C113.379 115.974 113.058 115.612 112.828 115.267C112.574 114.886 112.32 114.505 112.067 114.123C111.56 113.36 111.054 112.596 110.549 111.831C108.486 108.709 106.437 105.578 104.386 102.448C102.565 99.6716 100.774 96.8697 98.8982 94.1301C97.2938 91.7874 95.545 89.4834 93.3489 87.6614C90.5722 85.3578 87.2658 84.2726 83.8122 83.4258C83.435 83.0338 82.9312 82.8197 82.3926 82.8631C81.6318 81.9992 81.0271 81.3956 80.7529 80.2969C80.6216 79.7707 80.6628 78.292 80.1509 77.9806C79.5428 77.6106 79.2252 78.1003 79.0576 78.6521C78.4965 80.4983 79.1405 82.9804 80.6223 84.8298C79.998 86.9901 79.1702 90.0604 77.6936 91.7912C76.1124 93.6444 73.9256 94.2213 71.5662 94.2593C67.0668 94.3318 62.5721 92.6575 59.1401 89.7557C58.097 88.8739 57.1282 87.8889 56.2517 86.8413C55.5943 86.0554 54.8166 84.8425 54.3022 83.9257C54.3022 83.5685 53.881 83.1949 58.17 82.9062C62.459 82.6176 62.7843 76.7375 62.8796 75.9373C62.9571 75.2875 63.2867 74.2788 62.8294 73.749C62.6353 73.5239 62.237 73.4877 61.9909 73.6405C61.5269 73.9291 61.3744 74.6669 61.2285 75.1679C61.0242 75.8697 60.3562 80.2257 59.0903 80.73C58.4977 80.9661 57.818 80.9705 57.1912 81.0142C56.417 81.0683 55.6413 81.1079 54.8703 81.1981C54.5859 81.2313 54.2757 81.3235 53.9952 81.3261C53.8126 81.3279 53.6243 81.2391 53.4479 81.1767C52.8524 80.966 52.2573 81.1241 51.6439 81.2066C46.2198 81.9365 40.6349 83.6022 36.0084 86.5994C31.9305 89.2411 29.0577 93.0403 27.162 97.4823C25.2277 102.016 24.1191 106.918 23.19 111.743C22.8787 113.36 22.6069 114.985 22.3734 116.615C22.1477 118.19 21.8655 119.8 21.7979 121.391C21.7711 122.02 21.9214 122.605 22.1526 123.18C22.413 123.827 23.0284 124.082 23.6187 124.384C24.9145 125.048 26.2815 125.563 27.6899 125.927C28.5503 127.495 29.2743 129.123 29.8562 130.813C29.6403 131.241 29.6358 131.881 29.5943 132.297C29.4914 133.333 29.4473 134.375 29.4381 135.416C29.4195 137.503 29.5449 139.588 29.6431 141.672C29.7427 143.785 30.0739 152.124 30.1279 153.142C30.1699 153.933 30.1134 155.039 30.5296 155.742C31.1691 156.821 32.7476 156.785 33.4787 155.91C51.6439 159.819 85.7893 158.642 99.5413 156.675C101.331 156.419 100.769 156.703 101.224 156.25C101.565 155.91 101.856 155.328 101.95 154.86C102.076 154.236 101.873 153.671 101.516 153.166C101.14 152.634 101.072 151.774 100.933 151.143C100.603 149.65 100.439 143.093 100.285 142.366C100.237 142.14 100.191 141.9 100.134 141.661C102.657 141.9 105.285 141.9 107.685 141.055C109.046 140.576 110.315 139.824 111.292 138.75C112.475 137.449 113.133 135.811 113.472 134.102C113.909 131.897 114.001 129.614 113.915 127.373C113.796 124.725 113.358 122.04 112.269 119.608C112.627 119.275 112.927 118.873 113.142 118.438Z" fill="black"/>
<path fill-rule="evenodd" clip-rule="evenodd" d="M65.3743 74.2878C64.7264 74.9499 63.7865 74.4249 62.9854 74.2787C56.1072 72.4004 48.7244 66.6673 47.3518 59.7334L46.6662 57.7284C46.4219 57.3223 46.234 56.0885 46.2951 55.9846C46.3482 55.9954 46.7327 55.7277 46.7848 55.7406C46.2951 52.1112 46.3889 48.8925 47.7901 44.2805C45.4624 42.6811 47.0325 40.0002 49.3793 40.1524C49.4095 38.6009 49.8458 37.4362 51.0964 35.7916C55.9648 29.6988 64.3952 27.2913 72.2529 27.7694C78.3244 27.9636 82.3541 29.4141 85.0503 32.372C86.4278 33.5582 87.4853 34.8522 87.3899 36.5542L88.0029 36.568L88.0206 36.816C88.6782 36.5424 96.0939 38.5572 96.2637 39.379L96.0551 39.6522C96.3339 40.14 96.3501 40.534 96.2104 41.202C95.9445 42.4573 96.2261 43.8167 96.1559 45.0594C96.0921 45.2713 95.1337 45.4972 94.7674 45.5359C93.0017 45.9609 91.129 46.4459 89.1876 46.7247C89.2832 51.072 88.785 55.5224 90.3553 59.7334L91.0592 59.1306C92.2403 67.6386 89.1564 80.4457 79.2474 80.3225C74.3797 80.228 69.419 76.7511 65.3743 74.2878Z" fill="#747474"/>
<path fill-rule="evenodd" clip-rule="evenodd" d="M59.9149 63.1326C59.1907 62.3712 59.477 60.4518 60.69 61.4863C61.0649 61.1733 61.5739 61.2303 62.0219 61.388C63.2463 61.8411 64.5088 62.2038 65.8174 62.2901C66.2811 62.0551 66.9111 62.3002 67.4508 62.1754L67.5011 62.1625C67.8475 62.0659 68.1569 62.3937 68.0713 62.7345C67.9317 63.0832 67.9935 63.6326 67.6414 63.8376C67.1975 65.7262 66.727 67.591 66.2724 69.4753C66.6259 70.1366 66.2085 70.9554 66.0372 71.6391L65.9835 71.9167C65.7257 73.216 65.1815 75.344 63.6082 74.2229C62.8454 74.1785 62.1065 73.8772 61.5752 73.3069C61.0194 72.7545 61.2968 72.0713 61.0609 71.4357L60.9891 71.114C60.4056 68.4864 59.8948 65.8437 59.9149 63.1326ZM59.919 53.8618C60.0528 53.0562 60.4651 45.2862 61.9797 47.1017L61.9821 47.1013C61.9786 47.0433 61.9874 47.0586 62.0004 47.1034C62.0176 47.107 62.0326 47.1164 62.045 47.129C65.5265 46.9323 68.963 47.8566 72.443 47.9524C76.0745 48.2903 79.7902 47.972 83.3859 48.069C85.2571 47.8218 87.112 47.5177 88.9219 46.9697C89.3889 46.8356 89.6238 47.3868 89.3924 47.6947C89.76 49.6489 89.1939 51.6783 89.3955 53.6621C89.4569 55.2418 89.6103 56.8268 89.8007 58.3837C90.0473 59.313 88.8738 60.2643 88.3904 59.181C82.8511 56.8643 79.7199 58.1366 74.2642 59.4414C74.3451 60.245 68.0609 60.5448 67.6399 59.9313C65.3919 59.8345 63.1394 59.6219 60.925 59.2139C59.9734 59.1795 59.6873 58.5255 60.0167 57.6919C60.0055 56.3867 59.6844 55.1832 59.919 53.8618Z" fill="#EEC1A2"/>
<path fill-rule="evenodd" clip-rule="evenodd" d="M89.9302 59.9914C85.2861 58.5567 80.2979 57.8669 75.7051 59.8175C74.1626 60.1862 72.5946 60.4762 71.0082 60.5614C70.2232 60.6297 69.2735 60.3735 68.6007 60.8754C64.0507 60.3058 59.7721 59.3211 55.3164 58.2372C54.6492 58.075 52.3232 57.2578 51.7323 57.1555C50.0941 56.872 45.5446 54.2175 45.9054 56.7393C45.8569 57.5536 46.1475 58.3243 47.047 58.4237C54.1102 59.8283 61.1291 61.444 68.3142 62.2293C68.3946 62.4967 68.5192 62.7566 68.634 63.0111C68.0573 66.5737 67.0084 70.0624 65.8158 73.4636C63.5632 74.7682 68.362 76.3791 69.3924 76.6719C70.2952 77.2479 71.2374 77.7598 72.1811 78.2642C75.1248 80.0137 78.8312 81.5802 82.0347 79.5424C83.5064 79.0646 84.7179 78.1304 85.7635 77.0343C89.1223 73.1344 91.557 65.9532 90.581 60.8507C90.5386 60.538 90.37 59.7503 89.9302 59.9914Z" fill="#723E3E"/>
<path fill-rule="evenodd" clip-rule="evenodd" d="M96.1245 40.7986C95.6815 42.1726 95.4978 43.6978 95.6354 45.1445C81.1752 49.0044 65.963 48.1163 51.6485 44.058C52.3272 43.0361 52.4981 41.6522 52.0144 40.5158C63.8366 44.824 76.9213 45.2109 89.2569 43.2085C91.4628 42.8319 94.4674 42.5281 96.1279 40.7882C96.1268 40.7917 96.1256 40.7952 96.1245 40.7986ZM60.8958 47.1247C59.8102 50.9107 59.2513 54.9022 59.1973 58.8335C58.8233 58.7619 58.4482 58.6868 58.0742 58.6095C58.0156 54.5145 58.007 50.4035 57.5322 46.3326C58.6641 46.6094 59.7812 46.8549 60.9165 47.0831C60.9085 47.0958 60.9016 47.1097 60.8958 47.1247ZM66.1742 73.0177C67.0605 70.0155 68.1099 66.9367 68.4092 63.7984C68.4552 63.4504 68.4772 63.0984 68.4802 62.7402C68.4961 62.32 68.4962 61.8988 68.4797 61.4767C68.507 61.3487 68.5361 61.2352 68.6086 61.1409C68.6469 61.1168 68.6804 61.0841 68.7071 61.0464C68.7281 61.0313 68.7504 61.0167 68.7759 61.0033C69.2744 60.7396 70.1996 61.0125 70.7634 61.0391C71.989 61.0967 73.2943 61.1267 74.4636 60.7047C74.5101 60.6881 74.5427 60.6591 74.564 60.6253C77.8878 59.9856 81.2126 58.6819 84.5791 59.4282C86.5022 59.7439 88.6518 60.8717 90.6055 60.4004C90.5369 62.888 90.509 65.3893 90.1291 67.8531C88.9979 76.4614 82.6447 82.6016 73.922 78.653C71.0812 77.4995 68.4251 75.9325 65.5989 74.7414C65.9211 74.2566 66.0477 73.423 66.1742 73.0177ZM60.0788 65.0706C59.9888 64.0041 59.9628 62.9324 59.9396 61.8631C62.5156 62.1331 65.199 62.6516 67.7623 62.4931C67.754 62.6969 67.7449 62.8869 67.7474 63.045C67.7482 63.0969 67.7494 63.1487 67.7504 63.2005C67.0338 66.9022 65.8807 70.5114 64.5586 74.0372C63.636 73.8515 62.7212 73.619 61.8314 73.3098C60.8849 70.6528 60.2862 67.8879 60.0788 65.0706ZM58.0788 60.667C58.08 60.2629 58.08 59.8588 58.0788 59.4546C61.2164 60.142 64.3984 60.608 67.5944 60.912C67.6901 61.1133 67.7389 61.3564 67.7598 61.6135C67.7058 61.5955 67.6495 61.5853 67.5954 61.5838C64.4056 61.466 61.2307 61.1564 58.0788 60.667ZM59.4148 61.7892C59.0424 65.8642 59.4607 69.0654 60.5794 72.8353C59.6231 72.43 58.6991 71.9439 57.8165 71.3955C57.9614 68.1257 58.0512 64.8524 58.0731 61.579C58.5196 61.653 58.9672 61.7233 59.4148 61.7892ZM89.4249 58.875C87.7747 58.7177 86.2096 58.1152 84.5757 57.8636C79.0604 56.9094 74.0512 60.4611 68.5758 60.1855C68.3204 59.9766 67.8911 60.0181 67.5862 59.9926C65.0907 59.7799 62.6014 59.4498 60.1363 59.0078C60.4368 55.0709 60.7056 51.077 61.2353 47.1455C70.4884 48.9701 80.0673 49.0777 89.3639 47.4999C88.6304 51.2458 88.4876 55.1534 89.4249 58.875ZM94.3051 61.7511C94.3063 67.9176 93.9452 74.0854 93.5434 80.2269C82.2716 86.2299 68.1762 85.124 57.4206 78.4846C57.5437 76.6385 57.6519 74.7899 57.744 72.9404C59.067 73.7385 64.0006 76.0443 65.3227 75.2299C67.732 76.823 70.2797 78.2335 72.8922 79.4605C84.694 85.3088 91.888 74.9332 91.8067 63.8937C91.7728 63.1319 92.3108 58.4991 91.1567 58.4372C91.0714 58.4043 90.9811 58.379 90.9003 58.3455C90.7794 58.2952 90.6602 58.2564 90.5336 58.2587C89.5334 54.7517 89.9028 51.0287 89.8357 47.418C91.2845 47.1684 92.7276 46.8762 94.1567 46.5324C94.0108 51.6044 94.4086 56.6761 94.3051 61.7511ZM56.981 58.3693C53.5583 57.5802 50.2776 56.2841 46.8453 55.5277C46.9284 52.0831 46.9678 48.5973 48.0064 45.2773C49.255 45.7707 50.6405 45.3349 51.4586 44.3144C53.3021 45.1572 55.2756 45.7669 57.2606 46.2645C56.9546 50.2825 57.0593 54.3421 56.981 58.3693ZM56.9338 60.4811C53.5403 59.9421 50.2392 59.0588 46.8868 58.3172C46.866 58.2827 46.8235 58.2631 46.7751 58.2908C46.6542 58.3149 46.5181 58.2744 46.3942 58.2862C46.0268 57.7446 46.097 57.0806 46.0236 56.4885C46.0214 56.1202 45.9155 55.9122 46.3056 55.9724C49.9134 56.8563 53.3404 58.3656 56.9638 59.2018C56.9534 59.6278 56.9442 60.054 56.9338 60.4811ZM56.5783 70.5677C52.7951 68.0048 50.2967 64.1742 48.0116 60.3101C47.8687 59.8499 47.6787 59.3996 47.4482 58.9978C47.4178 58.9447 47.3856 58.8922 47.3519 58.8411C50.4194 60.0639 53.6782 60.7476 56.9108 61.3759C56.8314 64.4415 56.7244 67.5057 56.5783 70.5677ZM47.6267 40.9002C47.8015 40.7081 48.0027 40.5516 48.22 40.4262C48.3825 40.3981 48.5473 40.3752 48.7169 40.3599C49.2787 40.3093 50.1988 40.286 50.575 40.7961C50.783 41.078 50.8707 41.5041 50.9174 41.9013C50.9194 41.9529 50.9199 42.0043 50.9166 42.056C50.7258 45.9545 45.2497 43.8788 47.6267 40.9002ZM51.9132 40.0401C63.5074 41.1873 75.2844 39.4163 86.6643 37.1963C89.6396 37.6672 92.7401 38.1071 95.4432 39.6383C94.1233 41.3425 91.2683 41.5479 89.3328 41.8746C76.8646 44.1267 64.1438 42.8756 51.8798 40.0724C51.8902 40.0608 51.9017 40.0506 51.9132 40.0401ZM73.4861 29.8739C77.354 29.6902 81.583 30.2823 84.6378 32.8306C85.6241 33.8161 86.2844 35.0801 87.189 36.1006C75.6823 38.7746 63.8404 39.5644 52.0582 39.9014C57.6608 34.0604 65.3198 30.0935 73.4861 29.8739ZM96.8936 40.1218C96.898 40.1044 96.9018 40.0868 96.903 40.0682C96.9091 39.9833 96.9067 39.8931 96.9036 39.8079C96.9025 39.7754 96.8999 39.7423 96.8959 39.7093C97.5181 38.3848 92.0601 36.886 89.6264 36.4145C89.3979 36.3238 89.1596 36.2527 88.9355 36.1804C88.6278 36.0811 88.3097 35.9733 87.987 35.9348C87.8746 34.3136 86.6831 33.0568 85.4548 31.9648C82.0979 28.2948 76.9746 27.3387 72.2214 27.1883C64.2494 26.7324 55.6908 29.0484 50.5012 35.4736C49.5784 36.6774 48.7797 38.0689 48.6773 39.6117C46.1918 39.8053 44.8425 42.92 46.9454 44.6446C45.9679 48.0425 45.4874 51.7376 46.402 55.2019C46.236 55.2443 46.0771 55.3123 45.9407 55.4175C45.9358 55.4213 45.9317 55.4257 45.9269 55.4297C45.2909 55.6666 45.6039 56.969 45.7671 57.538C45.8552 57.9066 46.1003 58.562 46.5136 58.5717C46.9101 59.0281 47.1773 59.5875 47.4375 60.1495C48.5551 64.7032 52.7862 69.645 56.4989 72.1518C56.3815 74.3836 56.2422 76.6131 56.0915 78.8414C56.0754 79.0701 56.2273 79.2928 56.4149 79.4073C67.678 86.3828 82.5038 87.793 94.2522 81.1795C95.2246 81.4894 95.6311 80.1557 95.014 79.7203C95.6806 68.6509 96.173 57.4319 94.6607 46.4135C95.2127 46.2218 96.3914 46.1249 96.6505 45.5799C97.0664 44.6058 96.6041 43.4079 96.7414 42.3549C96.7202 41.6603 97.0533 40.8044 96.8936 40.1218Z" fill="black"/>
<path fill-rule="evenodd" clip-rule="evenodd" d="M78.1372 70.0756C77.362 69.759 76.6703 69.2308 76.1647 68.5561C75.9889 68.3216 75.9433 68.0739 75.9802 67.8474C76.0216 67.5926 76.1721 67.3618 76.3774 67.2069C76.5833 67.0516 76.8409 66.975 77.0899 67.014C77.3062 67.048 77.5216 67.1666 77.6921 67.4126L77.7277 67.4618C78.0283 67.869 78.4201 68.2031 78.8665 68.4185C79.2967 68.626 79.7779 68.7229 80.2758 68.6666C81.2241 68.5593 81.8778 68.0458 82.5725 67.3485C82.6587 67.2604 82.7448 67.1696 82.8314 67.0774C82.8861 66.9937 82.962 66.94 83.0462 66.9118C83.1398 66.8805 83.2456 66.8822 83.3426 66.9161C83.436 66.9488 83.5196 67.0107 83.5757 67.0931C83.6289 67.1714 83.6591 67.2681 83.6493 67.3793C83.5857 68.102 83.2084 68.747 82.6723 69.2534C82.077 69.8159 81.2879 70.205 80.5449 70.3415C79.7264 70.4918 78.8924 70.3841 78.1372 70.0756ZM80.9311 58.9269C81.8019 59.4568 83.1287 60.6926 82.1919 62.0065C81.0892 63.1649 79.5016 61.8367 78.7193 61.236C77.9938 60.7704 77.1788 61.9678 77.8518 62.5114C83.5051 66.7021 85.7993 59.0655 81.3715 58.3038C80.884 58.2198 80.7029 58.7629 80.9311 58.9269ZM70.8004 54.0521C70.8966 52.8563 72.7154 52.5848 72.8964 53.768C73.0584 54.828 72.8676 55.8016 72.3908 56.7559C71.9352 57.6676 70.79 57.2422 70.7034 56.4121C70.5873 55.2993 70.7405 54.7959 70.8004 54.0521ZM84.6457 53.5227C84.8993 53.1902 85.2654 52.9632 85.7041 53.0915C87.0747 53.4925 86.6707 55.4406 86.1894 56.3889C85.9278 56.9038 85.0824 57.0344 84.7004 56.581C84.0777 55.8416 83.7795 54.365 84.5711 53.6367C84.5926 53.599 84.6164 53.561 84.6457 53.5227ZM72.3715 48.8199L72.588 48.782C73.2577 48.666 74.0905 48.5546 74.5643 49.0937C74.8155 49.3795 74.902 49.9109 74.5643 50.1845C73.9701 50.666 73.3133 50.4794 72.6013 50.5202C72.0146 50.5539 71.4507 50.6511 70.8855 50.8129C69.6456 51.1677 68.6354 51.8154 67.5764 52.5266C67.4374 52.6199 67.2956 52.442 67.3619 52.3119C67.9732 51.1131 69.1579 50.1283 70.3445 49.528C70.9778 49.2076 71.6708 48.9418 72.3715 48.8199ZM83.3964 48.2829L83.5621 48.3168C85.3653 48.6942 87.7081 49.4481 88.5621 51.2215C88.5946 51.4723 88.5602 51.526 88.5323 51.5611L88.523 51.5728C88.4999 51.6028 88.4815 51.6441 88.373 51.6783C88.3429 51.6711 88.3124 51.6635 88.2817 51.6554C87.8903 51.5527 87.5806 51.4112 87.2808 51.2644L86.9557 51.104C86.5785 50.9189 86.1981 50.7405 85.7948 50.6088C84.9343 50.3277 84.0492 50.1298 83.1504 50.0241C82.9556 50.0012 82.768 49.9353 82.62 49.8225C82.4795 49.7154 82.3722 49.5672 82.3233 49.3701C82.2599 49.115 82.2781 48.9219 82.4148 48.6918C82.5175 48.519 82.6646 48.3992 82.8334 48.3305C83.0056 48.2603 83.2016 48.2438 83.3964 48.2829Z" fill="black"/>
<path fill-rule="evenodd" clip-rule="evenodd" d="M90.8993 61.3503C90.682 58.5928 87.2092 57.4247 85.4794 57.0783C79.7196 55.7226 74.8193 59.2009 67.9513 59.272C67.2581 59.2829 65.2758 59.1658 64.354 58.9221C59.6768 57.858 55.0045 56.7261 50.4154 55.3306C49.7407 55.4887 49.541 56.3705 50.0043 56.8729C54.3997 58.4336 61.1242 59.8311 64.6752 59.9902C64.6071 64.5832 62.1854 69.2016 58.8412 71.7417C64.16 77.6307 76.5645 79.5674 83.8648 76.4762C87.4559 75.3971 91.2453 65.7378 90.8993 61.3503Z" fill="#444444"/>
<path fill-rule="evenodd" clip-rule="evenodd" d="M50.0443 55.4697C49.8465 55.462 49.9619 54.8847 50.4073 54.967C56.1552 56.3129 63.3164 58.8766 69.2244 58.8578C73.5706 58.7153 77.4649 56.2918 81.8351 56.2771C84.7728 56.3335 88.5188 56.7518 90.5746 59.112C93.2863 67.7228 87.1799 79.4346 77.5721 79.5024L75.7536 79.3706C69.5549 78.9134 62.764 78.1818 58.7686 72.9163L58.7375 72.9431C58.14 72.5417 58.1734 71.675 58.6811 71.2292L58.6962 71.253C58.7059 71.2373 58.7166 71.2223 58.727 71.2069L58.7205 71.1867C58.9159 70.9814 59.138 70.7894 59.3399 70.6175L59.3409 70.6208C62.341 68.1182 64.2999 64.334 64.4127 60.4155C63.4195 60.6886 46.7324 57.2248 49.7112 56.3796C51.8418 57.1007 53.9849 57.752 56.1713 58.2704C56.208 58.2498 56.2606 58.2552 56.2808 58.296C58.9554 58.955 61.6841 59.3316 64.4163 59.6366C64.4134 59.5059 64.4084 59.3752 64.4017 59.2442C59.5437 58.2973 54.7811 56.8915 50.0443 55.4697ZM89.3816 58.9644C79.4171 53.9244 74.471 61.3703 64.8341 59.3202C65.8423 63.8238 63.3527 68.679 59.9713 71.6216C64.8844 75.8793 67.0109 76.5241 73.456 77.2151L74.2979 77.3155C75.5639 77.4656 76.8417 77.6056 78.1115 77.6275C84.6984 77.1476 89.6756 70.286 90.4205 64.0691L90.4245 63.8973C90.4579 62.3196 90.3855 60.6495 89.6874 59.204C89.5588 59.1593 89.4471 59.0785 89.3816 58.9644ZM75.5094 62.9207C75.8537 62.8431 76.2051 63.2192 75.9916 63.5487C75.3019 64.6138 73.6152 65.0264 72.4355 65.1938C71.0693 65.3877 69.745 65.2348 68.4473 64.7683C68.3777 64.7432 68.3827 64.6201 68.4659 64.6301C69.6982 64.7769 70.9685 64.6694 72.1659 64.3429C73.3799 64.1061 74.3602 63.2976 75.5094 62.9207ZM84.8719 62.1534C84.8661 61.951 85.8599 62.5367 86.0171 62.6155C87.2309 63.3452 88.6359 63.3987 89.9747 63.6851C90.2867 63.805 90.2863 64.2022 89.9745 64.322C88.3037 64.7669 85.768 63.5994 84.8719 62.1534Z" fill="black"/>
</svg>
