<svg width="131" height="177" viewBox="0 0 131 177" fill="none" xmlns="http://www.w3.org/2000/svg">
<path fill-rule="evenodd" clip-rule="evenodd" d="M63.9151 68.8439C71.59 65.5352 77.2585 68.1039 79.1035 72.1111C80.5634 75.2821 80.5921 81.9908 83.4476 84.6488C97.347 94.9202 100.378 112.817 103.215 128.818C104.487 136.545 105.295 144.347 105.622 152.171C105.652 152.889 104.969 153.58 104.249 153.547C83.7192 152.553 63.1473 152.628 42.6185 153.517C41.4071 153.526 40.179 153.414 39.0354 152.983C37.4241 153.616 36.4039 151.67 36.4447 150.323C36.308 149.43 35.4144 148.811 34.7638 148.24C33.2238 146.961 31.9785 145.492 31.1302 143.662C29.9162 141.182 29.7496 138.453 28.6686 135.965C28.1783 134.528 27.9908 133.028 27.7588 131.537C27.1545 130.041 26.964 128.437 26.8989 126.848C24.6208 125.414 25.729 121.899 25.9383 119.684C26.2955 117.112 26.6758 114.541 27.1406 111.986C29.8589 94.4094 42.2367 84.3692 59.2363 80.8257C62.65 78.6483 62.65 69.3893 63.9151 68.8439Z" fill="#EEC1A2"/>
<path fill-rule="evenodd" clip-rule="evenodd" d="M74.0873 96.0497L74.2116 96.1963L74.3376 96.3421C75.2247 97.3585 76.2126 98.2857 77.2207 99.189L77.5092 99.4466L77.7868 99.6929L79.2014 100.944L79.8322 101.496C81.096 102.599 82.3724 103.688 83.6367 104.789C86.9591 107.68 90.2755 110.576 93.5736 113.494C95.3137 115.033 97.0493 116.58 98.7755 118.137C98.3857 118.117 97.9937 118.166 97.5981 118.17C96.9604 118.175 96.3216 118.137 95.6898 118.053C95.4676 118.023 95.2459 117.987 95.025 117.946L94.8596 117.915L94.6946 117.882L94.69 117.851L94.6877 117.843C94.6794 117.824 94.6534 117.829 94.6421 117.845L94.6386 117.851L94.6369 117.858L94.6358 117.869L94.4711 117.833C93.7583 117.675 93.0558 117.469 92.3651 117.238C90.3055 116.546 88.3037 115.655 86.3651 114.676C82.5942 112.773 79.0459 110.437 75.7894 107.748C74.0102 106.278 72.3103 104.695 70.6474 103.095C70.7709 102.747 70.8862 102.402 71.0095 102.08C71.2904 101.347 71.5619 100.608 71.8294 99.8693L71.9895 99.4257L72.1683 98.9279L72.2066 98.8181L72.3741 98.3248C72.6084 97.6428 72.8821 96.9553 73.4404 96.4929C73.5749 96.3821 73.7182 96.2836 73.865 96.1892L73.9387 96.1423L74.0873 96.0497ZM54.1849 84.656C54.7545 83.6679 55.8427 83.8878 56.7969 84.2197L56.8305 84.2314L56.9638 84.2792L57.0962 84.3281L57.4956 84.4793L57.6759 84.5488C58.6301 84.9244 59.5345 85.4039 60.4595 85.8424L60.6448 85.9295L60.4429 86.0184L60.3077 86.0787L60.1725 86.1399C59.1577 86.6027 58.1442 87.1554 57.4736 88.0367C57.3176 87.8666 57.0792 87.762 56.8471 87.6766L56.8037 87.6608L56.6045 87.5903L55.9058 87.3353L54.5861 86.8555L54.5615 86.847C54.3381 86.7727 53.849 86.6874 53.6948 86.5184C53.6182 86.4358 53.6151 86.3294 53.6284 86.221L53.6315 86.1977L53.6464 86.105L53.6576 86.0411L53.671 85.9736C53.7649 85.5225 53.96 85.0452 54.1849 84.656Z" fill="#CCC7C7"/>
<path fill-rule="evenodd" clip-rule="evenodd" d="M61.4846 76.6992L61.5614 76.4872C62.0262 75.201 62.5958 75.1052 62.3213 76.3521L62.2798 76.54C62.0421 77.6069 61.7577 78.7094 61.1752 79.6428C60.1708 81.2524 57.5391 81.8492 55.7841 82.4218C55.7898 82.4623 55.7898 82.5028 55.7852 82.5409C56.8576 82.7049 57.9589 83.222 58.8572 83.8017C59.6794 84.3339 60.422 84.9308 60.9756 85.724L63.6833 84.5463C64.577 84.1584 65.4775 83.6966 66.4485 83.5407C67.8173 83.3213 69.9276 84.0556 69.7663 85.7842C69.7454 86.0173 69.599 86.1905 69.4192 86.2759C69.5563 86.2645 69.6948 86.2608 69.8319 86.2655C70.7475 86.2967 72.0414 87.1084 71.5629 88.1787C71.4406 88.4545 71.0878 88.2734 71.06 88.0425C70.879 86.5243 69.3118 86.8811 68.2245 87.1292C67.2407 87.3532 66.2687 87.628 65.3174 87.9638C64.3001 88.323 63.3165 88.7803 62.409 89.3679C61.4727 89.9751 60.5974 90.7119 60.6551 91.9242C60.6573 91.9496 60.617 91.9623 60.6054 91.938C60.1222 90.9059 61.0632 89.8171 61.8279 89.2225C62.9348 88.3624 64.2311 87.7434 65.541 87.2608C66.2145 87.0131 66.9089 86.8182 67.6058 86.6456L67.7667 86.6061C68.1761 86.5068 68.6003 86.3925 69.027 86.3233C68.8694 86.2846 68.7317 86.17 68.6705 85.9629L68.6626 85.934C68.0468 83.4922 64.7464 85.4563 63.41 86.0462C62.4539 86.4676 61.4864 86.8717 60.5409 87.3185L60.4191 87.3767C59.686 87.7289 58.9221 88.145 58.4294 88.808C57.1655 90.5052 58.3002 92.7971 58.6992 94.589C58.8134 95.1028 58.9229 95.6478 58.9298 96.1756C58.9354 96.6075 58.8031 97.0148 58.696 97.4304L58.6336 97.6753C58.6888 97.6765 58.7453 97.7343 58.7269 97.793C58.2784 99.2594 57.5195 100.65 56.7803 101.987C56.0262 103.351 55.2501 104.709 54.4175 106.026C51.4562 110.712 48.0658 115.135 44.3469 119.242C42.5641 121.211 40.636 123.048 38.8958 125.055C38.0863 125.99 37.3288 126.969 36.6967 128.035C36.3554 128.612 36.0487 129.21 35.7904 129.83L35.7394 129.952C35.5276 130.459 35.3195 130.906 34.9255 131.311C34.7296 131.513 34.3374 131.428 34.2751 131.139C33.9856 129.781 34.9452 128.315 35.6417 127.206C36.3935 126.01 37.2722 124.895 38.2062 123.836C38.4703 123.536 38.739 123.241 39.0112 122.948C37.7935 123.283 36.5111 123.372 35.2703 123.591C33.9995 123.815 32.7368 124.082 31.5053 124.47C30.3739 124.826 29.2969 125.296 28.2672 125.884C27.7735 126.167 27.2905 126.478 26.8384 126.825C26.7956 126.858 26.7541 126.892 26.7126 126.926C27.4506 128.783 28.018 130.708 28.6107 132.612C29.0154 133.914 29.4109 135.219 29.8039 136.525L30.6864 139.464C31.3231 141.582 31.8534 143.887 32.9756 145.814C33.4599 146.645 34.1148 147.397 34.8644 148C35.2277 148.293 35.6233 148.516 36.0337 148.732C36.292 148.868 36.5203 149.045 36.7602 149.206C36.9181 149.026 37.1576 148.914 37.4515 148.961L37.4844 148.967C38.4127 149.15 39.3699 148.821 40.1955 148.414C41.0557 147.989 41.9126 147.49 42.6402 146.862C44.0713 145.626 45.2579 144.084 46.4146 142.597C50.5382 137.291 54.0497 131.478 56.9118 125.398C58.3659 122.306 59.7233 119.162 60.9986 115.992C61.6364 114.408 62.2648 112.82 62.8771 111.226L62.958 111.012C63.5065 109.549 63.9868 107.961 64.8687 106.671C64.8756 106.659 64.8849 106.65 64.8952 106.643C64.8975 106.606 64.9091 106.571 64.9276 106.541C65.2009 106.104 65.7243 105.976 66.1776 105.772C66.6884 105.543 67.1981 105.314 67.7078 105.086C68.1092 104.905 68.6972 104.753 68.9982 104.411C69.3395 104.027 69.4538 103.342 69.6197 102.866C69.9958 101.791 70.4027 100.729 70.8098 99.6658C71.1673 98.7317 71.4764 97.7295 71.9779 96.8591C72.4062 96.1165 73.0181 95.7249 73.7255 95.2972L73.879 95.2044C74.1746 95.024 74.4899 94.8078 74.6072 94.4701C74.7986 93.9182 74.3731 93.3904 73.921 93.1273C72.9166 92.5441 71.7139 93.2173 70.833 93.7313C69.9472 94.2484 69.0836 94.8696 68.1367 95.2704C68.116 95.2783 68.101 95.2472 68.116 95.2333C68.8771 94.5352 69.8073 93.9601 70.6814 93.3926L70.8986 93.2509C71.4786 92.8709 72.1395 92.5004 72.8382 92.3976C72.693 92.3491 72.7379 92.1609 72.8763 92.1437C74.2508 91.9761 75.6463 92.1909 77.007 91.87C78.2212 91.5836 79.281 90.8966 80.1297 89.9926C80.93 89.1405 81.5642 88.1545 82.1558 87.1501C82.4996 86.5657 82.8352 85.9769 83.1833 85.3949C83.2352 85.3072 83.2872 85.2102 83.3402 85.1062C82.7174 84.9619 82.0832 84.4978 81.66 84.1376C81.0026 83.5788 80.5229 82.8237 80.1886 82.0362C79.4045 80.1877 79.4666 78.0737 80.0537 76.1824C80.0893 76.067 80.2601 76.0612 80.2936 76.1824C80.7443 77.8023 80.7847 79.5586 81.4927 81.1033C81.7764 81.7222 82.1721 82.2787 82.6586 82.7521C82.9054 82.9911 83.1545 83.1919 83.4566 83.3583C83.7806 83.5372 84.1266 83.596 84.3837 83.8801C84.3987 83.8963 84.4126 83.9125 84.4253 83.9298C84.5759 83.9094 84.7056 83.9311 84.8093 83.996L84.8312 84.0106L84.8358 84.0038C84.3711 83.6863 83.904 83.3721 83.4093 83.095C83.278 83.0211 83.3737 82.8445 83.505 82.8675L83.8305 82.9252C84.918 83.1192 86.026 83.3398 87.0187 83.8236C88.1201 84.3616 89.1717 84.9828 90.175 85.6859C92.1515 87.069 93.9504 88.7029 95.5245 90.5306C98.4282 93.9032 100.481 97.9582 101.75 102.209C103.337 107.522 103.951 113.102 104.621 118.59C104.941 121.217 105.228 123.848 105.484 126.483L105.553 127.202C105.68 128.557 105.819 129.911 105.949 131.263C106.18 131.625 106.196 132.056 106.06 132.43C106.16 133.526 106.25 134.622 106.322 135.723C106.504 138.562 106.621 141.41 106.672 144.256C106.723 147.143 106.618 150.025 106.585 152.911C106.571 154.126 104.733 154.121 104.704 152.911C104.63 149.722 104.402 146.532 104.239 143.345C104.08 140.235 103.932 137.126 103.742 134.018C103.724 133.722 103.706 133.425 103.69 133.13C103.422 133.232 103.09 133.274 102.808 133.33L102.739 133.344C102.172 133.465 101.605 133.552 101.029 133.604L100.843 133.62C100.321 133.656 97.644 133.714 96.0619 133.425C96.1876 135.458 96.3144 137.492 96.454 139.524C96.6131 141.841 96.6431 144.162 96.7597 146.481C96.8184 147.641 96.8887 148.792 97.0363 149.944C97.1036 150.468 97.1725 150.994 97.2547 151.516L97.297 151.777C97.3708 152.227 97.463 152.611 97.2727 153.012C97.4388 153.526 97.1805 154.173 96.5002 154.121C92.1388 153.795 87.7671 153.656 83.3943 153.636C75.8448 153.601 68.2997 153.903 60.7535 154.111L58.7141 154.167C51.6455 154.36 44.5421 154.567 37.5064 153.784C37.4913 154.686 35.8076 154.676 35.8976 153.67L35.9197 153.427C36.021 152.333 36.1523 151.199 36.4915 150.146C36.2101 150.154 35.9276 150.143 35.6624 150.055C35.2854 149.931 34.9232 149.707 34.5957 149.486C33.8669 148.994 33.2511 148.388 32.7196 147.688C31.6758 146.315 30.9828 144.688 30.435 143.064C29.8526 141.332 29.3197 139.581 28.8219 137.823L28.286 135.92C27.6058 133.499 26.9379 131.042 26.5327 128.557C26.489 128.615 26.4289 128.665 26.3495 128.701C24.1814 129.67 22.3271 127.681 21.9604 125.67C21.7445 124.484 21.7951 123.27 21.8133 122.069L21.8151 121.94C21.8335 120.557 21.8393 119.174 21.9098 117.792C22.1426 113.171 23.2185 108.694 24.8918 104.389C26.4681 100.338 28.3732 96.254 30.8272 92.6551C31.993 90.9463 33.3376 89.3044 34.9578 88.0055C36.6668 86.6373 38.5881 85.5969 40.6003 84.7495C42.6564 83.8836 44.7885 83.1989 46.9232 82.5523C49.2779 81.8389 51.6604 81.2257 54.0832 80.795C54.2595 80.7639 54.4325 80.8158 54.5306 80.9775C54.6158 81.1195 54.6954 81.265 54.7727 81.4128C55.1036 81.2049 55.6122 81.1541 55.9432 81.0525C56.9821 80.7304 58.8514 80.5376 59.6749 79.8032C60.6138 78.9666 61.0651 77.8511 61.4846 76.6992ZM26.3471 127.248C26.2007 127.382 26.0541 127.516 25.9032 127.642C26.1003 127.559 26.279 127.614 26.4105 127.736C26.3875 127.574 26.3667 127.411 26.3471 127.248ZM74.0098 96.022C73.7861 96.1604 73.5647 96.299 73.3629 96.4653C72.638 97.0656 72.3929 98.0456 72.0908 98.9002L72.0715 98.9546C71.7 99.9891 71.3253 101.026 70.932 102.052C70.8088 102.374 70.6934 102.72 70.5699 103.067C72.2328 104.667 73.9327 106.25 75.7119 107.72C78.9685 110.409 82.5168 112.745 86.2876 114.648C88.2262 115.627 90.228 116.518 92.2876 117.21C93.0315 117.459 93.789 117.679 94.5583 117.842L94.5594 117.83C94.5628 117.802 94.6078 117.79 94.6125 117.823L94.6171 117.854C94.9468 117.922 95.279 117.98 95.6123 118.025C96.2441 118.109 96.8829 118.147 97.5206 118.142C97.9162 118.138 98.3083 118.09 98.698 118.109C96.9718 116.552 95.2362 115.006 93.4961 113.467C90.198 110.548 86.8816 107.652 83.5592 104.761C82.0842 103.477 80.5928 102.209 79.1239 100.916L77.7093 99.6652C76.4592 98.5583 75.2169 97.4338 74.1341 96.1686L74.0098 96.022ZM59.2689 104.603C59.1685 104.479 59.3209 104.322 59.4443 104.427C60.1811 105.052 61.0136 105.326 61.8981 105.662C62.1045 105.74 62.0885 106.069 61.844 106.066C60.8164 106.047 59.8904 105.382 59.2689 104.603ZM69.5921 89.2235L69.6658 89.1941C70.7048 88.7862 72.0528 88.5833 72.8706 89.5296C73.4633 90.2166 73.6142 91.5167 72.8417 92.1159C72.6561 92.2603 72.2627 92.1367 72.3805 91.8469C72.7194 91.0191 72.791 89.9348 71.7243 89.6162C70.7991 89.3396 69.7168 89.8792 68.8742 90.2544L68.6332 90.361C66.9899 91.0914 65.3578 91.9765 64.351 93.5233C64.3244 93.5625 64.254 93.5372 64.2714 93.4898C65.075 91.2615 67.536 90.0618 69.5921 89.2235ZM57.4182 84.4517L57.0187 84.3004C56.0027 83.9207 54.7376 83.535 54.1074 84.6283C53.8713 85.0369 53.668 85.5428 53.5801 86.0134L53.5689 86.0773C53.5447 86.2227 53.5134 86.3787 53.6173 86.4907C53.7775 86.6662 54.2987 86.7515 54.5086 86.8278L55.8284 87.3076L56.4874 87.5483C56.7873 87.658 57.1747 87.7677 57.3961 88.009C58.1711 86.9906 59.4038 86.411 60.5673 85.9018C59.5191 85.4134 58.5033 84.8605 57.4182 84.4517Z" fill="black"/>
<path fill-rule="evenodd" clip-rule="evenodd" d="M65.3743 74.2878C64.7264 74.9499 63.7865 74.4249 62.9854 74.2787C56.1072 72.4004 48.7244 66.6673 47.3518 59.7334L46.6662 57.7284C46.4219 57.3223 46.234 56.0885 46.2951 55.9846C46.3482 55.9954 46.7327 55.7277 46.7848 55.7406C46.2951 52.1112 46.3889 48.8925 47.7901 44.2805C45.4624 42.6811 47.0325 40.0002 49.3793 40.1524C49.4095 38.6009 49.8458 37.4362 51.0964 35.7916C55.9648 29.6988 64.3952 27.2913 72.2529 27.7694C78.3244 27.9636 82.3541 29.4141 85.0503 32.372C86.4278 33.5582 87.4853 34.8522 87.3899 36.5542L88.0029 36.568L88.0206 36.816C88.6782 36.5424 96.0939 38.5572 96.2637 39.379L96.0551 39.6522C96.3339 40.14 96.3501 40.534 96.2104 41.202C95.9445 42.4573 96.2261 43.8167 96.1559 45.0594C96.0921 45.2713 95.1337 45.4972 94.7674 45.5359C93.0017 45.9609 91.129 46.4459 89.1876 46.7247C89.2832 51.072 88.785 55.5224 90.3553 59.7334L91.0592 59.1306C92.2403 67.6386 89.1564 80.4457 79.2474 80.3225C74.3797 80.228 69.419 76.7511 65.3743 74.2878Z" fill="#747474"/>
<path fill-rule="evenodd" clip-rule="evenodd" d="M59.9148 63.1326C59.1906 62.3712 59.4769 60.4518 60.6899 61.4863C61.0648 61.1733 61.5738 61.2303 62.0218 61.388C63.2462 61.8411 64.5086 62.2038 65.8173 62.2901C66.281 62.0551 66.911 62.3002 67.4507 62.1754L67.501 62.1625C67.8474 62.0659 68.1568 62.3937 68.0712 62.7345C67.9316 63.0832 67.9934 63.6326 67.6413 63.8376C67.1973 65.7262 66.7269 67.591 66.2723 69.4753C66.6258 70.1366 66.2084 70.9554 66.037 71.6391L65.9834 71.9167C65.7256 73.216 65.1813 75.344 63.6081 74.2229C62.8452 74.1785 62.1064 73.8772 61.5751 73.3069C61.0193 72.7545 61.2967 72.0713 61.0608 71.4357L60.989 71.114C60.4055 68.4864 59.8947 65.8437 59.9148 63.1326ZM59.9189 53.8618C60.0526 53.0562 60.4649 45.2862 61.9795 47.1017L61.982 47.1013C61.9785 47.0433 61.9873 47.0586 62.0003 47.1034C62.0175 47.107 62.0325 47.1164 62.0449 47.129C65.5263 46.9323 68.9629 47.8566 72.4428 47.9524C76.0743 48.2903 79.7901 47.972 83.3858 48.069C85.257 47.8218 87.1119 47.5177 88.9217 46.9697C89.3888 46.8356 89.6237 47.3868 89.3923 47.6947C89.7599 49.6489 89.1938 51.6783 89.3954 53.6621C89.4568 55.2418 89.6102 56.8268 89.8005 58.3837C90.0472 59.313 88.8736 60.2643 88.3903 59.181C82.851 56.8643 79.7198 58.1366 74.2641 59.4414C74.345 60.245 68.0607 60.5448 67.6398 59.9313C65.3918 59.8345 63.1393 59.6219 60.9249 59.2139C59.9732 59.1795 59.6872 58.5255 60.0166 57.6919C60.0053 56.3867 59.6843 55.1832 59.9189 53.8618Z" fill="#EEC1A2"/>
<path fill-rule="evenodd" clip-rule="evenodd" d="M89.9301 59.9914C85.2861 58.5567 80.2979 57.8669 75.7051 59.8175C74.1625 60.1862 72.5945 60.4762 71.0081 60.5614C70.2232 60.6297 69.2735 60.3735 68.6006 60.8754C64.0506 60.3058 59.7721 59.3211 55.3163 58.2372C54.6492 58.075 52.3231 57.2578 51.7323 57.1555C50.0941 56.872 45.5446 54.2175 45.9054 56.7393C45.8568 57.5536 46.1475 58.3243 47.0469 58.4237C54.1101 59.8283 61.129 61.444 68.3141 62.2293C68.3945 62.4967 68.5192 62.7566 68.6339 63.0111C68.0573 66.5737 67.0084 70.0624 65.8157 73.4636C63.5632 74.7682 68.362 76.3791 69.3923 76.6719C70.2951 77.2479 71.2373 77.7598 72.181 78.2642C75.1247 80.0137 78.8311 81.5802 82.0347 79.5424C83.5064 79.0646 84.7178 78.1304 85.7634 77.0343C89.1223 73.1344 91.5569 65.9532 90.581 60.8507C90.5385 60.538 90.3699 59.7503 89.9301 59.9914Z" fill="#723E3E"/>
<path fill-rule="evenodd" clip-rule="evenodd" d="M96.1243 40.7986C95.6814 42.1726 95.4976 43.6978 95.6353 45.1445C81.1751 49.0044 65.9629 48.1163 51.6484 44.058C52.3271 43.0361 52.498 41.6522 52.0143 40.5158C63.8365 44.824 76.9212 45.2109 89.2567 43.2085C91.4627 42.8319 94.4673 42.5281 96.1278 40.7882C96.1266 40.7917 96.1255 40.7952 96.1243 40.7986ZM60.8957 47.1247C59.8101 50.9107 59.2512 54.9022 59.1972 58.8335C58.8232 58.7619 58.4481 58.6868 58.0741 58.6095C58.0155 54.5145 58.0069 50.4035 57.5321 46.3326C58.664 46.6094 59.7811 46.8549 60.9164 47.0831C60.9084 47.0958 60.9015 47.1097 60.8957 47.1247ZM66.1741 73.0177C67.0604 70.0155 68.1098 66.9367 68.4091 63.7984C68.4551 63.4504 68.4771 63.0984 68.4801 62.7402C68.496 62.32 68.4961 61.8988 68.4796 61.4767C68.5069 61.3487 68.536 61.2352 68.6085 61.1409C68.6468 61.1168 68.6803 61.0841 68.707 61.0464C68.728 61.0313 68.7503 61.0167 68.7758 61.0033C69.2743 60.7396 70.1995 61.0125 70.7633 61.0391C71.9889 61.0967 73.2942 61.1267 74.4635 60.7047C74.5099 60.6881 74.5426 60.6591 74.5639 60.6253C77.8877 59.9856 81.2125 58.6819 84.579 59.4282C86.5021 59.7439 88.6517 60.8717 90.6054 60.4004C90.5368 62.888 90.5089 65.3893 90.129 67.8531C88.9978 76.4614 82.6446 82.6016 73.9219 78.653C71.0811 77.4995 68.425 75.9325 65.5988 74.7414C65.921 74.2566 66.0475 73.423 66.1741 73.0177ZM60.0787 65.0706C59.9887 64.0041 59.9627 62.9324 59.9394 61.8631C62.5155 62.1331 65.1989 62.6516 67.7621 62.4931C67.7539 62.6969 67.7448 62.8869 67.7473 63.045C67.7481 63.0969 67.7493 63.1487 67.7503 63.2005C67.0337 66.9022 65.8806 70.5114 64.5585 74.0372C63.6358 73.8515 62.7211 73.619 61.8313 73.3098C60.8848 70.6528 60.286 67.8879 60.0787 65.0706ZM58.0787 60.667C58.0799 60.2629 58.0799 59.8588 58.0787 59.4546C61.2163 60.142 64.3983 60.608 67.5943 60.912C67.69 61.1133 67.7388 61.3564 67.7597 61.6135C67.7056 61.5955 67.6494 61.5853 67.5953 61.5838C64.4054 61.466 61.2306 61.1564 58.0787 60.667ZM59.4147 61.7892C59.0423 65.8642 59.4606 69.0654 60.5792 72.8353C59.623 72.43 58.6989 71.9439 57.8163 71.3955C57.9613 68.1257 58.0511 64.8524 58.0729 61.579C58.5194 61.653 58.9671 61.7233 59.4147 61.7892ZM89.4248 58.875C87.7746 58.7177 86.2095 58.1152 84.5756 57.8636C79.0603 56.9094 74.051 60.4611 68.5757 60.1855C68.3203 59.9766 67.891 60.0181 67.5861 59.9926C65.0906 59.7799 62.6013 59.4498 60.1362 59.0078C60.4367 55.0709 60.7055 51.077 61.2352 47.1455C70.4882 48.9701 80.0672 49.0777 89.3638 47.4999C88.6303 51.2458 88.4875 55.1534 89.4248 58.875ZM94.305 61.7511C94.3062 67.9176 93.9451 74.0854 93.5432 80.2269C82.2714 86.2299 68.1761 85.124 57.4205 78.4846C57.5436 76.6385 57.6518 74.7899 57.7438 72.9404C59.0668 73.7385 64.0005 76.0443 65.3226 75.2299C67.7319 76.823 70.2796 78.2335 72.8921 79.4605C84.6938 85.3088 91.8879 74.9332 91.8065 63.8937C91.7727 63.1319 92.3107 58.4991 91.1566 58.4372C91.0712 58.4043 90.981 58.379 90.9002 58.3455C90.7793 58.2952 90.6601 58.2564 90.5335 58.2587C89.5333 54.7517 89.9027 51.0287 89.8356 47.418C91.2843 47.1684 92.7275 46.8762 94.1566 46.5324C94.0107 51.6044 94.4085 56.6761 94.305 61.7511ZM56.9809 58.3693C53.5581 57.5802 50.2775 56.2841 46.8452 55.5277C46.9283 52.0831 46.9677 48.5973 48.0063 45.2773C49.2549 45.7707 50.6403 45.3349 51.4585 44.3144C53.302 45.1572 55.2755 45.7669 57.2605 46.2645C56.9544 50.2825 57.0591 54.3421 56.9809 58.3693ZM56.9337 60.4811C53.5402 59.9421 50.2391 59.0588 46.8866 58.3172C46.8659 58.2827 46.8233 58.2631 46.775 58.2908C46.6541 58.3149 46.5179 58.2744 46.3941 58.2862C46.0267 57.7446 46.0969 57.0806 46.0235 56.4885C46.0213 56.1202 45.9154 55.9122 46.3055 55.9724C49.9133 56.8563 53.3403 58.3656 56.9636 59.2018C56.9533 59.6278 56.9441 60.054 56.9337 60.4811ZM56.5781 70.5677C52.795 68.0048 50.2966 64.1742 48.0115 60.3101C47.8686 59.8499 47.6786 59.3996 47.4481 58.9978C47.4177 58.9447 47.3855 58.8922 47.3518 58.8411C50.4193 60.0639 53.6781 60.7476 56.9107 61.3759C56.8313 64.4415 56.7243 67.5057 56.5781 70.5677ZM47.6266 40.9002C47.8014 40.7081 48.0026 40.5516 48.2199 40.4262C48.3824 40.3981 48.5472 40.3752 48.7168 40.3599C49.2786 40.3093 50.1987 40.286 50.5749 40.7961C50.7829 41.078 50.8706 41.5041 50.9173 41.9013C50.9193 41.9529 50.9197 42.0043 50.9165 42.056C50.7257 45.9545 45.2496 43.8788 47.6266 40.9002ZM51.9131 40.0401C63.5073 41.1873 75.2843 39.4163 86.6641 37.1963C89.6395 37.6672 92.74 38.1071 95.4431 39.6383C94.1232 41.3425 91.2682 41.5479 89.3327 41.8746C76.8645 44.1267 64.1437 42.8756 51.8797 40.0724C51.89 40.0608 51.9015 40.0506 51.9131 40.0401ZM73.486 29.8739C77.3539 29.6902 81.5828 30.2823 84.6377 32.8306C85.624 33.8161 86.2843 35.0801 87.1889 36.1006C75.6822 38.7746 63.8403 39.5644 52.058 39.9014C57.6606 34.0604 65.3197 30.0935 73.486 29.8739ZM96.8935 40.1218C96.8979 40.1044 96.9017 40.0868 96.9029 40.0682C96.909 39.9833 96.9066 39.8931 96.9035 39.8079C96.9023 39.7754 96.8998 39.7423 96.8958 39.7093C97.518 38.3848 92.0599 36.886 89.6262 36.4145C89.3978 36.3238 89.1595 36.2527 88.9353 36.1804C88.6276 36.0811 88.3096 35.9733 87.9869 35.9348C87.8745 34.3136 86.683 33.0568 85.4547 31.9648C82.0978 28.2948 76.9745 27.3387 72.2212 27.1883C64.2493 26.7324 55.6907 29.0484 50.5011 35.4736C49.5783 36.6774 48.7796 38.0689 48.6772 39.6117C46.1917 39.8053 44.8424 42.92 46.9453 44.6446C45.9678 48.0425 45.4872 51.7376 46.4018 55.2019C46.2359 55.2443 46.077 55.3123 45.9406 55.4175C45.9357 55.4213 45.9315 55.4257 45.9268 55.4297C45.2908 55.6666 45.6038 56.969 45.767 57.538C45.8551 57.9066 46.1002 58.562 46.5135 58.5717C46.91 59.0281 47.1772 59.5875 47.4374 60.1495C48.555 64.7032 52.7861 69.645 56.4987 72.1518C56.3814 74.3836 56.2421 76.6131 56.0914 78.8414C56.0753 79.0701 56.2272 79.2928 56.4147 79.4073C67.6779 86.3828 82.5036 87.793 94.2521 81.1795C95.2245 81.4894 95.631 80.1557 95.0139 79.7203C95.6805 68.6509 96.1729 57.4319 94.6606 46.4135C95.2126 46.2218 96.3913 46.1249 96.6503 45.5799C97.0663 44.6058 96.604 43.4079 96.7412 42.3549C96.7201 41.6603 97.0532 40.8044 96.8935 40.1218Z" fill="black"/>
<path fill-rule="evenodd" clip-rule="evenodd" d="M78.1372 70.0756C77.362 69.759 76.6703 69.2308 76.1647 68.5561C75.9889 68.3216 75.9433 68.0739 75.9802 67.8474C76.0216 67.5926 76.1721 67.3618 76.3774 67.2069C76.5833 67.0516 76.8409 66.975 77.0899 67.014C77.3062 67.048 77.5216 67.1666 77.6921 67.4126L77.7277 67.4618C78.0283 67.869 78.4201 68.2031 78.8665 68.4185C79.2967 68.626 79.7779 68.7229 80.2758 68.6666C81.2241 68.5593 81.8778 68.0458 82.5725 67.3485C82.6587 67.2604 82.7448 67.1696 82.8314 67.0774C82.8861 66.9937 82.962 66.94 83.0462 66.9118C83.1398 66.8805 83.2456 66.8822 83.3426 66.9161C83.436 66.9488 83.5196 67.0107 83.5757 67.0931C83.6289 67.1714 83.6591 67.2681 83.6493 67.3793C83.5857 68.102 83.2084 68.747 82.6723 69.2534C82.077 69.8159 81.2879 70.205 80.5449 70.3415C79.7264 70.4918 78.8924 70.3841 78.1372 70.0756ZM80.9311 58.9269C81.8019 59.4568 83.1287 60.6926 82.1919 62.0065C81.0892 63.1649 79.5016 61.8367 78.7193 61.236C77.9938 60.7704 77.1788 61.9678 77.8518 62.5114C83.5051 66.7021 85.7993 59.0655 81.3715 58.3038C80.884 58.2198 80.7029 58.7629 80.9311 58.9269ZM70.8004 54.0521C70.8966 52.8563 72.7154 52.5848 72.8964 53.768C73.0584 54.828 72.8676 55.8016 72.3908 56.7559C71.9352 57.6676 70.79 57.2422 70.7034 56.4121C70.5873 55.2993 70.7405 54.7959 70.8004 54.0521ZM84.6457 53.5227C84.8993 53.1902 85.2654 52.9632 85.7041 53.0915C87.0747 53.4925 86.6707 55.4406 86.1894 56.3889C85.9278 56.9038 85.0824 57.0344 84.7004 56.581C84.0777 55.8416 83.7795 54.365 84.5711 53.6367C84.5926 53.599 84.6164 53.561 84.6457 53.5227ZM72.3715 48.8199L72.588 48.782C73.2577 48.666 74.0905 48.5546 74.5643 49.0937C74.8155 49.3795 74.902 49.9109 74.5643 50.1845C73.9701 50.666 73.3133 50.4794 72.6013 50.5202C72.0146 50.5539 71.4507 50.6511 70.8855 50.8129C69.6456 51.1677 68.6354 51.8154 67.5764 52.5266C67.4374 52.6199 67.2956 52.442 67.3619 52.3119C67.9732 51.1131 69.1579 50.1283 70.3445 49.528C70.9778 49.2076 71.6708 48.9418 72.3715 48.8199ZM83.3964 48.2829L83.5621 48.3168C85.3653 48.6942 87.7081 49.4481 88.5621 51.2215C88.5946 51.4723 88.5602 51.526 88.5323 51.5611L88.523 51.5728C88.4999 51.6028 88.4815 51.6441 88.373 51.6783C88.3429 51.6711 88.3124 51.6635 88.2817 51.6554C87.8903 51.5527 87.5806 51.4112 87.2808 51.2644L86.9557 51.104C86.5785 50.9189 86.1981 50.7405 85.7948 50.6088C84.9343 50.3277 84.0492 50.1298 83.1504 50.0241C82.9556 50.0012 82.768 49.9353 82.62 49.8225C82.4795 49.7154 82.3722 49.5672 82.3233 49.3701C82.2599 49.115 82.2781 48.9219 82.4148 48.6918C82.5175 48.519 82.6646 48.3992 82.8334 48.3305C83.0056 48.2603 83.2016 48.2438 83.3964 48.2829Z" fill="black"/>
<path fill-rule="evenodd" clip-rule="evenodd" d="M90.8994 61.3503C90.682 58.5928 87.2093 57.4247 85.4795 57.0783C79.7197 55.7226 74.8194 59.2009 67.9513 59.272C67.2582 59.2829 65.2759 59.1658 64.354 58.9221C59.6769 57.858 55.0046 56.7261 50.4154 55.3306C49.7407 55.4887 49.5411 56.3705 50.0043 56.8729C54.3998 58.4336 61.1242 59.8311 64.6753 59.9902C64.6071 64.5832 62.1855 69.2016 58.8413 71.7417C64.1601 77.6307 76.5646 79.5674 83.8648 76.4762C87.4559 75.3971 91.2453 65.7378 90.8994 61.3503Z" fill="#444444"/>
<path fill-rule="evenodd" clip-rule="evenodd" d="M50.0443 55.4697C49.8465 55.462 49.9619 54.8847 50.4073 54.967C56.1552 56.3129 63.3164 58.8766 69.2244 58.8578C73.5706 58.7153 77.4649 56.2918 81.8351 56.2771C84.7728 56.3335 88.5188 56.7518 90.5746 59.112C93.2863 67.7228 87.1799 79.4346 77.5721 79.5024L75.7536 79.3706C69.5549 78.9134 62.764 78.1818 58.7686 72.9163L58.7375 72.9431C58.14 72.5417 58.1734 71.675 58.6811 71.2292L58.6962 71.253C58.7059 71.2373 58.7166 71.2223 58.727 71.2069L58.7205 71.1867C58.9159 70.9814 59.138 70.7894 59.3399 70.6175L59.3409 70.6208C62.341 68.1182 64.2999 64.334 64.4127 60.4155C63.4195 60.6886 46.7324 57.2248 49.7112 56.3796C51.8418 57.1007 53.9849 57.752 56.1713 58.2704C56.208 58.2498 56.2606 58.2552 56.2808 58.296C58.9554 58.955 61.6841 59.3316 64.4163 59.6366C64.4134 59.5059 64.4084 59.3752 64.4017 59.2442C59.5437 58.2973 54.7811 56.8915 50.0443 55.4697ZM89.3816 58.9644C79.4171 53.9244 74.471 61.3703 64.8341 59.3202C65.8423 63.8238 63.3527 68.679 59.9713 71.6216C64.8844 75.8793 67.0109 76.5241 73.456 77.2151L74.2979 77.3155C75.5639 77.4656 76.8417 77.6056 78.1115 77.6275C84.6984 77.1476 89.6756 70.286 90.4205 64.0691L90.4245 63.8973C90.4579 62.3196 90.3855 60.6495 89.6874 59.204C89.5588 59.1593 89.4471 59.0785 89.3816 58.9644ZM75.5094 62.9207C75.8537 62.8431 76.2051 63.2192 75.9916 63.5487C75.3019 64.6138 73.6152 65.0264 72.4355 65.1938C71.0693 65.3877 69.745 65.2348 68.4473 64.7683C68.3777 64.7432 68.3827 64.6201 68.4659 64.6301C69.6982 64.7769 70.9685 64.6694 72.1659 64.3429C73.3799 64.1061 74.3602 63.2976 75.5094 62.9207ZM84.8719 62.1534C84.8661 61.951 85.8599 62.5367 86.0171 62.6155C87.2309 63.3452 88.6359 63.3987 89.9747 63.6851C90.2867 63.805 90.2863 64.2022 89.9745 64.322C88.3037 64.7669 85.768 63.5994 84.8719 62.1534Z" fill="black"/>
</svg>
