<svg width="131" height="177" viewBox="0 0 131 177" fill="none" xmlns="http://www.w3.org/2000/svg">
<path fill-rule="evenodd" clip-rule="evenodd" d="M105.071 118.937C105.071 118.003 103.78 116.345 103.778 115.499C104.863 115.304 105.771 113.831 105.531 112.909C105.107 112.585 103.996 111.946 103.537 111.648C100.738 111.733 101.801 107.834 101.485 105.852C101.166 103.913 100.929 101.886 100.462 99.9356C99.6328 98.3753 99.2437 96.6261 98.4513 95.0736C98.0974 94.5591 97.5254 94.0875 97.3541 93.4897C95.6205 91.5939 93.2339 90.4575 91.2698 88.8518C92.032 88.6075 91.9812 87.5782 91.9319 86.9172C92.1093 86.0548 91.9198 84.9732 91.1343 84.4873C90.8688 83.6214 89.7085 83.3191 89.03 83.8708C88.5843 81.8707 86.8406 80.6572 85.014 79.915C85.0156 79.9091 85.0171 79.9033 85.0188 79.8975C83.1766 79.1654 80.9686 78.8005 79.1305 79.212C80.1007 68.3878 71.8207 67.9904 67.6184 68.9001C65.469 69.3654 62.2439 70.8139 61.5112 72.8276C61.0976 73.9645 59.9106 77.6311 59.7416 78.8005C56.5327 76.9671 52.8126 74.5496 50.0293 78.2406C49.472 78.8838 48.8553 79.3616 48.0213 79.5826C45.4175 80.2591 41.9614 80.2817 40.4815 82.9394C39.5969 84.5858 40.3924 85.6707 40.1548 87.3177C28.4336 95.5591 18.6385 125.92 20.8378 140.044C21.3669 145.099 23.95 154.046 30.3257 152.93C33.5777 156.492 88.1599 156.492 93.7882 152.93C98.4211 154.144 103.129 152.266 105.071 147.823C107.539 141.731 104.924 135.152 104.461 128.903C104.179 127.325 103.76 126.073 103.537 124.457C103.443 123.784 103.765 122.664 103.537 122.044C103.644 121.64 105.071 119.872 105.071 118.937Z" fill="#EEC1A2"/>
<path fill-rule="evenodd" clip-rule="evenodd" d="M58.9565 78.0551L59.1491 78.1376L59.81 78.4244L59.6714 78.7426C59.2815 79.6381 58.8431 80.4996 58.3627 81.3107L58.2721 81.4621L58.1332 81.6923L58.1402 81.7001C58.2002 81.7665 58.2613 81.8354 58.3237 81.9067L65.5978 89.7323C68.6662 93.0305 70.2861 94.7658 70.4576 94.9383C71.1729 95.6577 71.8761 95.7475 72.5196 95.1407L72.5921 95.0719L72.7114 94.9569L72.7928 94.877C73.2129 94.4616 73.6304 94.0021 74.2306 93.3091L80.9494 83.7666L80.525 82.8173C79.7461 81.0642 79.3207 80.0392 79.249 79.7423L79.2167 79.5967L79.1495 79.2835L79.4562 79.192C80.5624 78.8621 81.7869 78.9486 83.176 79.3599L83.2564 79.384L83.4877 79.4556C84.4288 79.7485 84.9617 79.9454 85.5075 80.2373C86.2502 80.6344 86.7985 81.1275 87.1407 81.7703C87.5343 82.5099 87.8355 82.8816 88.3427 83.1822L88.3825 83.2054L88.4318 83.2331L88.4837 83.2611C88.5286 83.2849 88.5784 83.3101 88.6383 83.3397L88.8513 83.4427C89.5236 83.7653 89.8324 83.9719 90.097 84.3793C90.3892 84.829 90.4386 85.2501 90.3484 85.8593L90.3404 85.912L90.3262 85.9981L90.2713 86.3146L90.2582 86.3949C90.2225 86.6213 90.2165 86.8206 90.2422 86.9881L90.2487 87.0261L90.3959 87.81L90.1036 87.6242L90.912 88.2838C92.0432 89.211 92.7174 89.7862 93.4222 90.435L93.6171 90.6154L93.6554 90.6512C94.9257 91.8374 95.9574 92.9812 96.8209 94.2021C97.7575 95.5259 98.551 96.9737 99.1919 98.5157L99.2644 98.6923L99.2703 98.7154C100.23 102.482 101.001 106.297 101.582 110.149L101.637 110.522L101.919 112.434L100.991 110.739C100.847 110.476 100.447 110.214 99.949 110.019L99.902 110.001L99.8679 109.989L99.7966 109.963C99.2497 109.773 98.6982 109.755 98.1814 109.915L98.1281 109.932L97.9713 109.985L97.8319 109.896C97.5749 109.731 97.287 109.592 96.9707 109.478L96.8911 109.45L96.5574 109.335L96.6784 109.004C96.7698 108.753 96.6021 108.26 96.3603 108.049C95.9838 107.722 95.4425 107.63 94.6018 107.692L94.488 107.701L94.3977 107.71L94.2624 107.723L93.8358 107.769L93.8357 107.771C93.8304 107.845 93.8271 107.912 93.8257 107.976L93.825 108.024L93.8251 108.07C93.8269 108.229 93.8406 108.376 93.867 108.513L93.8791 108.571L93.9753 109.001L93.5354 108.993L93.3436 108.99C92.7012 108.982 92.0267 108.992 91.2325 109.019L90.4486 109.048L88.449 109.133L86.6949 109.194L86.1722 109.212L86.1472 108.881C86.1143 108.444 85.7411 108.153 85.0801 108.024L85.0376 108.016L84.347 107.891L84.9142 107.376L84.9601 107.333L85.0075 107.287C85.4637 106.832 85.6169 106.415 85.4291 106.013C85.2094 105.541 84.5317 105.403 83.9093 105.659L83.8665 105.677L83.8224 105.697C83.7053 105.751 83.5891 105.82 83.4038 105.939L83.1671 106.093L83.0811 106.148C82.876 106.278 82.7403 106.351 82.5688 106.422C82.1149 106.61 81.6911 106.623 80.9958 106.536L80.9337 106.528L80.7861 106.509L80.4095 106.456L80.3163 106.444L80.2216 106.432C79.511 106.347 79.0611 106.393 78.6812 106.636C78.4381 106.792 78.3005 106.991 78.0881 107.455L77.9872 107.679L77.9427 107.775C77.6872 108.32 77.4933 108.581 77.1116 108.808C76.868 108.953 76.6372 109.04 76.2297 109.158L75.9395 109.242L75.8364 109.274C75.7742 109.293 75.7225 109.31 75.6679 109.33C75.224 109.488 74.8225 109.715 74.4452 110.019L74.3866 110.067L74.323 110.12C73.9557 110.43 73.6418 110.767 73.1057 111.397L72.7151 111.859L72.5764 112.02L72.4617 112.152C72.4494 112.166 72.4372 112.18 72.425 112.193L72.3159 112.315C71.4655 113.249 70.6148 114.111 69.7483 114.91L69.5664 115.076L69.3791 115.245L69.225 115.382C68.721 115.827 68.1767 116.276 67.3313 116.956L66.2833 117.796L65.9536 118.063C64.9634 118.866 64.3602 119.384 63.7456 119.969L63.5931 120.115L63.5823 120.178C63.5764 120.213 63.57 120.253 63.563 120.298C63.563 120.298 62.963 124.004 63.5077 127.043C64.0524 130.082 64.2454 128.847 64.7966 129.593L64.9244 129.764C65.2266 130.167 65.4597 130.452 65.7125 130.717L66.0111 131.025L66.3545 131.304L66.5714 131.435C66.7281 131.53 66.8844 131.604 67.041 131.658C67.257 131.732 67.5457 131.586 67.6875 131.327L67.7008 131.302L67.7933 131.117L68.0004 131.111C68.049 131.109 68.0984 131.102 68.1468 131.088C68.6371 130.953 68.881 130.368 68.6413 129.915L68.628 129.89L68.5038 129.67L68.4401 129.559C68.3487 129.402 68.2642 129.269 68.1787 129.152L68.1465 129.109L67.6698 128.481L68.8699 128.593L68.968 128.603L69.1029 128.617L69.5351 128.667C69.9849 128.717 70.4193 128.763 70.843 128.805L71.2037 128.839L71.8348 128.897L71.9643 128.91L72.2447 128.939L72.9162 129.012L73.1553 129.037L73.2885 129.05C73.4167 129.062 73.5317 129.072 73.6471 129.08L73.774 129.089C74.7411 129.155 75.4957 129.112 76.1809 128.918C77.2954 128.603 78.4159 127.95 79.6289 126.986C80.8689 126.001 81.7656 125.073 82.3052 124.109C82.3153 124.091 82.3168 124.077 82.3098 124.059L82.3046 124.049L82.0995 123.672L82.5104 123.551C82.8387 123.453 83.1173 123.33 83.3514 123.172C84.0721 122.686 84.3134 121.714 83.7908 121.207L83.7676 121.185L83.7359 121.156L83.2945 120.494L83.933 120.399C84.1465 120.366 84.334 120.329 84.5093 120.283C85.6761 119.98 86.2756 119.048 85.759 118.152L85.7417 118.123L85.5332 117.777L85.9056 117.623C85.9854 117.59 86.0679 117.559 86.1593 117.527L86.2153 117.508L86.2713 117.489L86.4806 117.419C86.9233 117.273 87.3566 117.162 87.7886 117.086C88.13 117.027 88.4718 116.989 88.8138 116.972L88.9421 116.967L89.0852 116.962L89.086 116.958L89.1697 116.959L89.4623 116.949L89.4565 116.964C89.8906 116.974 90.3269 117.017 90.7632 117.09L90.8664 117.108C91.0179 117.135 91.1619 117.162 91.3158 117.194L91.9818 117.335C92.1029 117.36 92.2086 117.381 92.3134 117.4L92.4148 117.417L93.4874 117.599L92.507 118.071L92.4818 118.083L92.4566 118.097L92.3484 118.156C91.6822 118.533 91.288 118.963 91.1954 119.494C91.0511 120.321 91.5211 120.702 92.6293 120.831L92.7218 120.841L92.8195 120.85L92.8836 120.855L95.6586 121.043L93.0312 121.548C92.3948 121.67 91.7519 121.835 91.1027 122.041C91.0522 122.057 90.9978 122.077 90.9387 122.1L90.8935 122.119L90.6264 122.229L90.3701 122.415C89.9204 122.749 89.795 123.08 90.0194 123.409L90.0349 123.431L90.174 123.622L90.0476 123.821C89.6846 124.394 89.7321 125.123 90.166 125.716C90.5281 126.21 91.1141 126.525 91.9133 126.706L91.9752 126.719L92.1507 126.757L92.4069 126.797L92.5927 126.823L92.7352 126.839L92.8314 126.849L92.9792 126.863L93.3825 126.897C93.9556 126.946 94.2498 126.985 94.6029 127.074C95.077 127.192 95.4946 127.385 96.0502 127.714L96.1149 127.752L96.2517 127.835L96.5172 127.998L96.7739 128.158L96.8606 128.211L96.9677 128.276C97.7584 128.749 98.2795 128.926 98.8281 128.843C99.1766 128.791 99.4691 128.663 99.7284 128.46L99.7691 128.427L100.167 128.1L100.155 128.033L100.242 127.914C100.408 127.686 101.114 126.354 101.115 126.353C101.57 125.552 102.01 124.998 102.565 124.632L102.613 124.601L102.722 124.534L102.846 124.508L102.909 124.518C103.092 124.546 103.146 124.627 103.198 124.765C103.211 124.8 103.222 124.839 103.232 124.886L103.242 124.933L103.251 124.986L103.267 125.078L103.282 125.186L103.301 125.319L103.32 125.472C103.335 125.596 103.352 125.74 103.371 125.909L103.58 127.839L103.638 128.351L103.691 128.808C103.695 128.845 103.699 128.882 103.704 128.919L103.749 129.289L103.798 129.676C103.925 130.651 104.051 131.436 104.181 132.031L104.205 132.138L104.221 132.208L104.263 132.386C105.009 135.586 105.388 138.228 105.406 140.875C105.423 143.72 104.803 146.26 103.459 148.353C102.177 150.351 100.307 151.801 98.1991 152.301C97.088 152.563 95.9859 152.506 95.0976 152.064C94.9354 151.983 94.8203 151.9 94.6101 151.724L94.5403 151.665C94.2627 151.43 94.1402 151.348 93.9924 151.314C93.9742 151.309 93.9566 151.306 93.9394 151.304L93.9141 151.301L93.6001 151.277L93.5945 150.962C93.5827 150.29 93.2624 150.027 93.2925 151.076C93.2925 151.076 93.3503 152.586 93.366 152.777L93.377 152.902L93.3813 152.946L93.1958 153.594C85.1 156.69 38.1672 156.744 30.9261 153.716L30.7189 153.623L29.4384 153.008C29.4384 153.008 32.0044 152.409 30.2499 152.631C28.3679 152.869 26.1769 151.715 24.9894 149.771L24.5565 149.055L24.424 148.833L24.3505 148.708C24.174 148.406 24.0483 148.175 23.9152 147.909C23.3782 146.835 22.9323 145.68 22.5657 144.437C21.8834 142.124 21.526 139.619 21.4193 136.786C21.2262 131.66 21.7545 126.251 22.921 120.615C24.0525 115.148 25.767 109.835 28.0293 104.81C29.1602 102.298 30.4067 99.8959 31.7733 97.6059L31.9201 97.361L32.0801 97.0964L32.2443 96.8267L32.4093 96.5579L32.5597 96.3151L32.7113 96.0728L32.8643 95.8309C34.2604 93.6343 35.5016 92.0134 36.9363 90.615C38.2112 89.3723 39.5544 88.1116 40.9657 86.8328L40.9354 86.2974L40.9342 86.2875C40.9043 86.1114 40.373 84.6061 40.9098 83.4333L40.971 83.3015C41.4568 82.2719 41.5275 82.5367 41.9923 82.212L42.0114 82.1985C43.0307 81.4675 44.3297 80.9663 45.8699 80.632C46.2649 80.5462 46.6367 80.5079 47.1605 80.4871L47.2329 80.4843L47.3278 80.4811L47.7351 80.4687C48.5025 80.4441 49.078 80.1732 49.5216 79.6124L49.5545 79.5702L49.5878 79.5261L49.6189 79.4833C49.7272 79.3318 49.8308 79.1587 49.9978 78.8614L50.1123 78.6582L50.1673 78.5621L50.2236 78.4654C50.4152 78.1402 50.5511 77.9488 50.7434 77.7394C51.324 77.1073 52.2248 76.7362 53.1746 76.6743C54.8588 76.5643 56.5168 77.0164 58.9565 78.0551ZM81.0594 110.576L80.9223 111.252C80.9093 111.316 80.9022 111.379 80.9011 111.44L80.9013 111.485L80.911 111.793L80.6063 111.839C80.3598 111.875 80.1153 111.913 79.8733 111.953L79.6321 111.994L77.357 112.38L79.4369 111.334L79.4792 111.313L79.4906 111.307L79.5706 111.269L79.8207 111.153L80.436 110.87L81.0594 110.576Z" fill="#C3AD68"/>
<path fill-rule="evenodd" clip-rule="evenodd" d="M79.2707 75.7134C79.3996 76.2661 79.2819 76.8893 79.3035 77.4565C79.324 77.9986 79.3879 78.5376 79.482 79.0717C80.4716 78.5505 81.6412 78.4835 82.769 78.6513C84.2278 78.8684 85.916 79.3487 87.0593 80.3246C87.3416 80.5656 87.5755 80.8511 87.7713 81.1657C88.0063 81.5432 88.1563 81.9697 88.5289 82.2403C89.1053 82.6588 89.8198 82.8208 90.3739 83.2846C90.9388 83.7574 91.2895 84.4643 91.3637 85.1937C91.4032 85.582 91.3392 85.945 91.2656 86.3237C91.1997 86.6645 91.2321 86.8043 91.3217 87.1323C91.392 87.3898 91.2578 87.682 91.0389 87.824C91.5081 88.1465 91.971 88.4789 92.4258 88.8248C95.0757 90.8384 97.3164 93.3485 98.8698 96.302L98.9073 96.3754L98.9508 96.4635C99.3293 97.2422 100.32 99.5186 100.443 100.03C100.531 100.298 100.616 100.566 100.695 100.836C100.904 101.551 101.082 102.276 101.229 103.006L101.268 103.205C101.388 103.819 101.593 104.545 101.56 105.199C101.904 106.984 102.209 108.776 102.469 110.576C102.503 110.812 102.409 111.003 102.264 111.13C102.611 111.186 102.957 111.255 103.299 111.324L103.498 111.366L103.597 111.388C104.309 111.549 105.012 111.783 105.478 112.382C105.981 113.03 105.992 113.862 105.487 114.515C105.058 115.069 104.431 115.332 103.778 115.498C103.648 115.531 103.518 115.561 103.388 115.587C103.3 115.606 103.243 115.486 103.325 115.439L103.464 115.363L103.654 115.259C104.146 114.987 104.658 114.68 104.931 114.189C105.301 113.523 105.008 112.906 104.373 112.568C103.841 112.284 103.183 112.212 102.592 112.115L102.348 112.075C101.731 111.976 101.101 111.912 100.477 111.983C99.9318 112.045 99.3794 112.231 98.9388 112.564L98.898 112.597L98.8559 112.632C98.4695 112.967 97.9139 113.72 98.6426 113.937C99.1996 114.102 99.8782 114.061 100.464 114.093L100.539 114.098C101.03 114.131 101.542 114.131 102.037 114.19C102.215 114.211 102.39 114.24 102.562 114.28C103.055 114.397 102.885 115.053 102.451 115.099C102.345 115.11 102.237 115.116 102.128 115.119C101.845 115.332 101.453 115.429 101.117 115.562C100.797 115.689 100.475 115.815 100.151 115.938C100.43 115.951 100.709 115.974 100.987 116.009C101.077 116.019 101.078 116.14 100.987 116.15C100.318 116.218 99.6492 116.292 98.9826 116.385C97.9507 116.528 96.9254 116.72 95.9234 117.012C95.191 117.226 94.4675 117.482 93.7658 117.78L93.5535 117.871L93.4659 117.909C92.8291 118.186 92.0052 118.509 91.6393 119.118C91.4478 119.435 91.3638 119.926 91.6336 120.23C91.9222 120.557 92.5267 120.52 92.9309 120.536L92.9632 120.537C93.8189 120.579 94.6756 120.584 95.5324 120.554C97.3278 120.491 99.1246 120.295 100.888 119.949C101.213 119.886 101.354 120.374 101.026 120.45C98.9464 120.934 96.8438 121.2 94.7098 121.212L94.4761 121.212C93.6448 121.372 92.8296 121.609 92.0212 121.877L91.8596 121.931C91.3822 122.092 90.5669 122.253 90.2854 122.727C90.0987 123.042 90.1644 123.258 90.349 123.405C90.6741 123.663 91.366 123.711 91.7027 123.724C93.0519 123.774 94.4023 123.784 95.7526 123.755C96.4273 123.74 97.1019 123.716 97.7765 123.681C98.4362 123.646 99.1406 123.548 99.7979 123.612C100.081 123.639 100.175 124.055 99.8684 124.132C99.0578 124.338 98.1486 124.32 97.3111 124.346L97.2148 124.35C96.3154 124.382 95.4149 124.396 94.5154 124.393C93.7433 124.39 92.9714 124.375 92.2002 124.346L91.5184 124.319L91.3976 124.313C91.0342 124.294 90.6631 124.252 90.3409 124.102C90.0434 124.601 90.2658 125.27 90.6498 125.664C91.0154 126.041 91.5425 126.226 92.0475 126.341C92.0949 126.352 92.1422 126.362 92.1894 126.371C93.2988 126.597 94.4289 126.578 95.4667 127.088C96.3396 127.518 97.1388 128.233 98.1166 128.403C98.9907 128.556 99.6261 128.17 100.092 127.457C100.117 127.417 100.143 127.378 100.167 127.339C100.534 126.748 100.798 126.096 101.184 125.517C101.381 125.221 101.604 124.937 101.876 124.706C101.998 124.601 102.854 124.146 102.988 124.01C103.563 123.419 103.053 122.175 103.203 121.434C103.379 120.572 104.136 120.268 104.591 119.599C105.454 118.327 103.086 117.135 103.794 115.744C103.803 115.727 103.814 115.714 103.829 115.706C103.892 115.673 103.991 115.714 103.985 115.796C103.907 116.833 104.894 117.547 105.25 118.445C105.656 119.467 105.008 120.086 104.346 120.768C103.497 121.644 104.095 122.626 103.906 123.681C103.881 123.819 103.841 123.941 103.79 124.05C103.935 124.14 104.047 124.29 104.071 124.498C104.362 126.969 104.675 129.432 105.186 131.869L105.295 132.386L105.442 133.077C105.806 134.804 106.146 136.539 106.21 138.304C106.413 139.795 106.494 141.297 106.373 142.798C106.009 147.364 103.459 152.142 98.827 153.543C97.7546 153.868 96.6175 153.952 95.5174 153.725C95.1404 153.647 94.6123 153.476 94.1382 153.218C94.1664 153.522 94.1888 153.827 94.1981 154.13C94.3544 154.304 94.425 154.567 94.336 154.792C93.9583 154.668 93.6149 154.471 93.3057 154.201L93.2545 154.156C93.0712 153.474 93.0176 152.728 92.9909 152.009L92.984 151.805C92.9769 151.606 92.9724 151.411 92.9654 151.221C92.9263 150.035 92.954 148.847 93.015 147.662L93.06 146.79C93.163 144.756 93.2468 142.727 93.1904 140.687C93.1258 138.34 92.9252 136.003 92.6738 133.668C92.5434 132.464 92.3959 131.262 92.2447 130.06C92.1237 129.093 91.9208 128.051 91.9173 127.054C91.1411 126.887 90.379 126.569 89.9014 125.916C89.3952 125.225 89.3204 124.34 89.77 123.631C89.3354 123.036 89.6917 122.474 90.229 122.096C89.4034 121.633 88.9433 120.37 88.821 119.491C88.7379 118.888 88.7115 117.986 88.9685 117.309C88.5996 117.321 88.2306 117.36 87.8616 117.423C87.4348 117.498 87.0163 117.608 86.6034 117.744L86.3943 117.813C86.2889 117.849 86.1701 117.89 86.0522 117.939C86.7984 119.174 85.84 120.295 84.6107 120.614C84.3767 120.675 84.138 120.718 83.897 120.753C83.3539 120.828 82.7991 120.851 82.2605 120.901C81.2297 120.995 80.193 121.131 79.1586 121.174C78.9313 121.185 78.785 121.079 78.7157 120.931C78.7135 120.928 78.7124 120.927 78.7124 120.925C78.6881 120.886 78.6719 120.844 78.6661 120.8C78.6697 120.804 78.6743 120.806 78.6776 120.808C78.6281 120.531 78.7942 120.194 79.1586 120.154C80.652 119.985 82.166 119.977 83.6639 119.854L83.7599 119.846C84.2301 119.805 84.784 119.73 85.1563 119.432C85.5022 119.155 85.5332 118.795 85.3949 118.469C85.3925 118.477 85.3904 118.486 85.3891 118.495C85.3787 118.559 85.29 118.557 85.2612 118.512C85.1747 118.38 85.1527 118.251 85.1747 118.126C85.0708 118.006 84.9452 117.9 84.8092 117.818C84.2059 117.451 83.4127 117.35 82.7264 117.242C81.9758 117.123 81.2193 117.069 80.4617 117.033C78.9707 116.962 77.4749 117.084 76.0082 117.351C75.9469 117.362 75.9217 117.276 75.9816 117.257C76.5535 117.067 77.1382 116.908 77.7297 116.782C77.7159 116.78 77.7022 116.778 77.6883 116.774C77.6364 116.761 77.5994 116.698 77.6168 116.647C77.619 116.639 77.6226 116.631 77.6261 116.624C77.3746 116.509 77.2697 116.121 77.5742 115.964C78.5231 115.473 79.6371 115.251 80.6785 115.049C81.6783 114.856 82.6884 114.721 83.6998 114.601C85.41 114.4 87.2746 114.405 88.9201 113.864L88.9878 113.842C89.6579 113.61 90.4578 113.142 90.5047 112.35C90.5737 111.152 88.7967 111.464 88.0564 111.493C86.0304 111.57 84.0066 111.711 81.9897 111.928C81.5779 111.972 81.1662 112.017 80.7546 112.063C80.1238 112.134 79.4919 112.208 78.8623 112.286C78.5105 112.33 78.1508 112.388 77.7887 112.443C77.6757 112.471 77.5649 112.491 77.4542 112.501C77.4461 112.502 77.4393 112.5 77.4335 112.496C76.9065 112.57 76.3772 112.627 75.8629 112.611C75.8039 112.61 75.7672 112.517 75.8294 112.489C76.4937 112.208 77.2328 112.042 77.9742 111.911C78.4333 111.568 78.9878 111.293 79.4435 111.028C80.0685 110.663 80.7846 110.126 81.4938 109.908C81.8131 109.656 82.1752 109.454 82.5086 109.317C82.4129 109.168 82.3783 108.961 82.3955 108.787C82.459 108.162 82.9583 107.813 83.5349 107.691C83.7136 107.654 83.9201 107.626 84.1403 107.616C84.1448 107.499 84.1967 107.385 84.312 107.3L84.3461 107.274L84.3702 107.254C84.7573 106.94 85.5256 106.054 84.6003 105.989C84.1092 105.954 83.6939 106.315 83.303 106.558C82.4912 107.065 81.706 107.09 80.7788 106.965L80.362 106.905L80.2927 106.895C79.6224 106.807 78.9424 106.795 78.5682 107.48C78.1668 108.212 78.0262 108.879 77.2166 109.282C76.4429 109.666 75.5838 109.743 74.8735 110.272C74.1122 110.837 73.5403 111.632 72.9177 112.336C71.5443 113.888 69.9725 115.258 68.3534 116.547L68.0654 116.775C66.5744 117.955 65.0353 119.117 63.366 120.026C63.3544 120.031 63.3428 120.034 63.3325 120.034C63.2876 120.029 63.254 119.971 63.2945 119.932C65.2445 118.035 67.5255 116.497 69.5284 114.651C70.4163 113.832 71.2616 112.971 72.0746 112.077C72.785 111.293 73.4146 110.412 74.2427 109.745C74.645 109.42 75.0799 109.172 75.5664 108.999C76.0209 108.836 76.5306 108.755 76.9492 108.506C77.7691 108.019 77.6895 106.864 78.5094 106.34C79.2124 105.89 80.0688 106.055 80.8483 106.161L80.9414 106.174C81.4465 106.241 81.9689 106.297 82.4509 106.098C82.9282 105.9 83.3122 105.531 83.7931 105.334C84.4632 105.058 85.4133 105.124 85.7571 105.862C86.0856 106.566 85.6371 107.204 85.1136 107.671C85.8273 107.801 86.4536 108.146 86.5066 108.85C87.0302 108.833 87.5526 108.814 88.076 108.796C89.8992 108.732 91.7315 108.61 93.5559 108.642C93.5143 108.456 93.4959 108.265 93.4936 108.07C93.4925 107.961 93.4971 107.853 93.5051 107.742C93.5189 107.552 93.6435 107.438 93.8281 107.418L94.2401 107.374L94.378 107.361C95.15 107.288 96.0133 107.272 96.6015 107.783C96.9174 108.059 97.1723 108.694 97.0178 109.118C97.3774 109.242 97.72 109.4 98.0325 109.6C98.6518 109.392 99.3022 109.415 99.9248 109.632L99.9987 109.658C100.441 109.821 101.069 110.129 101.309 110.569C100.725 106.606 99.9386 102.678 98.9495 98.7968C98.3182 97.2468 97.5204 95.7654 96.553 94.3981C94.1164 90.9528 90.606 88.5835 87.4534 85.8598C87.1752 86.1663 86.8755 86.458 86.5953 86.7387L86.4765 86.8583C85.9057 87.4371 85.3103 87.991 84.7018 88.5296C83.43 89.6553 82.0913 90.6944 80.7621 91.75C78.0827 93.8783 75.6603 96.1382 73.6448 98.9167C73.6085 98.9668 73.5081 98.9376 73.5361 98.871C74.9185 95.5807 77.7844 93.0793 80.3878 90.7582C81.7568 89.5377 83.1579 88.3466 84.4743 87.0684C85.0879 86.4726 85.6824 85.8561 86.2433 85.21L86.3828 85.0478C86.7495 84.618 87.6081 83.306 88.1756 84.2526C88.2945 84.4506 88.2893 84.7039 88.1756 84.9022C88.0144 85.1839 87.8097 85.4526 87.5859 85.7106C88.3816 86.144 89.1609 86.6015 89.9231 87.0859C89.8793 86.8525 89.8903 86.5946 89.931 86.3365L89.9443 86.2546L89.9998 85.9345C90.0795 85.4627 90.1204 85.0241 89.8214 84.5639C89.4475 83.9882 88.7426 83.8087 88.181 83.476C87.5341 83.0927 87.1962 82.5798 86.8498 81.9289C86.1864 80.6827 84.6876 80.183 83.3995 79.7821L83.2374 79.7318C82.0471 79.3624 80.7595 79.1648 79.5694 79.5197C79.681 80.0399 79.8271 80.5528 80.0097 81.0524C80.204 81.5842 80.6478 82.1755 80.6024 82.7499C80.571 83.1474 80.0948 83.5723 79.6996 83.2685C79.1398 82.8386 79.028 82.1383 78.8779 81.4712C78.7329 80.826 78.6403 80.1651 78.6008 79.505C78.5629 78.8689 78.5926 78.2331 78.6709 77.6013L78.731 77.1373L78.7456 77.0295C78.811 76.5605 78.9082 76.0682 79.1718 75.7005C79.1971 75.6652 79.2592 75.6644 79.2707 75.7134ZM63.0308 73.076C63.0392 73.1135 63.0451 73.1506 63.0504 73.1876C63.0889 73.3458 63.1033 73.4979 63.0986 73.6506C63.1009 73.7057 63.0968 73.7609 63.0866 73.8155C63.0659 73.9953 63.0227 74.1798 62.9642 74.3815C62.8398 74.8107 62.6973 75.2346 62.538 75.6522C62.2232 76.4781 61.8515 77.2661 61.3921 78.0215C60.5622 79.3859 59.5071 80.5184 58.2633 81.4974C58.4994 81.6924 58.7301 81.8953 58.9613 82.0944C60.0789 83.0574 61.1662 84.064 62.2194 85.0971C64.0897 86.9321 65.9224 88.8012 67.7122 90.715C68.5949 91.6589 69.4613 92.6151 70.3229 93.5779L70.3512 93.6102L70.3817 93.6467C70.6877 94.0171 71.2993 94.9007 71.7556 94.7588C71.986 94.687 72.2287 94.3428 72.3857 94.1786L72.675 93.8765C72.7712 93.7756 72.8668 93.674 72.9607 93.571C74.6439 91.7246 76.2365 89.8073 77.7319 87.8032C78.4617 86.8254 79.167 85.8292 79.8468 84.8157C80.1963 84.2946 80.5392 83.769 80.8752 83.2389C81.2002 82.7262 81.463 82.1753 81.9419 81.7926C82.2934 81.5118 82.7804 81.7693 82.6918 82.2296C82.5523 82.9546 82.0511 83.5677 81.6565 84.1805C81.2602 84.7962 80.8545 85.4059 80.4397 86.0092C79.6414 87.1707 78.8084 88.3078 77.9457 89.422C77.2028 90.3815 76.4277 91.3164 75.6317 92.2323L75.4141 92.4817C74.5578 93.459 73.7174 94.4966 72.7712 95.3886C71.924 96.1875 70.9987 95.9547 70.2269 95.1784C69.2507 94.1968 68.3444 93.1353 67.4052 92.118C65.5283 90.085 63.6318 88.0674 61.7157 86.0713L61.0858 85.4144C60.3514 84.6468 59.6199 83.8745 58.9076 83.088L58.8157 82.9854C58.0033 82.0705 57.1773 80.9242 56.0224 80.4591C55.9389 80.4255 55.9696 80.3068 56.0597 80.3234C56.799 80.4602 57.4162 80.8332 57.9905 81.2787C58.5066 80.4235 58.9672 79.522 59.3688 78.5999L59.1111 78.4879C57.2679 77.6905 55.1904 76.8864 53.2115 77.0157C52.414 77.0677 51.5631 77.3702 51.0124 77.9696C50.5138 78.5126 50.2648 79.2449 49.8073 79.8232C49.2831 80.4856 48.5995 80.7837 47.7606 80.8106L47.3527 80.823C46.8835 80.8383 46.4335 80.8629 45.9576 80.9663C44.6682 81.2462 43.3087 81.7003 42.2272 82.4758C41.8349 82.7571 41.4299 83.1439 41.2402 83.57C41.0522 83.9923 40.9981 84.4863 40.9797 84.942C40.9709 85.1642 41.0374 85.4576 40.9818 85.6701C40.9882 85.6458 40.991 85.6587 40.9918 85.6841C41.1647 85.8206 41.2824 86.0474 41.2952 86.2735C42.3732 85.711 43.4892 85.218 44.6268 84.7736C45.8934 84.2788 47.1994 83.8823 48.5056 83.5069C49.784 83.1396 51.1221 82.9876 52.4253 82.7258C52.5912 82.6924 52.6489 82.9167 52.4943 82.9763C51.1245 83.503 49.7992 84.1275 48.418 84.623C47.0376 85.1184 45.6674 85.6546 44.3269 86.2506C41.736 87.4031 39.2333 88.8694 37.192 90.8589C35.1984 92.8021 33.6607 95.1627 32.2305 97.536C30.7902 99.9262 29.5048 102.403 28.3591 104.948C26.0927 109.982 24.3931 115.275 23.2742 120.681C22.1853 125.942 21.5769 131.391 21.7795 136.768C21.8756 139.322 22.1872 141.878 22.9119 144.334C23.2581 145.508 23.6914 146.655 24.239 147.749C24.8163 148.903 25.5943 149.932 26.1215 151.105C26.1649 151.202 26.1815 151.295 26.179 151.381C28.4277 153.331 31.9474 152.017 34.3811 150.852C39.9809 148.171 45.4769 145.237 50.7007 141.871C55.8565 138.548 60.7425 134.839 65.5132 130.99C65.1442 130.609 64.8189 130.181 64.533 129.795C63.9426 128.996 63.4986 128.09 63.193 127.146C62.8355 126.04 62.7247 124.856 62.8263 123.701L62.8551 123.374C62.9523 122.282 63.0646 121.175 63.3037 120.109C63.3059 120.095 63.3164 120.089 63.3279 120.089C63.3393 120.089 63.351 120.096 63.3556 120.109C64.0002 122.174 64.0521 124.394 64.7762 126.434C65.0679 127.253 65.52 128.045 66.0621 128.725C66.2962 129.02 66.5706 129.275 66.8507 129.524C66.8693 129.397 66.8946 129.272 66.9326 129.148L66.9628 129.05C67.0003 128.932 67.0468 128.799 67.1114 128.683C67.0203 128.656 66.9316 128.627 66.8439 128.595C66.7746 128.57 66.7596 128.458 66.8439 128.439C67.0734 128.386 67.3098 128.359 67.5508 128.348C67.5889 128.342 67.6257 128.341 67.6626 128.343C68.1136 128.329 68.5725 128.362 69.0073 128.369C69.7603 128.38 70.511 128.394 71.2628 128.428C72.702 128.49 74.3267 128.766 75.7429 128.431C77.0299 128.126 78.2984 127.267 79.3303 126.459C80.2321 125.752 80.9276 124.913 81.6759 124.076C81.6222 124.084 81.5688 124.092 81.5157 124.1L81.0331 124.166C80.424 124.247 79.7009 124.311 79.2174 124.018C79.0328 123.906 79.086 123.652 79.2739 123.583C79.7674 123.402 80.3798 123.552 80.9056 123.526C81.3184 123.507 81.736 123.463 82.143 123.377C82.2768 123.35 82.4093 123.317 82.5408 123.279C83.5048 123.001 84.6373 122.022 83.8716 120.953C83.8428 120.912 83.875 120.875 83.9142 120.868C83.9316 120.865 83.9501 120.868 83.965 120.881C84.8367 121.604 84.3835 122.899 83.559 123.455C83.2754 123.646 82.9549 123.78 82.6228 123.878C82.6862 123.995 82.6976 124.138 82.6215 124.274C81.9758 125.427 80.8826 126.439 79.8585 127.253C78.8069 128.089 77.5938 128.878 76.2896 129.247C74.7834 129.672 73.1287 129.352 71.6008 129.217C70.7727 129.144 69.9471 129.058 69.1203 128.962C68.8988 128.937 68.6694 128.917 68.4364 128.895C68.6556 129.184 68.8297 129.516 68.9439 129.716C69.3152 130.365 68.9727 131.219 68.2531 131.418C68.178 131.439 68.1008 131.45 68.0248 131.453C67.8309 131.842 67.3697 132.128 66.943 131.981C66.7575 131.918 66.5786 131.831 66.4069 131.727C63.7234 134.087 60.8981 136.302 57.9922 138.378C52.6035 142.227 46.9551 145.743 41.0983 148.834C39.7791 149.53 38.4498 150.208 37.1092 150.859L35.9554 151.416C34.6782 152.031 33.3711 152.643 32.0148 153.025C31.7504 153.1 31.4735 153.16 31.1898 153.206C31.1861 153.231 31.1852 153.255 31.1869 153.279C30.9318 153.313 30.7093 153.318 30.5193 153.294L30.476 153.288C28.8135 153.405 27.0352 152.998 25.9656 151.783C25.7873 151.908 25.5274 151.922 25.298 151.741C24.1445 150.835 23.4569 149.455 22.8534 148.138C22.2416 146.802 21.7619 145.409 21.4095 143.983C20.7056 141.133 20.4265 138.194 20.4117 135.263C20.3585 123.969 23.1836 112.576 28.0905 102.436C29.335 99.8646 30.7068 97.341 32.2297 94.9236C33.7484 92.5128 35.512 90.2723 37.7705 88.5141C38.4199 88.0086 39.0956 87.5465 39.7924 87.1206C39.3247 86.8886 39.1389 86.2982 39.1062 85.7738C39.0335 84.6092 39.1721 83.2674 39.8532 82.2847C40.8086 80.9061 42.5189 80.0561 44.1047 79.6428C44.9326 79.4271 45.7889 79.3013 46.6428 79.2589C47.0831 79.2368 47.5406 79.3093 47.9756 79.2617C48.3593 79.2199 48.5967 78.9906 48.8174 78.6892C49.3828 77.9164 49.7509 77.1059 50.5619 76.5394C51.394 75.9583 52.4723 75.7359 53.4748 75.7962C54.6426 75.8665 55.708 76.3272 56.7365 76.8566C57.6648 77.3344 58.5659 77.8636 59.4441 78.4282C59.605 78.0506 59.7567 77.67 59.8977 77.2882C60.1712 76.5479 60.4091 75.784 60.6022 75.0187C60.7979 74.2427 60.7693 73.2179 61.3604 72.6343C61.8744 72.1271 62.8641 72.3263 63.0308 73.076ZM102.87 124.856L102.866 124.857C101.671 125.566 101.099 127.339 100.536 128.113C100.582 128.373 100.614 128.638 100.678 128.884C100.823 129.448 101.013 130.008 101.234 130.546C101.621 131.496 102.107 132.402 102.555 133.323C102.916 134.064 103.27 134.818 103.545 135.598C103.515 135.628 103.488 135.664 103.464 135.708C103.166 136.267 102.932 136.157 102.381 136.035L102.381 136.034C102.066 135.069 101.612 134.162 101.204 133.236L101.104 133.01L101.006 132.784C100.665 131.991 100.354 131.191 100.173 130.342C100.057 129.8 100.01 129.244 100.003 128.691C99.7046 128.937 99.3459 129.113 98.894 129.181C97.9267 129.328 97.0507 128.721 96.2627 128.235L96.085 128.126C95.5917 127.825 95.1025 127.548 94.5337 127.406C93.8879 127.244 93.2203 127.244 92.5642 127.162C92.4857 127.152 92.4062 127.141 92.3266 127.129C92.5826 127.977 92.7013 128.899 92.8537 129.748C93.0658 130.94 93.2388 132.142 93.4049 133.34C93.7278 135.663 93.9526 138.005 94.0667 140.348C94.1772 142.616 94.1215 144.876 94.0396 147.143L93.9987 148.249C93.9659 149.15 93.9389 150.051 93.9548 150.951C93.9986 150.955 94.0425 150.962 94.0864 150.972C94.5407 151.078 94.8508 151.543 95.2661 151.749C96.1424 152.186 97.2011 152.18 98.134 151.959C100.256 151.456 102.02 149.973 103.182 148.162C104.578 145.989 105.09 143.431 105.074 140.873C105.054 137.993 104.589 135.24 103.94 132.46L103.899 132.283C103.353 129.967 103.011 124.878 102.87 124.856ZM43.4544 119.046C43.4665 119.82 43.1519 120.649 42.979 121.401C42.7929 122.212 42.6073 123.023 42.4191 123.833L42.2498 124.56C42.1089 125.165 41.9699 125.77 41.8454 126.379C41.743 126.88 41.7001 127.539 41.5323 128.091C43.5281 127.283 45.527 126.483 47.5225 125.677C49.9811 124.684 52.4512 123.719 54.9155 122.742C57.3706 121.77 59.8118 120.664 62.3166 119.833C62.9128 119.634 63.3164 120.587 62.7455 120.851C60.2016 122.032 57.5101 122.957 54.904 123.992L51.1341 125.49C47.6781 126.863 44.2198 128.229 40.7442 129.549C38.3767 130.447 36.0185 131.372 33.6361 132.225C32.5002 132.632 31.3541 133.016 30.2238 133.437C29.2771 133.791 28.2531 134.315 27.9025 135.333C27.8841 135.386 27.8114 135.364 27.8195 135.31C27.9613 134.324 28.6925 133.708 29.5169 133.241C30.6111 132.62 31.813 132.169 32.968 131.671L33.1252 131.603C35.4838 130.573 37.8614 129.585 40.246 128.613C40.2224 128.555 40.2084 128.493 40.2074 128.429L40.2006 128.431C40.1572 127.989 40.3594 127.596 40.5048 127.185L40.9219 126.007C41.1998 125.222 41.4491 124.428 41.7059 123.636C41.9745 122.809 42.2456 121.982 42.5163 121.156C42.7455 120.455 42.8996 119.621 43.2918 118.995C43.3391 118.92 43.4694 118.962 43.4544 119.046ZM89.3838 117.304L89.3541 117.455C89.3194 117.63 89.2869 117.808 89.2788 117.985C89.2557 118.451 89.3087 118.916 89.4322 119.365C89.5533 119.81 89.7227 120.239 89.9638 120.633C90.1922 121.003 90.5231 121.294 90.7341 121.674C90.7559 121.715 90.7698 121.755 90.7755 121.794C90.8563 121.761 90.9359 121.731 91.0132 121.707C91.6567 121.502 92.3139 121.331 92.9804 121.203L92.8747 121.196L92.8064 121.191C91.6928 121.096 90.642 120.731 90.8691 119.43C90.9975 118.694 91.5744 118.2 92.1927 117.851L92.2702 117.808C92.3035 117.789 92.3382 117.771 92.3715 117.754C91.8122 117.66 91.4064 117.543 90.7203 117.428C90.2751 117.353 89.8288 117.311 89.3838 117.304ZM38.507 101.269C39.6021 103.484 40.4259 105.839 41.0475 108.229C41.3475 109.383 41.6022 110.548 41.807 111.723L41.8742 112.115L41.9124 112.328C42.1037 113.375 42.3467 114.51 42.0657 115.531C41.974 115.865 41.4205 115.997 41.2655 115.636C40.798 114.546 40.8638 113.293 40.7283 112.127C40.5859 110.903 40.3916 109.685 40.1494 108.477C39.6842 106.156 39.0313 103.889 38.3036 101.639L38.2224 101.389C38.1606 101.222 38.4298 101.113 38.507 101.269ZM80.5977 111.179C80.2713 111.333 79.945 111.473 79.6567 111.614C79.6349 111.626 79.6118 111.636 79.5886 111.648C79.915 111.592 80.2425 111.54 80.57 111.492C80.5666 111.386 80.577 111.281 80.5977 111.179ZM93.3672 110.069C93.3181 110.085 93.2748 110.111 93.2371 110.146L93.2188 110.165C93.1738 110.207 93.142 110.256 93.1234 110.314C93.0946 110.369 93.0812 110.428 93.0836 110.492L93.1001 110.614C93.122 110.693 93.1616 110.76 93.2188 110.818L93.312 110.89C93.375 110.927 93.4423 110.947 93.5139 110.952L93.5449 110.953L93.6383 110.953C93.6917 110.952 93.7419 110.938 93.789 110.914C93.838 110.898 93.8814 110.872 93.9191 110.837L93.9374 110.818C93.9825 110.776 94.0142 110.727 94.0328 110.669C94.0576 110.622 94.0708 110.572 94.0726 110.519L94.0726 110.492L94.0561 110.369C94.0369 110.3 94.0042 110.24 93.958 110.187L93.9374 110.165L93.8441 110.093C93.7812 110.056 93.7139 110.036 93.6423 110.031L93.6113 110.03H93.5449C93.4813 110.027 93.4221 110.041 93.3672 110.069ZM90.3667 109.913C90.1217 109.958 89.9827 110.256 90.0447 110.481C90.1132 110.731 90.3502 110.842 90.5882 110.808L90.612 110.804C90.8908 110.753 91.164 110.772 91.4296 110.87C91.6632 110.957 91.935 110.774 91.997 110.548C92.0678 110.29 91.9094 110.066 91.6748 109.98C91.2539 109.824 90.8024 109.833 90.3667 109.913ZM41.7824 93.5116C42.3404 94.3303 42.6888 95.4186 43.0325 96.3542L43.0668 96.4473C43.4322 97.4305 43.7846 98.4215 44.1132 99.4178C44.7693 101.407 45.6242 103.488 45.7822 105.589C45.8114 105.976 45.2188 106.132 45.047 105.788C44.5533 104.8 44.2878 103.77 43.9957 102.711C43.7171 101.701 43.4269 100.694 43.1365 99.6874C42.8462 98.6812 42.5654 97.672 42.2796 96.6645C42.0015 95.6843 41.6144 94.5945 41.5508 93.5744C41.5425 93.4419 41.7183 93.4174 41.7824 93.5116ZM54.3761 86.9205C55.121 87.4381 55.731 88.1952 56.3613 88.8427C57.0007 89.4997 57.6316 90.1628 58.2567 90.8336C59.3011 91.9547 60.3266 93.0942 61.3858 94.2017C63.4965 96.4087 65.8844 98.4396 68.7975 99.4769C69.5025 99.7279 69.1937 100.861 68.4871 100.604C65.5074 99.5226 63.0391 97.5228 60.8618 95.2603C59.7341 94.0886 58.6994 92.8366 57.6904 91.5623C57.2183 90.9659 56.7497 90.3677 56.2878 89.7637L56.0114 89.4006C55.4306 88.6333 54.7199 87.8685 54.2948 87.002C54.271 86.9533 54.3233 86.8839 54.3761 86.9205Z" fill="black"/>
<path fill-rule="evenodd" clip-rule="evenodd" d="M70.7505 29.4727C77.2845 29.4727 84.0427 34.5543 86.4378 37.797C88.4515 40.5233 89.5357 52.8516 89.5357 61.1832C89.5357 62.9257 90.4941 66.2104 90.2144 67.8772C89.1896 73.9849 84.7244 79.1073 75.8869 79.1073C67.0494 79.1073 60.7131 75.5925 54.1444 66.1558C50.9573 66.1558 49.4126 63.7034 49.3902 59.8333C49.3678 55.9633 52.4666 54.5552 52.4666 54.5552C52.4666 54.5552 51.3617 39.2823 54.1444 35.3059C56.9271 31.3296 64.2166 29.4727 70.7505 29.4727Z" fill="#EEC1A2"/>
<path fill-rule="evenodd" clip-rule="evenodd" d="M68.0008 27.3135C72.1262 26.8944 76.1687 27.2465 80.2343 27.9752C80.545 28.0316 80.721 28.2361 80.7865 28.4819C82.7015 28.5697 84.6186 28.7107 86.531 28.8157C87.225 28.8538 87.6184 29.5419 87.302 30.1632C87.2388 30.2866 87.1731 30.4067 87.1064 30.5267L87.1902 30.499C87.7655 30.3138 88.387 30.2225 88.9475 30.5165C89.661 30.8906 89.9407 31.716 89.7831 32.4757C89.7427 32.6697 89.6749 32.8556 89.5978 33.0369C89.7543 33.0266 89.912 33.03 90.0685 33.0508C90.9016 33.1616 91.5207 33.8024 91.5644 34.6557C91.6289 35.9441 90.8015 37.2512 89.8268 38.1736C89.9682 38.4659 90.0224 38.8099 89.9636 39.1586C89.8463 39.8479 89.3402 40.2607 88.7535 40.53C88.9982 41.3094 89.1138 42.1243 89.0456 42.9571C89.0228 43.2352 88.7805 43.4648 88.5246 43.5212C89.4781 46.1553 89.9608 48.9833 90.3078 51.739C90.5552 53.6997 90.6772 55.6717 90.6921 57.6471C90.6993 58.539 90.6847 59.4318 90.6474 60.3238L90.6323 60.6583C90.5863 61.6225 90.584 62.635 90.4114 63.5888C91.0006 64.5943 91.2376 65.8426 91.3377 66.9693C91.462 68.3641 91.2652 69.8027 90.8267 71.1295C89.1719 76.1426 84.1779 79.3062 79.1617 80.1284C74.5186 80.8893 69.1458 79.8652 66.4324 75.6335C66.3898 75.5665 66.4807 75.5112 66.5336 75.5551C68.4749 77.1391 70.7268 77.8457 73.1734 78.1897C77.4035 78.7833 82.1582 77.7764 85.5529 75.1071C87.1823 73.8255 88.3572 71.9596 88.874 69.9517C89.1375 68.9254 89.2284 67.8549 89.1248 66.7986C89.0189 65.7271 88.546 64.8127 88.248 63.8001C88.1479 63.4582 88.2538 63.1407 88.462 62.9145C88.5206 62.0923 88.6588 61.2633 88.7116 60.4437C88.7703 59.5118 88.8061 58.58 88.8188 57.6471C88.8429 55.712 88.7624 53.7734 88.6001 51.8465C88.3032 48.318 87.515 44.8751 87.0524 41.3765C86.8811 41.5306 86.6356 41.5939 86.3783 41.4593L86.3516 41.4446L86.2112 41.3639C86.2032 41.3639 86.1939 41.3651 86.1858 41.3661C85.225 41.4597 84.2285 41.3258 83.3079 41.0382C82.3446 40.7381 81.4506 40.2763 80.6519 39.6609C80.5001 40.4332 80.4367 41.2137 80.4357 42.0011C80.4345 42.493 79.9155 42.7483 79.5036 42.5381C77.6773 41.6074 75.9328 40.5349 74.2769 39.3295C74.0835 40.3236 73.8903 41.3176 73.6957 42.3129C73.621 42.6963 73.1341 42.851 72.8223 42.6686C71.5819 41.9446 70.5106 40.9968 69.6383 39.8698C69.4642 40.2039 69.2895 40.538 69.1137 40.8713L68.8489 41.3707C68.5877 41.8614 68.2379 42.4042 67.6659 42.5611C67.0607 42.7274 66.5554 42.3338 66.3518 41.7841C66.2897 41.6133 66.2321 41.4377 66.1792 41.261C65.6635 42.4423 65.0814 43.5969 64.4232 44.6984C63.4358 46.3505 62.2505 47.8226 61.0688 49.3328C60.7097 49.7913 60.0953 49.3536 60.0458 48.9081C60.017 48.646 59.9928 48.3827 59.972 48.1205C59.2834 49.5148 58.5649 50.8961 57.782 52.2372L57.8941 52.6779C58.2171 53.9801 58.4854 55.2915 58.777 56.6006C58.8711 57.0229 58.6474 57.6268 58.1556 57.6987C57.568 57.7846 57.0121 58.0859 56.4102 57.8786C55.754 57.6525 55.6243 57.0834 55.3145 56.544C55.2527 56.4365 55.1808 56.3378 55.1035 56.244L55.0838 56.2697C55.0355 56.3333 54.9204 56.264 54.9492 56.1913L54.9829 56.1072C54.7167 55.8238 54.3982 55.5873 54.1053 55.3329C53.4094 55.2153 52.6265 55.3441 52.147 55.6278C51.055 56.2743 50.5533 57.6067 50.543 58.8318C50.5303 60.2659 50.9733 61.8777 51.7212 63.1039C52.0505 63.6431 52.5015 64.1302 53.0975 64.3693C53.6891 64.607 54.3301 64.5333 54.9319 64.7571C55.3301 64.9062 55.5752 65.3496 55.3347 65.7512C55.3185 65.7791 55.3001 65.8044 55.2828 65.831L55.4618 66.0694C55.5849 66.2345 55.7132 66.4113 55.8329 66.5953C56.139 66.9487 56.4612 67.2893 56.7731 67.6368C57.3495 68.2775 57.9089 68.9357 58.4761 69.5857C59.0113 70.1989 59.5774 70.7749 60.1608 71.3418C60.712 71.8788 61.4002 72.3301 61.9065 72.9029C62.3989 73.4618 62.5325 74.4373 61.7223 74.7607C60.8259 75.1193 60.0324 74.2788 59.429 73.7184L59.4037 73.6949C58.2976 72.6736 57.2987 71.5066 56.5055 70.2216C55.7198 70.7583 54.5833 70.8095 53.801 70.273C53.3892 69.9907 53.0733 69.5163 52.9198 69.0002C52.7751 69.0327 52.6304 69.0518 52.4893 69.0496C52.4167 69.0918 52.3439 69.1329 52.2702 69.1713C51.6867 69.476 50.9699 69.3399 50.7029 68.692C50.4598 68.1039 50.7103 67.436 50.9293 66.8693L50.9745 66.7523C51.0988 66.4291 51.2357 66.077 51.406 65.7456C50.9319 65.3877 50.5268 64.943 50.184 64.4374C49.0321 62.7344 48.4567 60.2438 48.711 58.2118C48.8641 56.9856 49.4382 55.7156 50.3783 54.8888L50.3439 54.7987C50.0804 54.128 49.8409 53.4548 49.6857 52.746C49.5039 51.917 49.4152 51.0579 49.3347 50.2139C49.1644 48.4312 49.2104 46.6081 49.4371 44.8323C49.8629 41.4898 50.9423 38.2084 52.8583 35.427C52.315 34.7745 51.8847 34.0067 52.109 33.1235C52.2116 32.7182 52.445 32.3338 52.7973 32.1016C52.9916 31.9736 53.2231 31.9539 53.4175 31.8477L53.476 31.8154C53.5614 31.7654 53.4961 31.7707 53.4451 31.5383C53.2438 30.6099 53.4106 29.7129 54.429 29.4046C55.3876 29.1148 56.2944 29.7302 56.8617 30.4633C58.3461 29.4068 60.3024 28.8538 62.0227 28.3839C63.979 27.8515 65.9858 27.5191 68.0008 27.3135ZM51.9665 58.4531C51.9595 57.6968 52.6741 57.2303 53.3773 57.354C53.8495 57.4364 54.2434 57.7192 54.6133 58.0114L54.7936 58.1546C55.244 58.5094 55.7611 58.8919 56.0296 59.3942C56.4232 60.1354 55.5913 61.1329 54.8146 60.6133C54.2817 60.255 53.9402 59.681 53.5907 59.1477L53.5545 59.0927C53.3957 58.8537 53.2565 58.5997 53.0389 58.408L52.9919 58.3667C52.9203 58.3056 52.8435 58.2497 52.7512 58.2233C52.573 58.1719 52.243 58.2439 52.1644 58.4567L52.1574 58.4785C52.1286 58.5859 51.9676 58.5627 51.9665 58.4531Z" fill="black"/>
<path fill-rule="evenodd" clip-rule="evenodd" d="M72.5095 66.5487C74.4412 65.2527 84.2177 65.5063 85.12 66.5005C86.0223 67.4948 88.1077 70.3326 83.6408 71.7262C79.1739 73.1199 73.6444 72.6316 72.2038 70.9255L72.1189 70.8235C70.7567 69.1645 70.6165 67.8188 72.5095 66.5487Z" fill="white"/>
<path fill-rule="evenodd" clip-rule="evenodd" d="M80.9311 58.9274C81.8019 59.4573 83.1287 60.6931 82.1919 62.007C81.0892 63.1654 79.5016 61.8372 78.7193 61.2364C77.9938 60.7709 77.1788 61.9683 77.8518 62.5119C83.5051 66.7025 85.7993 59.0659 81.3715 58.3043C80.884 58.2203 80.7029 58.7634 80.9311 58.9274ZM73.0634 48.8204L73.2799 48.7825L73.3909 48.7636C74.0394 48.6563 74.8082 48.5844 75.2562 49.0941C75.5074 49.38 75.5939 49.9114 75.2562 50.185C74.662 50.6665 74.0052 50.4799 73.2932 50.5207C72.7065 50.5544 72.1426 50.6516 71.5774 50.8133C70.3375 51.1682 69.3273 51.8159 68.2683 52.5271C68.1293 52.6204 67.9875 52.4425 68.0538 52.3124C68.6651 51.1135 69.8498 50.1288 71.0364 49.5285C71.6697 49.2081 72.3627 48.9423 73.0634 48.8204ZM78.7989 65.382C80.6938 65.5198 84.8003 64.6141 86.5053 65.9726C92.9316 74.0071 67.4546 76.0728 70.2061 67.1839C71.9586 64.3097 75.9895 65.4649 78.7989 65.382ZM78.4741 70.2324C78.0054 70.1941 77.4367 70.5658 77.2991 70.853C77.1616 71.1402 77.2147 71.7472 77.2189 71.8524C78.0382 71.935 78.8647 71.9476 79.6863 71.8937C79.4729 71.1868 79.4659 70.3394 78.4741 70.2324ZM82.2572 71.4184C82.1255 70.5409 81.4986 70.333 80.9912 70.4648C80.4722 70.5994 80.1675 71.1976 80.2005 71.7302C80.2027 71.7669 80.1815 71.7981 80.1675 71.8277C80.873 71.7442 81.572 71.6068 82.2572 71.4184ZM76.4459 70.3912C76.1505 69.9412 75.4445 69.724 74.9923 69.8033C74.254 69.959 74.1665 70.8983 74.1665 71.0898C74.8473 71.3496 75.57 71.522 76.2609 71.6594C76.3997 71.6869 76.5387 71.7115 76.678 71.7347L76.6871 71.6207C76.7039 71.3762 76.7164 70.8032 76.4459 70.3912ZM84.7982 70.317C84.0411 69.1443 82.4138 69.9839 82.5482 71.265C82.6928 71.2194 82.8368 71.1717 82.98 71.1217C83.5748 70.9142 84.2273 70.6674 84.7982 70.317ZM78.838 66.2764C77.8196 66.1846 76.9841 66.2155 76.3199 66.3388L76.2997 66.561C76.2262 67.3312 76.1314 68.0885 76.5354 68.3984C76.8635 68.6501 77.9524 68.6261 78.6826 68.4439C78.8629 68.3984 79.0974 66.8009 78.838 66.2764ZM80.4129 66.1846C80.2497 66.9437 80.1729 67.8654 80.5007 68.1392C80.8467 68.4282 81.9609 68.389 82.2522 68.1965C82.5072 68.028 82.5007 67.2528 82.4061 66.3825C81.8418 66.2493 80.8593 66.1846 80.4129 66.1846ZM75.8694 66.3464L75.5359 66.3494L75.3472 66.352C74.8698 66.3605 74.3549 66.388 73.8681 66.4943C72.901 68.5868 76.4327 68.948 75.8872 66.4238L75.8694 66.3464ZM82.8553 66.3969L82.8492 66.5154C82.8202 67.1032 82.8394 67.8772 83.1646 68.0862C83.6432 68.3937 84.5418 68.3344 85.0286 66.9121C84.8675 66.4877 83.159 66.428 82.8553 66.3969ZM73.4827 53.9202C73.6872 53.9202 73.8827 53.9897 74.0608 54.1183C74.2361 54.2449 74.3948 54.4296 74.527 54.6599C74.7771 55.0959 74.9335 55.6978 74.9335 56.3634C74.9335 57.0289 74.7771 57.6308 74.527 58.0668C74.3948 58.2971 74.2361 58.4819 74.0608 58.6084C73.8827 58.737 73.6872 58.8065 73.4827 58.8065C73.2782 58.8065 73.0826 58.737 72.9045 58.6084C72.7292 58.4819 72.5705 58.2971 72.4384 58.0668C72.1882 57.6308 72.0319 57.0289 72.0319 56.3634C72.0319 55.6978 72.1882 55.0959 72.4384 54.6599C72.5705 54.4296 72.7292 54.2449 72.9045 54.1183C73.0826 53.9897 73.2782 53.9202 73.4827 53.9202ZM86.4259 53.9202C86.6304 53.9202 86.8259 53.9897 87.004 54.1183C87.1793 54.2449 87.338 54.4296 87.4702 54.6599C87.7203 55.0959 87.8767 55.6978 87.8767 56.3634C87.8767 57.0289 87.7203 57.6308 87.4702 58.0668C87.338 58.2971 87.1793 58.4819 87.004 58.6084C86.8259 58.737 86.6304 58.8065 86.4259 58.8065C86.2214 58.8065 86.0258 58.737 85.8477 58.6084C85.6724 58.4819 85.5137 58.2971 85.3816 58.0668C85.1314 57.6308 84.9751 57.0289 84.9751 56.3634C84.9751 55.6978 85.1314 55.0959 85.3816 54.6599C85.5137 54.4296 85.6724 54.2449 85.8477 54.1183C86.0258 53.9897 86.2214 53.9202 86.4259 53.9202ZM84.6649 48.2834L84.8306 48.3173L84.9405 48.3407C86.7278 48.7256 88.9939 49.4844 89.8305 51.222C89.8631 51.4728 89.8287 51.5265 89.8007 51.5616L89.7914 51.5733C89.7684 51.6033 89.75 51.6446 89.6415 51.6788C89.6113 51.6716 89.5809 51.664 89.5502 51.6559C89.1587 51.5532 88.8491 51.4117 88.5492 51.2649L88.2242 51.1045C87.847 50.9194 87.4665 50.741 87.0633 50.6092C86.2028 50.3282 85.3177 50.1303 84.4189 50.0246C84.2241 50.0017 84.0365 49.9358 83.8885 49.823C83.748 49.7159 83.6407 49.5676 83.5917 49.3706C83.5283 49.1155 83.5466 48.9224 83.6832 48.6923C83.786 48.5195 83.9331 48.3997 84.1019 48.3309C84.2741 48.2608 84.47 48.2443 84.6649 48.2834Z" fill="black"/>
</svg>
