<svg width="135" height="177" viewBox="0 0 135 177" fill="none" xmlns="http://www.w3.org/2000/svg">
<path fill-rule="evenodd" clip-rule="evenodd" d="M131.817 97.9645C130.17 98.1264 128.523 98.288 126.877 98.4499C118.99 99.0532 111.107 100.313 103.281 101.069C103.086 100.752 102.705 100.804 102.473 101.025C101.692 100.956 100.817 100.359 100.11 100.98C100.087 100.977 100.064 100.973 100.041 100.971C98.7813 98.5506 97.9107 95.969 97.0657 93.384C96.5264 91.7947 95.8008 90.2561 94.4599 89.1891C92.1715 87.5986 86.9283 84.3735 84.2413 84.509C84.1967 84.0273 83.9724 83.5308 83.6042 83.2101C84.4158 81.8247 81.1706 80.9208 80.9417 81.0814C81.0884 76.4528 78.9139 72.4332 74.119 71.5115C69.8234 70.6153 63.7136 70.4647 61.4034 74.9594C61.1494 74.9308 58.5535 74.9173 58.3023 74.9454C57.9118 74.4502 53.6232 79.1428 55.3809 80.7764C39.6664 87.7366 30.7311 86.9061 26.3816 106.473C25.7935 108.311 25.7507 110.322 25.1298 112.12C22.9208 117.284 21.129 122.784 20.6831 128.403C19.6061 128.68 19.4822 130.581 20.7297 130.856C21.2062 130.961 21.6047 131.105 21.9522 131.377C21.6805 135.982 22.793 146.502 23.4939 146.47C24.9231 151.024 31.298 152.309 35.8112 150.709C35.0332 152.174 35.8112 153.096 35.8112 153.879C52.0509 154.494 69.8074 154.14 86.0426 154.984C88.1194 154.954 90.3037 155.494 92.3521 155.183C93.6013 154.883 93.6034 152.917 92.3363 152.674L97.873 151.47C97.7492 151.423 100.155 149.821 101.974 146.826C103.666 143.477 102.514 139.434 103.281 135.79C109.271 135.3 115.36 135.09 121.285 134.074C122.093 136.494 125.59 133.6 126.701 132.436C126.7 132.434 126.698 132.432 126.697 132.431C127.235 132.283 127.666 131.778 127.681 131.181C128.058 130.641 128.137 129.88 127.775 129.359C129.433 119.779 131.961 109.999 132.875 100.329C133.198 100.258 133.502 100.116 133.76 99.8973L133.739 99.8764C134.176 99.3887 134.261 98.5469 133.532 98.1325C132.945 97.7979 132.454 97.9017 131.817 97.9645Z" fill="#EEC1A2"/>
<path fill-rule="evenodd" clip-rule="evenodd" d="M69.19 133.819L70.4585 134.627L80.837 137.975L87.1795 138.783L92.3687 137.975V146.866L93.4066 155.179C92.9453 156.025 88.5633 156.025 80.2605 155.179C74.9676 154.639 55.6237 154.377 51.2195 154.262L50.97 154.255C45.7946 154.106 40.6822 154.106 35.6328 154.255V151.138L50.0474 143.979L62.9629 136.705L69.19 133.819ZM61.8362 74.2334L62.7894 74.946L60.7082 78.3694L70.8461 86.5799V93.1379L74.0556 96.1773L75.8902 93.1379L78.4753 89.6959L80.3124 84.1164L79.6869 80.4405L80.9448 80.3219C80.9508 80.5731 80.9498 80.8266 80.9417 81.0819C81.1706 80.9213 84.4158 81.8253 83.6042 83.2107C83.9724 83.5314 84.1967 84.0279 84.2413 84.5096C86.9283 84.374 92.1715 87.5992 94.4599 89.1896C95.8008 90.2567 96.5264 91.7952 97.0657 93.3845L97.1927 93.7722L97.3238 94.1702L97.4559 94.5679C98.1856 96.7542 98.9736 98.9207 100.041 100.972C100.064 100.974 100.087 100.978 100.11 100.981C100.817 100.359 101.692 100.957 102.473 101.025C102.7 100.81 103.069 100.755 103.267 101.048L103.281 101.07L93.5518 102.989L87.1332 125.532L81.5434 120.989L78.5431 121.436L70.6198 124.297L61.4045 126.693L40.3672 132.5H37.6882L22.0991 128.731L20.6942 128.267C21.1581 122.695 22.9387 117.243 25.1298 112.12C25.7507 110.323 25.7935 108.312 26.3816 106.474C30.7311 86.9067 39.6664 87.7371 55.3809 80.777C53.6232 79.1433 57.9118 74.4508 58.3023 74.946L58.3269 74.9439L58.3801 74.941L58.4487 74.9386C59.0618 74.9208 61.1755 74.9343 61.4034 74.96C61.5355 74.7028 61.6802 74.4609 61.8362 74.2334Z" fill="#DB6B38"/>
<path fill-rule="evenodd" clip-rule="evenodd" d="M133.372 98.6494L133.082 100.266C133.013 100.289 132.943 100.308 132.872 100.324C132.781 101.288 132.674 102.253 132.553 103.219L130.756 113.245C130.446 115.019 130.152 116.797 129.86 118.575L129.473 120.485L129.233 121.672C128.716 124.243 128.213 126.805 127.772 129.354C127.839 129.45 127.891 129.554 127.928 129.663L127.894 129.807L127.871 129.902L127.847 129.997C127.499 131.336 126.893 132.635 125.466 133.029C124.39 133.327 123.209 133.354 122.097 133.471L121.974 133.484L102.525 135.674C100.175 135.939 97.8256 136.211 95.4769 136.487L93.4407 136.726C90.6028 137.055 87.7485 137.314 84.9523 137.909C84.8495 137.931 84.7644 137.972 84.695 138.026C85.2581 135.892 85.7971 133.761 86.2856 131.605C86.8354 129.179 87.3572 126.748 87.9453 124.331C89.1301 119.461 90.4582 114.623 91.9121 109.826C92.2172 108.82 92.5294 107.815 92.8484 106.812L93.0722 106.112L93.2445 105.553C93.5111 104.702 93.841 103.827 94.6228 103.358C95.5376 102.808 96.7852 102.717 97.8228 102.527L98.5255 102.395C99.5767 102.198 100.629 102.009 101.683 101.828C106.729 100.959 111.803 100.262 116.897 99.7382C122.196 99.1933 127.515 98.8392 132.839 98.6661L133.372 98.6494ZM85.098 132.08L85.1476 132.084L84.4211 137.899C84.305 137.817 84.1575 137.768 83.9775 137.768C81.5945 137.775 79.3102 137.012 77.1007 136.174L76.7643 136.046L75.8262 135.685C74.8727 135.319 73.914 134.961 72.9375 134.665L72.5428 134.545L72.3421 134.486C71.6028 134.27 70.825 134.073 70.056 134.025L69.9512 134.019L70.1751 133.901C70.2079 133.884 70.2366 133.865 70.2621 133.844C70.6854 133.875 71.1095 133.867 71.556 133.786C72.3958 133.635 73.2123 133.342 73.9621 132.935L74.297 132.753L74.4341 132.681L74.5246 132.634L74.6147 132.588C75.2587 132.267 75.8744 132.065 76.6875 132.236C77.6105 132.431 78.4194 132.929 79.2515 133.35L79.3991 133.424L79.4984 133.472L79.5996 133.519L79.702 133.566C80.8272 134.073 82.6179 134.62 83.0493 133.088C83.2226 132.473 83.0869 131.897 82.7862 131.392C83.3466 131.343 84.3478 132.005 85.098 132.08ZM113.106 112.922L113.119 112.992C113.279 113.849 112.88 114.67 112.276 115.268C111.78 115.758 110.904 116.031 110.656 116.736C110.514 117.138 110.665 117.519 110.955 117.784L110.888 117.817L110.823 117.851L110.759 117.884L110.697 117.918L110.636 117.953C109.65 118.52 108.846 119.443 109.736 120.557C110.745 121.822 112.854 121.863 114.34 121.764L114.44 121.757C115.881 121.649 117.587 121.164 118.368 119.832C118.727 119.221 118.687 118.482 118.188 117.959C117.887 117.644 117.349 117.32 116.856 117.282C116.878 117.003 116.845 116.735 116.747 116.508C116.536 116.018 115.974 115.689 115.431 115.677C115.475 114.636 114.643 113.61 114.03 112.778L113.968 112.693L113.907 112.609C113.626 112.217 113.024 112.437 113.106 112.922ZM113.928 114.029L114.486 116.123L114.477 116.14C114.28 116.514 114.796 116.938 115.101 116.624L115.132 116.591C115.495 116.216 116.052 116.72 116.059 117.12C116.069 117.682 115.703 118.117 115.268 118.404L115.237 118.423L115.157 118.473C114.8 118.71 115.07 119.204 115.463 119.144C115.949 119.07 116.348 118.684 116.593 118.202C116.856 118.277 117.154 118.268 117.431 118.423C118.127 118.813 117.727 119.495 117.273 119.907L117.255 119.924L117.218 119.956C116.386 120.667 115.253 120.913 114.185 120.966L114.123 120.969C113.044 121.015 111.639 121.031 110.714 120.396C110.139 120 109.972 119.44 110.459 118.909C110.735 118.609 111.013 118.306 111.299 118.013C111.727 118.218 112.11 118.135 112.548 117.941C112.604 117.916 112.573 117.83 112.518 117.83C112.276 117.83 111.389 117.381 111.346 117.094C111.306 116.828 111.797 116.604 112.036 116.476L112.07 116.457L112.1 116.439C112.35 116.288 112.585 116.112 112.799 115.914C113.344 115.412 113.74 114.782 113.913 114.092L113.928 114.029Z" fill="#DDDDF5"/>
<path fill-rule="evenodd" clip-rule="evenodd" d="M61.7028 73.9162C62.1921 72.685 63.8461 73.1636 63.6617 74.457C63.5513 75.2317 63.1275 76.05 62.7469 76.729C62.4369 77.2817 62.0833 77.8211 61.604 78.2354C62.4573 79.0325 63.3431 79.8006 64.2513 80.5298C65.2423 81.3254 66.2845 82.0588 67.3616 82.7329C68.3062 83.3241 69.2934 83.8478 70.1838 84.5223C71.0116 85.1494 71.7658 85.9035 72.1496 86.8881C72.5584 87.9365 72.3807 89.0192 72.0797 90.0669L72.0451 90.1854C71.7376 91.2234 71.2051 92.4746 71.9434 93.4525C72.3192 93.9504 72.8656 94.303 73.3373 94.701C73.7566 95.0548 74.1502 95.4395 74.5112 95.8527C75.2982 96.7535 75.9383 97.7672 76.3423 98.8966L76.3784 98.9992C76.7246 99.999 76.9777 101.224 76.5098 102.205C76.3756 102.487 75.9427 102.395 75.8675 102.121C75.6975 101.501 75.7064 100.851 75.5639 100.221C75.4156 99.5665 75.1688 98.9451 74.8465 98.3572C74.2229 97.2198 73.3783 96.2483 72.3805 95.4269L72.0818 95.1837C71.3034 94.5441 70.5882 93.8656 70.4302 92.807C70.2612 91.6745 70.7143 90.5956 71.0058 89.5237C71.2088 88.7767 71.2751 88.0606 71.0557 87.3855C70.7876 87.8236 70.4218 88.2395 70.1325 88.6105C69.5562 89.3496 68.9746 90.0841 68.3944 90.8201C67.7996 91.5747 67.2194 92.3412 66.667 93.1276C66.4198 93.4795 66.1754 93.8333 65.9317 94.1876C65.7485 94.4538 65.4929 94.7198 65.2932 94.9914C65.3417 95.1366 65.338 95.3041 65.2501 95.423C64.1909 96.8558 62.684 93.8661 62.291 93.1108C61.4907 91.5725 60.8951 89.9383 60.0922 88.4004C59.2602 86.8061 58.3127 85.2543 57.2568 83.7988C56.618 82.9184 55.9021 82.0915 55.3178 81.1832C53.9413 82.4329 52.1299 83.2707 50.4661 84.0304C48.638 84.8651 46.7389 85.5469 44.8646 86.2709L44.3109 86.4862C41.0815 87.7481 37.7732 89.1344 35.0889 91.3759C31.9347 94.0099 30.0686 97.681 28.6794 101.483C27.0802 105.859 25.7571 110.354 24.5238 114.846C23.8927 117.144 23.2938 119.452 22.7309 121.768C22.2348 123.809 21.8236 125.87 21.2493 127.889C22.414 127.848 23.7423 128.299 24.7367 128.43C29.2685 129.023 33.7394 129.97 38.018 131.609C38.5465 131.812 38.6994 132.34 38.5843 132.769C38.8891 132.683 39.1936 132.595 39.4984 132.51C39.1645 131.997 39.3239 131.081 39.3501 130.514L39.3517 130.475C39.3787 129.718 39.4607 128.961 39.5139 128.205C39.6151 126.766 39.7469 125.337 39.9221 123.905L39.9668 123.547C40.1654 121.99 40.3122 120.424 40.5289 118.869L40.5545 118.691C40.4506 118.293 40.3296 117.9 40.2027 117.509C39.8643 116.467 39.3868 115.486 38.9683 114.477C38.9189 114.358 39.088 114.29 39.167 114.361C39.8757 115 40.4387 115.809 40.891 116.656C40.8988 116.616 40.9057 116.576 40.9139 116.536L40.9655 116.282C41.0928 115.662 41.2476 115.009 41.6276 114.506C41.6681 114.453 41.7481 114.442 41.7864 114.506C42.1501 115.122 42.1908 115.903 42.2468 116.604C42.3101 117.397 42.318 118.2 42.3068 118.996C42.285 120.55 42.1756 122.109 42.0884 123.661C42.0029 125.186 41.8349 126.692 41.6185 128.202L41.5773 128.485C41.4715 129.204 41.3849 129.931 41.2453 130.645L41.2059 130.84C41.1313 131.194 41.0854 131.693 40.9369 132.107C44.7582 131.04 48.5855 129.997 52.42 128.973C55.1914 128.232 57.9657 127.503 60.7389 126.769C60.8852 126.505 61.0674 126.258 61.2948 126.038C62.044 125.311 63.0369 124.987 63.9476 125.546C64.0216 125.592 64.0278 125.708 63.9476 125.752C63.7731 125.847 63.5983 125.945 63.4266 126.047L65.0917 125.596C66.3363 125.258 67.5958 124.836 68.8697 124.601C71.2161 123.441 73.7397 122.602 76.2114 121.773L76.5027 121.674C77.7682 121.242 79.0773 120.759 80.3848 120.519C81.3421 120.344 82.4657 120.555 82.8506 121.537C83.338 121.859 83.7965 122.237 84.2389 122.608C84.5588 122.877 84.8655 123.162 85.1773 123.44L85.2348 123.491C85.4897 123.712 85.6916 123.861 85.7542 124.213C85.7865 124.395 85.6709 124.641 85.4467 124.617C84.7604 124.544 84.2024 123.747 83.737 123.272C83.3774 122.904 83.015 122.524 82.6868 122.12C82.4955 122.224 82.2332 122.206 82.1115 121.975C81.48 120.777 79.7501 121.607 78.793 121.891L77.4219 122.297C76.7364 122.501 76.0511 122.705 75.367 122.913C73.4869 123.485 71.616 124.125 69.7188 124.65C69.8886 124.836 69.8652 125.169 69.5427 125.295C68.0577 125.879 66.4285 126.18 64.8857 126.581C63.9116 126.834 62.9381 127.088 61.9649 127.344C61.798 127.615 61.678 127.921 61.6275 128.277C61.4418 129.588 61.7999 131.1 62.1488 132.367L62.2014 132.556C62.4882 133.576 62.9102 134.825 63.7883 135.468C64.0027 135.625 64.2756 135.734 64.5508 135.759C66.2698 134.873 67.9887 133.987 69.7087 133.103C70.0273 132.939 70.3217 133.161 70.3932 133.425C70.9996 133.325 71.6047 133.168 72.1558 132.981C73.0818 132.666 73.8048 132.066 74.6729 131.65C76.3527 130.847 78.068 131.834 79.5719 132.584L79.9185 132.755C80.5929 133.082 81.996 133.712 82.3196 132.815C82.6326 131.949 81.643 131.022 81.004 130.632C80.2422 130.167 79.3552 129.918 78.4942 129.711C78.0026 129.592 77.505 129.495 77.0044 129.425C76.4366 129.345 75.8501 129.357 75.3034 129.172C75.0317 129.081 74.99 128.649 75.3034 128.578C76.145 128.386 77.1494 128.595 78.0277 128.809L78.4867 128.922C79.3715 129.139 80.2649 129.412 81.0708 129.846C81.6569 130.161 82.2754 130.641 82.6795 131.227C83.0304 130.901 83.4671 130.912 83.9221 131.033L84.169 131.102C84.5768 131.215 84.9072 131.293 85.304 131.214C85.3571 130.925 85.4108 130.636 85.4683 130.347C86.0337 127.505 86.6538 124.674 87.338 121.858C88.5181 117.001 89.8837 112.197 91.4232 107.442L91.5777 106.967C91.9328 105.88 92.2185 104.695 92.791 103.696C93.3324 102.751 94.1998 102.207 95.2304 101.919C96.3999 101.592 97.6288 101.421 98.8219 101.2C99.0881 101.15 99.3549 101.104 99.6213 101.055C99.3962 100.648 99.2281 100.186 99.0768 99.8319L99.0502 99.7705C98.7251 99.0283 98.433 98.2726 98.1509 97.513L97.9399 96.9419C97.4307 95.5666 96.9049 94.214 96.1889 92.9278C95.4352 91.5741 94.4353 90.4674 93.1888 89.5515C90.6474 87.6838 87.5843 86.7312 85.1194 84.7352C85.0184 84.6535 85.1479 84.5136 85.2504 84.5654C86.9148 85.4027 88.7115 85.972 90.4426 86.6537L90.7841 86.7886C92.1524 87.3317 93.542 87.9229 94.7263 88.8022C96.0467 89.7827 97.0866 91.0003 97.8682 92.4483C98.6386 93.8756 99.1313 95.4732 99.6748 96.9977L99.8202 97.404C100.039 98.0131 100.266 98.6204 100.525 99.2132C100.731 99.6838 101.116 100.221 101.29 100.759C101.768 100.676 102.246 100.592 102.725 100.512C113.088 98.78 123.567 97.7621 134.069 97.4643C134.48 97.4527 134.692 97.8452 134.632 98.2041C133.624 104.171 132.728 110.159 131.746 116.13C131.317 118.737 130.879 121.341 130.431 123.944C130.204 125.263 129.942 126.576 129.727 127.897C129.554 128.964 129.428 130.039 129.13 131.081C128.863 132.015 128.453 132.916 127.78 133.628C127.055 134.397 126.042 134.768 125.023 134.944C122.435 135.39 119.78 135.572 117.172 135.869L103.282 137.451C103.485 139.299 103.5 141.117 103.407 142.986L103.354 144.006C103.311 144.826 103.259 145.648 103.141 146.46C102.993 147.479 102.528 148.342 101.842 149.102C101.213 149.801 100.448 150.397 99.7042 150.969C98.932 151.562 98.1342 152.135 97.2263 152.501L97.1084 152.548C96.312 152.86 94.8178 153.342 93.7292 153.166C93.8715 153.879 94.1469 154.647 93.9027 155.353C93.7895 155.681 93.3611 155.845 93.0986 155.566C92.5787 155.013 92.5381 154.282 92.4149 153.561C92.2868 152.81 92.1763 152.056 92.0782 151.3C91.8884 149.84 91.7407 148.366 91.6956 146.893C91.6492 145.38 91.6671 143.865 91.7485 142.354C91.7904 141.578 91.8422 140.802 91.9406 140.031C91.9826 139.703 92.0255 139.373 92.0745 139.045C92.0924 138.926 92.1122 138.807 92.1335 138.688L90.8869 138.829C88.9753 139.043 87.0628 139.235 85.1377 139.265C84.9097 139.269 84.7343 139.165 84.6197 139.014C84.4976 139.213 84.285 139.355 83.9804 139.354C81.292 139.344 78.7885 138.464 76.3433 137.427C75.1108 136.904 73.8974 136.337 72.6631 135.819C71.511 135.335 70.2793 134.989 69.1549 134.444L66.2005 135.996C66.1788 136.072 66.151 136.144 66.1215 136.205C65.9292 136.598 65.5499 136.811 65.1625 136.972C64.7907 137.126 64.4057 137.174 64.0306 137.135C61.7899 138.311 59.5488 139.485 57.3061 140.657L55.063 141.828C50.5937 144.158 46.1422 146.526 41.6448 148.801L41.3137 148.968C39.7603 149.748 38.0923 150.538 36.3684 151.128C36.3377 151.565 36.3571 151.99 36.3936 152.452L36.4024 152.553C36.4538 153.1 36.564 153.784 36.1262 154.173C35.8984 154.376 35.4916 154.376 35.3367 154.071C35.0557 153.518 35.308 152.646 35.397 152.045C35.4286 151.831 35.4672 151.612 35.5241 151.399C33.5478 151.988 31.5117 152.273 29.5005 151.942C27.5425 151.621 26.0259 150.386 24.8033 148.875C23.5131 147.281 22.5962 145.423 22.1042 143.431C21.5444 141.165 21.5078 138.825 21.521 136.503C21.5349 134.032 21.6263 131.547 21.9265 129.092C21.5975 129.015 21.2327 128.948 20.9002 128.971C20.7355 129.235 20.4161 129.346 20.1275 129.311C19.4998 130.004 21.0919 130.713 21.6007 130.89C21.7773 130.952 21.7584 131.239 21.5546 131.23L21.4263 131.224C20.6401 131.182 19.8279 131.048 19.3657 130.317C18.9953 129.73 19.1066 129.036 19.5481 128.558C19.8398 125.797 20.537 123.108 21.1859 120.415C21.8226 117.772 22.5308 115.145 23.2814 112.532L23.6179 111.362C24.7997 107.265 26.035 103.134 27.6652 99.1994C28.4792 97.2348 29.4169 95.3063 30.6881 93.5932C31.873 91.9963 33.2719 90.6298 34.8799 89.4627C37.8775 87.2868 41.395 85.972 44.851 84.7194L45.0057 84.6634C46.7967 84.0147 48.5833 83.3584 50.3539 82.6555C51.9198 82.034 53.4199 81.246 54.9784 80.6151C54.9278 80.5231 54.8789 80.4301 54.8319 80.336L54.8031 80.3602C54.7981 80.3641 54.7931 80.3679 54.7878 80.3715C54.6311 80.4803 54.4004 80.4268 54.2712 80.3048C53.9065 79.9602 54.03 79.5778 54.2734 79.2205L54.3051 79.175C54.6028 78.7574 54.8684 78.3159 55.1432 77.8831L55.3153 77.6125C55.7766 76.8895 56.2613 76.1617 56.8763 75.5642C57.1612 75.2874 57.473 75.0802 57.8034 74.9259C57.7751 74.866 58.0228 74.7438 58.093 74.8053C59.1398 74.4218 60.344 74.5021 61.4852 74.6079M102.61 137.528L101.155 137.694C99.5536 137.876 97.9519 138.052 96.35 138.227L92.8706 138.606C92.8618 138.804 92.8377 138.998 92.8333 139.148C92.8106 139.922 92.7936 140.695 92.7776 141.469C92.7454 143.019 92.7807 144.571 92.8826 146.118C92.9814 147.618 93.1116 149.117 93.3138 150.607L93.3552 150.904L93.3792 151.061C93.5442 151.077 93.7063 151.155 93.8411 151.317C94.1354 151.668 95.2011 151.326 95.6173 151.178C96.3017 150.934 96.9462 150.522 97.5409 150.109C98.1216 149.706 98.6446 149.235 99.1471 148.74L99.5583 148.333C99.9673 147.926 100.377 147.492 100.627 146.98C100.967 146.286 101.011 145.434 101.111 144.678C101.233 143.748 101.38 142.818 101.534 141.893M60.363 127.767L60.2121 127.806C54.7287 129.265 49.2534 130.767 43.7531 132.162C41.0312 132.852 38.2963 133.492 35.5711 134.169L35.1298 134.279C32.9799 134.823 30.8041 135.478 29.1577 137.039C29.0969 137.097 29.0087 137.009 29.0659 136.947C30.8403 135.056 33.3639 134.256 35.7869 133.562C36.2348 133.433 36.6833 133.308 37.1313 133.18C33.836 132.004 30.4887 130.981 27.0641 130.251C26.1823 130.063 25.2902 129.925 24.4091 129.737C23.7946 129.605 23.1944 129.415 22.5864 129.257L22.1082 129.136L22.1018 130.65C22.0938 132.793 22.0976 134.935 22.2069 137.078L22.2275 137.475C22.355 139.86 22.5539 142.295 23.3992 144.544C24.0862 146.371 25.1811 148.093 26.613 149.424C27.3376 150.098 28.1165 150.622 29.0794 150.881C29.9735 151.121 30.9102 151.149 31.8293 151.085C36.2377 150.777 40.1619 148.379 43.9914 146.394C50.2551 143.147 56.5194 139.902 62.7894 136.667C62.6199 136.551 62.4603 136.417 62.3151 136.267C61.4743 135.398 61.0308 134.207 60.7396 133.055C60.4295 131.828 60.244 130.513 60.2225 129.246M68.341 137.92C68.3964 137.891 68.4605 137.928 68.463 137.991C68.4824 138.47 68.2178 138.943 68.02 139.375L67.9991 139.421C67.7589 139.956 67.4959 140.484 67.2238 141.003C66.6801 142.042 66.1151 143.069 65.5253 144.081C64.3394 146.118 63.0216 148.069 61.4639 149.842C61.112 150.243 60.5334 149.729 60.7592 149.298C61.8478 147.219 63.1168 145.255 64.4231 143.309C65.0771 142.334 65.7306 141.359 66.391 140.389C66.6665 139.984 66.9456 139.581 67.2321 139.184L67.405 138.946M133.375 98.6553C127.872 98.8217 122.376 99.181 116.899 99.7441C111.806 100.268 106.732 100.965 101.686 101.834C100.632 102.015 99.5796 102.204 98.5284 102.4L97.8978 102.519C96.8463 102.719 95.5618 102.801 94.6256 103.363C93.6386 103.956 93.3719 105.195 93.0435 106.217C92.6574 107.419 92.2811 108.624 91.915 109.832C90.4611 114.629 89.133 119.467 87.9482 124.337C87.3601 126.754 86.8383 129.185 86.2885 131.611C85.8 133.767 85.261 135.898 84.6979 138.032C84.7673 137.978 84.8524 137.937 84.9552 137.915C87.7514 137.32 90.6057 137.061 93.4436 136.732L93.7182 136.7C96.6541 136.354 99.5899 136.011 102.528 135.68L121.977 133.49C123.124 133.361 124.353 133.343 125.469 133.035C127.367 132.511 127.812 130.387 128.13 128.695L128.14 128.644C129.1 123.532 129.864 118.376 130.759 113.251M85.1505 132.09C84.3954 132.04 83.362 131.348 82.7891 131.397C83.0898 131.903 83.2255 132.479 83.0522 133.094C82.5698 134.807 80.3884 133.921 79.3376 133.398C78.4761 132.968 77.6442 132.443 76.6904 132.242C75.6099 132.015 74.8779 132.445 73.965 132.941C73.2152 133.348 72.3987 133.641 71.5589 133.792C71.1124 133.873 70.6883 133.881 70.265 133.85C70.2395 133.871 70.2108 133.89 70.178 133.907L69.9541 134.025C70.9667 134.071 71.9981 134.384 72.9404 134.67C73.9169 134.967 74.8756 135.325 75.8291 135.691L76.7672 136.052C79.0811 136.939 81.4762 137.781 83.9804 137.774C84.1604 137.773 84.3079 137.823 84.424 137.905M80.9258 126.724C81.6718 126.633 82.3604 126.731 82.9564 127.217C83.6753 127.803 84.1583 128.776 85.1917 128.84C85.493 128.858 85.563 129.282 85.2636 129.371C84.4943 129.599 83.8715 129.182 83.3474 128.641L82.995 128.273C82.477 127.736 81.9993 127.321 81.1205 127.353C80.1792 127.387 79.2364 127.605 78.3013 127.715C77.242 127.841 76.1829 127.948 75.1203 128.04C75.0709 128.044 75.0625 127.967 75.1088 127.955L76.299 127.659M80.2057 123.671L80.3288 123.658C81.412 123.553 82.4027 123.549 83.3701 124.132L83.5557 124.245C84.4279 124.776 85.3773 125.401 85.9228 126.26C86.012 126.401 85.8646 126.567 85.7152 126.531C84.6669 126.279 83.9005 125.509 83.0189 124.932C82.0295 124.286 81.0074 124.392 79.8793 124.493C78.787 124.59 77.6953 124.724 76.6137 124.906C75.5974 125.077 74.5779 125.347 73.5514 125.433L73.5516 125.431C73.4343 125.431 73.3674 125.255 73.487 125.195C74.5288 124.674 75.7354 124.428 76.8686 124.19M113.113 112.951C113.008 112.449 113.624 112.217 113.91 112.615L113.971 112.699C114.588 113.545 115.48 114.606 115.434 115.682C115.976 115.694 116.539 116.024 116.75 116.514C116.848 116.741 116.881 117.009 116.859 117.287C117.352 117.326 117.889 117.65 118.191 117.965C118.69 118.488 118.73 119.227 118.371 119.838C117.59 121.17 115.884 121.654 114.443 121.763L114.392 121.766C112.903 121.869 110.759 121.841 109.739 120.563C108.755 119.33 109.842 118.332 110.958 117.79C110.668 117.524 110.517 117.144 110.659 116.742C110.907 116.037 111.783 115.764 112.279 115.274C112.882 114.676 113.281 113.855 113.122 112.998M113.931 114.035C113.767 114.749 113.364 115.402 112.802 115.92C112.587 116.118 112.353 116.294 112.103 116.445L112.073 116.463C111.852 116.587 111.307 116.82 111.349 117.1C111.392 117.387 112.279 117.836 112.521 117.836C112.576 117.836 112.607 117.922 112.551 117.947C112.113 118.141 111.73 118.224 111.302 118.019C111.015 118.312 110.737 118.614 110.462 118.914C109.975 119.445 110.142 120.006 110.717 120.401C111.642 121.037 113.047 121.021 114.126 120.975C115.212 120.929 116.373 120.686 117.221 119.962L117.258 119.93C117.719 119.519 118.14 118.824 117.434 118.428C117.157 118.274 116.859 118.283 116.596 118.207C116.351 118.69 115.952 119.076 115.466 119.15C115.073 119.21 114.802 118.716 115.16 118.479L115.24 118.429C115.689 118.143 116.072 117.701 116.062 117.126C116.055 116.726 115.498 116.222 115.135 116.597L115.118 116.615C114.815 116.958 114.28 116.526 114.48 116.146L114.489 116.129M43.1126 94.1784C43.1113 94.0926 43.2318 94.0605 43.2738 94.1348C43.9787 95.3763 44.3471 96.8982 44.7226 98.266C45.1158 99.6989 45.4333 101.146 45.7185 102.604C46.2961 105.557 46.6039 108.492 46.6247 111.501C46.6276 111.931 45.9286 112.045 45.8602 111.605C45.4062 108.678 44.9712 105.748 44.5137 102.822C44.2836 101.35 44.0157 99.8839 43.7593 98.4165M50.0902 96.3409C50.0383 96.1697 50.2872 96.1124 50.3508 96.269C51.7653 99.7454 52.2444 103.685 51.3362 107.353C51.1973 107.914 50.3766 107.671 50.4814 107.117M68.3354 93.2519C68.3282 93.1238 68.4944 93.1035 68.557 93.1918C69.2272 94.1373 69.5053 95.4035 70.6811 95.8921C71.2682 96.1361 71.9289 96.0936 72.4476 96.5057C72.7943 96.7813 73.0603 97.2163 72.8 97.6337C72.716 97.7686 72.481 97.8361 72.3671 97.6896C72.2008 97.4761 72.1128 97.2205 71.8869 97.0605C71.5683 96.8347 71.1386 96.8208 70.7733 96.7147C70.3007 96.5775 69.8842 96.3375 69.5431 95.9808M79.5324 77.4819C79.6015 77.4467 79.6678 77.4692 79.712 77.5291C79.7751 77.6143 79.7673 77.6972 79.6901 77.7556C79.7933 77.9668 79.9152 78.4958 79.9326 78.5728C80.0032 78.885 80.0782 79.1954 80.1568 79.5055C80.3152 80.1309 80.454 80.7612 80.6126 81.3869C80.7807 82.0501 80.981 82.7063 81.204 83.353C81.2183 83.3948 81.2341 83.4376 81.2507 83.481L81.2761 83.5465L81.2824 83.5366C81.3277 83.4649 81.422 83.515 81.4108 83.5907C81.4005 83.6597 81.3865 83.7284 81.3747 83.7975L81.3981 83.8593C81.5439 84.2523 81.6438 84.6661 81.3762 85.0128C81.2761 85.1425 81.166 85.2193 81.0288 85.2421C80.8088 85.9684 80.5327 86.6811 80.2371 87.3655L80.1505 87.5654C79.7158 88.5642 79.2521 89.5498 78.5599 90.4001C77.8041 91.3284 76.7645 91.9622 76.1061 92.9794C75.7999 93.4526 75.5868 93.9501 75.4138 94.4845L75.3487 94.6873C75.2259 95.0652 75.0843 95.4316 74.7302 95.6533C74.6172 95.7239 74.4479 95.7014 74.3568 95.605C73.6306 94.8359 74.3908 93.3998 74.8287 92.6552C75.4373 91.6198 76.3182 90.9574 77.2003 90.1762C78.1511 89.3341 78.7575 88.2077 79.3441 87.098C79.7034 86.4182 80.0503 85.7237 80.4155 85.0409C80.034 84.7032 79.9118 84.0325 79.7826 83.5663L79.7708 83.5245C79.5571 82.778 79.3874 82.012 79.2801 81.2427C79.1769 80.503 79.1339 79.7739 79.1612 79.0301L79.169 78.8406M80.9511 81.0025C80.8668 80.8868 81.0063 80.7558 81.122 80.7799C81.8252 80.9255 82.5128 81.3517 83.1439 81.6963L83.2113 81.7329C83.7151 82.005 84.2221 82.3382 84.4866 82.8666C84.7743 83.441 84.7506 84.1025 84.7114 84.7267L84.7077 84.7851C84.6596 85.5336 84.6518 86.3114 84.4936 87.0464C84.4127 87.4226 84.0724 87.5286 83.7814 87.4396C83.4353 88.5341 82.4628 89.3405 81.7524 90.2041C80.8467 91.3051 81.0172 92.7917 81.1119 94.1177C81.1501 94.6546 80.4831 94.8073 80.1396 94.5208L79.3479 93.8624C79.2161 93.7525 79.0844 93.6424 78.9531 93.5319C78.8406 93.4371 78.7292 93.3417 78.6187 93.245L78.4536 93.099C78.3803 93.0334 78.0573 92.6722 77.9629 92.6572C77.7341 92.6208 77.1907 93.2244 77.0047 93.4137L76.9811 93.4373C76.631 93.7811 76.3147 94.1509 76.02 94.5431C75.9658 94.6151 75.8599 94.5553 75.8986 94.4721C76.1626 93.9059 76.4696 93.3645 76.8341 92.8578L76.9077 92.7569C77.1503 92.4297 77.4758 91.8519 77.9039 91.7553C78.4265 91.6374 78.9484 92.1622 79.3287 92.4535L79.3528 92.4717C79.5337 92.6076 79.7126 92.746 79.8911 92.8852C79.8724 91.8979 79.997 90.9003 80.5061 90.0495C80.8651 89.4495 81.4029 89.0051 81.8631 88.4894C82.3755 87.9152 82.643 87.2095 83.1068 86.6116C83.1666 86.5347 83.2489 86.4932 83.338 86.4801C83.3559 85.9993 83.4266 85.5138 83.4812 85.0383L83.4971 84.896C83.5523 84.3793 83.6828 83.7482 83.4302 83.2643C83.1915 82.8072 82.6439 82.4846 82.2384 82.1745L81.9073 81.9174M58.1282 75.5392C57.9165 75.6618 57.7186 75.8143 57.539 76.0049C56.9739 76.6052 56.5698 77.3522 56.1766 78.0709C55.9649 78.4579 55.7607 78.8492 55.5473 79.2353C55.4545 79.4033 55.359 79.5694 55.2625 79.7353C55.2178 79.8118 55.0852 79.9637 55.0195 80.0574C55.0925 80.1598 55.168 80.2607 55.2451 80.3605C55.2745 80.3986 57.3018 82.6098 58.0085 83.4752C59.0906 84.8008 60.0579 86.201 60.8849 87.6996C61.6946 89.1673 62.3111 90.7211 63.0612 92.2171C63.4367 92.9661 63.856 93.7098 64.3905 94.358C64.4111 94.3833 64.4329 94.4072 64.454 94.4321C64.658 93.8803 65.1807 93.2896 65.4374 92.9503L65.4614 92.9183C66.0437 92.1325 66.6585 91.3703 67.2868 90.6211C67.8606 89.937 68.449 89.2676 69.0516 88.6093L69.2783 88.363C69.6982 87.9089 70.2315 87.2294 70.8462 86.9049C70.7803 86.7874 70.7041 86.6711 70.6164 86.5564C70.0406 85.8029 69.2265 85.2561 68.4232 84.7627L67.9023 84.4454C65.9387 83.2473 64.0057 81.9937 62.3009 80.437C61.3991 79.6133 60.5096 78.7505 59.7515 77.7897L59.4834 77.45M61.4046 74.9461C60.485 75.0233 59.4921 75.0049 58.6423 75.3049C59.3977 76.02 60.1158 76.792 60.8535 77.5191C60.9191 77.0273 61.0533 76.5416 61.167 76.0621" fill="black"/>
<path fill-rule="evenodd" clip-rule="evenodd" d="M92.4263 37.392C92.3876 36.0113 90.3861 35.4381 89.8079 36.8055C89.772 36.8421 89.733 36.8773 89.6964 36.9088C89.8774 36.753 89.4989 37.0108 89.4373 37.0426C89.3846 37.0699 89.3308 37.0945 89.2771 37.1199C88.9051 33.6221 87.6425 29.8514 84.38 28.0957C79.8295 25.8817 74.5714 25.4495 69.5792 25.6695C67.0502 25.82 64.1299 26.2258 61.8831 24.9421C61.183 24.5421 60.6218 23.9125 59.8306 23.6653C57.3332 22.9875 56.2004 25.5606 56.5406 27.6766C55.4753 27.6851 54.4186 28.2768 53.9589 29.251C53.6889 29.8276 53.6936 30.4499 53.4608 31.0285C52.7466 32.496 51.7246 33.5509 52.3024 35.3301C51.2862 36.4904 51.8656 38.2469 52.6856 39.3577C53.0905 39.9355 53.5728 40.4901 53.8695 41.1368C54.1574 41.756 53.7228 42.4904 53.4809 43.0774C51.6926 47.3319 51.7948 52.0174 52.7571 56.4552C50.8261 57.2959 50.2466 59.9238 51.5057 61.5784C51.939 62.1633 52.4675 62.3804 53.067 62.7403C53.8255 63.1592 53.206 64.837 53.4489 65.6473C53.7789 67.6255 55.5741 68.8437 57.3491 67.5591C58.4754 67.3881 59.3839 70.6763 60.2019 71.5016C60.7058 72.1667 61.2653 72.7638 61.8735 73.3149C63.6859 77.9939 72.9731 80.3666 77.5647 80.0958C82.3731 79.5906 85.6169 75.4934 88.3179 71.8571C89.7049 69.9196 90.607 67.751 90.935 65.3858C91.2646 63.0087 91.1204 60.6274 90.8976 58.2474C90.4296 53.1907 89.6913 45.9057 89.2146 40.7944C90.9374 40.652 92.4785 39.1802 92.4263 37.392Z" fill="#EEC1A2"/>
<path fill-rule="evenodd" clip-rule="evenodd" d="M58.0771 24.3382C58.4118 24.007 58.96 24.3469 59.3227 24.613L59.4029 24.6728L59.6328 24.8481C60.1539 25.2512 60.6415 25.6893 61.2045 26.0379C61.8188 26.4187 62.486 26.7214 63.1637 26.9697C64.4778 27.451 65.8915 27.6671 67.2847 27.7353C72.985 28.0145 79.6196 25.0094 84.7932 28.5979C86.0195 29.4485 86.8659 30.6922 87.3026 32.1147C87.7951 33.7188 87.6264 35.38 88.0294 36.9896C88.2043 37.6883 89.4092 37.7852 89.5438 37.0174L89.5526 36.9579L89.6581 36.8916L89.6998 36.8667C89.7426 36.842 89.7621 36.8349 89.725 36.8696L89.7168 36.8771L89.7332 36.8628C89.7457 36.8516 89.7583 36.84 89.7708 36.8282L89.8075 36.7921C90.0644 36.1848 90.602 35.9603 91.1237 36.0194L91.109 36.0555L90.9536 36.4571L90.9042 36.5831C90.7215 37.0431 90.5204 37.4786 90.173 37.8728C89.6812 38.4306 89.0697 38.8852 88.3808 39.165C88.2391 39.2225 88.2604 39.4152 88.4167 39.4308C89.9557 39.5845 91.6893 38.6464 92.4131 37.2246C92.4201 37.2747 92.4244 37.3261 92.4259 37.3787C92.431 37.5519 92.4211 37.7221 92.3975 37.8885C92.3119 37.9205 92.2289 37.9679 92.1519 38.0321C91.6521 38.4488 91.4067 39.1299 90.9367 39.5948C90.4442 40.082 89.8397 40.5338 89.1833 40.7601C89.173 40.7637 89.1644 40.7689 89.1568 40.7747C89.1074 40.5863 89.055 40.3989 88.9952 40.2144C88.9717 40.1419 88.8754 40.16 88.8681 40.2317C88.8549 40.3597 87.0495 39.071 85.659 39.2792C83.045 39.6706 82.4414 41.2019 78.6855 40.9758C76.8525 40.8654 72.9813 39.1425 69.5947 39.013C66.5225 38.8955 61.0319 40.6548 59.5833 41.6686C58.8302 42.1956 60.9568 43.9359 60.5716 44.7271C59.479 46.9715 59.9216 49.9405 58.7792 51.7152L58.735 51.782C58.0034 52.8606 58.4602 55.7308 58.1752 56.6156C57.6607 58.2132 56.8088 57.5135 56.9374 57.7276C56.9782 57.7953 57.087 57.7514 57.0656 57.6733C56.7144 56.3919 55.7532 55.4243 54.5311 55.0712C54.584 54.7674 54.4878 54.3861 54.2996 54.1369L54.2225 53.7764L54.1514 53.4388C53.9877 52.6515 53.8412 51.8649 53.7623 51.056C53.6441 49.843 53.64 48.6209 53.7177 47.4049C53.8195 45.8071 54.1475 44.2677 54.5082 42.7294L54.5469 42.5646L54.8305 41.3684C55.5394 41.5707 56.2667 41.6985 56.9735 41.7619C57.7966 41.8356 58.6114 41.8288 59.4199 41.7635C60.1365 43.7166 60.1092 45.9404 59.2237 47.8478C58.1877 50.0791 55.6485 52.2104 56.3455 54.9162C56.6494 56.0957 58.4276 55.8549 58.4697 54.6639L58.4704 54.6275C58.4771 53.4507 58.8758 52.4816 59.4025 51.4701L59.4751 51.3319L59.5954 51.1064C60.226 49.9233 60.7599 48.7558 60.9374 47.4098C61.1951 45.4545 60.7912 43.4354 59.8261 41.7259C63.2639 41.3661 66.5913 40.0006 69.948 39.267L70.1019 39.2339L70.2566 39.202C72.7364 38.7002 75.4696 38.641 77.7176 39.9509C77.7606 39.9759 77.7945 39.9134 77.7557 39.8855C74.4927 37.5242 70.2667 37.8594 66.5251 38.6915L66.3096 38.74L66.0979 38.7886C62.6371 39.5906 59.0113 40.7686 55.4737 39.7309C54.5541 39.4612 53.6617 39.0181 52.9418 38.3765L52.8816 38.3225C52.5773 38.0468 52.2298 37.6901 52.1712 37.2716C52.1506 37.1243 52.157 37.0233 52.2437 36.9067C52.3339 36.7853 52.4915 36.7858 52.4009 36.742C53.4605 37.2544 54.3688 35.782 53.3736 35.144L53.3033 35.1005C52.0299 34.2911 52.6661 32.449 54.1269 32.4576L54.2016 32.4589C55.0289 32.4614 55.2824 31.4809 54.8374 30.907L54.7947 30.8535C53.9713 29.7895 55.3573 28.506 56.4357 29.1075L56.4947 29.1416C57.0066 29.4256 57.5448 29.1094 57.7384 28.6078C58.1539 27.5316 57.9413 26.4204 57.9168 25.3065L57.9154 25.2339L57.9137 25.1127L57.9134 25.017L57.9143 24.9536C57.9196 24.7188 57.9499 24.4641 58.0771 24.3382ZM89.1959 40.9279L89.2062 40.9302L89.2284 40.9312L89.2485 41.148L89.2227 41.0379L89.1959 40.9279ZM53.8449 41.0719L53.8201 41.021L53.9006 41.0536L53.8618 41.1081L53.8449 41.0719ZM76.4172 34.8786C76.3315 34.8541 76.2697 34.988 76.3549 35.027C78.4716 35.9985 80.0772 37.5489 81.3303 39.4916C81.4491 39.6755 81.6282 39.7294 81.8344 39.6973C81.9357 39.6816 81.9925 39.6323 82.0465 39.5647L82.06 39.5474L82.1012 39.4916C82.1906 39.3685 82.1787 39.1638 82.1012 39.0394C80.8292 37.0012 78.7004 35.5328 76.4172 34.8786ZM81.4559 34.2423C81.3628 34.2426 81.3132 34.3856 81.3844 34.4463C81.9922 34.9654 82.5857 35.5407 83.0174 36.2199C83.227 36.5495 83.4022 36.901 83.529 37.2711C83.6672 37.675 83.712 38.0937 83.9093 38.4756C84.24 39.1157 85.1263 38.7582 85.1709 38.1327C85.2382 37.1893 84.4528 36.1284 83.8305 35.4856C83.199 34.8331 82.4245 34.3832 81.5308 34.2517L81.4683 34.2431L81.4559 34.2423ZM58.1237 33.5038C57.8642 33.438 57.652 33.7703 57.856 33.9651C58.9766 35.0362 60.4911 35.533 61.999 35.75L62.0756 35.7608C63.4875 35.955 65.5408 36.0651 66.6054 34.913C66.8308 34.669 66.7602 34.2014 66.3984 34.126C65.9029 34.0227 65.3943 34.0608 64.8917 34.1229L64.7483 34.1412L64.3918 34.1887C63.6878 34.2809 62.9811 34.3372 62.2705 34.3163C60.8476 34.2742 59.4922 33.8514 58.1237 33.5038ZM82.7829 30.0956C82.6338 30.0377 82.4761 30.2435 82.5698 30.3738C82.9991 30.9712 83.5136 31.4937 83.9533 32.082C84.3945 32.6721 84.763 33.2922 85.285 33.8172C85.565 34.0989 86.042 33.8124 85.9431 33.4328C85.5684 31.9962 84.143 30.623 82.7829 30.0956ZM60.4429 30.744C60.2862 30.6884 60.1764 30.9061 60.2855 31.0155C61.7303 32.4629 64.3298 33.221 66.2438 32.3849C66.6745 32.1967 66.4106 31.5919 66.0232 31.568C65.0654 31.5088 64.1036 31.6199 63.1508 31.4737C62.2205 31.3309 61.3284 31.0586 60.4429 30.744ZM62.8718 28.8039C62.6648 28.7174 62.5783 29.0273 62.7304 29.1402C63.5479 29.7466 64.5513 30.0095 65.5517 29.7912C65.8774 29.72 65.8071 29.193 65.4728 29.2065C64.5679 29.2427 63.7151 29.1561 62.8718 28.8039ZM69.5788 25.6561C70.8175 25.6016 72.0726 25.5871 73.3291 25.6301L72.7716 25.7044L72.3998 25.7531C70.9745 25.9375 69.547 26.0935 68.108 26.0872C67.1354 26.0829 66.1641 26.0043 65.2144 25.8119C66.6691 25.9 68.1835 25.7392 69.5788 25.6561Z" fill="#863D3D"/>
<path fill-rule="evenodd" clip-rule="evenodd" d="M54.8676 34.3513C54.866 34.3585 54.8684 34.3639 54.87 34.3715C54.8704 34.3693 54.8707 34.3682 54.8713 34.3655C54.8699 34.3598 54.8689 34.356 54.8676 34.3513Z" fill="#4F66AF"/>
<path fill-rule="evenodd" clip-rule="evenodd" d="M54.8671 34.4253C54.8608 34.4186 54.8518 34.4136 54.8429 34.4069C54.8426 34.4072 54.8425 34.4074 54.8424 34.4076C54.8508 34.4132 54.8589 34.4195 54.8671 34.4253Z" fill="#4F66AF"/>
<path fill-rule="evenodd" clip-rule="evenodd" d="M92.1522 38.0454C92.7182 37.5736 93.6097 38.008 93.4179 38.7847C93.2093 39.6305 92.3058 40.2085 91.5598 40.5561C90.7921 40.9137 90.0442 40.9826 89.2066 40.9436L89.1962 40.9412C89.4288 41.8768 89.5607 42.8493 89.7386 43.7906C89.9643 44.9847 90.1864 46.1793 90.4052 47.3746C90.6168 48.5299 90.8844 49.6866 91.047 50.8477C91.2109 52.0197 91.3684 53.1926 91.5295 54.365C91.7983 56.3231 92.0153 58.2901 92.2442 60.2538L92.3532 61.1833C92.5824 63.1507 92.7669 65.1205 92.3326 67.0784C91.9255 68.9133 91.0086 70.6248 89.9451 72.1565C88.9036 73.6563 87.7401 75.0984 86.4629 76.403C83.9993 78.919 80.9613 80.9341 77.3991 81.3079C75.8653 81.4688 74.2271 81.2897 72.7851 80.7303L72.6894 80.6928C71.2297 80.1146 69.4422 79.1245 69.0623 77.4998C68.829 76.5031 69.8526 75.725 70.75 76.198C71.1659 76.4171 71.4785 76.6675 71.8199 76.9815L71.8804 77.0376C72.1594 77.2975 72.2667 77.3774 72.5886 77.5807C73.2488 77.9974 73.7436 78.1946 74.4934 78.384C75.8759 78.7329 77.3679 78.6777 78.7714 78.265C81.7511 77.3889 84.0627 75.1028 86.043 72.8106C87.1182 71.5658 88.1388 70.2601 88.9259 68.8093C89.7518 67.2872 90.133 65.6892 90.1101 63.9573C90.0843 62.0031 89.8151 60.0413 89.6385 58.0964C89.4585 56.1136 89.2921 54.1315 89.1455 52.1459C89.0082 50.2839 88.9949 48.4135 88.9469 46.5457L88.9374 46.1955C88.9092 45.2039 88.8897 44.212 88.8672 43.2202C88.845 42.2313 88.767 41.2298 88.8685 40.245C88.8758 40.1733 88.9721 40.1552 88.9955 40.2277C89.0554 40.4122 89.1077 40.5996 89.1572 40.788C89.1648 40.7823 89.1733 40.7771 89.1837 40.7735C89.8401 40.5472 90.4445 40.0954 90.9371 39.6082C91.407 39.1432 91.6525 38.4621 92.1522 38.0454ZM56.2404 24.1905C56.6527 22.4914 58.5082 22.1119 59.8802 22.9301C60.5402 23.3236 61.0686 23.8911 61.685 24.3421C62.2979 24.7905 62.9752 25.1507 63.69 25.405C65.1099 25.9103 66.6077 26.094 68.1083 26.1006C71.7608 26.1166 75.3385 25.0867 78.9964 25.2016C81.8267 25.2905 84.8308 26.1298 86.8839 28.1826C87.9898 29.2885 88.7025 30.7103 89.0848 32.2197C89.2634 32.9251 89.3966 33.6477 89.5016 34.3686L89.5273 34.5488C89.5861 34.9701 89.6805 35.4161 89.6892 35.8419C89.6972 36.2243 89.6007 36.6245 89.5485 37.003C89.4384 37.8008 88.2067 37.7099 88.0298 37.003C87.6268 35.3933 87.7955 33.7321 87.3029 32.128C86.8662 30.7056 86.0199 29.4618 84.7935 28.6112C79.6199 25.0227 72.9854 28.0278 67.2851 27.7486C65.8919 27.6804 64.4782 27.4644 63.1641 26.983C62.4864 26.7348 61.8192 26.432 61.2048 26.0513C60.6419 25.7026 60.1542 25.2645 59.6331 24.8614L59.4032 24.6861C59.046 24.4165 58.4379 23.9949 58.0775 24.3516C57.9206 24.5068 57.9111 24.8579 57.914 25.126L57.9158 25.2472C57.9321 26.3854 58.1633 27.5215 57.7388 28.6212C57.5451 29.1227 57.007 29.439 56.4951 29.1549L56.4686 29.1397C55.3859 28.4934 53.9634 29.792 54.7951 30.8668L54.821 30.8993C55.289 31.4699 55.0395 32.4748 54.2019 32.4723L54.1718 32.4717C52.6795 32.425 52.0174 34.2962 53.3037 35.1138L53.3432 35.1383C54.3875 35.7654 53.4715 37.2729 52.4012 36.7553C52.4919 36.7992 52.3343 36.7986 52.244 36.9201C52.1574 37.0367 52.151 37.1376 52.1716 37.2849C52.234 37.7313 52.6253 38.1075 52.9422 38.3899C53.6621 39.0315 54.5545 39.4745 55.474 39.7442C59.1576 40.8247 62.9366 39.503 66.5255 38.7048C70.2671 37.8727 74.4931 37.5375 77.7561 39.8988C77.7949 39.9268 77.7609 39.9892 77.718 39.9643C75.3763 38.5998 72.5082 38.7209 69.9484 39.2803C66.5917 40.0139 63.2643 41.3795 59.8265 41.7393C60.7916 43.4487 61.1955 45.4678 60.9377 47.4231C60.7603 48.7691 60.2264 49.9366 59.5958 51.1198L59.4755 51.3453C58.9132 52.4073 58.4777 53.4105 58.4708 54.6409C58.464 55.8632 56.6529 56.1209 56.3458 54.9295C55.6488 52.2237 58.1881 50.0924 59.2241 47.8612C60.1096 45.9538 60.1368 43.7299 59.4203 41.7769C58.6118 41.8421 57.7969 41.8489 56.9739 41.7753C56.267 41.7119 55.5398 41.5841 54.8309 41.3818L54.5473 42.5779C54.1716 44.1712 53.8235 45.7634 53.718 47.4183C53.6404 48.6343 53.6445 49.8563 53.7627 51.0693C53.8649 52.117 54.0805 53.1274 54.3 54.1503C54.4882 54.3994 54.5844 54.7808 54.5315 55.0846C55.7536 55.4376 56.7148 56.4052 57.066 57.6867C57.0874 57.7647 56.9785 57.8086 56.9378 57.741C56.1045 56.3538 53.9589 55.8434 52.6016 56.7598C51.3054 57.6347 50.7941 59.4013 51.5278 60.7997C51.9138 61.535 52.486 62.0517 53.2238 62.4076L53.3721 62.4775C53.7588 62.661 54.1137 62.8611 54.3623 63.2298C54.6849 63.708 54.6957 64.2136 54.6653 64.7601L54.6521 64.9815C54.6317 65.3478 54.6271 65.7249 54.7359 66.0773L54.7606 66.1556C54.7892 66.2435 54.8194 66.321 54.8718 66.4049C54.8874 66.4299 55.0342 66.5744 55.0821 66.6267L55.1424 66.645L55.2098 66.6478C55.2846 66.6489 55.383 66.6164 55.3507 66.6389L55.3595 66.6339C55.3879 66.6162 55.414 66.5974 55.436 66.5807L55.4777 66.548C55.5754 66.4063 55.6979 66.2893 55.848 66.2L55.9915 66.1359C56.3643 65.7411 57.0029 65.9485 57.2701 66.3419C57.4624 66.6248 57.5659 66.9124 57.5744 67.1961C57.6044 67.1477 57.6711 67.1213 57.7136 67.1754L57.967 67.4993C58.9363 68.742 59.8889 69.9924 60.9903 71.1252C61.5971 71.7494 62.2498 72.3359 62.9321 72.8761C63.5146 73.3374 64.6195 73.7812 64.6364 74.6214C64.6417 74.8941 64.4488 75.0873 64.2126 75.1799C63.4441 75.4811 62.4944 74.4565 61.9393 73.958L61.894 73.9177C61.2146 73.3206 60.5946 72.6653 60.0224 71.9645C58.9112 70.6031 57.982 69.0362 57.5724 67.3125C57.5532 67.6132 57.4245 67.908 57.1741 68.1861C56.8408 68.5563 56.3845 68.8159 55.8972 68.9228C54.793 69.1649 53.715 68.7662 53.0581 67.8431C52.5028 67.0627 52.3393 66.0322 52.411 65.0894L52.4198 64.9763C52.4299 64.8251 52.4427 64.5476 52.4817 64.4295L52.134 64.238C51.7078 64.0104 51.3128 63.7121 50.9582 63.3842C49.5333 62.0661 48.8183 59.924 49.4697 58.0495C49.8772 56.8769 50.7335 55.8565 51.8299 55.3262C51.6466 54.9013 51.5854 54.3966 51.5162 53.9501L51.5046 53.8763C51.3873 53.1438 51.2892 52.4021 51.2518 51.6608C51.1818 50.2765 51.2668 48.8792 51.4836 47.5109C51.8358 45.2884 52.5648 42.9314 53.901 41.0669C52.8816 40.6607 51.9432 40.0727 51.219 39.2562C50.4621 38.4029 49.9796 37.1814 50.5649 36.0978C50.714 35.8216 50.9084 35.5894 51.1317 35.405C50.7444 34.6711 50.6191 33.8038 50.8581 32.9748C51.1437 31.9837 51.9192 31.2107 52.856 30.8498C52.6285 29.9107 52.8145 28.9007 53.5096 28.1181C54.1991 27.3417 55.2699 27.059 56.2609 27.2364C56.3147 26.2377 56.0013 25.1755 56.2404 24.1905ZM53.4608 59.2556C54.3695 58.8095 55.4463 58.8804 56.3539 59.3032L56.4154 59.3325C57.4063 59.8146 58.7187 60.941 58.4037 62.139C58.2194 62.8396 57.4435 63.0789 56.8419 62.7765C56.3394 62.5237 56.2248 62.0719 55.9727 61.6181C55.7944 61.2971 55.574 61.0462 55.3152 60.7881C54.7697 60.2444 54.1569 59.8406 53.4608 59.5174C53.3605 59.4707 53.3639 59.3033 53.4608 59.2556ZM76.3552 35.0403C76.2701 35.0013 76.3319 34.8675 76.4176 34.892C78.7008 35.5462 80.8295 37.0146 82.1016 39.0528C82.1791 39.1771 82.191 39.3818 82.1016 39.5049L82.0604 39.5608C82.002 39.6372 81.9445 39.6936 81.8348 39.7107C81.6286 39.7428 81.4494 39.6889 81.3307 39.5049C80.0775 37.5622 78.472 36.0118 76.3552 35.0403ZM91.6399 35.425C91.8334 35.0963 92.3463 35.1625 92.4483 35.531L92.4631 35.5631C92.5182 35.6887 92.4932 35.7144 92.3903 35.6433C92.6449 35.8537 92.7601 36.1671 92.6823 36.504C92.262 38.3236 90.2078 39.623 88.4171 39.4442C88.2608 39.4286 88.2395 39.2359 88.3812 39.1784C89.0701 38.8985 89.6816 38.4439 90.1733 37.8862C90.6512 37.344 90.8523 36.7236 91.1093 36.0688C91.2058 35.823 91.3558 35.646 91.5672 35.5494C91.5952 35.5106 91.6196 35.4692 91.6399 35.425ZM81.4562 34.2556L81.4686 34.2564C82.3888 34.3757 83.1847 34.8313 83.8309 35.4989C84.4532 36.1418 85.2385 37.2026 85.1712 38.146C85.1267 38.7715 84.2404 39.1291 83.9097 38.489C83.7123 38.107 83.6676 37.6884 83.5294 37.2845C83.4025 36.9143 83.2274 36.5629 83.0177 36.2332C82.5861 35.5541 81.9926 34.9788 81.3847 34.4596C81.3136 34.3989 81.3632 34.256 81.4562 34.2556ZM57.8564 33.9785C57.6523 33.7836 57.8645 33.4513 58.124 33.5171C59.4926 33.8648 60.8479 34.2876 62.2708 34.3296C62.9815 34.3505 63.6882 34.2943 64.3922 34.202L64.7487 34.1545C65.2976 34.0826 65.8561 34.0262 66.3987 34.1393C66.7605 34.2147 66.8312 34.6823 66.6058 34.9263C65.5412 36.0785 63.4878 35.9683 62.076 35.7741C60.5429 35.5631 58.9959 35.0677 57.8564 33.9785ZM82.5702 30.3872C82.4765 30.2568 82.6341 30.0511 82.7833 30.1089C84.1433 30.6363 85.5688 32.0095 85.9434 33.4462C86.0424 33.8257 85.5654 34.1123 85.2853 33.8305C84.7634 33.3056 84.3949 32.6854 83.9537 32.0953C83.514 31.507 82.9995 30.9846 82.5702 30.3872ZM60.2858 31.0288C60.1768 30.9195 60.2865 30.7017 60.4433 30.7574C61.3288 31.072 62.2209 31.3442 63.1512 31.4871C64.104 31.6332 65.0658 31.5222 66.0235 31.5814C66.411 31.6053 66.6748 32.2101 66.2441 32.3983C64.3302 33.2343 61.7307 32.4762 60.2858 31.0288ZM62.7308 29.1535C62.5786 29.0406 62.6652 28.7307 62.8722 28.8172C63.7155 29.1695 64.5683 29.2561 65.4732 29.2198C65.8075 29.2063 65.8778 29.7334 65.552 29.8045C64.5517 30.0228 63.5483 29.7599 62.7308 29.1535Z" fill="black"/>
<path fill-rule="evenodd" clip-rule="evenodd" d="M67.6446 61.612C68.0456 60.7055 69.8513 59.2979 69.8513 59.2979C69.8513 59.2979 70.3993 62.4126 69.9743 63.3731C69.624 64.165 68.3623 65.5942 67.437 65.1923C66.5118 64.7905 66.9853 63.1021 67.6446 61.612Z" fill="white"/>
<path fill-rule="evenodd" clip-rule="evenodd" d="M90.0912 60.7917C89.7615 60.0256 88.2773 58.8359 88.2773 58.8359C88.2773 58.8359 87.8268 61.4683 88.1761 62.2801C88.4642 62.9494 89.5013 64.1572 90.2618 63.8175C91.0224 63.4779 90.6332 62.051 90.0912 60.7917Z" fill="white"/>
<path fill-rule="evenodd" clip-rule="evenodd" d="M74.7201 65.2617H84.8491L85.4552 66.9377C85.4552 66.9377 77.8966 68.6941 75.2425 67.5635L74.7201 65.2617Z" fill="white"/>
<path fill-rule="evenodd" clip-rule="evenodd" d="M82.1919 62.007C83.1287 60.6931 81.8018 59.4573 80.931 58.9274C80.7029 58.7634 80.884 58.2203 81.3715 58.3043C85.7993 59.0659 83.5051 66.7025 77.8518 62.5119C77.1787 61.9683 77.9938 60.7709 78.7192 61.2364C78.7554 61.2642 78.7932 61.2935 78.8327 61.324L78.8337 61.3248L78.8344 61.3253L78.8348 61.3257C79.6498 61.9566 81.1411 63.111 82.1919 62.007ZM73.2799 48.7825L73.0634 48.8204C72.3627 48.9423 71.6697 49.2081 71.0363 49.5285C69.8497 50.1288 68.6651 51.1135 68.0538 52.3124C67.9875 52.4425 68.1293 52.6204 68.2683 52.5271C69.3272 51.8159 70.3375 51.1682 71.5774 50.8133C72.1426 50.6516 72.7065 50.5544 73.2932 50.5207C73.4751 50.5102 73.6534 50.5147 73.828 50.519C74.3367 50.5316 74.8138 50.5435 75.2561 50.185C75.5939 49.9114 75.5074 49.38 75.2561 49.0941C74.7823 48.555 73.9496 48.6665 73.2799 48.7825ZM84.8305 48.3173L84.6648 48.2834C84.47 48.2443 84.274 48.2608 84.1019 48.3309C83.933 48.3997 83.786 48.5195 83.6832 48.6923C83.5465 48.9224 83.5283 49.1155 83.5917 49.3706C83.6406 49.5676 83.748 49.7159 83.8884 49.823C84.0364 49.9358 84.224 50.0017 84.4188 50.0246C85.3177 50.1303 86.2028 50.3282 87.0633 50.6092C87.4665 50.741 87.847 50.9194 88.2241 51.1045L88.5492 51.2649C88.849 51.4117 89.1587 51.5532 89.5501 51.6559C89.5809 51.664 89.6113 51.6716 89.6414 51.6788C89.7371 51.6487 89.7628 51.613 89.7833 51.5844L89.7914 51.5733L89.8007 51.5616C89.8287 51.5265 89.8631 51.4728 89.8305 51.222C88.9766 49.4486 86.6338 48.6947 84.8305 48.3173ZM75.4495 57.0404C75.0991 57.2453 74.7247 57.146 74.4262 56.9082C74.2416 56.7612 74.1016 56.5732 73.9612 56.3847C73.7966 56.1638 73.6317 55.9423 73.3939 55.7856C73.0212 55.5399 72.5217 55.527 72.0932 55.598C71.4498 55.7046 70.8944 56.0085 70.3374 56.3133L70.3373 56.3133C70.0219 56.4859 69.7059 56.6588 69.3732 56.7964C69.2441 56.8497 69.1686 56.684 69.212 56.5864C69.7694 55.3321 70.9333 54.2133 72.3178 53.9892C73.7656 53.7548 75.3319 54.7095 75.8374 56.0857C75.9649 56.4329 75.7531 56.8629 75.4495 57.0404ZM89.2048 55.5784C89.2347 55.5895 89.2648 55.5558 89.256 55.5272C88.89 54.3349 87.5112 53.833 86.354 53.9324C85.6379 53.994 84.9796 54.2562 84.4367 54.7349C83.9189 55.1915 83.5157 56.0556 83.9843 56.6874C84.4662 57.337 85.4554 57.127 85.5118 56.2733C85.5483 55.7196 86.4997 55.378 86.9818 55.2928C87.7303 55.1606 88.5046 55.3185 89.2048 55.5784ZM75.8018 67.0142C76.1408 67.1486 79.0076 67.2806 80.7004 67.2032C81.8548 67.1513 84.8491 66.4507 84.8491 66.1501C84.8491 65.8495 84.7215 65.5779 84.612 65.5893C84.1665 65.6375 80.6187 65.6766 78.1206 65.7041H78.1205C77.0167 65.7163 76.1179 65.7262 75.7822 65.7337C75.6173 65.7372 75.4443 65.7337 75.269 65.729C75.1476 66.1052 75.4627 66.8797 75.8018 67.0142ZM81.5409 64.8265H81.541H81.541C82.8737 64.8149 84.492 64.8009 85.6452 64.869C86.0569 64.8932 86.2599 65.4821 86.2887 65.7615C86.562 68.3582 84.4909 70.4295 82.2042 71.232C80.0823 71.9767 77.2801 72.1175 75.3878 70.7263C74.5656 70.1224 73.9429 69.2853 73.5369 68.3536C73.3178 67.8513 73.1576 67.3306 73.0688 66.7902C73.0603 66.7391 73.0509 66.6858 73.0413 66.6308C72.973 66.2426 72.8903 65.7724 73.0226 65.4174C73.2143 64.9067 73.7217 64.9011 74.1878 64.8959C74.2265 64.8955 74.2648 64.8951 74.3026 64.8944C74.4903 64.8906 74.6779 64.8865 74.8656 64.8824C75.3605 64.8716 75.8553 64.8609 76.3495 64.8551C77.4131 64.843 78.4767 64.8399 79.5399 64.8368C79.9095 64.8357 80.279 64.8346 80.6485 64.8332C80.9231 64.8318 81.2239 64.8292 81.5409 64.8265ZM69.5849 62.939C69.4116 63.605 69.0469 64.3794 68.4286 64.7422C68.0976 64.9366 67.6068 65.0081 67.4161 64.609C67.0603 63.8642 67.5592 62.7157 67.8621 62.0458C68.1162 61.4837 68.4365 60.9474 68.8246 60.4675C69.0374 60.2041 69.2734 59.9623 69.5108 59.7215C69.5573 59.6743 69.6073 59.6307 69.6569 59.5875L69.6569 59.5875C69.7262 59.527 69.7947 59.4674 69.8512 59.3998C69.6775 59.7903 69.6704 60.2999 69.6687 60.6861C69.6677 60.8949 69.6756 61.1035 69.6835 61.3117C69.7041 61.8577 69.7247 62.4012 69.5849 62.939ZM70.7231 59.19C70.6945 58.9628 70.4882 58.8115 70.2676 58.9284C70.1393 58.9963 70.0398 59.0923 69.9607 59.2051C69.9623 59.2001 69.9641 59.1952 69.9658 59.1902C69.9694 59.1803 69.973 59.1704 69.9754 59.1596C69.9795 59.1414 69.97 59.1161 69.949 59.113C69.4383 59.0362 68.784 59.7445 68.4241 60.1341C68.3986 60.1616 68.3747 60.1875 68.3523 60.2115C67.8438 60.7567 67.3898 61.3844 67.0776 62.0633C66.6796 62.9294 66.2497 64.2385 66.7966 65.1361C67.5572 66.3844 69.151 65.4426 69.7553 64.5803C70.2615 63.8577 70.5233 62.9769 70.5527 62.0995C70.5614 61.8414 70.5512 61.5835 70.541 61.3255C70.5313 61.0813 70.5217 60.8372 70.528 60.5928C70.5333 60.388 70.582 60.1817 70.6305 59.9764C70.6933 59.711 70.7556 59.4472 70.7231 59.19ZM88.9477 63.3863C89.3044 63.7132 89.9241 63.8343 90.3385 63.5259C90.8892 63.1162 90.4145 62.363 90.1109 61.8812C90.0802 61.8326 90.0513 61.7868 90.0254 61.7443C89.6075 61.0601 89.196 60.3725 88.7872 59.6829C88.7131 59.558 88.6256 59.427 88.5348 59.292C88.5057 59.4866 88.4688 59.6774 88.435 59.8523C88.4054 60.0055 88.3782 60.1466 88.3605 60.2676C88.2109 61.2884 88.1049 62.6141 88.9477 63.3863ZM90.4392 60.4486C90.8434 61.0861 91.2678 61.7556 91.4522 62.458C91.8102 63.8213 90.6287 64.8219 89.319 64.5291C87.9524 64.2236 87.445 62.6323 87.4738 61.3894C87.4871 60.8172 87.606 60.2372 87.7215 59.6735C87.7374 59.5962 87.7531 59.5192 87.7686 59.4426C87.8 59.2864 87.8229 59.1246 87.8459 58.9617C87.8779 58.7348 87.9102 58.506 87.9664 58.2878C87.9023 58.1105 87.8646 57.931 87.8713 57.7515C87.8819 57.466 88.168 57.3142 88.4163 57.4384C88.7694 57.615 88.953 57.9428 89.1395 58.2758C89.1778 58.344 89.2161 58.4124 89.256 58.4798L90.0733 59.8589C90.1879 60.0523 90.3126 60.2489 90.4392 60.4486Z" fill="black"/>
</svg>
