<svg width="131" height="177" viewBox="0 0 131 177" fill="none" xmlns="http://www.w3.org/2000/svg">
<path fill-rule="evenodd" clip-rule="evenodd" d="M106.239 137.632C105.774 135.003 105.348 132.368 104.961 129.727C104.777 128.473 104.598 127.218 104.437 125.961C104.324 125.08 104.152 124.073 104.75 123.421C105.593 122.503 106.358 121.717 106.461 120.402C106.558 119.164 106.14 117.815 105.878 116.614C105.33 114.095 104.648 111.608 103.894 109.143C103.129 106.64 102.289 104.16 101.437 101.685C100.641 99.3704 99.875 97.0353 98.8377 94.8149C96.8691 90.6011 93.5388 87.4806 89.4229 85.397C88.3992 84.8788 86.3114 83.0289 85.2419 82.6148C84.2587 82.2339 84.2622 83.3459 83.2946 82.9271C82.5211 82.5922 81.8008 82.1457 81.3677 81.3979C80.8974 80.5859 79.7181 79.4503 79.5385 78.5051C79.1581 76.5017 79.5702 74.7966 78.1421 73.2887C76.8743 71.9497 75.1703 71.0324 73.4071 70.54C69.5283 69.4568 64.3554 70.2141 62.0152 73.8228C60.8974 75.5462 60.5068 77.6293 58.9986 79.0358C57.6816 80.2638 57.9763 81.1034 56.2705 81.7363C56.1739 81.7723 53.5553 81.2099 53.4587 81.2459C51.5927 80.8461 49.8091 81.9653 48.0971 82.6148C45.5448 83.5828 43.1149 84.8429 40.8319 86.3405C36.2286 89.3604 32.2859 93.2818 29.0355 97.7193C25.7582 102.193 23.2153 107.208 21.4047 112.449C20.965 113.722 20.5701 115.011 20.2217 116.312C20.0267 117.04 19.8183 117.795 20.0557 118.541C20.2499 119.151 20.6819 119.605 21.1892 119.971C21.8768 120.467 23.2561 120.789 23.2293 121.787C23.2087 122.546 22.9517 123.344 22.8262 124.094C22.6769 124.987 22.5542 125.885 22.4315 126.781C21.8734 130.863 21.439 134.967 21.2468 139.083C21.0577 143.136 20.9008 147.272 21.1816 151.324C21.2001 151.591 21.2797 151.836 21.4081 152.043C21.2882 152.089 21.279 152.313 21.4281 152.345C21.5326 152.367 21.6369 152.389 21.7413 152.411C21.9584 152.575 22.229 152.676 22.5405 152.686C22.7516 152.693 22.9626 152.702 23.1736 152.713C25.3993 153.179 27.6247 153.619 29.8795 153.952C32.6203 154.357 35.3692 154.687 38.1267 154.956C43.7928 155.507 49.4143 155.324 55.0879 155.027C60.7527 154.73 66.4142 154.661 72.0849 154.809C77.7605 154.956 83.4341 155.204 89.1111 155.305C95.4534 155.418 101.786 155.244 108.11 154.739C108.977 154.67 109.514 153.98 109.342 153.117C108.318 147.951 107.157 142.82 106.239 137.632Z" fill="#EEC1A2"/>
<path fill-rule="evenodd" clip-rule="evenodd" d="M48.0971 82.6142L48.221 82.5665C49.8951 81.9116 51.6376 80.8551 53.4587 81.2453C53.5231 81.2213 54.7081 81.4632 55.5197 81.6165L54.7493 82.4217L53.3898 82.6835C58.0801 90.4341 63.6274 94.3094 70.0317 94.3094C76.436 94.3094 81.2956 90.4341 84.6106 82.6835L85.0629 82.5582C85.1188 82.5712 85.1783 82.5896 85.2419 82.6142C86.3114 83.0284 88.3992 84.8782 89.4229 85.3964C93.5388 87.48 96.8691 90.6005 98.8377 94.8143C99.8404 96.9607 100.589 99.2143 101.357 101.453L101.437 101.684C102.289 104.159 103.129 106.639 103.894 109.143C104.615 111.5 105.271 113.878 105.806 116.285L105.878 116.614C106.14 117.815 106.558 119.164 106.461 120.401C106.424 120.87 106.303 121.271 106.125 121.635L96.848 124.977L101.268 155.158C97.2192 155.332 93.1671 155.376 89.1111 155.304C83.4341 155.203 77.7605 154.956 72.0849 154.808C66.586 154.665 61.0958 154.726 55.6028 155L54.2079 155.072C48.8326 155.341 43.4997 155.478 38.1267 154.955L37.7606 154.919L37.7605 150.505L39.6479 125.922L30.083 124.119L20.6937 119.553C20.41 119.269 20.1823 118.938 20.0557 118.54C19.8358 117.85 19.9983 117.151 20.1785 116.473L20.2217 116.311C20.5701 115.01 20.965 113.722 21.4047 112.449C23.2153 107.207 25.7582 102.193 29.0355 97.7187C32.2859 93.2812 36.2286 89.3599 40.8319 86.34C43.1149 84.8424 45.5448 83.5823 48.0971 82.6142Z" fill="#6F6CD1"/>
<path fill-rule="evenodd" clip-rule="evenodd" d="M51.6891 81.1185C52.2756 81.093 52.8736 81.188 53.4587 81.2457C53.5097 81.2506 53.5291 81.3294 53.4716 81.3414C52.4245 81.5604 51.3888 81.86 50.3603 82.1644L49.92 82.2948C48.7603 82.6383 47.6345 82.9927 46.5118 83.4508C44.2742 84.3639 42.149 85.5963 40.1931 87.0122C32.6616 92.4643 27.2105 100.719 23.7706 109.265C22.8364 111.586 22.0449 113.965 21.4037 116.384C21.2478 116.972 21.1012 117.563 20.9621 118.156C20.9213 118.33 20.7433 118.775 20.8409 118.952C20.9271 119.11 21.2625 119.207 21.4183 119.288L21.9442 119.561C22.9702 120.091 24.6792 120.961 24.8506 121.046L25.1178 121.178C29.4896 123.324 34.1607 125.143 39.0803 125.269L39.1188 124.849C39.3382 122.523 39.626 120.185 40.2542 117.931C40.288 117.81 40.442 117.851 40.4561 117.959C40.806 120.627 40.6942 123.316 40.5721 125.997C40.3558 130.745 40.0687 135.49 39.8135 140.236C39.6857 142.61 39.5206 144.983 39.3715 147.356C39.2222 149.734 39.1738 152.168 38.8329 154.526C38.7569 155.052 38.142 155.338 37.6763 155.282C37.1611 155.221 36.7648 154.767 36.7623 154.246C36.7561 152.872 36.9285 151.482 37.0243 150.112C37.1153 148.81 37.213 147.509 37.3131 146.208C37.6789 141.459 38.0997 136.715 38.4889 131.968C38.6268 130.285 38.7758 128.602 38.9291 126.92C33.7176 126.752 28.8488 124.82 24.2041 122.561C24.1369 124.09 23.9745 125.615 23.8173 127.137C23.3785 131.385 22.9917 135.63 22.7021 139.891C22.5559 142.043 22.4494 144.197 22.3567 146.352C22.3112 147.411 22.274 148.47 22.2456 149.53C22.236 149.883 22.2274 150.236 22.2198 150.589L22.2039 151.398C22.191 151.911 22.1389 152.386 21.7081 152.759C21.2704 153.138 20.6793 153.158 20.2462 152.759C19.6664 152.225 19.7689 151.496 19.7861 150.778C19.8004 150.173 19.8176 149.567 19.8375 148.962C19.8775 147.751 19.9286 146.541 19.9908 145.331C20.2083 141.101 20.6428 136.888 21.2108 132.692L21.4325 131.072C21.8465 128.061 22.301 124.981 23.2266 122.08C22.8662 121.901 22.5069 121.72 22.1489 121.539C21.514 121.217 20.8575 120.915 20.2403 120.559C19.7507 120.277 19.3284 119.891 19.1921 119.32C19.0401 118.685 19.2725 117.99 19.4269 117.37L19.4404 117.315C19.5918 116.691 19.7548 116.069 19.9269 115.45C20.6245 112.94 21.4872 110.479 22.4968 108.078C24.5183 103.271 27.1276 98.7047 30.3149 94.5757C33.1838 90.8591 36.573 87.4886 40.5452 84.9607C42.4871 83.7248 44.5566 82.71 46.7452 81.9926C47.7682 81.6573 48.8812 81.3656 49.9523 81.2455C50.53 81.1809 51.1086 81.1438 51.6891 81.1185ZM62.0807 73.5017C62.7777 72.7523 64.1624 73.5278 63.8277 74.52C63.0406 76.8545 61.7871 78.9839 59.8309 80.5179C57.992 81.96 55.7993 82.8965 53.4378 82.6967C53.4196 82.6951 53.4038 82.6904 53.3898 82.6839L53.5933 82.9602C55.191 85.1241 56.8765 87.258 58.908 89.0266C63.0471 92.6303 68.6826 94.5739 74.1244 93.1913C78.4059 92.1035 82.1779 88.7138 83.2872 84.3937C83.1282 84.4651 82.9392 84.4894 82.7318 84.4443C81.8442 84.2513 80.9655 83.3167 80.393 82.6466C79.7738 81.9216 79.2901 81.1388 78.9356 80.2539C78.2869 78.6344 78.0788 76.5494 78.9647 74.9806C79.074 74.7872 79.3261 74.8956 79.3476 75.0844L79.3813 75.3791C79.5521 76.8493 79.7648 78.2714 80.4571 79.6117C80.7959 80.2675 81.2021 80.9076 81.6964 81.4569C81.961 81.7507 82.2478 82.0315 82.5574 82.2779C82.8591 82.5179 83.2243 82.6915 83.4947 82.967L83.5443 83.0198L83.5457 83.0104C83.6141 82.4283 84.0217 82.1719 84.4206 82.188C84.8066 82.2035 85.26 82.3736 85.4356 82.4551L85.4522 82.4629C88.1451 83.7572 90.6252 85.4442 92.9592 87.3159C97.7859 91.1866 101.402 96.2466 103.155 102.205C104.015 105.13 104.508 108.143 105.029 111.142L105.35 112.98C105.836 115.749 106.379 118.572 107.477 121.148C107.761 121.814 107.542 122.439 106.846 122.701C105.976 123.029 105.104 123.345 104.23 123.658C104.659 125.501 104.921 127.408 105.242 129.26C105.926 133.198 106.763 137.109 107.481 141.041C107.848 143.052 108.179 145.069 108.546 147.079C108.722 148.048 108.907 149.015 109.086 149.982C109.182 150.504 109.27 151.028 109.362 151.55L109.378 151.637C109.431 151.913 109.497 152.198 109.421 152.474C109.335 152.788 109.09 153.011 108.871 153.236C108.691 153.422 108.43 153.423 108.209 153.322L108.137 153.288C107.742 153.103 107.433 152.919 107.293 152.474C107.205 152.192 107.173 151.874 107.115 151.583C107.004 151.026 106.898 150.468 106.799 149.909C106.6 148.79 106.406 147.67 106.217 146.549L106.039 145.499C105.432 141.882 104.855 138.243 104.563 134.587C104.433 132.966 104.296 131.345 104.158 129.725L104.054 128.509C103.922 126.971 103.762 125.393 103.739 123.834L103.216 124.02L100.667 124.922C100.034 125.146 99.2296 125.604 98.5492 125.521C98.2162 125.48 97.9622 125.375 97.7662 125.184C98.001 128.502 98.3188 131.814 98.7424 135.109C99.1277 138.107 99.555 141.101 100.06 144.081C100.31 145.557 100.566 147.031 100.845 148.502C100.985 149.237 101.129 149.971 101.277 150.705C101.351 151.071 101.439 151.437 101.496 151.806C101.562 152.229 101.446 152.489 101.21 152.837C101.017 153.122 100.629 153.269 100.315 153.072C99.8996 152.81 99.6826 152.584 99.5603 152.108C99.4491 151.676 99.3816 151.225 99.2955 150.787C99.1367 149.979 98.9833 149.17 98.8351 148.36C98.5252 146.666 98.2396 144.968 97.9845 143.265C97.0856 137.264 96.5152 131.214 96.2272 125.153C96.085 122.163 96.0411 119.171 96.0663 116.178C96.0792 114.643 96.1293 113.105 96.2377 111.574C96.3475 110.025 96.5758 108.507 96.7797 106.973C96.7868 106.919 96.8629 106.916 96.8661 106.973C96.9627 108.693 97.114 110.411 97.1881 112.136C97.2589 113.781 97.2899 115.429 97.3462 117.076C97.4201 119.24 97.5227 121.405 97.6584 123.569C97.9041 123.299 98.2745 123.144 98.6451 123.205C99.1821 123.092 99.76 122.81 100.272 122.639L102.202 121.993C103.216 121.654 104.231 121.317 105.249 120.99C104.338 117.925 103.715 114.813 103.182 111.656L102.945 110.236C102.475 107.442 101.968 104.646 101.117 101.94C100.222 99.0945 98.8827 96.4493 97.106 94.0539C95.3547 91.6931 93.224 89.6143 91.0302 87.67C89.152 86.0055 87.1429 84.5027 85.2272 82.884C85.2473 82.9912 85.2515 83.1093 85.2339 83.2391C84.8266 86.2237 83.2716 89.0032 81.1044 91.0705C76.7506 95.2237 70.3059 96.0854 64.7336 94.1378C59.3433 92.254 54.5776 87.7924 52.8939 82.2714C52.865 82.177 52.9914 82.1395 53.0422 82.2089C53.1356 82.337 53.2294 82.4652 53.3234 82.5933C53.3171 82.5424 53.3435 82.487 53.4062 82.4628C55.3708 81.7033 57.2999 80.6261 58.7725 79.1024C59.4902 78.3597 60.1166 77.5182 60.6111 76.6107C60.848 76.176 61.0607 75.7258 61.2305 75.2606L61.2736 75.1402C61.4793 74.5575 61.6512 73.9633 62.0807 73.5017Z" fill="black"/>
<path fill-rule="evenodd" clip-rule="evenodd" d="M87.2491 40.7829C86.8048 38.0858 88.263 37.5263 87.2491 34.9625C84.9957 30.212 78.8548 30.4167 74.3485 30.0515C69.3223 29.8582 64.2351 30.524 59.6016 32.5452C58.4948 33.028 57.4303 33.5957 56.4098 34.2407C55.5274 34.7986 55.6487 35.8592 56.2051 36.4378C52.193 42.1382 54.4877 49.7899 51.2865 55.7904C50.6951 56.863 49.913 57.8247 49.3989 58.9408C48.6176 60.6372 48.5675 63.0679 50.3394 64.1946C52.835 65.5385 54.2277 62.8775 55.4539 66.735C61.5779 80.1849 73.8906 80.9424 85.5793 73.9301C86.5906 73.3657 87.6227 72.7278 88.3863 71.8411C90.1197 69.8839 89.9155 67.1315 89.9539 64.6874C89.9753 63.2551 89.9788 61.8226 89.9649 60.39C89.9104 54.5873 87.9936 46.5378 87.2491 40.7829Z" fill="#EEC1A2"/>
<path fill-rule="evenodd" clip-rule="evenodd" d="M62.3531 24.652C69.4105 21.4399 77.4152 20.2218 85.1136 21.0207C88.9134 21.4145 92.6632 22.2592 96.2317 23.6314L96.5445 23.7527C97.4254 24.0929 98.375 24.4306 99.0444 25.123C99.8236 25.9278 100.042 27.1447 99.4851 28.1388C99.0525 28.9113 98.2746 29.4654 97.4449 29.7611C97.7372 30.0012 98.0145 30.2691 98.2746 30.5681C98.713 31.0692 98.7464 31.7838 98.2746 32.2781C97.3655 33.2306 96.186 33.9198 94.9156 34.2501C95.0583 34.9417 94.9812 35.7072 94.6751 36.3965C93.7967 38.3752 91.3225 38.611 89.4185 38.4935L89.361 38.4898L89.2551 39.7056C89.1987 40.3534 88.8121 40.8556 88.1561 40.9549C88.1331 40.9584 88.11 40.9607 88.0871 40.9629C89.1251 44.7293 89.7522 48.6121 90.331 52.472C90.6334 54.4869 90.9042 56.5065 91.1633 58.5274L91.2493 59.201C91.5255 61.3798 91.8707 63.5804 91.9904 65.7753C92.0974 67.767 91.7188 69.6686 90.4956 71.2758C89.3978 72.7168 87.9007 73.7963 86.2908 74.5976C82.6533 76.409 78.8248 77.7577 74.8018 78.3835L74.5336 78.4249C72.9807 78.6628 71.3807 78.8632 69.8445 78.432C68.4948 78.0533 67.0793 77.0765 67.3842 75.5074C67.4866 74.9775 68.2254 74.9544 68.4785 75.3643L68.537 75.4582C68.8406 75.9415 69.1732 76.3906 69.703 76.64C70.3232 76.9334 71.0424 77.0152 71.7202 77.0234C73.6131 77.0453 75.5843 76.572 77.4071 76.0974C80.811 75.2108 84.3069 73.7651 87.0952 71.5749C88.2816 70.6443 89.2344 69.4804 89.5704 67.9829C89.9858 66.1367 89.6038 64.1185 89.415 62.263C89.0267 58.4344 88.5645 54.613 88.0768 50.7957L87.9789 50.0324C87.5682 46.841 87.1367 43.6486 86.9318 40.4388C86.8466 40.3222 86.7891 40.1894 86.766 40.0439L86.7339 39.8349C86.7062 39.656 86.7016 39.492 86.7212 39.3408C86.7223 38.7612 86.7384 38.185 86.7718 37.6053C86.7774 37.5015 86.7822 37.3976 86.7856 37.2948C86.1849 37.4276 85.5796 37.535 84.972 37.6262C80.7005 38.2716 76.3622 38.4333 72.0562 38.1123C69.9078 37.9517 67.7756 37.6758 65.65 37.3306C64.5682 37.1551 63.4901 36.9611 62.4153 36.7441C61.6386 36.5882 60.8779 36.3769 60.1138 36.1783C59.3256 37.3295 58.8998 38.7461 58.9827 40.1374C59.0759 41.725 60.13 43.1648 59.8342 44.787C59.5567 46.3052 58.2603 46.7759 56.9805 47.1519L56.4361 47.3097C56.0174 47.4324 55.7133 47.5508 55.6375 48.0557C55.5074 48.9228 55.6674 49.8984 55.7008 50.7701C55.741 51.8012 55.7939 52.8323 55.8181 53.8633C55.8308 54.3967 55.8514 54.9325 55.8504 55.4659C55.8492 55.8446 55.7928 56.1032 55.6467 56.3479C55.7595 56.49 55.8606 56.6436 55.9505 56.8064C55.9792 56.8595 55.9079 56.916 55.8654 56.8722C55.7514 56.7533 55.6305 56.6459 55.5028 56.5499C55.4384 56.6297 55.3636 56.7106 55.276 56.7971L55.2692 56.7879C54.9954 57.0616 54.5604 57.0881 54.2208 56.7971L54.1317 56.7197C53.8832 56.5011 53.7124 56.319 53.6433 55.9578C53.6398 55.9393 53.6362 55.9208 53.634 55.9023C53.0023 55.8804 52.3602 56.0304 51.7917 56.3457C50.8907 56.8456 50.2566 57.558 49.8816 58.4378C50.0311 58.6133 50.206 58.7704 50.4097 58.902C50.4385 58.9216 50.4131 58.9643 50.3821 58.9493C50.1738 58.8512 49.9874 58.7299 49.8205 58.5879C49.6859 58.9343 49.5915 59.3061 49.534 59.6998C49.3314 61.0899 49.6928 62.7884 50.9448 63.5804C51.4868 63.9233 52.1059 64.1092 52.748 64.1115C53.0609 64.1126 53.3314 64.0596 53.6352 63.9845C53.8412 63.9337 54.046 63.8598 54.2612 63.8598C54.4453 63.8598 54.6156 63.906 54.7733 63.9984L54.7296 64.0022C54.6233 64.0122 54.6437 64.0167 54.7917 64.0167C55.252 64.0365 55.5154 64.5053 55.3038 64.9128L55.276 64.9758C55.2702 64.9885 55.2652 64.999 55.2613 65.0074L55.2446 65.1155C55.2429 65.1258 55.2412 65.1364 55.2393 65.1472L55.2329 65.1691C55.2318 65.1726 55.2305 65.1761 55.229 65.1795L55.9193 66.2358C56.7657 67.528 57.631 68.8151 58.6156 69.9954C59.306 70.8232 60.0379 71.6349 60.8112 72.3865C61.5062 73.062 62.3394 73.3876 63.1265 73.9187C63.5466 74.2004 63.6696 74.7904 63.2877 75.1703C62.1668 76.2868 60.5799 75.4 59.6605 74.4925C58.7905 73.6324 58.0391 72.5978 57.3912 71.5622C56.2416 69.7206 55.3268 67.7624 54.9263 65.6368C54.7595 65.7903 54.5466 65.8862 54.3314 65.9612C53.8999 66.1113 53.4246 66.1736 52.9689 66.1898C52.0955 66.2187 51.221 66.0062 50.435 65.6298C47.2371 64.1 46.7676 59.5185 48.7227 56.8168C48.4591 56.0497 48.3118 55.2174 48.1519 54.5077L48.0791 54.1904C47.2705 50.6466 46.7278 46.9155 48.1611 43.4431C48.3453 42.9951 48.5524 42.5586 48.7975 42.1407C48.9943 41.8047 49.3326 41.4468 49.4258 41.0646C49.6329 40.2252 48.3545 39.3431 47.9816 38.6769C47.5432 37.8952 47.4811 36.9727 48.0783 36.2579C48.1542 36.1679 48.237 36.0847 48.3269 36.0121C47.7607 34.9822 47.7342 33.6867 48.4799 32.6706C48.9701 32.001 49.7181 31.5322 50.5351 31.3902C51.0345 31.3036 51.6352 31.3359 52.1841 31.4906C55.1897 28.6907 58.619 26.3515 62.3531 24.652ZM50.8112 59.686C51.6134 58.9759 52.4995 58.6041 53.5927 58.6976C54.6916 58.7922 56.015 59.2484 56.6604 60.194C57.1703 60.941 56.1312 62.0367 55.3832 61.4756C54.702 60.9641 54.2473 60.3868 53.4017 60.112C52.6421 59.8661 51.7019 59.7079 50.9067 59.8488C50.8193 59.8638 50.732 59.7552 50.8112 59.686Z" fill="black"/>
<path fill-rule="evenodd" clip-rule="evenodd" d="M82.2397 67.4224C81.5082 67.0699 80.6715 67.0943 79.9043 67.3275C78.9964 67.6036 78.1924 68.1773 77.4769 68.7879C77.1977 69.0263 76.9324 69.2954 76.666 69.5659C76.3277 69.9096 75.9882 70.2567 75.6112 70.5381C75.7355 69.4778 76.4786 68.4011 77.1167 67.6224C77.8996 66.6671 78.9898 65.8929 80.1684 65.5184C81.4234 65.1196 82.7185 65.3388 83.7349 65.9864C84.742 66.6281 85.4756 67.6909 85.6234 68.9907C85.6545 69.2637 85.527 69.5136 85.3379 69.703C85.1173 69.9239 84.8075 70.0692 84.5187 70.0692C84.2239 70.0692 83.9625 69.9504 83.7686 69.7609C83.5652 69.5621 83.4354 69.2863 83.4168 68.9866C83.4043 68.6673 83.3304 68.3876 83.0624 68.0507C82.8824 67.8246 82.544 67.569 82.2397 67.4224ZM84.0994 56.2642C83.7958 56.3746 83.4432 56.6414 83.3407 56.9335C83.3182 56.9978 83.3055 57.0636 83.3045 57.1302C83.2057 56.9291 83.168 56.6924 83.1809 56.4581C83.2218 55.7138 83.9307 55.1736 84.5347 54.858C84.7493 54.7458 84.9698 54.6713 85.1895 54.6321L85.9674 54.4932L85.2371 54.1913C84.5635 53.9129 83.932 53.5299 83.3684 53.061C82.83 52.6135 82.3323 52.0347 82.0402 51.396C81.9082 51.1076 81.8047 50.8254 81.7321 50.5206L81.7126 50.435C81.677 50.2708 81.638 50.187 81.5942 50.0941C81.5685 50.0396 81.5405 49.9809 81.5105 49.8854C81.4936 49.8318 81.4842 49.7869 81.4999 49.752C81.5151 49.7181 81.5521 49.7036 81.5881 49.69C81.8265 49.5996 82.2105 49.6612 82.3737 49.7264C82.7679 49.8842 83.1144 50.2282 83.4479 50.5504C83.6107 50.7076 83.7701 50.8612 83.9284 50.9926C84.9385 51.8311 86.1992 52.3081 87.4313 52.4245L87.5053 52.431C87.8311 52.4578 88.1332 52.5863 88.3473 52.8007C88.5387 52.9923 88.6569 53.253 88.6569 53.5652C88.6569 53.8693 88.5202 54.1622 88.3079 54.3747C88.1051 54.5778 87.8309 54.7093 87.5331 54.6987C87.324 54.6913 87.1164 54.6725 86.9102 54.6449L86.1434 54.5421L86.7288 55.0485C86.845 55.149 86.9543 55.2644 87.0526 55.3983C87.5861 56.1256 87.8151 57.2344 87.7953 58.1246C87.7915 58.2945 87.7446 58.4697 87.6581 58.6207C87.5826 58.7525 87.4764 58.8663 87.3395 58.9373C87.1755 59.0225 87.0368 59.0679 86.8502 59.0716C86.6472 59.0756 86.4753 59.0113 86.334 58.9036C86.1574 58.7689 86.0276 58.5702 85.9384 58.3536C85.82 58.0654 85.8129 57.7611 85.8012 57.4569C85.7931 57.2467 85.7844 57.0361 85.7494 56.8286C85.6995 56.5636 85.5798 56.2259 85.4289 56.1193C85.206 55.9618 84.613 56.0831 84.2447 56.212L84.0994 56.2642ZM80.9311 58.9272C81.8019 59.4572 83.1287 60.6929 82.192 62.0068C81.0893 63.1653 79.5017 61.837 78.7193 61.2363C77.9939 60.7707 77.1788 61.9681 77.8519 62.5117C83.5051 66.7024 85.7994 59.0658 81.3715 58.3041C80.884 58.2202 80.703 58.7633 80.9311 58.9272ZM74.7546 57.2448C74.5166 56.976 74.2849 56.7255 73.9269 56.5828C73.5034 56.4137 72.9902 56.3956 72.5496 56.5222C72.0501 56.6658 71.6546 56.9974 71.3616 57.4208C71.1042 57.7929 70.9269 58.2358 70.8258 58.6724C70.6371 58.4649 70.5489 58.225 70.5063 57.9809C70.4361 57.5791 70.4858 57.165 70.6226 56.7712C70.9272 55.8945 71.6608 55.115 72.5163 54.7795C73.4931 54.3965 74.7017 54.5244 75.5989 55.0637C76.0567 55.339 76.5843 55.8167 76.8501 56.2839C77.0316 56.6032 77.0421 56.9338 76.9267 57.2177C76.7997 57.5303 76.5256 57.7842 76.1756 57.9117C76.0099 57.972 75.8392 57.9672 75.6773 57.9244C75.4667 57.8686 75.2698 57.7495 75.1093 57.6107C74.9755 57.4953 74.864 57.3684 74.7546 57.2448ZM76.2141 51.7155C76.0136 51.9841 75.7183 52.1213 75.4107 52.1357C75.3792 52.1372 75.3476 52.1373 75.3162 52.1362C75.2964 52.1591 75.2742 52.1843 75.2482 52.214C75.1881 52.2825 75.1488 52.3274 75.1078 52.3711C74.96 52.5287 74.8045 52.6793 74.6425 52.8224C74.2818 53.1416 73.8932 53.4215 73.4729 53.6564C72.7368 54.0681 71.9295 54.3893 71.0993 54.5426C70.2756 54.6946 69.4624 54.7414 68.6328 54.6223L68.4316 54.5933C67.9524 54.523 67.3243 54.4313 66.9308 54.1341C67.0858 54.0847 67.2427 54.0823 67.3959 54.0755C67.4967 54.0711 67.5968 54.0665 67.6945 54.0576C68.1587 54.0153 68.6099 53.9382 69.0594 53.8136C69.9332 53.5715 70.725 53.2372 71.4965 52.758C72.2528 52.2883 72.9474 51.6491 73.5007 50.9489L73.567 50.864C73.5953 50.8274 73.6231 50.791 73.6507 50.7548C73.8771 50.4587 74.085 50.1765 74.4366 49.9885C74.7153 49.8397 74.9972 49.7995 75.2683 49.8423C75.5829 49.892 75.8815 50.0506 76.1462 50.2724C76.3419 50.4365 76.4325 50.6727 76.4469 50.915C76.4638 51.2 76.3772 51.4969 76.2141 51.7155Z" fill="black"/>
</svg>
