<svg width="131" height="177" viewBox="0 0 131 177" fill="none" xmlns="http://www.w3.org/2000/svg">
<path fill-rule="evenodd" clip-rule="evenodd" d="M106.239 137.632C105.774 135.003 105.348 132.368 104.961 129.727C104.777 128.473 104.598 127.218 104.437 125.961C104.324 125.08 104.152 124.073 104.75 123.421C105.593 122.503 106.358 121.717 106.461 120.402C106.558 119.164 106.14 117.815 105.878 116.614C105.33 114.095 104.648 111.608 103.894 109.143C103.129 106.64 102.289 104.16 101.437 101.685C100.641 99.3704 99.875 97.0353 98.8378 94.8149C96.8692 90.6011 93.5388 87.4806 89.423 85.397C88.3993 84.8788 86.3114 83.0289 85.242 82.6148C84.2588 82.2339 84.2623 83.3459 83.2947 82.9271C82.5211 82.5922 81.8008 82.1457 81.3677 81.3979C80.8975 80.5859 79.7181 79.4503 79.5386 78.5051C79.1582 76.5017 79.5703 74.7966 78.1422 73.2887C76.8744 71.9497 75.1704 71.0324 73.4072 70.54C69.5284 69.4568 64.3555 70.2141 62.0152 73.8228C60.8975 75.5462 60.5069 77.6293 58.9987 79.0358C57.6816 80.2638 57.9764 81.1034 56.2706 81.7363C56.174 81.7723 53.5554 81.2099 53.4588 81.2459C51.5927 80.8461 49.8092 81.9653 48.0972 82.6148C45.5449 83.5828 43.1149 84.8429 40.832 86.3405C36.2287 89.3604 32.286 93.2818 29.0355 97.7193C25.7582 102.193 23.2154 107.208 21.4048 112.449C20.9651 113.722 20.5701 115.011 20.2217 116.312C20.0267 117.04 19.8184 117.795 20.0558 118.541C20.25 119.151 20.682 119.605 21.1893 119.971C21.8769 120.467 23.2562 120.789 23.2293 121.787C23.2088 122.546 22.9518 123.344 22.8263 124.094C22.677 124.987 22.5543 125.885 22.4316 126.781C21.8734 130.863 21.439 134.967 21.2469 139.083C21.0578 143.136 20.9008 147.272 21.1816 151.324C21.2002 151.591 21.2798 151.836 21.4081 152.043C21.2883 152.089 21.2791 152.313 21.4282 152.345C21.5327 152.367 21.6369 152.389 21.7414 152.411C21.9584 152.575 22.2291 152.676 22.5405 152.686C22.7517 152.693 22.9627 152.702 23.1736 152.713C25.3994 153.179 27.6247 153.619 29.8795 153.952C32.6204 154.357 35.3693 154.687 38.1268 154.956C43.7929 155.507 49.4143 155.324 55.0879 155.027C60.7527 154.73 66.4142 154.661 72.0849 154.809C77.7606 154.956 83.4342 155.204 89.1111 155.305C95.4534 155.418 101.786 155.244 108.11 154.739C108.977 154.67 109.514 153.98 109.343 153.117C108.318 147.951 107.157 142.82 106.239 137.632Z" fill="#EEC1A2"/>
<path fill-rule="evenodd" clip-rule="evenodd" d="M48.0972 82.6142L48.2211 82.5665C49.8952 81.9116 51.6377 80.8551 53.4588 81.2453C53.5232 81.2213 54.7082 81.4632 55.5198 81.6165L54.7495 82.4217L53.3899 82.6835C58.0802 90.4341 63.6275 94.3094 70.0318 94.3094C76.4361 94.3094 81.2957 90.4341 84.6107 82.6835L85.063 82.5582C85.1189 82.5712 85.1784 82.5896 85.242 82.6142C86.3115 83.0284 88.3993 84.8782 89.423 85.3964C93.5389 87.48 96.8693 90.6005 98.8378 94.8143C99.8405 96.9607 100.589 99.2143 101.358 101.453L101.437 101.684C102.289 104.159 103.129 106.639 103.894 109.143C104.616 111.5 105.271 113.878 105.806 116.285L105.879 116.614C106.14 117.815 106.558 119.164 106.461 120.401C106.424 120.87 106.303 121.271 106.125 121.635L96.8481 124.977L101.268 155.158C97.2193 155.332 93.1673 155.376 89.1112 155.304C83.4343 155.203 77.7607 154.956 72.085 154.808C66.5861 154.665 61.0959 154.726 55.603 155L54.208 155.072C48.8327 155.341 43.4999 155.478 38.1268 154.955L37.7607 154.919L37.7606 150.505L39.648 125.922L30.0831 124.119L20.6938 119.553C20.4101 119.269 20.1825 118.938 20.0559 118.54C19.836 117.85 19.9985 117.151 20.1786 116.473L20.2218 116.311C20.5702 115.01 20.9651 113.722 21.4048 112.449C23.2154 107.207 25.7583 102.193 29.0356 97.7187C32.286 93.2812 36.2287 89.3599 40.832 86.34C43.115 84.8424 45.5449 83.5823 48.0972 82.6142Z" fill="#6F6CD1"/>
<path fill-rule="evenodd" clip-rule="evenodd" d="M51.6891 81.1185C52.2756 81.093 52.8737 81.188 53.4588 81.2457C53.5098 81.2506 53.5291 81.3294 53.4717 81.3414C52.4245 81.5604 51.3889 81.86 50.3604 82.1644L49.9201 82.2948C48.7603 82.6383 47.6346 82.9927 46.5119 83.4508C44.2743 84.3639 42.1491 85.5963 40.1932 87.0122C32.6616 92.4643 27.2106 100.719 23.7707 109.265C22.8365 111.586 22.045 113.965 21.4038 116.384C21.2479 116.972 21.1012 117.563 20.9621 118.156C20.9213 118.33 20.7434 118.775 20.8409 118.952C20.9272 119.11 21.2625 119.207 21.4183 119.288L21.9443 119.561C22.9703 120.091 24.6792 120.961 24.8506 121.046L25.1179 121.178C29.4896 123.324 34.1608 125.143 39.0804 125.269L39.1189 124.849C39.3382 122.523 39.6261 120.185 40.2543 117.931C40.2881 117.81 40.442 117.851 40.4561 117.959C40.8061 120.627 40.6942 123.316 40.5721 125.997C40.3559 130.745 40.0688 135.49 39.8136 140.236C39.6858 142.61 39.5207 144.983 39.3716 147.356C39.2222 149.734 39.1739 152.168 38.8329 154.526C38.7569 155.052 38.1421 155.338 37.6764 155.282C37.1612 155.221 36.7648 154.767 36.7624 154.246C36.7562 152.872 36.9286 151.482 37.0244 150.112C37.1154 148.81 37.2131 147.509 37.3132 146.208C37.6789 141.459 38.0997 136.715 38.4889 131.968C38.6268 130.285 38.7758 128.602 38.9292 126.92C33.7177 126.752 28.8489 124.82 24.2042 122.561C24.1369 124.09 23.9746 125.615 23.8174 127.137C23.3786 131.385 22.9917 135.63 22.7022 139.891C22.5559 142.043 22.4495 144.197 22.3568 146.352C22.3112 147.411 22.2741 148.47 22.2456 149.53C22.2361 149.883 22.2275 150.236 22.2199 150.589L22.204 151.398C22.191 151.911 22.139 152.386 21.7081 152.759C21.2705 153.138 20.6794 153.158 20.2463 152.759C19.6664 152.225 19.769 151.496 19.7861 150.778C19.8004 150.173 19.8176 149.567 19.8376 148.962C19.8776 147.751 19.9287 146.541 19.9908 145.331C20.2083 141.101 20.6429 136.888 21.2108 132.692L21.4325 131.072C21.8466 128.061 22.3011 124.981 23.2266 122.08C22.8663 121.901 22.5069 121.72 22.149 121.539C21.514 121.217 20.8575 120.915 20.2404 120.559C19.7507 120.277 19.3284 119.891 19.1921 119.32C19.0401 118.685 19.2726 117.99 19.427 117.37L19.4404 117.315C19.5918 116.691 19.7549 116.069 19.9269 115.45C20.6246 112.94 21.4873 110.479 22.4969 108.078C24.5184 103.271 27.1277 98.7047 30.3149 94.5757C33.1839 90.8591 36.573 87.4886 40.5453 84.9607C42.4872 83.7248 44.5567 82.71 46.7453 81.9926C47.7682 81.6573 48.8813 81.3656 49.9523 81.2455C50.5301 81.1809 51.1086 81.1438 51.6891 81.1185ZM62.0808 73.5017C62.7777 72.7523 64.1625 73.5278 63.8278 74.52C63.0407 76.8545 61.7872 78.9839 59.8309 80.5179C57.9921 81.96 55.7993 82.8965 53.4379 82.6967C53.4197 82.6951 53.4039 82.6904 53.3899 82.6839L53.5934 82.9602C55.1911 85.1241 56.8766 87.258 58.908 89.0266C63.0471 92.6303 68.6826 94.5739 74.1245 93.1913C78.4059 92.1035 82.178 88.7138 83.2873 84.3937C83.1283 84.4651 82.9393 84.4894 82.7318 84.4443C81.8442 84.2513 80.9655 83.3167 80.3931 82.6466C79.7738 81.9216 79.2902 81.1388 78.9357 80.2539C78.2869 78.6344 78.0789 76.5494 78.9648 74.9806C79.0741 74.7872 79.3262 74.8956 79.3476 75.0844L79.3813 75.3791C79.5521 76.8493 79.7649 78.2714 80.4572 79.6117C80.796 80.2675 81.2021 80.9076 81.6965 81.4569C81.961 81.7507 82.2478 82.0315 82.5575 82.2779C82.8592 82.5179 83.2243 82.6915 83.4948 82.967L83.5443 83.0198L83.5457 83.0104C83.6141 82.4283 84.0218 82.1719 84.4206 82.188C84.8066 82.2035 85.26 82.3736 85.4356 82.4551L85.4523 82.4629C88.1451 83.7572 90.6253 85.4442 92.9593 87.3159C97.786 91.1866 101.402 96.2466 103.155 102.205C104.015 105.13 104.508 108.143 105.029 111.142L105.35 112.98C105.836 115.749 106.379 118.572 107.477 121.148C107.761 121.814 107.542 122.439 106.846 122.701C105.976 123.029 105.104 123.345 104.23 123.658C104.659 125.501 104.921 127.408 105.242 129.26C105.926 133.198 106.763 137.109 107.481 141.041C107.848 143.052 108.179 145.069 108.546 147.079C108.722 148.048 108.907 149.015 109.086 149.982C109.182 150.504 109.27 151.028 109.362 151.55L109.378 151.637C109.431 151.913 109.497 152.198 109.421 152.474C109.335 152.788 109.09 153.011 108.871 153.236C108.691 153.422 108.43 153.423 108.209 153.322L108.137 153.288C107.742 153.103 107.433 152.919 107.293 152.474C107.205 152.192 107.173 151.874 107.115 151.583C107.004 151.026 106.899 150.468 106.799 149.909C106.6 148.79 106.406 147.67 106.217 146.549L106.039 145.499C105.432 141.882 104.855 138.243 104.563 134.587C104.433 132.966 104.296 131.345 104.158 129.725L104.054 128.509C103.922 126.971 103.762 125.393 103.739 123.834L103.216 124.02L100.667 124.922C100.035 125.146 99.2296 125.604 98.5493 125.521C98.2162 125.48 97.9623 125.375 97.7663 125.184C98.001 128.502 98.3189 131.814 98.7424 135.109C99.1278 138.107 99.5551 141.101 100.06 144.081C100.31 145.557 100.566 147.031 100.845 148.502C100.985 149.237 101.129 149.971 101.277 150.705C101.351 151.071 101.439 151.437 101.497 151.806C101.562 152.229 101.446 152.489 101.21 152.837C101.017 153.122 100.629 153.269 100.315 153.072C99.8996 152.81 99.6827 152.584 99.5604 152.108C99.4492 151.676 99.3816 151.225 99.2956 150.787C99.1368 149.979 98.9833 149.17 98.8351 148.36C98.5253 146.666 98.2396 144.968 97.9846 143.265C97.0857 137.264 96.5153 131.214 96.2272 125.153C96.0851 122.163 96.0411 119.171 96.0664 116.178C96.0793 114.643 96.1293 113.105 96.2377 111.574C96.3475 110.025 96.5758 108.507 96.7797 106.973C96.7869 106.919 96.863 106.916 96.8662 106.973C96.9627 108.693 97.114 110.411 97.1882 112.136C97.259 113.781 97.29 115.429 97.3463 117.076C97.4202 119.24 97.5227 121.405 97.6584 123.569C97.9042 123.299 98.2746 123.144 98.6452 123.205C99.1821 123.092 99.7601 122.81 100.272 122.639L102.202 121.993C103.216 121.654 104.231 121.317 105.249 120.99C104.338 117.925 103.715 114.813 103.183 111.656L102.945 110.236C102.475 107.442 101.968 104.646 101.117 101.94C100.222 99.0945 98.8828 96.4493 97.1061 94.0539C95.3548 91.6931 93.224 89.6143 91.0303 87.67C89.1521 86.0055 87.1429 84.5027 85.2273 82.884C85.2473 82.9912 85.2516 83.1093 85.234 83.2391C84.8267 86.2237 83.2716 89.0032 81.1045 91.0705C76.7507 95.2237 70.306 96.0854 64.7336 94.1378C59.3434 92.254 54.5777 87.7924 52.8939 82.2714C52.8651 82.177 52.9915 82.1395 53.0422 82.2089C53.1356 82.337 53.2295 82.4652 53.3235 82.5933C53.3171 82.5424 53.3435 82.487 53.4063 82.4628C55.3708 81.7033 57.2999 80.6261 58.7725 79.1024C59.4903 78.3597 60.1167 77.5182 60.6112 76.6107C60.848 76.176 61.0608 75.7258 61.2305 75.2606L61.2737 75.1402C61.4794 74.5575 61.6513 73.9633 62.0808 73.5017Z" fill="black"/>
<path fill-rule="evenodd" clip-rule="evenodd" d="M87.2489 40.7829C86.8046 38.0858 88.2629 37.5263 87.2489 34.9625C84.9956 30.212 78.8547 30.4167 74.3484 30.0515C69.3222 29.8582 64.235 30.524 59.6015 32.5452C58.4947 33.028 57.4301 33.5957 56.4097 34.2407C55.5273 34.7986 55.6486 35.8592 56.205 36.4378C52.1929 42.1382 54.4876 49.7899 51.2864 55.7904C50.695 56.863 49.9128 57.8247 49.3988 58.9408C48.6175 60.6372 48.5674 63.0679 50.3393 64.1946C52.8349 65.5385 54.2275 62.8775 55.4538 66.735C61.5777 80.1849 73.8905 80.9424 85.5792 73.9301C86.5905 73.3657 87.6226 72.7278 88.3862 71.8411C90.1196 69.8839 89.9154 67.1315 89.9537 64.6874C89.9751 63.2551 89.9787 61.8226 89.9648 60.39C89.9102 54.5873 87.9935 46.5378 87.2489 40.7829Z" fill="#EEC1A2"/>
<path fill-rule="evenodd" clip-rule="evenodd" d="M62.353 24.652C69.4105 21.4399 77.4151 20.2218 85.1135 21.0207C88.9133 21.4145 92.6631 22.2592 96.2316 23.6314L96.5444 23.7527C97.4254 24.0929 98.3749 24.4306 99.0443 25.123C99.8235 25.9278 100.042 27.1447 99.4851 28.1388C99.0524 28.9113 98.2745 29.4654 97.4448 29.7611C97.7371 30.0012 98.0144 30.2691 98.2745 30.5681C98.7129 31.0692 98.7463 31.7838 98.2745 32.2781C97.3654 33.2306 96.1859 33.9198 94.9155 34.2501C95.0582 34.9417 94.9811 35.7072 94.675 36.3965C93.7966 38.3752 91.3224 38.611 89.4184 38.4935L89.3609 38.4898L89.255 39.7056C89.1986 40.3534 88.812 40.8556 88.1561 40.9549C88.1331 40.9584 88.1099 40.9607 88.087 40.9629C89.125 44.7293 89.7521 48.6121 90.331 52.472C90.6334 54.4869 90.9041 56.5065 91.1633 58.5274L91.2492 59.201C91.5254 61.3798 91.8706 63.5804 91.9903 65.7753C92.0973 67.767 91.7188 69.6686 90.4955 71.2758C89.3977 72.7168 87.9006 73.7963 86.2907 74.5976C82.6533 76.409 78.8248 77.7577 74.8018 78.3835L74.5335 78.4249C72.9806 78.6628 71.3806 78.8632 69.8444 78.432C68.4947 78.0533 67.0792 77.0765 67.3841 75.5074C67.4866 74.9775 68.2253 74.9544 68.4785 75.3643L68.5369 75.4582C68.8405 75.9415 69.1732 76.3906 69.703 76.64C70.3231 76.9334 71.0423 77.0152 71.7201 77.0234C73.6131 77.0453 75.5843 76.572 77.407 76.0974C80.8109 75.2108 84.3069 73.7651 87.0951 71.5749C88.2815 70.6443 89.2343 69.4804 89.5703 67.9829C89.9857 66.1367 89.6037 64.1185 89.415 62.263C89.0266 58.4344 88.5644 54.613 88.0767 50.7957L87.9789 50.0324C87.5682 46.841 87.1366 43.6486 86.9317 40.4388C86.8465 40.3222 86.789 40.1894 86.766 40.0439L86.7339 39.8349C86.7061 39.656 86.7015 39.492 86.7211 39.3408C86.7223 38.7612 86.7384 38.185 86.7717 37.6053C86.7774 37.5015 86.7821 37.3976 86.7855 37.2948C86.1849 37.4276 85.5796 37.535 84.972 37.6262C80.7005 38.2716 76.3622 38.4333 72.0561 38.1123C69.9077 37.9517 67.7755 37.6758 65.65 37.3306C64.5682 37.1551 63.49 36.9611 62.4153 36.7441C61.6385 36.5882 60.8779 36.3769 60.1138 36.1783C59.3255 37.3295 58.8998 38.7461 58.9826 40.1374C59.0758 41.725 60.1299 43.1648 59.8342 44.787C59.5566 46.3052 58.2603 46.7759 56.9804 47.1519L56.4361 47.3097C56.0173 47.4324 55.7132 47.5508 55.6374 48.0557C55.5074 48.9228 55.6673 49.8984 55.7007 50.7701C55.741 51.8012 55.7938 52.8323 55.8181 53.8633C55.8307 54.3967 55.8513 54.9325 55.8503 55.4659C55.8492 55.8446 55.7928 56.1032 55.6466 56.3479C55.7594 56.49 55.8605 56.6436 55.9504 56.8064C55.9792 56.8595 55.9078 56.916 55.8654 56.8722C55.7513 56.7533 55.6304 56.6459 55.5028 56.5499C55.4383 56.6297 55.3635 56.7106 55.276 56.7971L55.2692 56.7879C54.9953 57.0616 54.5603 57.0881 54.2207 56.7971L54.1316 56.7197C53.8831 56.5011 53.7123 56.319 53.6432 55.9578C53.6397 55.9393 53.6362 55.9208 53.634 55.9023C53.0022 55.8804 52.3601 56.0304 51.7917 56.3457C50.8906 56.8456 50.2566 57.558 49.8816 58.4378C50.031 58.6133 50.2059 58.7704 50.4096 58.902C50.4384 58.9216 50.4131 58.9643 50.382 58.9493C50.1737 58.8512 49.9873 58.7299 49.8204 58.5879C49.6858 58.9343 49.5915 59.3061 49.5339 59.6998C49.3314 61.0899 49.6927 62.7884 50.9447 63.5804C51.4867 63.9233 52.1058 64.1092 52.7479 64.1115C53.0608 64.1126 53.3313 64.0596 53.6351 63.9845C53.8411 63.9337 54.046 63.8598 54.2611 63.8598C54.4453 63.8598 54.6156 63.906 54.7732 63.9984L54.7295 64.0022C54.6232 64.0122 54.6437 64.0167 54.7916 64.0167C55.2519 64.0365 55.5153 64.5053 55.3037 64.9128L55.2759 64.9758C55.2701 64.9885 55.2651 64.999 55.2612 65.0074L55.2445 65.1155C55.2429 65.1258 55.2411 65.1364 55.2393 65.1472L55.2329 65.1691C55.2317 65.1726 55.2304 65.1761 55.2289 65.1795L55.9192 66.2358C56.7656 67.528 57.6309 68.8151 58.6155 69.9954C59.306 70.8232 60.0378 71.6349 60.8111 72.3865C61.5062 73.062 62.3393 73.3876 63.1264 73.9187C63.5465 74.2004 63.6696 74.7904 63.2876 75.1703C62.1667 76.2868 60.5798 75.4 59.6604 74.4925C58.7904 73.6324 58.039 72.5978 57.3911 71.5622C56.2416 69.7206 55.3267 67.7624 54.9263 65.6368C54.7594 65.7903 54.5465 65.8862 54.3313 65.9612C53.8998 66.1113 53.4246 66.1736 52.9689 66.1898C52.0955 66.2187 51.2209 66.0062 50.4349 65.6298C47.237 64.1 46.7675 59.5185 48.7226 56.8168C48.459 56.0497 48.3118 55.2174 48.1518 54.5077L48.079 54.1904C47.2705 50.6466 46.7278 46.9155 48.1611 43.4431C48.3452 42.9951 48.5523 42.5586 48.7974 42.1407C48.9942 41.8047 49.3325 41.4468 49.4257 41.0646C49.6329 40.2252 48.3544 39.3431 47.9816 38.6769C47.5431 37.8952 47.481 36.9727 48.0782 36.2579C48.1542 36.1679 48.2369 36.0847 48.3268 36.0121C47.7606 34.9822 47.7342 33.6867 48.4798 32.6706C48.9701 32.001 49.718 31.5322 50.5351 31.3902C51.0345 31.3036 51.6352 31.3359 52.1841 31.4906C55.1897 28.6907 58.619 26.3515 62.353 24.652ZM50.8112 59.686C51.6134 58.9759 52.4994 58.6041 53.5926 58.6976C54.6916 58.7922 56.0149 59.2484 56.6604 60.194C57.1703 60.941 56.1311 62.0367 55.3832 61.4756C54.7019 60.9641 54.2473 60.3868 53.4016 60.112C52.642 59.8661 51.7018 59.7079 50.9067 59.8488C50.8192 59.8638 50.7319 59.7552 50.8112 59.686Z" fill="black"/>
<path fill-rule="evenodd" clip-rule="evenodd" d="M78.1372 70.0761C77.362 69.7595 76.6703 69.2313 76.1647 68.5566C75.9889 68.3221 75.9433 68.0744 75.9802 67.8478C76.0216 67.5931 76.1721 67.3623 76.3774 67.2074C76.5833 67.0521 76.8409 66.9755 77.0899 67.0145C77.3062 67.0484 77.5216 67.1671 77.6921 67.4131L77.7277 67.4623C78.0283 67.8695 78.4201 68.2036 78.8665 68.419C79.2967 68.6265 79.7779 68.7234 80.2758 68.6671C81.2241 68.5598 81.8778 68.0463 82.5725 67.349C82.6587 67.2609 82.7448 67.1701 82.8314 67.0779C82.8861 66.9942 82.962 66.9405 83.0462 66.9123C83.1398 66.881 83.2456 66.8827 83.3426 66.9166C83.436 66.9493 83.5196 67.0112 83.5757 67.0935C83.6289 67.1718 83.6591 67.2686 83.6493 67.3798C83.5857 68.1025 83.2084 68.7475 82.6723 69.2539C82.077 69.8164 81.2879 70.2055 80.5449 70.3419C79.7264 70.4923 78.8924 70.3846 78.1372 70.0761ZM80.9311 58.9274C81.8019 59.4573 83.1287 60.6931 82.1919 62.007C81.0892 63.1654 79.5016 61.8372 78.7193 61.2364C77.9938 60.7709 77.1788 61.9683 77.8518 62.5119C83.5051 66.7025 85.7993 59.0659 81.3715 58.3043C80.884 58.2203 80.7029 58.7634 80.9311 58.9274ZM70.8004 54.0526C70.8966 52.8568 72.7154 52.5853 72.8964 53.7685C73.0584 54.8285 72.8676 55.8021 72.3908 56.7564C71.9352 57.6681 70.79 57.2427 70.7034 56.4126C70.5873 55.2998 70.7405 54.7964 70.8004 54.0526ZM84.6457 53.5232C84.8993 53.1907 85.2654 52.9637 85.7041 53.0919C87.0747 53.4929 86.6707 55.4411 86.1894 56.3894C85.9278 56.9043 85.0824 57.0349 84.7004 56.5815C84.0777 55.8421 83.7795 54.3655 84.5711 53.6371C84.5926 53.5995 84.6164 53.5615 84.6457 53.5232ZM72.3715 48.8204L72.588 48.7825C73.2577 48.6665 74.0905 48.555 74.5643 49.0941C74.8155 49.38 74.902 49.9114 74.5643 50.185C73.9701 50.6665 73.3133 50.4799 72.6013 50.5207C72.0146 50.5544 71.4507 50.6516 70.8855 50.8133C69.6456 51.1682 68.6354 51.8159 67.5764 52.5271C67.4374 52.6204 67.2956 52.4425 67.3619 52.3124C67.9732 51.1135 69.1579 50.1288 70.3445 49.5285C70.9778 49.2081 71.6708 48.9423 72.3715 48.8204ZM83.3964 48.2834L83.5621 48.3173C85.3653 48.6947 87.7081 49.4486 88.5621 51.222C88.5946 51.4728 88.5602 51.5265 88.5323 51.5616L88.523 51.5733C88.4999 51.6033 88.4815 51.6446 88.373 51.6788C88.3429 51.6716 88.3124 51.664 88.2817 51.6559C87.8903 51.5532 87.5806 51.4117 87.2808 51.2649L86.9557 51.1045C86.5785 50.9194 86.1981 50.741 85.7948 50.6092C84.9343 50.3282 84.0492 50.1303 83.1504 50.0246C82.9556 50.0017 82.768 49.9358 82.62 49.823C82.4795 49.7159 82.3722 49.5676 82.3233 49.3706C82.2599 49.1155 82.2781 48.9224 82.4148 48.6923C82.5175 48.5195 82.6646 48.3997 82.8334 48.3309C83.0056 48.2608 83.2016 48.2443 83.3964 48.2834Z" fill="black"/>
</svg>
